# Blender 5.2.0 LTS
# www.blender.org
mtllib mesaZ.mtl
o ID6
v -0.905551 0.008634 0.192748
v -0.708551 0.008634 0.853748
v -0.905551 0.008634 0.853748
v -0.708551 0.008634 0.192748
v -0.905551 0.008634 0.853748
v -0.905551 0.008634 0.192748
v -0.708551 0.008634 0.192748
v -0.708551 0.008634 0.853748
v -0.907051 0.010134 0.192748
v -0.905551 0.008634 0.853748
v -0.907051 0.010134 0.853748
v -0.905551 0.008634 0.192748
v -0.907051 0.010134 0.853748
v -0.907051 0.010134 0.192748
v -0.905551 0.010134 0.191248
v -0.708551 0.008634 0.192748
v -0.708551 0.010134 0.191248
v -0.905551 0.010134 0.191248
v -0.708551 0.010134 0.191248
v -0.707051 0.010134 0.853748
v -0.708551 0.008634 0.853748
v -0.707051 0.010134 0.192748
v -0.707051 0.010134 0.192748
v -0.707051 0.010134 0.853748
v -0.708551 0.010134 0.855248
v -0.905551 0.010134 0.855248
v -0.708551 0.010134 0.855248
v -0.905551 0.010134 0.855248
v -0.907051 0.025134 0.192748
v -0.907051 0.010134 0.853748
v -0.907051 0.025134 0.853748
v -0.907051 0.010134 0.192748
v -0.907051 0.025134 0.853748
v -0.907051 0.025134 0.192748
v -0.905551 0.025134 0.191248
v -0.708551 0.010134 0.191248
v -0.905551 0.010134 0.191248
v -0.708551 0.025134 0.191248
v -0.708551 0.025134 0.191248
v -0.905551 0.025134 0.191248
v -0.707051 0.010134 0.192748
v -0.707051 0.025134 0.853748
v -0.707051 0.010134 0.853748
v -0.707051 0.025134 0.192748
v -0.707051 0.025134 0.853748
v -0.707051 0.025134 0.192748
v -0.708551 0.025134 0.855248
v -0.905551 0.010134 0.855248
v -0.708551 0.010134 0.855248
v -0.905551 0.025134 0.855248
v -0.708551 0.025134 0.855248
v -0.905551 0.025134 0.855248
v -0.905551 0.025134 0.855248
v -0.907051 0.025134 0.853748
v -0.905551 0.026634 0.192748
v -0.905551 0.026634 0.853748
v -0.907051 0.025134 0.192748
v -0.905551 0.026634 0.853748
v -0.905551 0.026634 0.192748
v -0.905551 0.025134 0.191248
v -0.708551 0.025134 0.191248
v -0.708551 0.026634 0.192748
v -0.708551 0.026634 0.192748
v -0.707051 0.025134 0.192748
v -0.708551 0.025134 0.855248
v -0.707051 0.025134 0.853748
v -0.708551 0.026634 0.853748
v -0.708551 0.026634 0.853748
v -0.708551 0.026634 0.853748
v -0.905551 0.026634 0.192748
v -0.905551 0.026634 0.853748
v -0.708551 0.026634 0.192748
vn -0.0000 -1.0000 -0.0000
vn -0.7588 -0.4606 -0.4606
vn -0.4606 -0.7588 0.4605
vn -0.7588 -0.4606 0.4605
vn -0.4606 -0.7588 -0.4606
vn -0.4605 -0.4605 -0.7588
vn 0.4606 -0.7588 -0.4606
vn 0.4605 -0.4605 -0.7588
vn 0.7588 -0.4606 0.4605
vn 0.4606 -0.7588 0.4606
vn 0.7588 -0.4606 -0.4606
vn 0.4606 -0.4606 0.7588
vn -0.4606 -0.4606 0.7588
vn -1.0000 -0.0000 -0.0000
vn -0.0000 -0.0000 -1.0000
vn 1.0000 -0.0000 -0.0000
vn -0.0000 -0.0000 1.0000
vn -0.4606 0.4606 0.7588
vn -0.7588 0.4606 0.4606
vn -0.4606 0.7588 -0.4606
vn -0.4606 0.7588 0.4606
vn -0.7588 0.4606 -0.4606
vn -0.4605 0.4605 -0.7588
vn 0.4605 0.4605 -0.7588
vn 0.4606 0.7588 -0.4606
vn 0.7588 0.4606 -0.4606
vn 0.4606 0.4606 0.7588
vn 0.7588 0.4606 0.4605
vn 0.4606 0.7588 0.4605
vn -0.0000 1.0000 -0.0000
vt -0.001685 0.744382
vt -0.223034 0.001685
vt -0.001685 0.001685
vt -0.223034 0.744382
vt -0.744382 0.001685
vt -0.746765 -0.741011
vt -0.744382 -0.741011
vt -0.746765 0.001685
vt -0.001685 0.528741
vt -0.223034 0.526358
vt -0.001685 0.526358
vt -0.223034 0.528741
vt -0.746765 -1.527528
vt -0.744382 -0.784832
vt -0.746765 -0.784832
vt -0.744382 -1.527528
vt 0.223034 0.001192
vt 0.001685 -0.001192
vt 0.223034 -0.001192
vt 0.001685 0.001192
vt -0.001192 0.000688
vt 0.000000 -0.001376
vt 0.001192 0.000688
vt -0.727528 0.001685
vt -0.727528 -0.741011
vt -0.528741 0.305269
vt -0.527549 0.303205
vt -0.526358 0.305269
vt -0.001685 0.018539
vt -0.223034 0.018539
vt 0.369841 0.397010
vt 0.367457 0.397010
vt 0.368649 0.394946
vt -0.727528 -0.784832
vt -0.727528 -1.527528
vt 0.160092 0.092429
vt 0.157709 0.092429
vt 0.158900 0.090365
vt 0.223034 0.018539
vt 0.001685 0.001685
vt 0.223034 0.001685
vt 0.001685 0.018539
vt 0.001192 0.018539
vt -0.001192 0.001685
vt 0.001192 0.001685
vt -0.001192 0.018539
vt -0.725145 0.001685
vt -0.725145 -0.741011
vt -0.528741 0.018539
vt -0.526358 0.001685
vt -0.526358 0.018539
vt -0.528741 0.001685
vt -0.001685 -0.512057
vt -0.223034 -0.514440
vt -0.001685 -0.514440
vt -0.223034 -0.512057
vt 0.369841 0.001685
vt 0.367457 0.018539
vt 0.367457 0.001685
vt 0.369841 0.018539
vt 0.160092 0.001685
vt 0.157709 0.018539
vt 0.157709 0.001685
vt 0.160092 0.018539
vt -0.725145 -1.527528
vt -0.725145 -0.784832
vt 0.223034 0.015493
vt 0.001685 0.013109
vt 0.223034 0.013109
vt 0.001685 0.015493
vt 0.000000 0.017890
vt -0.001192 0.015825
vt 0.001192 0.015825
vt 0.001685 0.744382
vt 0.223034 0.744382
vt -0.528741 -0.288755
vt -0.526358 -0.288755
vt -0.527549 -0.286691
vt 0.369841 -0.380497
vt 0.368649 -0.378432
vt 0.367457 -0.380497
vt 0.160092 -0.075916
vt 0.158900 -0.073852
vt 0.157709 -0.075916
s 0
usemtl ID7
f 1/1/1 2/2/1 3/3/1
f 2/2/1 1/1/1 4/4/1
s 1
f 9/5/2 10/6/3 11/7/4
f 10/6/3 9/5/2 12/8/5
f 15/9/6 16/10/7 12/11/5
f 16/10/7 15/9/6 17/12/8
f 16/13/7 20/14/9 21/15/10
f 20/14/9 16/13/7 22/16/11
f 25/17/12 10/18/3 21/19/10
f 10/18/3 25/17/12 26/20/13
f 11/21/4 10/22/3 26/23/13
s 0
f 29/24/14 30/7/14 31/25/14
f 30/7/14 29/24/14 32/5/14
s 1
f 15/26/6 12/27/5 9/28/2
s 0
f 35/29/15 36/2/15 37/3/15
f 36/2/15 35/29/15 38/30/15
s 1
f 17/31/8 22/32/11 16/33/7
s 0
f 41/16/16 42/34/16 43/14/16
f 42/34/16 41/16/16 44/35/16
s 1
f 20/36/9 25/37/12 21/38/10
s 0
f 47/39/17 48/40/17 49/41/17
f 48/40/17 47/39/17 50/42/17
s 1
f 53/43/18 11/44/4 26/45/13
f 11/44/4 53/43/18 54/46/19
f 55/47/20 54/25/19 56/48/21
f 54/25/19 55/47/20 57/24/22
f 60/49/23 9/50/2 57/51/22
f 9/50/2 60/49/23 15/52/6
f 55/53/20 61/54/24 60/55/23
f 61/54/24 55/53/20 62/56/25
f 17/57/8 64/58/26 22/59/11
f 64/58/26 17/57/8 61/60/24
f 20/61/9 65/62/27 25/63/12
f 65/62/27 20/61/9 66/64/28
f 66/34/28 62/65/25 67/66/29
f 62/65/25 66/34/28 64/35/26
f 67/67/29 53/68/18 65/69/27
f 53/68/18 67/67/29 56/70/21
f 56/71/21 54/72/19 53/73/18
s 0
f 69/41/30 70/74/30 71/40/30
f 70/74/30 69/41/30 72/75/30
s 1
f 60/76/23 57/77/22 55/78/20
f 61/79/24 62/80/25 64/81/26
f 66/82/28 67/83/29 65/84/27
o ID22
v -0.708551 0.757134 0.873248
v -0.905551 0.010134 0.873248
v -0.708551 0.010134 0.873248
v -0.905551 0.757134 0.873248
v -0.905551 0.010134 0.873248
v -0.708551 0.010134 0.873248
v -0.708551 0.757134 0.873248
v -0.905551 0.757134 0.873248
v -0.708551 0.010134 0.873248
v -0.905551 0.008634 0.871748
v -0.708551 0.008634 0.871748
v -0.905551 0.010134 0.873248
v -0.905551 0.008634 0.871748
v -0.708551 0.008634 0.871748
v -0.707051 0.757134 0.871748
v -0.708551 0.757134 0.873248
v -0.707051 0.010134 0.871748
v -0.707051 0.010134 0.871748
v -0.707051 0.757134 0.871748
v -0.708551 0.758634 0.871748
v -0.905551 0.757134 0.873248
v -0.905551 0.758634 0.871748
v -0.708551 0.758634 0.871748
v -0.905551 0.758634 0.871748
v -0.907051 0.757134 0.871748
v -0.907051 0.010134 0.871748
v -0.907051 0.757134 0.871748
v -0.907051 0.010134 0.871748
v -0.708551 0.008634 0.856748
v -0.905551 0.008634 0.871748
v -0.905551 0.008634 0.856748
v -0.708551 0.008634 0.871748
v -0.905551 0.008634 0.856748
v -0.708551 0.008634 0.856748
v -0.707051 0.010134 0.871748
v -0.707051 0.757134 0.856748
v -0.707051 0.757134 0.871748
v -0.707051 0.010134 0.856748
v -0.707051 0.757134 0.856748
v -0.707051 0.010134 0.856748
v -0.905551 0.758634 0.871748
v -0.708551 0.758634 0.856748
v -0.905551 0.758634 0.856748
v -0.708551 0.758634 0.871748
v -0.708551 0.758634 0.856748
v -0.905551 0.758634 0.856748
v -0.907051 0.757134 0.856748
v -0.907051 0.010134 0.871748
v -0.907051 0.757134 0.871748
v -0.907051 0.010134 0.856748
v -0.907051 0.010134 0.856748
v -0.907051 0.757134 0.856748
v -0.907051 0.010134 0.856748
v -0.905551 0.008634 0.856748
v -0.905551 0.010134 0.855248
v -0.708551 0.008634 0.856748
v -0.708551 0.010134 0.855248
v -0.905551 0.010134 0.855248
v -0.708551 0.010134 0.855248
v -0.707051 0.010134 0.856748
v -0.708551 0.757134 0.855248
v -0.707051 0.757134 0.856748
v -0.708551 0.757134 0.855248
v -0.708551 0.758634 0.856748
v -0.905551 0.758634 0.856748
v -0.905551 0.757134 0.855248
v -0.905551 0.757134 0.855248
v -0.907051 0.757134 0.856748
v -0.905551 0.757134 0.855248
v -0.708551 0.010134 0.855248
v -0.905551 0.010134 0.855248
v -0.708551 0.757134 0.855248
vn -0.0000 -0.0000 1.0000
vn 0.4606 -0.4606 0.7588
vn -0.4606 -0.7588 0.4605
vn 0.4606 -0.7588 0.4606
vn -0.4606 -0.4606 0.7588
vn 0.7588 0.4605 0.4605
vn 0.4606 0.4606 0.7588
vn 0.7588 -0.4606 0.4606
vn 0.4606 0.7588 0.4606
vn -0.4605 0.4605 0.7588
vn -0.4606 0.7588 0.4606
vn -0.7588 0.4605 0.4606
vn -0.7588 -0.4606 0.4605
vn -0.0000 -1.0000 -0.0000
vn 1.0000 -0.0000 -0.0000
vn -0.0000 1.0000 -0.0000
vn -1.0000 -0.0000 -0.0000
vn -0.7588 -0.4606 -0.4605
vn -0.4606 -0.7588 -0.4606
vn -0.4606 -0.4606 -0.7588
vn 0.4606 -0.7588 -0.4606
vn 0.4606 -0.4606 -0.7588
vn 0.7588 -0.4606 -0.4605
vn 0.4606 0.4605 -0.7588
vn 0.7588 0.4605 -0.4606
vn 0.4606 0.7588 -0.4606
vn -0.4606 0.7588 -0.4606
vn -0.4605 0.4605 -0.7588
vn -0.7588 0.4605 -0.4606
vn -0.0000 -0.0000 -1.0000
vt -0.223034 -0.841011
vt -0.001685 -0.001685
vt -0.223034 -0.001685
vt -0.001685 -0.841011
vt -0.001685 0.000698
vt -0.223034 0.000698
vt -0.225417 -0.841011
vt -0.225417 -0.001685
vt -0.223034 -0.843395
vt -0.001685 -0.843395
vt 0.000698 -0.841011
vt 0.000698 -0.001685
vt -0.223034 0.017552
vt -0.001685 0.017552
vt -0.225098 -0.000494
vt 0.000379 -0.000494
vt -0.242271 -0.841011
vt -0.242271 -0.001685
vt -0.225098 -0.842203
vt -0.223034 -0.860249
vt -0.001685 -0.860249
vt 0.000379 -0.842203
vt 0.017552 -0.841011
vt 0.017552 -0.001685
vt 0.018539 -0.000204
vt 0.001685 0.002179
vt 0.001685 -0.000204
vt 0.018539 0.002179
vt 0.001685 -0.001685
vt 0.223034 0.000698
vt 0.001685 0.000698
vt 0.223034 -0.001685
vt -0.242271 0.000698
vt -0.225417 0.000698
vt 0.223034 -0.841011
vt 0.225417 -0.001685
vt 0.225417 -0.841011
vt -0.225417 -0.860249
vt -0.225417 -0.843395
vt -0.223034 -0.862632
vt -0.001685 -0.862632
vt 0.017552 -0.843395
vt 0.000698 -0.843395
vt -0.000698 -0.841011
vt -0.000698 -0.001685
vt 0.001685 -0.841011
vt 0.020604 0.000987
vt 0.145791 -0.100067
vt 0.144599 -0.098003
vt 0.143408 -0.100067
vt 0.144599 -0.588819
vt 0.145791 -0.586754
vt 0.143408 -0.586754
vt 0.019616 -0.842203
s 0
usemtl ID7
f 73/85/31 74/86/31 75/87/31
f 74/86/31 73/85/31 76/88/31
s 1
f 81/87/32 82/89/33 83/90/34
f 82/89/33 81/87/32 84/86/35
f 81/87/32 87/91/36 88/85/37
f 87/91/36 81/87/32 89/92/38
f 92/93/39 93/88/40 88/85/37
f 93/88/40 92/93/39 94/94/41
f 97/95/42 84/86/35 93/88/40
f 84/86/35 97/95/42 98/96/43
s 0
f 101/97/44 102/89/44 103/98/44
f 102/89/44 101/97/44 104/90/44
s 1
f 89/99/38 81/87/32 83/90/34
f 98/100/43 82/89/33 84/86/35
s 0
f 107/92/45 108/101/45 109/91/45
f 108/101/45 107/92/45 110/102/45
s 1
f 92/93/39 88/85/37 87/103/36
s 0
f 113/94/46 114/104/46 115/105/46
f 114/104/46 113/94/46 116/93/46
s 1
f 97/106/42 93/88/40 94/94/41
s 0
f 119/107/47 120/96/47 121/95/47
f 120/96/47 119/107/47 122/108/47
s 1
f 125/109/48 82/110/33 98/111/43
f 82/110/33 125/109/48 126/112/49
f 127/113/50 128/114/51 126/115/49
f 128/114/51 127/113/50 129/116/52
f 128/117/51 89/92/38 83/118/34
f 89/92/38 128/117/51 132/102/53
f 133/119/54 132/120/53 129/116/52
f 132/120/53 133/119/54 134/121/55
f 134/122/55 92/93/39 87/123/36
f 92/93/39 134/122/55 136/104/56
f 137/105/57 133/124/54 138/125/58
f 133/124/54 137/105/57 136/104/56
f 137/126/57 97/95/42 94/127/41
f 97/95/42 137/126/57 140/107/59
f 140/128/59 127/113/50 125/129/48
f 127/113/50 140/128/59 138/130/58
f 127/131/50 126/112/49 125/109/48
s 0
f 141/130/60 142/116/60 143/113/60
f 142/116/60 141/130/60 144/119/60
s 1
f 132/132/53 128/133/51 129/134/52
f 136/135/56 134/136/55 133/137/54
f 137/126/57 138/138/58 140/107/59
o ID31
v -0.905551 0.757134 0.173248
v -0.708551 0.757134 0.173248
v -0.905551 0.010134 0.173248
v -0.708551 0.010134 0.173248
v -0.905551 0.010134 0.173248
v -0.708551 0.010134 0.173248
v -0.708551 0.757134 0.173248
v -0.905551 0.757134 0.173248
v -0.905551 0.010134 0.173248
v -0.708551 0.010134 0.173248
v -0.905551 0.008634 0.174748
v -0.708551 0.008634 0.174748
v -0.905551 0.008634 0.174748
v -0.708551 0.008634 0.174748
v -0.707051 0.010134 0.174748
v -0.707051 0.757134 0.174748
v -0.708551 0.757134 0.173248
v -0.707051 0.010134 0.174748
v -0.707051 0.757134 0.174748
v -0.905551 0.758634 0.174748
v -0.708551 0.758634 0.174748
v -0.905551 0.757134 0.173248
v -0.708551 0.758634 0.174748
v -0.905551 0.758634 0.174748
v -0.907051 0.010134 0.174748
v -0.907051 0.757134 0.174748
v -0.907051 0.757134 0.174748
v -0.907051 0.010134 0.174748
v -0.708551 0.008634 0.174748
v -0.708551 0.008634 0.189748
v -0.905551 0.008634 0.174748
v -0.905551 0.008634 0.189748
v -0.905551 0.008634 0.189748
v -0.708551 0.008634 0.189748
v -0.707051 0.010134 0.189748
v -0.707051 0.010134 0.174748
v -0.707051 0.757134 0.189748
v -0.707051 0.757134 0.174748
v -0.707051 0.757134 0.189748
v -0.707051 0.010134 0.189748
v -0.708551 0.758634 0.174748
v -0.905551 0.758634 0.174748
v -0.708551 0.758634 0.189748
v -0.905551 0.758634 0.189748
v -0.708551 0.758634 0.189748
v -0.905551 0.758634 0.189748
v -0.907051 0.010134 0.189748
v -0.907051 0.757134 0.189748
v -0.907051 0.010134 0.174748
v -0.907051 0.757134 0.174748
v -0.907051 0.010134 0.189748
v -0.907051 0.757134 0.189748
v -0.905551 0.008634 0.189748
v -0.907051 0.010134 0.189748
v -0.708551 0.010134 0.191248
v -0.905551 0.010134 0.191248
v -0.708551 0.008634 0.189748
v -0.905551 0.010134 0.191248
v -0.708551 0.010134 0.191248
v -0.707051 0.010134 0.189748
v -0.707051 0.757134 0.189748
v -0.708551 0.757134 0.191248
v -0.708551 0.757134 0.191248
v -0.708551 0.758634 0.189748
v -0.905551 0.758634 0.189748
v -0.905551 0.757134 0.191248
v -0.905551 0.757134 0.191248
v -0.907051 0.757134 0.189748
v -0.708551 0.757134 0.191248
v -0.905551 0.757134 0.191248
v -0.708551 0.010134 0.191248
v -0.905551 0.010134 0.191248
vn -0.0000 -0.0000 1.0000
vn 0.4606 0.4606 0.7588
vn 0.4606 0.7588 0.4606
vn -0.4606 0.4606 0.7588
vn -0.4606 0.7588 0.4606
vn -0.7588 0.4606 0.4606
vn -0.7588 -0.4606 0.4605
vn -0.4606 -0.4605 0.7588
vn 0.4606 -0.7588 0.4606
vn 0.4606 -0.4605 0.7588
vn -0.4606 -0.7588 0.4606
vn 0.7588 0.4606 0.4606
vn 0.7588 -0.4605 0.4605
vn -0.0000 1.0000 -0.0000
vn -1.0000 -0.0000 -0.0000
vn -0.0000 -1.0000 -0.0000
vn 1.0000 -0.0000 -0.0000
vn 0.4606 0.7588 -0.4606
vn 0.7588 0.4606 -0.4606
vn -0.4606 0.4606 -0.7588
vn -0.4606 0.7588 -0.4606
vn 0.4606 0.4606 -0.7588
vn -0.7588 0.4606 -0.4605
vn -0.7588 -0.4605 -0.4606
vn -0.4605 -0.4605 -0.7588
vn -0.4606 -0.7588 -0.4606
vn 0.4606 -0.7588 -0.4606
vn 0.4606 -0.4605 -0.7588
vn 0.7588 -0.4605 -0.4605
vn -0.0000 -0.0000 -1.0000
vt -0.001685 -0.841011
vt -0.001685 -0.001685
vt -0.223034 -0.841011
vt -0.223034 -0.001685
vt -0.001685 0.000698
vt -0.223034 0.000698
vt -0.225417 -0.001685
vt -0.225417 -0.841011
vt -0.001685 -0.843395
vt -0.223034 -0.843395
vt 0.000698 -0.001685
vt 0.000698 -0.841011
vt -0.223034 0.017552
vt -0.001685 0.017552
vt -0.225098 -0.000494
vt 0.000379 -0.000494
vt -0.242271 -0.001685
vt -0.242271 -0.841011
vt -0.225098 -0.842203
vt -0.223034 -0.860249
vt -0.001685 -0.860249
vt 0.000379 -0.842203
vt 0.017552 -0.001685
vt 0.017552 -0.841011
vt 0.018539 0.002179
vt 0.001685 0.002179
vt 0.018539 -0.000204
vt 0.001685 -0.000204
vt 0.223034 -0.001685
vt 0.223034 0.000698
vt 0.001685 -0.001685
vt 0.001685 0.000698
vt -0.242271 0.000698
vt -0.225417 0.000698
vt 0.225417 -0.841011
vt 0.225417 -0.001685
vt 0.223034 -0.841011
vt -0.225417 -0.860249
vt -0.225417 -0.843395
vt -0.223034 -0.862632
vt -0.001685 -0.862632
vt 0.017552 -0.843395
vt 0.000698 -0.843395
vt 0.001685 -0.841011
vt -0.000698 -0.841011
vt -0.000698 -0.001685
vt 0.020604 0.000987
vt 0.143408 -0.100067
vt 0.145791 -0.100067
vt 0.144599 -0.098003
vt 0.143408 -0.586754
vt 0.144599 -0.588819
vt 0.145791 -0.586754
vt 0.019616 -0.842203
s 0
usemtl ID7
f 145/139/61 147/140/61 146/141/61
f 148/142/61 146/141/61 147/140/61
s 1
f 153/140/62 155/143/63 154/142/64
f 156/144/65 154/142/64 155/143/63
f 159/145/66 160/146/67 154/142/64
f 161/141/68 154/142/64 160/146/67
f 164/147/69 166/139/70 165/148/71
f 161/141/68 165/148/71 166/139/70
f 169/149/72 153/140/62 170/150/73
f 166/139/70 170/150/73 153/140/62
s 0
f 173/144/74 175/143/74 174/151/74
f 176/152/74 174/151/74 175/143/74
s 1
f 156/144/65 159/153/66 154/142/64
f 153/140/62 169/154/72 155/143/63
s 0
f 179/155/75 181/156/75 180/145/75
f 182/146/75 180/145/75 181/156/75
s 1
f 160/157/67 165/148/71 161/141/68
s 0
f 185/148/76 187/158/76 186/147/76
f 188/159/76 186/147/76 187/158/76
s 1
f 164/147/69 170/160/73 166/139/70
s 0
f 191/161/77 193/149/77 192/162/77
f 194/150/77 192/162/77 193/149/77
s 1
f 197/163/78 155/164/63 198/165/79
f 169/166/72 198/165/79 155/164/63
f 199/167/80 201/168/81 200/169/82
f 197/170/78 200/169/82 201/168/81
f 204/155/83 159/145/66 201/171/81
f 156/172/65 201/171/81 159/145/66
f 205/173/84 204/174/83 206/175/85
f 199/167/80 206/175/85 204/174/83
f 208/158/86 165/148/71 205/176/84
f 160/177/67 205/176/84 165/148/71
f 208/158/86 206/178/85 209/159/87
f 210/179/88 209/159/87 206/178/85
f 212/162/89 170/150/73 209/180/87
f 164/181/69 209/180/87 170/150/73
f 210/182/88 200/169/82 212/183/89
f 198/184/79 212/183/89 200/169/82
f 198/165/79 200/185/82 197/163/78
s 0
f 213/175/90 215/167/90 214/182/90
f 216/169/90 214/182/90 215/167/90
s 1
f 199/186/80 204/187/83 201/188/81
f 206/189/85 208/190/86 205/191/84
f 212/162/89 209/180/87 210/192/88
o ID40
v -0.708551 0.739134 0.354062
v -0.905551 0.399383 0.538532
v -0.905551 0.739134 0.354062
v -0.708551 0.399383 0.538532
v -0.708551 0.399383 0.538532
v -0.905551 0.399383 0.538532
v -0.905551 0.739134 0.354062
v -0.708551 0.739134 0.354062
v -0.708551 0.398780 0.540566
v -0.905551 0.399383 0.538532
v -0.708551 0.399383 0.538532
v -0.905551 0.398780 0.540566
v -0.905551 0.398780 0.540566
v -0.708551 0.398780 0.540566
v -0.907051 0.739134 0.355769
v -0.907051 0.400099 0.539850
v -0.905551 0.739134 0.354062
v -0.907051 0.400099 0.539850
v -0.907051 0.739134 0.355769
v -0.905551 0.740634 0.354955
v -0.708551 0.739134 0.354062
v -0.708551 0.740634 0.354955
v -0.905551 0.740634 0.354955
v -0.708551 0.740634 0.354955
v -0.707051 0.400099 0.539850
v -0.707051 0.739134 0.355769
v -0.707051 0.739134 0.355769
v -0.707051 0.400099 0.539850
v -0.708551 0.405938 0.553748
v -0.905551 0.398780 0.540566
v -0.708551 0.398780 0.540566
v -0.905551 0.405938 0.553748
v -0.708551 0.405938 0.553748
v -0.905551 0.405938 0.553748
v -0.907051 0.739134 0.372838
v -0.907051 0.400099 0.539850
v -0.907051 0.407256 0.553033
v -0.907051 0.739134 0.355769
v -0.907051 0.407256 0.553033
v -0.907051 0.739134 0.372838
v -0.905551 0.740634 0.372023
v -0.708551 0.740634 0.354955
v -0.905551 0.740634 0.354955
v -0.708551 0.740634 0.372023
v -0.708551 0.740634 0.372023
v -0.905551 0.740634 0.372023
v -0.707051 0.739134 0.355769
v -0.707051 0.407256 0.553033
v -0.707051 0.400099 0.539850
v -0.707051 0.739134 0.372838
v -0.707051 0.739134 0.372838
v -0.707051 0.407256 0.553033
v -0.708551 0.405938 0.553748
v -0.707051 0.407256 0.553033
v -0.708551 0.407972 0.554351
v -0.905551 0.405938 0.553748
v -0.905551 0.407972 0.554351
v -0.708551 0.407972 0.554351
v -0.905551 0.407972 0.554351
v -0.907051 0.407256 0.553033
v -0.905551 0.739134 0.374545
v -0.907051 0.739134 0.372838
v -0.905551 0.739134 0.374545
v -0.905551 0.740634 0.372023
v -0.708551 0.740634 0.372023
v -0.707051 0.739134 0.372838
v -0.708551 0.739134 0.374545
v -0.708551 0.739134 0.374545
v -0.905551 0.407972 0.554351
v -0.708551 0.739134 0.374545
v -0.905551 0.739134 0.374545
v -0.708551 0.407972 0.554351
vn -0.0000 -0.4772 -0.8788
vn 0.4606 -0.8866 -0.0427
vn -0.4606 -0.7668 -0.4471
vn 0.4606 -0.7668 -0.4471
vn -0.4606 -0.8866 -0.0427
vn -0.8586 0.2621 -0.4405
vn -0.7588 -0.6245 -0.1850
vn -0.4948 0.2445 -0.8339
vn -0.4948 0.6162 -0.6127
vn 0.4949 0.2445 -0.8339
vn 0.4949 0.6162 -0.6127
vn 0.7588 -0.6245 -0.1850
vn 0.8587 0.2621 -0.4405
vn -0.0000 -0.8788 0.4772
vn -1.0000 -0.0000 -0.0000
vn -0.0000 1.0000 -0.0000
vn 1.0000 -0.0000 -0.0000
vn 0.4606 -0.4471 0.7668
vn 0.7588 -0.1850 0.6245
vn 0.4606 -0.0427 0.8866
vn -0.4606 -0.4471 0.7668
vn -0.4606 -0.0427 0.8866
vn -0.7588 -0.1850 0.6245
vn -0.4517 0.6623 0.5978
vn -0.6689 0.6388 0.3801
vn -0.4517 0.8413 0.2968
vn 0.4517 0.8413 0.2968
vn 0.6689 0.6388 0.3800
vn 0.4517 0.6623 0.5978
vn -0.0000 0.4772 0.8788
vt -0.223034 0.436068
vt -0.001685 0.001685
vt -0.001685 0.436068
vt -0.223034 0.001685
vt 0.223034 0.001192
vt 0.001685 -0.001192
vt 0.223034 -0.001192
vt 0.001685 0.001192
vt -0.435153 0.001192
vt -0.001685 -0.001192
vt -0.001685 0.001192
vt -0.436068 -0.001192
vt -0.001685 0.224920
vt -0.223034 0.222959
vt -0.001685 0.222959
vt -0.223034 0.224920
vt 0.436068 0.157709
vt 0.001685 0.160092
vt 0.001685 0.157709
vt 0.435153 0.160092
vt 0.223034 0.018539
vt 0.001685 0.001685
vt 0.223034 0.001685
vt 0.001685 0.018539
vt 0.000000 -0.001376
vt 0.001192 0.000688
vt -0.001192 0.000688
vt 0.160092 0.092429
vt 0.157709 0.092429
vt 0.158900 0.090365
vt -0.426002 0.018539
vt -0.001685 0.018539
vt -0.435153 0.001685
vt -0.329420 0.106576
vt -0.328667 0.104765
vt -0.326867 0.106576
vt -0.001685 -0.187893
vt -0.223034 -0.207071
vt -0.001685 -0.207071
vt -0.223034 -0.187893
vt 0.181077 0.168281
vt 0.178524 0.168281
vt 0.180324 0.166470
vt 0.435153 0.001685
vt 0.426002 0.018539
vt 0.160092 0.001685
vt 0.157709 0.018539
vt 0.157709 0.001685
vt 0.160092 0.018539
vt 0.223034 0.015493
vt 0.001685 0.013109
vt 0.223034 0.013109
vt 0.001685 0.015493
vt 0.001192 0.018539
vt -0.001192 0.001685
vt 0.001192 0.001685
vt -0.001192 0.018539
vt -0.001685 0.013109
vt -0.425087 0.015493
vt -0.426002 0.013109
vt -0.001685 0.015493
vt -0.322546 -0.077430
vt -0.326867 -0.095334
vt -0.319993 -0.077430
vt -0.329420 -0.095334
vt 0.178524 -0.152287
vt 0.174203 -0.134383
vt 0.171650 -0.134383
vt 0.181077 -0.152287
vt -0.001685 -0.354982
vt -0.223034 -0.358278
vt -0.001685 -0.358278
vt -0.223034 -0.354982
vt 0.001685 -0.143408
vt 0.426002 -0.145791
vt 0.425087 -0.143408
vt 0.001685 -0.145791
vt 0.158900 -0.073852
vt 0.157709 -0.075916
vt 0.160092 -0.075916
vt 0.223034 0.425087
vt 0.001685 0.425087
vt 0.000000 0.017890
vt -0.001192 0.015825
vt 0.001192 0.015825
vt -0.320418 -0.193967
vt -0.322546 -0.196485
vt -0.319993 -0.196485
vt 0.171650 -0.321874
vt 0.174203 -0.321874
vt 0.172075 -0.319356
s 0
usemtl ID7
f 217/193/91 218/194/91 219/195/91
f 218/194/91 217/193/91 220/196/91
s 1
f 225/197/92 226/198/93 227/199/94
f 226/198/93 225/197/92 228/200/95
f 231/201/96 226/202/93 232/203/97
f 226/202/93 231/201/96 233/204/98
f 236/205/99 237/206/100 233/207/98
f 237/206/100 236/205/99 238/208/101
f 237/209/100 241/210/102 227/211/94
f 241/210/102 237/209/100 242/212/103
s 0
f 245/213/104 246/214/104 247/215/104
f 246/214/104 245/213/104 248/216/104
s 1
f 226/217/93 228/218/95 232/219/97
f 241/220/102 225/221/92 227/222/94
s 0
f 251/223/105 252/194/105 253/224/105
f 252/194/105 251/223/105 254/225/105
s 1
f 236/226/99 233/227/98 231/228/96
s 0
f 257/229/106 258/230/106 259/231/106
f 258/230/106 257/229/106 260/232/106
s 1
f 238/233/101 242/234/103 237/235/100
s 0
f 263/236/107 264/216/107 265/214/107
f 264/216/107 263/236/107 266/237/107
s 1
f 241/238/102 269/239/108 225/240/92
f 269/239/108 241/238/102 270/241/109
f 271/242/110 272/243/111 269/244/108
f 272/243/111 271/242/110 273/245/112
f 272/246/111 232/247/97 228/248/95
f 232/247/97 272/246/111 276/249/113
f 276/250/113 277/251/114 278/252/115
f 277/251/114 276/250/113 273/253/112
f 280/254/116 231/255/96 278/256/115
f 231/255/96 280/254/116 236/257/99
f 242/258/103 281/259/117 282/260/118
f 281/259/117 242/258/103 238/261/101
f 277/262/114 281/263/117 280/264/116
f 281/263/117 277/262/114 283/265/119
f 271/266/110 282/267/118 283/268/119
f 282/267/118 271/266/110 270/269/109
f 271/270/110 269/271/108 270/272/109
s 0
f 285/214/120 286/273/120 287/274/120
f 286/273/120 285/214/120 288/215/120
s 1
f 273/275/112 276/276/113 272/277/111
f 277/278/114 280/279/116 278/280/115
f 282/281/118 281/282/117 283/283/119
o ID49
v -0.708551 0.758634 0.192748
v -0.905551 0.758634 0.192748
v -0.708551 0.758634 0.853748
v -0.905551 0.758634 0.853748
v -0.905551 0.758634 0.853748
v -0.905551 0.758634 0.192748
v -0.708551 0.758634 0.192748
v -0.708551 0.758634 0.853748
v -0.905551 0.758634 0.192748
v -0.907051 0.757134 0.192748
v -0.905551 0.758634 0.853748
v -0.907051 0.757134 0.853748
v -0.907051 0.757134 0.853748
v -0.907051 0.757134 0.192748
v -0.708551 0.757134 0.191248
v -0.905551 0.757134 0.191248
v -0.708551 0.758634 0.192748
v -0.905551 0.757134 0.191248
v -0.708551 0.757134 0.191248
v -0.707051 0.757134 0.192748
v -0.707051 0.757134 0.853748
v -0.708551 0.758634 0.853748
v -0.707051 0.757134 0.192748
v -0.707051 0.757134 0.853748
v -0.905551 0.757134 0.855248
v -0.708551 0.757134 0.855248
v -0.708551 0.757134 0.855248
v -0.905551 0.757134 0.855248
v -0.907051 0.757134 0.192748
v -0.907051 0.742134 0.192748
v -0.907051 0.757134 0.853748
v -0.907051 0.742134 0.853748
v -0.907051 0.742134 0.853748
v -0.907051 0.742134 0.192748
v -0.708551 0.742134 0.191248
v -0.905551 0.742134 0.191248
v -0.708551 0.757134 0.191248
v -0.905551 0.757134 0.191248
v -0.708551 0.742134 0.191248
v -0.905551 0.742134 0.191248
v -0.707051 0.742134 0.192748
v -0.707051 0.757134 0.192748
v -0.707051 0.742134 0.853748
v -0.707051 0.757134 0.853748
v -0.707051 0.742134 0.853748
v -0.707051 0.742134 0.192748
v -0.905551 0.742134 0.855248
v -0.708551 0.742134 0.855248
v -0.905551 0.757134 0.855248
v -0.708551 0.757134 0.855248
v -0.708551 0.742134 0.855248
v -0.905551 0.742134 0.855248
v -0.907051 0.742134 0.853748
v -0.905551 0.742134 0.855248
v -0.907051 0.742134 0.192748
v -0.905551 0.740634 0.192748
v -0.905551 0.740634 0.853748
v -0.905551 0.740634 0.853748
v -0.905551 0.740634 0.192748
v -0.905551 0.742134 0.191248
v -0.708551 0.740634 0.192748
v -0.708551 0.742134 0.191248
v -0.708551 0.740634 0.192748
v -0.707051 0.742134 0.192748
v -0.707051 0.742134 0.853748
v -0.708551 0.742134 0.855248
v -0.708551 0.740634 0.853748
v -0.708551 0.740634 0.853748
v -0.708551 0.740634 0.192748
v -0.708551 0.740634 0.853748
v -0.905551 0.740634 0.192748
v -0.905551 0.740634 0.853748
vn -0.0000 -1.0000 -0.0000
vn 0.4606 -0.7588 0.4606
vn 0.4606 -0.7588 -0.4606
vn 0.7588 -0.4606 0.4606
vn 0.7588 -0.4606 -0.4606
vn -0.4605 -0.4605 0.7588
vn -0.4606 -0.7588 0.4606
vn 0.4605 -0.4605 0.7588
vn -0.7588 -0.4606 0.4606
vn -0.7588 -0.4606 -0.4605
vn -0.4606 -0.7588 -0.4606
vn 0.4606 -0.4606 -0.7588
vn -0.4606 -0.4605 -0.7588
vn 1.0000 -0.0000 -0.0000
vn -0.0000 -0.0000 1.0000
vn -1.0000 -0.0000 -0.0000
vn -0.0000 -0.0000 -1.0000
vn 0.7588 0.4606 -0.4606
vn 0.4606 0.4605 -0.7588
vn 0.7588 0.4605 0.4606
vn 0.4606 0.7588 0.4606
vn 0.4606 0.7588 -0.4606
vn 0.4605 0.4605 0.7588
vn -0.4606 0.7588 0.4606
vn -0.4605 0.4605 0.7588
vn -0.7588 0.4606 0.4606
vn -0.7588 0.4605 -0.4606
vn -0.4606 0.4606 -0.7588
vn -0.4606 0.7588 -0.4605
vn -0.0000 1.0000 -0.0000
vt -0.223034 0.744382
vt -0.223034 0.001685
vt -0.001685 0.744382
vt -0.001685 0.001685
vt -0.746765 0.001685
vt -0.746765 -0.741011
vt -0.744382 0.001685
vt -0.744382 -0.741011
vt -0.223034 0.528741
vt -0.223034 0.526358
vt -0.001685 0.528741
vt -0.001685 0.526358
vt -0.744382 -1.527528
vt -0.744382 -0.784832
vt -0.746765 -1.527528
vt -0.746765 -0.784832
vt 0.001685 0.001192
vt 0.001685 -0.001192
vt 0.223034 0.001192
vt 0.223034 -0.001192
vt 0.001192 0.000688
vt -0.001192 0.000688
vt 0.000000 -0.001376
vt -0.727528 0.001685
vt -0.727528 -0.741011
vt -0.526358 0.305269
vt -0.528741 0.305269
vt -0.527549 0.303205
vt -0.223034 0.018539
vt -0.001685 0.018539
vt 0.368649 0.394946
vt 0.369841 0.397010
vt 0.367457 0.397010
vt -0.727528 -1.527528
vt -0.727528 -0.784832
vt 0.158900 0.090365
vt 0.160092 0.092429
vt 0.157709 0.092429
vt 0.001685 0.018539
vt 0.001685 0.001685
vt 0.223034 0.018539
vt 0.223034 0.001685
vt -0.001192 0.018539
vt -0.001192 0.001685
vt 0.001192 0.018539
vt 0.001192 0.001685
vt -0.725145 0.001685
vt -0.725145 -0.741011
vt -0.528741 0.001685
vt -0.526358 0.001685
vt -0.528741 0.018539
vt -0.526358 0.018539
vt -0.223034 -0.512057
vt -0.223034 -0.514440
vt -0.001685 -0.512057
vt -0.001685 -0.514440
vt 0.369841 0.018539
vt 0.367457 0.018539
vt 0.369841 0.001685
vt 0.367457 0.001685
vt 0.160092 0.018539
vt 0.157709 0.018539
vt 0.160092 0.001685
vt 0.157709 0.001685
vt -0.725145 -1.527528
vt -0.725145 -0.784832
vt 0.001685 0.015493
vt 0.001685 0.013109
vt 0.223034 0.015493
vt 0.223034 0.013109
vt 0.001192 0.015825
vt 0.000000 0.017890
vt -0.001192 0.015825
vt 0.223034 0.744382
vt 0.001685 0.744382
vt -0.527549 -0.286691
vt -0.528741 -0.288755
vt -0.526358 -0.288755
vt 0.367457 -0.380497
vt 0.369841 -0.380497
vt 0.368649 -0.378432
vt 0.157709 -0.075916
vt 0.160092 -0.075916
vt 0.158900 -0.073852
s 0
usemtl ID7
f 289/284/121 291/285/121 290/286/121
f 292/287/121 290/286/121 291/285/121
s 1
f 297/288/122 299/289/123 298/290/124
f 300/291/125 298/290/124 299/289/123
f 303/292/126 305/293/127 304/294/128
f 297/295/122 304/294/128 305/293/127
f 308/296/129 309/297/130 305/298/127
f 310/299/131 305/298/127 309/297/130
f 313/300/132 299/301/123 314/302/133
f 310/303/131 314/302/133 299/301/123
f 313/304/132 300/305/125 299/306/123
s 0
f 317/290/134 319/291/134 318/307/134
f 320/308/134 318/307/134 319/291/134
s 1
f 298/309/124 304/310/128 297/311/122
s 0
f 323/312/135 325/285/135 324/313/135
f 326/287/135 324/313/135 325/285/135
s 1
f 305/314/127 303/315/126 308/316/129
s 0
f 329/317/136 331/318/136 330/296/136
f 332/297/136 330/296/136 331/318/136
s 1
f 310/319/131 309/320/130 314/321/133
s 0
f 335/322/137 337/323/137 336/324/137
f 338/325/137 336/324/137 337/323/137
s 1
f 341/326/138 300/327/125 342/328/139
f 313/329/132 342/328/139 300/327/125
f 343/307/140 341/308/138 344/330/141
f 345/331/142 344/330/141 341/308/138
f 304/332/128 298/333/124 348/334/143
f 343/335/140 348/334/143 298/333/124
f 349/336/144 350/337/145 344/338/141
f 348/339/143 344/338/141 350/337/145
f 350/340/145 352/341/146 303/342/126
f 308/343/129 303/342/126 352/341/146
f 353/344/147 354/345/148 309/346/130
f 314/347/133 309/346/130 354/345/148
f 352/317/146 349/348/144 353/318/147
f 355/349/149 353/318/147 349/348/144
f 345/350/142 342/351/139 355/352/149
f 354/353/148 355/352/149 342/351/139
f 342/354/139 345/355/142 341/356/138
s 0
f 357/357/150 359/358/150 358/325/150
f 360/323/150 358/325/150 359/358/150
s 1
f 344/359/141 348/360/143 343/361/140
f 352/362/146 350/363/145 349/364/144
f 354/365/148 353/366/147 355/367/149
o ID58
v -0.907051 0.567117 0.853748
v -0.907051 0.191155 0.192748
v -0.907051 0.550049 0.853748
v -0.907051 0.208224 0.192748
v -0.907051 0.550049 0.853748
v -0.907051 0.567117 0.853748
v -0.907051 0.208224 0.192748
v -0.907051 0.191155 0.192748
v -0.905551 0.567932 0.855248
v -0.907051 0.550049 0.853748
v -0.905551 0.550863 0.855248
v -0.907051 0.567117 0.853748
v -0.905551 0.567932 0.855248
v -0.905551 0.550863 0.855248
v -0.905551 0.209930 0.192748
v -0.907051 0.208224 0.192748
v -0.905551 0.568824 0.853748
v -0.905551 0.209930 0.192748
v -0.905551 0.568824 0.853748
v -0.907051 0.191155 0.192748
v -0.905551 0.207409 0.191248
v -0.905551 0.190341 0.191248
v -0.905551 0.207409 0.191248
v -0.905551 0.190341 0.191248
v -0.905551 0.189448 0.192748
v -0.905551 0.548342 0.853748
v -0.905551 0.189448 0.192748
v -0.905551 0.548342 0.853748
v -0.708551 0.550863 0.855248
v -0.905551 0.567932 0.855248
v -0.905551 0.550863 0.855248
v -0.708551 0.567932 0.855248
v -0.708551 0.550863 0.855248
v -0.708551 0.567932 0.855248
v -0.905551 0.209930 0.192748
v -0.708551 0.568824 0.853748
v -0.708551 0.209930 0.192748
v -0.905551 0.568824 0.853748
v -0.708551 0.568824 0.853748
v -0.708551 0.209930 0.192748
v -0.905551 0.207409 0.191248
v -0.708551 0.190341 0.191248
v -0.905551 0.190341 0.191248
v -0.708551 0.207409 0.191248
v -0.708551 0.190341 0.191248
v -0.708551 0.207409 0.191248
v -0.708551 0.189448 0.192748
v -0.905551 0.548342 0.853748
v -0.905551 0.189448 0.192748
v -0.708551 0.548342 0.853748
v -0.708551 0.189448 0.192748
v -0.708551 0.548342 0.853748
v -0.708551 0.550863 0.855248
v -0.708551 0.548342 0.853748
v -0.707051 0.567117 0.853748
v -0.707051 0.550049 0.853748
v -0.708551 0.567932 0.855248
v -0.707051 0.567117 0.853748
v -0.707051 0.550049 0.853748
v -0.708551 0.568824 0.853748
v -0.707051 0.208224 0.192748
v -0.708551 0.209930 0.192748
v -0.707051 0.208224 0.192748
v -0.708551 0.207409 0.191248
v -0.708551 0.189448 0.192748
v -0.708551 0.190341 0.191248
v -0.707051 0.191155 0.192748
v -0.707051 0.191155 0.192748
v -0.707051 0.191155 0.192748
v -0.707051 0.567117 0.853748
v -0.707051 0.550049 0.853748
v -0.707051 0.208224 0.192748
vn -1.0000 -0.0000 -0.0000
vn -0.4948 0.6127 0.6162
vn -0.6689 -0.3801 0.6388
vn -0.4517 -0.2968 0.8413
vn -0.8587 0.4405 0.2621
vn -0.4517 0.5978 -0.6623
vn -0.6689 0.3801 -0.6388
vn -0.4948 0.8339 0.2444
vn -0.8587 -0.4405 -0.2620
vn -0.4517 0.2968 -0.8413
vn -0.4948 -0.6127 -0.6162
vn -0.4948 -0.8339 -0.2444
vn -0.4517 -0.5978 0.6623
vn -0.0000 -0.0000 1.0000
vn -0.0000 0.8788 -0.4772
vn -0.0000 -0.0000 -1.0000
vn -0.0000 -0.8788 0.4772
vn 0.4517 -0.2968 0.8413
vn 0.4517 -0.5978 0.6623
vn 0.8587 0.4405 0.2621
vn 0.6689 -0.3801 0.6388
vn 0.4948 0.6128 0.6162
vn 0.4948 0.8339 0.2444
vn 0.6689 0.3801 -0.6388
vn 0.4517 0.5978 -0.6623
vn 0.4518 0.2968 -0.8413
vn 0.4948 -0.8339 -0.2444
vn 0.4948 -0.6127 -0.6162
vn 0.8587 -0.4405 -0.2621
vn 1.0000 -0.0000 -0.0000
vt 0.828255 0.854260
vt 0.845109 -0.000000
vt 0.845109 0.845109
vt 0.828255 0.009151
vt -0.021111 0.413088
vt -0.023931 0.389313
vt -0.021111 0.390395
vt -0.023931 0.412006
vt 0.825872 0.010066
vt 0.825872 0.855175
vt -0.902748 -0.087845
vt -0.905568 -0.066235
vt -0.905568 -0.088928
vt -0.902748 -0.065152
vt 0.847493 -0.000915
vt 0.847493 0.844194
vt 0.845109 -0.000000
vt -0.261917 0.025014
vt 0.000000 0.002321
vt 0.000000 0.025013
vt -0.261917 0.002321
vt 0.000000 -0.000000
vt 0.002789 0.001160
vt -0.009770 0.306512
vt -0.012540 0.305305
vt -0.010888 0.302775
vt 0.000000 -1.000000
vt -0.261917 0.000000
vt -0.261917 -1.000000
vt 0.000000 -0.000000
vt -0.506853 -0.421458
vt -0.507971 -0.425195
vt -0.505201 -0.423988
vt -0.000000 -0.066236
vt -0.261917 -0.088928
vt -0.000000 -0.088929
vt -0.261917 -0.066236
vt -0.799775 0.117673
vt -0.802466 0.116301
vt -0.800699 0.114797
vt 0.265905 -1.012994
vt 0.003989 -0.012994
vt 0.003989 -1.012994
vt 0.265905 -0.012994
vt 0.265905 -0.009093
vt 0.003989 -0.012994
vt 0.265905 -0.012994
vt 0.003989 -0.009093
vt 0.208350 0.412006
vt 0.205530 0.390396
vt 0.208350 0.389313
vt 0.205530 0.413089
vt -0.261917 0.000000
vt 1.810086 1.021213
vt 1.036121 0.679538
vt 1.037926 0.677732
vt 1.808281 1.023018
vt -0.000000 -1.003900
vt -0.261917 -1.003900
vt 0.000000 -1.000000
vt 0.003989 -1.015314
vt 0.265905 -1.015314
vt -0.261917 -0.088928
vt -0.264737 -0.065153
vt -0.264737 -0.087846
vt -0.261917 -0.066235
vt 1.825297 1.009533
vt 1.054942 0.664246
vt 1.827102 1.007727
vt 1.053137 0.666052
vt 0.205529 0.390395
vt 0.206813 0.386712
vt 0.208350 0.389313
vt 0.207129 0.414769
vt 0.205529 0.413088
vt 0.208350 0.412006
vt 0.290648 -0.487336
vt 0.288996 -0.489866
vt 0.291766 -0.491073
vt 0.683251 0.261087
vt 0.680560 0.262460
vt 0.681484 0.259583
s 0
usemtl ID7
f 361/368/151 362/369/151 363/370/151
f 362/369/151 361/368/151 364/371/151
s 1
f 369/372/152 370/373/153 371/374/154
f 370/373/153 369/372/152 372/375/155
f 372/368/155 375/376/156 376/371/157
f 375/376/156 372/368/155 377/377/158
f 380/378/159 381/379/160 382/380/161
f 381/379/160 380/378/159 376/381/157
f 370/370/153 385/382/162 386/383/163
f 385/382/162 370/370/153 380/384/159
s 0
f 389/385/164 390/386/164 391/387/164
f 390/386/164 389/385/164 392/388/164
s 1
f 377/389/158 372/390/155 369/386/152
f 371/391/154 370/392/153 386/393/163
s 0
f 395/394/165 396/395/165 397/396/165
f 396/395/165 395/394/165 398/397/165
s 1
f 375/398/156 381/399/160 376/400/157
s 0
f 401/401/166 402/402/166 403/403/166
f 402/402/166 401/401/166 404/404/166
s 1
f 380/405/159 382/406/161 385/407/162
s 0
f 407/408/167 408/409/167 409/410/167
f 408/409/167 407/408/167 410/411/167
s 1
f 413/412/168 386/413/163 414/414/169
f 386/413/163 413/412/168 371/415/154
f 415/416/170 413/417/168 416/418/171
f 413/417/168 415/416/170 417/419/172
f 417/388/172 377/389/158 369/386/152
f 377/389/158 417/388/172 420/420/173
f 421/421/174 420/422/173 415/423/170
f 420/422/173 421/421/174 422/424/175
f 381/425/160 422/396/175 424/426/176
f 422/396/175 381/425/160 375/427/156
f 382/428/161 425/408/177 385/410/162
f 425/408/177 382/428/161 426/429/178
f 426/430/178 421/431/174 427/432/179
f 421/431/174 426/430/178 424/433/176
f 427/434/179 414/435/169 425/436/177
f 414/435/169 427/434/179 416/437/171
f 413/438/168 414/439/169 416/440/171
s 0
f 429/434/180 430/423/180 431/437/180
f 430/423/180 429/434/180 432/421/180
s 1
f 420/441/173 417/442/172 415/443/170
f 422/444/175 421/445/174 424/446/176
f 426/447/178 427/448/179 425/449/177
o ID67
v -0.707051 0.388801 0.563053
v -0.707051 0.028134 0.741811
v -0.707051 0.381643 0.549871
v -0.707051 0.028134 0.758879
v -0.707051 0.028134 0.758879
v -0.707051 0.028134 0.741811
v -0.707051 0.381643 0.549871
v -0.707051 0.388801 0.563053
v -0.707051 0.028134 0.741811
v -0.708551 0.026634 0.759694
v -0.708551 0.026634 0.742625
v -0.707051 0.028134 0.758879
v -0.708551 0.026634 0.742625
v -0.708551 0.026634 0.759694
v -0.708551 0.380928 0.548553
v -0.707051 0.381643 0.549871
v -0.708551 0.028134 0.740104
v -0.708551 0.380928 0.548553
v -0.708551 0.028134 0.740104
v -0.708551 0.390119 0.562337
v -0.708551 0.382961 0.549155
v -0.707051 0.388801 0.563053
v -0.708551 0.382961 0.549155
v -0.708551 0.390119 0.562337
v -0.708551 0.389516 0.564371
v -0.708551 0.028134 0.760586
v -0.708551 0.389516 0.564371
v -0.708551 0.028134 0.760586
v -0.708551 0.026634 0.742625
v -0.905551 0.026634 0.759694
v -0.905551 0.026634 0.742625
v -0.708551 0.026634 0.759694
v -0.905551 0.026634 0.759694
v -0.905551 0.026634 0.742625
v -0.708551 0.380928 0.548553
v -0.905551 0.028134 0.740104
v -0.905551 0.380928 0.548553
v -0.708551 0.028134 0.740104
v -0.905551 0.028134 0.740104
v -0.905551 0.380928 0.548553
v -0.905551 0.390119 0.562337
v -0.708551 0.382961 0.549155
v -0.905551 0.382961 0.549155
v -0.708551 0.390119 0.562337
v -0.905551 0.382961 0.549155
v -0.905551 0.390119 0.562337
v -0.905551 0.028134 0.760586
v -0.708551 0.389516 0.564371
v -0.905551 0.389516 0.564371
v -0.708551 0.028134 0.760586
v -0.905551 0.028134 0.760586
v -0.905551 0.389516 0.564371
v -0.905551 0.028134 0.760586
v -0.905551 0.026634 0.759694
v -0.905551 0.026634 0.742625
v -0.907051 0.028134 0.758879
v -0.907051 0.028134 0.741811
v -0.907051 0.028134 0.758879
v -0.907051 0.028134 0.741811
v -0.905551 0.028134 0.740104
v -0.907051 0.381643 0.549871
v -0.905551 0.380928 0.548553
v -0.907051 0.381643 0.549871
v -0.905551 0.382961 0.549155
v -0.907051 0.388801 0.563053
v -0.905551 0.390119 0.562337
v -0.907051 0.388801 0.563053
v -0.905551 0.389516 0.564371
v -0.907051 0.028134 0.758879
v -0.907051 0.381643 0.549871
v -0.907051 0.028134 0.741811
v -0.907051 0.388801 0.563053
vn 1.0000 -0.0000 -0.0000
vn 0.6689 -0.6389 -0.3801
vn 0.4948 -0.6162 0.6127
vn 0.4517 -0.8414 -0.2968
vn 0.8587 -0.2621 0.4405
vn 0.4606 0.0427 -0.8866
vn 0.7588 0.1850 -0.6245
vn 0.4517 -0.6623 -0.5978
vn 0.4606 0.8866 0.0427
vn 0.4606 0.4471 -0.7668
vn 0.7588 0.6245 0.1850
vn 0.4606 0.7668 0.4471
vn 0.4949 -0.2444 0.8339
vn -0.0000 -1.0000 -0.0000
vn -0.0000 -0.4772 -0.8788
vn -0.0000 0.8788 -0.4772
vn -0.0000 0.4772 0.8788
vn -0.4948 -0.2444 0.8339
vn -0.4948 -0.6162 0.6127
vn -0.4517 -0.8414 -0.2968
vn -0.8587 -0.2621 0.4405
vn -0.6689 -0.6389 -0.3801
vn -0.4517 -0.6623 -0.5977
vn -0.7588 0.1850 -0.6245
vn -0.4606 0.0427 -0.8866
vn -0.4606 0.4471 -0.7668
vn -0.7588 0.6245 0.1850
vn -0.4606 0.8866 0.0427
vn -0.4606 0.7668 0.4471
vn -1.0000 -0.0000 -0.0000
vt 0.368885 0.763176
vt 0.738762 1.023473
vt 0.359706 0.777310
vt 0.755616 1.014322
vt 0.757558 1.015980
vt 0.740704 1.025131
vt 0.358408 0.779310
vt 0.736697 1.024973
vt 0.366886 0.761877
vt 0.357707 0.776012
vt 0.370183 0.761177
vt 0.757682 1.012821
vt 0.643963 1.064217
vt 0.862156 1.022332
vt 0.864133 1.041408
vt 0.641986 1.045141
vt 0.811854 0.771076
vt 0.808783 0.769879
vt 0.811027 0.768661
vt 0.641784 1.043190
vt 0.639541 1.044409
vt 1.098319 0.366473
vt 0.937713 0.842555
vt 0.878863 0.395353
vt 1.157169 0.813676
vt 0.701048 0.717440
vt 0.699478 0.719233
vt 0.698710 0.716977
vt 0.896856 0.555294
vt 1.081216 0.431640
vt 0.907280 0.568538
vt 1.070793 0.418396
vt 0.424333 0.988199
vt 0.423093 0.986163
vt 0.425476 0.986107
vt 0.951160 0.956655
vt 0.765407 0.479192
vt 0.986121 0.495941
vt 0.730446 0.939906
vt 0.861954 1.020381
vt 0.937044 0.845783
vt 0.925618 0.860228
vt 0.935469 0.843774
vt 0.927192 0.862237
vt 1.153788 0.890695
vt 1.154457 0.887467
vt 0.876500 0.395664
vt 0.908754 0.570411
vt 1.082690 0.433513
vt 0.890746 0.564493
vt 0.906395 0.570751
vt 0.891630 0.562280
vt 0.804696 0.369111
vt 0.987466 0.493973
vt 0.803352 0.371079
vt 0.988498 0.496121
vt 0.953605 0.955923
vt 0.952400 0.958174
vt 0.981480 0.891688
vt 0.998334 0.430564
vt 0.998334 0.882537
vt 0.981480 0.430564
s 0
usemtl ID7
f 433/450/181 434/451/181 435/452/181
f 434/451/181 433/450/181 436/453/181
s 1
f 441/451/182 442/454/183 443/455/184
f 442/454/183 441/451/182 444/453/185
f 441/451/182 447/456/186 448/452/187
f 447/456/186 441/451/182 449/457/188
f 452/458/189 448/452/187 453/459/190
f 448/452/187 452/458/189 454/450/191
f 457/460/192 444/453/185 454/450/191
f 444/453/185 457/460/192 458/461/193
s 0
f 461/462/194 462/463/194 463/464/194
f 462/463/194 461/462/194 464/465/194
s 1
f 443/466/184 449/467/188 441/468/182
f 458/469/193 442/465/183 444/470/185
s 0
f 467/471/195 468/472/195 469/473/195
f 468/472/195 467/471/195 470/474/195
s 1
f 448/475/187 447/476/186 453/477/190
s 0
f 473/478/196 474/479/196 475/480/196
f 474/479/196 473/478/196 476/481/196
s 1
f 454/482/191 452/483/189 457/484/192
s 0
f 479/485/197 480/486/197 481/487/197
f 480/486/197 479/485/197 482/488/197
s 1
f 442/465/183 485/489/198 486/463/199
f 485/489/198 442/465/183 458/469/193
f 487/490/200 488/491/201 489/492/202
f 488/491/201 487/490/200 486/493/199
f 443/494/184 492/472/203 449/495/188
f 492/472/203 443/494/184 487/490/200
f 492/472/203 493/496/204 494/473/205
f 493/496/204 492/472/203 489/492/202
f 453/479/190 494/497/205 496/480/206
f 494/497/205 453/479/190 447/498/186
f 497/499/207 496/480/206 493/500/204
f 496/480/206 497/499/207 498/501/208
f 500/487/209 452/502/189 498/503/208
f 452/502/189 500/487/209 457/504/192
f 485/485/198 497/505/207 488/506/201
f 497/505/207 485/485/198 500/487/209
f 485/485/198 488/506/201 486/507/199
s 0
f 501/508/210 502/509/210 503/510/210
f 502/509/210 501/508/210 504/511/210
s 1
f 487/490/200 489/492/202 492/472/203
f 494/497/205 493/500/204 496/480/206
f 500/487/209 498/503/208 497/505/207
o ID77
v -0.722562 0.008634 0.217366
v -0.722562 0.008634 0.225130
v -0.722051 0.008634 0.221248
v -0.724061 0.008634 0.213748
v -0.724061 0.008634 0.228748
v -0.726445 0.008634 0.210641
v -0.726445 0.008634 0.231855
v -0.729551 0.008634 0.208258
v -0.729551 0.008634 0.234238
v -0.733169 0.008634 0.206759
v -0.733169 0.008634 0.235737
v -0.737051 0.008634 0.206248
v -0.737051 0.008634 0.236248
v -0.740933 0.008634 0.206759
v -0.740933 0.008634 0.235737
v -0.744551 0.008634 0.208258
v -0.744551 0.008634 0.234238
v -0.747658 0.008634 0.210641
v -0.747658 0.008634 0.231855
v -0.750041 0.008634 0.213748
v -0.750041 0.008634 0.228748
v -0.751540 0.008634 0.217366
v -0.751540 0.008634 0.225130
v -0.752051 0.008634 0.221248
v -0.733169 0.008634 0.235737
v -0.729551 0.008634 0.234238
v -0.726445 0.008634 0.231855
v -0.724061 0.008634 0.228748
v -0.722562 0.008634 0.225130
v -0.722051 0.008634 0.221248
v -0.722562 0.008634 0.217366
v -0.724061 0.008634 0.213748
v -0.726445 0.008634 0.210641
v -0.729551 0.008634 0.208258
v -0.733169 0.008634 0.206759
v -0.737051 0.008634 0.206248
v -0.740933 0.008634 0.206759
v -0.744551 0.008634 0.208258
v -0.747658 0.008634 0.210641
v -0.750041 0.008634 0.213748
v -0.751540 0.008634 0.217366
v -0.752051 0.008634 0.221248
v -0.751540 0.008634 0.225130
v -0.750041 0.008634 0.228748
v -0.747658 0.008634 0.231855
v -0.744551 0.008634 0.234238
v -0.740933 0.008634 0.235737
v -0.737051 0.008634 0.236248
v -0.729551 0.005634 0.234238
v -0.733169 0.008634 0.235737
v -0.733169 0.005634 0.235737
v -0.729551 0.008634 0.234238
v -0.733169 0.005634 0.235737
v -0.729551 0.005634 0.234238
v -0.726445 0.005634 0.231855
v -0.726445 0.008634 0.231855
v -0.726445 0.005634 0.231855
v -0.724061 0.008634 0.228748
v -0.724061 0.005634 0.228748
v -0.724061 0.005634 0.228748
v -0.722562 0.008634 0.225130
v -0.722562 0.005634 0.225130
v -0.722562 0.005634 0.225130
v -0.722051 0.008634 0.221248
v -0.722051 0.005634 0.221248
v -0.722051 0.005634 0.221248
v -0.722562 0.008634 0.217366
v -0.722562 0.005634 0.217366
v -0.722562 0.005634 0.217366
v -0.724061 0.008634 0.213748
v -0.724061 0.005634 0.213748
v -0.724061 0.005634 0.213748
v -0.726445 0.008634 0.210641
v -0.726445 0.005634 0.210641
v -0.726445 0.005634 0.210641
v -0.729551 0.008634 0.208258
v -0.729551 0.005634 0.208258
v -0.729551 0.005634 0.208258
v -0.733169 0.008634 0.206759
v -0.733169 0.005634 0.206759
v -0.733169 0.005634 0.206759
v -0.737051 0.008634 0.206248
v -0.737051 0.005634 0.206248
v -0.737051 0.005634 0.206248
v -0.740933 0.008634 0.206759
v -0.740933 0.005634 0.206759
v -0.740933 0.005634 0.206759
v -0.744551 0.008634 0.208258
v -0.744551 0.005634 0.208258
v -0.744551 0.005634 0.208258
v -0.747658 0.008634 0.210641
v -0.747658 0.005634 0.210641
v -0.747658 0.005634 0.210641
v -0.750041 0.005634 0.213748
v -0.750041 0.008634 0.213748
v -0.750041 0.005634 0.213748
v -0.751540 0.005634 0.217366
v -0.751540 0.008634 0.217366
v -0.751540 0.005634 0.217366
v -0.752051 0.005634 0.221248
v -0.752051 0.008634 0.221248
v -0.752051 0.005634 0.221248
v -0.751540 0.005634 0.225130
v -0.751540 0.008634 0.225130
v -0.751540 0.005634 0.225130
v -0.750041 0.005634 0.228748
v -0.750041 0.008634 0.228748
v -0.750041 0.005634 0.228748
v -0.747658 0.005634 0.231855
v -0.747658 0.008634 0.231855
v -0.747658 0.005634 0.231855
v -0.744551 0.005634 0.234238
v -0.744551 0.008634 0.234238
v -0.744551 0.005634 0.234238
v -0.740933 0.005634 0.235737
v -0.740933 0.008634 0.235737
v -0.740933 0.005634 0.235737
v -0.737051 0.005634 0.236248
v -0.737051 0.008634 0.236248
v -0.737051 0.005634 0.236248
v -0.722562 0.005634 0.225130
v -0.722562 0.005634 0.217366
v -0.722051 0.005634 0.221248
v -0.724061 0.005634 0.213748
v -0.724061 0.005634 0.228748
v -0.726445 0.005634 0.210641
v -0.726445 0.005634 0.231855
v -0.729551 0.005634 0.208258
v -0.729551 0.005634 0.234238
v -0.733169 0.005634 0.206759
v -0.733169 0.005634 0.235737
v -0.737051 0.005634 0.206248
v -0.737051 0.005634 0.236248
v -0.740933 0.005634 0.235737
v -0.740933 0.005634 0.206759
v -0.744551 0.005634 0.208258
v -0.744551 0.005634 0.234238
v -0.747658 0.005634 0.210641
v -0.747658 0.005634 0.231855
v -0.750041 0.005634 0.213748
v -0.750041 0.005634 0.228748
v -0.751540 0.005634 0.217366
v -0.751540 0.005634 0.225130
v -0.752051 0.005634 0.221248
vn -0.0000 1.0000 -0.0000
vn 0.5000 -0.0000 0.8660
vn 0.2588 -0.0000 0.9659
vn 0.7071 -0.0000 0.7071
vn 0.8660 -0.0000 0.5000
vn 0.9659 -0.0000 0.2588
vn 1.0000 -0.0000 -0.0000
vn 0.9659 -0.0000 -0.2588
vn 0.8660 -0.0000 -0.5000
vn 0.7071 -0.0000 -0.7071
vn 0.5000 -0.0000 -0.8660
vn 0.2588 -0.0000 -0.9659
vn -0.0000 -0.0000 -1.0000
vn -0.2588 -0.0000 -0.9659
vn -0.5000 -0.0000 -0.8660
vn -0.7071 -0.0000 -0.7071
vn -0.8660 -0.0000 -0.5000
vn -0.9659 -0.0000 -0.2588
vn -1.0000 -0.0000 -0.0000
vn -0.9659 -0.0000 0.2588
vn -0.8660 -0.0000 0.5000
vn -0.7071 -0.0000 0.7071
vn -0.5000 -0.0000 0.8660
vn -0.2588 -0.0000 0.9659
vn -0.0000 -0.0000 1.0000
vn -0.0000 -1.0000 -0.0000
s 0
usemtl ID78
f 505//211 506//211 507//211
f 506//211 505//211 508//211
f 506//211 508//211 509//211
f 509//211 508//211 510//211
f 509//211 510//211 511//211
f 511//211 510//211 512//211
f 511//211 512//211 513//211
f 513//211 512//211 514//211
f 513//211 514//211 515//211
f 515//211 514//211 516//211
f 515//211 516//211 517//211
f 517//211 516//211 518//211
f 517//211 518//211 519//211
f 519//211 518//211 520//211
f 519//211 520//211 521//211
f 521//211 520//211 522//211
f 521//211 522//211 523//211
f 523//211 522//211 524//211
f 523//211 524//211 525//211
f 525//211 524//211 526//211
f 525//211 526//211 527//211
f 527//211 526//211 528//211
s 1
f 553//212 554//213 555//213
f 554//213 553//212 556//212
f 559//214 556//212 553//212
f 556//212 559//214 560//214
f 562//215 559//214 563//215
f 559//214 562//215 560//214
f 565//216 563//215 566//216
f 563//215 565//216 562//215
f 568//217 566//216 569//217
f 566//216 568//217 565//216
f 571//218 569//217 572//218
f 569//217 571//218 568//217
f 574//219 572//218 575//219
f 572//218 574//219 571//218
f 577//220 575//219 578//220
f 575//219 577//220 574//219
f 580//221 578//220 581//221
f 578//220 580//221 577//220
f 583//222 581//221 584//222
f 581//221 583//222 580//221
f 586//223 584//222 587//223
f 584//222 586//223 583//222
f 589//224 587//223 590//224
f 587//223 589//224 586//223
f 592//225 590//224 593//225
f 590//224 592//225 589//224
f 595//226 593//225 596//226
f 593//225 595//226 592//225
f 598//227 595//226 596//226
f 595//226 598//227 599//227
f 601//228 599//227 598//227
f 599//227 601//228 602//228
f 604//229 602//228 601//228
f 602//228 604//229 605//229
f 607//230 605//229 604//229
f 605//229 607//230 608//230
f 610//231 608//230 607//230
f 608//230 610//231 611//231
f 613//232 611//231 610//231
f 611//231 613//232 614//232
f 616//233 614//232 613//232
f 614//232 616//233 617//233
f 619//234 617//233 616//233
f 617//233 619//234 620//234
f 622//235 620//234 619//234
f 620//234 622//235 623//235
f 555//213 623//235 622//235
f 623//235 555//213 554//213
s 0
f 625//236 626//236 627//236
f 626//236 625//236 628//236
f 628//236 625//236 629//236
f 628//236 629//236 630//236
f 630//236 629//236 631//236
f 630//236 631//236 632//236
f 632//236 631//236 633//236
f 632//236 633//236 634//236
f 634//236 633//236 635//236
f 634//236 635//236 636//236
f 636//236 635//236 637//236
f 636//236 637//236 638//236
f 636//236 638//236 639//236
f 639//236 638//236 640//236
f 640//236 638//236 641//236
f 640//236 641//236 642//236
f 642//236 641//236 643//236
f 642//236 643//236 644//236
f 644//236 643//236 645//236
f 644//236 645//236 646//236
f 646//236 645//236 647//236
f 646//236 647//236 648//236
o ID88
v -0.752051 0.008634 0.825248
v -0.751540 0.008634 0.829130
v -0.751540 0.008634 0.821366
v -0.750041 0.008634 0.817748
v -0.750041 0.008634 0.832748
v -0.747658 0.008634 0.814641
v -0.747658 0.008634 0.835855
v -0.744551 0.008634 0.812258
v -0.744551 0.008634 0.838238
v -0.740933 0.008634 0.810759
v -0.740933 0.008634 0.839737
v -0.737051 0.008634 0.810248
v -0.737051 0.008634 0.840248
v -0.733169 0.008634 0.810759
v -0.733169 0.008634 0.839737
v -0.729551 0.008634 0.812258
v -0.729551 0.008634 0.838238
v -0.726445 0.008634 0.814641
v -0.726445 0.008634 0.835855
v -0.724061 0.008634 0.817748
v -0.724061 0.008634 0.832748
v -0.722562 0.008634 0.821366
v -0.722562 0.008634 0.829130
v -0.722051 0.008634 0.825248
v -0.733169 0.008634 0.810759
v -0.729551 0.008634 0.812258
v -0.726445 0.008634 0.814641
v -0.724061 0.008634 0.817748
v -0.722562 0.008634 0.821366
v -0.722051 0.008634 0.825248
v -0.722562 0.008634 0.829130
v -0.724061 0.008634 0.832748
v -0.726445 0.008634 0.835855
v -0.729551 0.008634 0.838238
v -0.733169 0.008634 0.839737
v -0.737051 0.008634 0.840248
v -0.740933 0.008634 0.839737
v -0.744551 0.008634 0.838238
v -0.747658 0.008634 0.835855
v -0.750041 0.008634 0.832748
v -0.751540 0.008634 0.829130
v -0.752051 0.008634 0.825248
v -0.751540 0.008634 0.821366
v -0.750041 0.008634 0.817748
v -0.747658 0.008634 0.814641
v -0.744551 0.008634 0.812258
v -0.740933 0.008634 0.810759
v -0.737051 0.008634 0.810248
v -0.729551 0.008634 0.812258
v -0.729551 0.005634 0.812258
v -0.733169 0.008634 0.810759
v -0.733169 0.005634 0.810759
v -0.733169 0.005634 0.810759
v -0.729551 0.005634 0.812258
v -0.726445 0.008634 0.814641
v -0.726445 0.005634 0.814641
v -0.726445 0.005634 0.814641
v -0.724061 0.008634 0.817748
v -0.724061 0.005634 0.817748
v -0.724061 0.005634 0.817748
v -0.722562 0.008634 0.821366
v -0.722562 0.005634 0.821366
v -0.722562 0.005634 0.821366
v -0.722051 0.008634 0.825248
v -0.722051 0.005634 0.825248
v -0.722051 0.005634 0.825248
v -0.722562 0.008634 0.829130
v -0.722562 0.005634 0.829130
v -0.722562 0.005634 0.829130
v -0.724061 0.008634 0.832748
v -0.724061 0.005634 0.832748
v -0.724061 0.005634 0.832748
v -0.726445 0.008634 0.835855
v -0.726445 0.005634 0.835855
v -0.726445 0.005634 0.835855
v -0.729551 0.008634 0.838238
v -0.729551 0.005634 0.838238
v -0.729551 0.005634 0.838238
v -0.733169 0.008634 0.839737
v -0.733169 0.005634 0.839737
v -0.733169 0.005634 0.839737
v -0.737051 0.008634 0.840248
v -0.737051 0.005634 0.840248
v -0.737051 0.005634 0.840248
v -0.740933 0.008634 0.839737
v -0.740933 0.005634 0.839737
v -0.740933 0.005634 0.839737
v -0.744551 0.008634 0.838238
v -0.744551 0.005634 0.838238
v -0.744551 0.005634 0.838238
v -0.747658 0.008634 0.835855
v -0.747658 0.005634 0.835855
v -0.747658 0.005634 0.835855
v -0.750041 0.008634 0.832748
v -0.750041 0.005634 0.832748
v -0.750041 0.005634 0.832748
v -0.751540 0.008634 0.829130
v -0.751540 0.005634 0.829130
v -0.751540 0.005634 0.829130
v -0.752051 0.008634 0.825248
v -0.752051 0.005634 0.825248
v -0.752051 0.005634 0.825248
v -0.751540 0.008634 0.821366
v -0.751540 0.005634 0.821366
v -0.751540 0.005634 0.821366
v -0.750041 0.008634 0.817748
v -0.750041 0.005634 0.817748
v -0.750041 0.005634 0.817748
v -0.747658 0.008634 0.814641
v -0.747658 0.005634 0.814641
v -0.747658 0.005634 0.814641
v -0.744551 0.008634 0.812258
v -0.744551 0.005634 0.812258
v -0.744551 0.005634 0.812258
v -0.740933 0.008634 0.810759
v -0.740933 0.005634 0.810759
v -0.740933 0.005634 0.810759
v -0.737051 0.008634 0.810248
v -0.737051 0.005634 0.810248
v -0.737051 0.005634 0.810248
v -0.752051 0.005634 0.825248
v -0.751540 0.005634 0.821366
v -0.751540 0.005634 0.829130
v -0.750041 0.005634 0.817748
v -0.750041 0.005634 0.832748
v -0.747658 0.005634 0.814641
v -0.747658 0.005634 0.835855
v -0.744551 0.005634 0.812258
v -0.744551 0.005634 0.838238
v -0.740933 0.005634 0.810759
v -0.740933 0.005634 0.839737
v -0.737051 0.005634 0.840248
v -0.737051 0.005634 0.810248
v -0.733169 0.005634 0.810759
v -0.733169 0.005634 0.839737
v -0.729551 0.005634 0.812258
v -0.729551 0.005634 0.838238
v -0.726445 0.005634 0.814641
v -0.726445 0.005634 0.835855
v -0.724061 0.005634 0.817748
v -0.724061 0.005634 0.832748
v -0.722562 0.005634 0.821366
v -0.722562 0.005634 0.829130
v -0.722051 0.005634 0.825248
vn -0.0000 -1.0000 -0.0000
vn -0.5000 -0.0000 0.8660
vn -0.2588 -0.0000 0.9659
vn -0.7071 -0.0000 0.7071
vn -0.8660 -0.0000 0.5000
vn -0.9659 -0.0000 0.2588
vn -1.0000 -0.0000 -0.0000
vn -0.9659 -0.0000 -0.2588
vn -0.8660 -0.0000 -0.5000
vn -0.7071 -0.0000 -0.7071
vn -0.5000 -0.0000 -0.8660
vn -0.2588 -0.0000 -0.9659
vn -0.0000 -0.0000 -1.0000
vn 0.2588 -0.0000 -0.9659
vn 0.5000 -0.0000 -0.8660
vn 0.7071 -0.0000 -0.7071
vn 0.8660 -0.0000 -0.5000
vn 0.9659 -0.0000 -0.2588
vn 1.0000 -0.0000 -0.0000
vn 0.9659 -0.0000 0.2588
vn 0.8660 -0.0000 0.5000
vn 0.7071 -0.0000 0.7071
vn 0.5000 -0.0000 0.8660
vn 0.2588 -0.0000 0.9659
vn -0.0000 -0.0000 1.0000
vn -0.0000 1.0000 -0.0000
s 0
usemtl ID78
f 649//237 651//237 650//237
f 651//237 652//237 650//237
f 650//237 652//237 653//237
f 652//237 654//237 653//237
f 653//237 654//237 655//237
f 654//237 656//237 655//237
f 655//237 656//237 657//237
f 656//237 658//237 657//237
f 657//237 658//237 659//237
f 658//237 660//237 659//237
f 659//237 660//237 661//237
f 660//237 662//237 661//237
f 661//237 662//237 663//237
f 662//237 664//237 663//237
f 663//237 664//237 665//237
f 664//237 666//237 665//237
f 665//237 666//237 667//237
f 666//237 668//237 667//237
f 667//237 668//237 669//237
f 668//237 670//237 669//237
f 669//237 670//237 671//237
f 672//237 671//237 670//237
s 1
f 697//238 699//239 698//238
f 700//239 698//238 699//239
f 703//240 697//238 704//240
f 698//238 704//240 697//238
f 703//240 704//240 706//241
f 707//241 706//241 704//240
f 706//241 707//241 709//242
f 710//242 709//242 707//241
f 709//242 710//242 712//243
f 713//243 712//243 710//242
f 712//243 713//243 715//244
f 716//244 715//244 713//243
f 715//244 716//244 718//245
f 719//245 718//245 716//244
f 718//245 719//245 721//246
f 722//246 721//246 719//245
f 721//246 722//246 724//247
f 725//247 724//247 722//246
f 724//247 725//247 727//248
f 728//248 727//248 725//247
f 727//248 728//248 730//249
f 731//249 730//249 728//248
f 730//249 731//249 733//250
f 734//250 733//250 731//249
f 733//250 734//250 736//251
f 737//251 736//251 734//250
f 736//251 737//251 739//252
f 740//252 739//252 737//251
f 742//253 739//252 743//253
f 740//252 743//253 739//252
f 745//254 742//253 746//254
f 743//253 746//254 742//253
f 748//255 745//254 749//255
f 746//254 749//255 745//254
f 751//256 748//255 752//256
f 749//255 752//256 748//255
f 754//257 751//256 755//257
f 752//256 755//257 751//256
f 757//258 754//257 758//258
f 755//257 758//258 754//257
f 760//259 757//258 761//259
f 758//258 761//259 757//258
f 763//260 760//259 764//260
f 761//259 764//260 760//259
f 766//261 763//260 767//261
f 764//260 767//261 763//260
f 699//239 766//261 700//239
f 767//261 700//239 766//261
s 0
f 769//262 771//262 770//262
f 770//262 771//262 772//262
f 771//262 773//262 772//262
f 772//262 773//262 774//262
f 773//262 775//262 774//262
f 774//262 775//262 776//262
f 775//262 777//262 776//262
f 776//262 777//262 778//262
f 777//262 779//262 778//262
f 779//262 780//262 778//262
f 778//262 780//262 781//262
f 781//262 780//262 782//262
f 780//262 783//262 782//262
f 782//262 783//262 784//262
f 783//262 785//262 784//262
f 784//262 785//262 786//262
f 785//262 787//262 786//262
f 786//262 787//262 788//262
f 787//262 789//262 788//262
f 788//262 789//262 790//262
f 789//262 791//262 790//262
f 792//262 790//262 791//262
o ID95
v 0.832925 0.008634 0.233248
v 0.832925 0.008634 0.203248
v 0.817925 0.008634 0.233248
v 0.817925 0.008634 0.203248
v 0.832925 0.008634 0.203248
v 0.817925 0.008634 0.203248
v 0.832925 0.008634 0.233248
v 0.817925 0.008634 0.233248
v 0.832925 0.008634 0.203248
v 0.832925 0.005634 0.203248
v 0.817925 0.008634 0.203248
v 0.817925 0.005634 0.203248
v 0.817925 0.005634 0.203248
v 0.832925 0.005634 0.203248
v 0.832925 0.008634 0.233248
v 0.832925 0.005634 0.233248
v 0.832925 0.008634 0.203248
v 0.832925 0.005634 0.203248
v 0.832925 0.005634 0.233248
v 0.832925 0.008634 0.233248
v 0.817925 0.008634 0.233248
v 0.832925 0.005634 0.233248
v 0.817925 0.005634 0.233248
v 0.817925 0.005634 0.233248
v 0.817925 0.005634 0.233248
v 0.817925 0.008634 0.233248
v 0.817925 0.005634 0.203248
v 0.817925 0.008634 0.203248
v 0.832925 0.005634 0.233248
v 0.817925 0.005634 0.233248
v 0.832925 0.005634 0.203248
v 0.817925 0.005634 0.203248
vn -0.0000 -1.0000 -0.0000
vn -0.0000 -0.0000 1.0000
vn -1.0000 -0.0000 -0.0000
vn -0.0000 -0.0000 -1.0000
vn 1.0000 -0.0000 -0.0000
vn -0.0000 1.0000 -0.0000
s 0
usemtl ID78
f 793//263 795//263 794//263
f 796//263 794//263 795//263
f 801//264 803//264 802//264
f 804//264 802//264 803//264
f 807//265 809//265 808//265
f 810//265 808//265 809//265
f 812//266 814//266 813//266
f 815//266 813//266 814//266
f 817//267 819//267 818//267
f 820//267 818//267 819//267
f 821//268 823//268 822//268
f 824//268 822//268 823//268
o ID102
v 0.832925 0.008634 0.843248
v 0.817925 0.008634 0.813248
v 0.817925 0.008634 0.843248
v 0.832925 0.008634 0.813248
v 0.832925 0.008634 0.843248
v 0.817925 0.008634 0.843248
v 0.832925 0.008634 0.813248
v 0.817925 0.008634 0.813248
v 0.832925 0.005634 0.843248
v 0.817925 0.008634 0.843248
v 0.817925 0.005634 0.843248
v 0.832925 0.008634 0.843248
v 0.817925 0.005634 0.843248
v 0.832925 0.005634 0.843248
v 0.832925 0.005634 0.813248
v 0.832925 0.008634 0.843248
v 0.832925 0.005634 0.843248
v 0.832925 0.008634 0.813248
v 0.832925 0.005634 0.813248
v 0.817925 0.008634 0.813248
v 0.832925 0.005634 0.813248
v 0.817925 0.005634 0.813248
v 0.832925 0.008634 0.813248
v 0.817925 0.005634 0.813248
v 0.817925 0.008634 0.813248
v 0.817925 0.005634 0.843248
v 0.817925 0.008634 0.843248
v 0.817925 0.005634 0.813248
v 0.817925 0.005634 0.813248
v 0.832925 0.005634 0.843248
v 0.817925 0.005634 0.843248
v 0.832925 0.005634 0.813248
vn -0.0000 1.0000 -0.0000
vn -0.0000 -0.0000 1.0000
vn 1.0000 -0.0000 -0.0000
vn -0.0000 -0.0000 -1.0000
vn -1.0000 -0.0000 -0.0000
vn -0.0000 -1.0000 -0.0000
s 0
usemtl ID78
f 825//269 826//269 827//269
f 826//269 825//269 828//269
f 833//270 834//270 835//270
f 834//270 833//270 836//270
f 839//271 840//271 841//271
f 840//271 839//271 842//271
f 844//272 845//272 846//272
f 845//272 844//272 847//272
f 849//273 850//273 851//273
f 850//273 849//273 852//273
f 853//274 854//274 855//274
f 854//274 853//274 856//274
o ID109
v -0.862051 0.008634 0.221248
v -0.862562 0.008634 0.217366
v -0.862562 0.008634 0.225130
v -0.864061 0.008634 0.228748
v -0.864061 0.008634 0.213748
v -0.866445 0.008634 0.231855
v -0.866445 0.008634 0.210641
v -0.869551 0.008634 0.234238
v -0.869551 0.008634 0.208258
v -0.873169 0.008634 0.235737
v -0.873169 0.008634 0.206759
v -0.877051 0.008634 0.236248
v -0.877051 0.008634 0.206248
v -0.880933 0.008634 0.235737
v -0.880933 0.008634 0.206759
v -0.884551 0.008634 0.234238
v -0.884551 0.008634 0.208258
v -0.887658 0.008634 0.231855
v -0.887658 0.008634 0.210641
v -0.890041 0.008634 0.228748
v -0.890041 0.008634 0.213748
v -0.891540 0.008634 0.225130
v -0.891540 0.008634 0.217366
v -0.892051 0.008634 0.221248
v -0.880933 0.008634 0.235737
v -0.884551 0.008634 0.234238
v -0.887658 0.008634 0.231855
v -0.890041 0.008634 0.228748
v -0.891540 0.008634 0.225130
v -0.892051 0.008634 0.221248
v -0.891540 0.008634 0.217366
v -0.890041 0.008634 0.213748
v -0.887658 0.008634 0.210641
v -0.884551 0.008634 0.208258
v -0.880933 0.008634 0.206759
v -0.877051 0.008634 0.206248
v -0.873169 0.008634 0.206759
v -0.869551 0.008634 0.208258
v -0.866445 0.008634 0.210641
v -0.864061 0.008634 0.213748
v -0.862562 0.008634 0.217366
v -0.862051 0.008634 0.221248
v -0.862562 0.008634 0.225130
v -0.864061 0.008634 0.228748
v -0.866445 0.008634 0.231855
v -0.869551 0.008634 0.234238
v -0.873169 0.008634 0.235737
v -0.877051 0.008634 0.236248
v -0.884551 0.008634 0.234238
v -0.884551 0.005634 0.234238
v -0.880933 0.008634 0.235737
v -0.880933 0.005634 0.235737
v -0.880933 0.005634 0.235737
v -0.884551 0.005634 0.234238
v -0.887658 0.008634 0.231855
v -0.887658 0.005634 0.231855
v -0.887658 0.005634 0.231855
v -0.890041 0.008634 0.228748
v -0.890041 0.005634 0.228748
v -0.890041 0.005634 0.228748
v -0.891540 0.008634 0.225130
v -0.891540 0.005634 0.225130
v -0.891540 0.005634 0.225130
v -0.892051 0.008634 0.221248
v -0.892051 0.005634 0.221248
v -0.892051 0.005634 0.221248
v -0.891540 0.008634 0.217366
v -0.891540 0.005634 0.217366
v -0.891540 0.005634 0.217366
v -0.890041 0.008634 0.213748
v -0.890041 0.005634 0.213748
v -0.890041 0.005634 0.213748
v -0.887658 0.008634 0.210641
v -0.887658 0.005634 0.210641
v -0.887658 0.005634 0.210641
v -0.884551 0.008634 0.208258
v -0.884551 0.005634 0.208258
v -0.884551 0.005634 0.208258
v -0.880933 0.008634 0.206759
v -0.880933 0.005634 0.206759
v -0.880933 0.005634 0.206759
v -0.877051 0.008634 0.206248
v -0.877051 0.005634 0.206248
v -0.877051 0.005634 0.206248
v -0.873169 0.008634 0.206759
v -0.873169 0.005634 0.206759
v -0.873169 0.005634 0.206759
v -0.869551 0.008634 0.208258
v -0.869551 0.005634 0.208258
v -0.869551 0.005634 0.208258
v -0.866445 0.008634 0.210641
v -0.866445 0.005634 0.210641
v -0.866445 0.005634 0.210641
v -0.864061 0.008634 0.213748
v -0.864061 0.005634 0.213748
v -0.864061 0.005634 0.213748
v -0.862562 0.008634 0.217366
v -0.862562 0.005634 0.217366
v -0.862562 0.005634 0.217366
v -0.862051 0.008634 0.221248
v -0.862051 0.005634 0.221248
v -0.862051 0.005634 0.221248
v -0.862562 0.008634 0.225130
v -0.862562 0.005634 0.225130
v -0.862562 0.005634 0.225130
v -0.864061 0.008634 0.228748
v -0.864061 0.005634 0.228748
v -0.864061 0.005634 0.228748
v -0.866445 0.008634 0.231855
v -0.866445 0.005634 0.231855
v -0.866445 0.005634 0.231855
v -0.869551 0.008634 0.234238
v -0.869551 0.005634 0.234238
v -0.869551 0.005634 0.234238
v -0.873169 0.008634 0.235737
v -0.873169 0.005634 0.235737
v -0.873169 0.005634 0.235737
v -0.877051 0.008634 0.236248
v -0.877051 0.005634 0.236248
v -0.877051 0.005634 0.236248
v -0.862051 0.005634 0.221248
v -0.862562 0.005634 0.225130
v -0.862562 0.005634 0.217366
v -0.864061 0.005634 0.228748
v -0.864061 0.005634 0.213748
v -0.866445 0.005634 0.231855
v -0.866445 0.005634 0.210641
v -0.869551 0.005634 0.234238
v -0.869551 0.005634 0.208258
v -0.873169 0.005634 0.235737
v -0.873169 0.005634 0.206759
v -0.877051 0.005634 0.206248
v -0.877051 0.005634 0.236248
v -0.880933 0.005634 0.235737
v -0.880933 0.005634 0.206759
v -0.884551 0.005634 0.234238
v -0.884551 0.005634 0.208258
v -0.887658 0.005634 0.231855
v -0.887658 0.005634 0.210641
v -0.890041 0.005634 0.228748
v -0.890041 0.005634 0.213748
v -0.891540 0.005634 0.225130
v -0.891540 0.005634 0.217366
v -0.892051 0.005634 0.221248
vn -0.0000 -1.0000 -0.0000
vn 0.5000 -0.0000 -0.8660
vn 0.2588 -0.0000 -0.9659
vn 0.7071 -0.0000 -0.7071
vn 0.8660 -0.0000 -0.5000
vn 0.9659 -0.0000 -0.2588
vn 1.0000 -0.0000 -0.0000
vn 0.9659 -0.0000 0.2588
vn 0.8660 -0.0000 0.5000
vn 0.7071 -0.0000 0.7071
vn 0.5000 -0.0000 0.8660
vn 0.2588 -0.0000 0.9659
vn -0.0000 -0.0000 1.0000
vn -0.2588 -0.0000 0.9659
vn -0.5000 -0.0000 0.8660
vn -0.7071 -0.0000 0.7071
vn -0.8660 -0.0000 0.5000
vn -0.9659 -0.0000 0.2588
vn -1.0000 -0.0000 -0.0000
vn -0.9659 -0.0000 -0.2588
vn -0.8660 -0.0000 -0.5000
vn -0.7071 -0.0000 -0.7071
vn -0.5000 -0.0000 -0.8660
vn -0.2588 -0.0000 -0.9659
vn -0.0000 -0.0000 -1.0000
vn -0.0000 1.0000 -0.0000
s 0
usemtl ID78
f 857//275 859//275 858//275
f 859//275 860//275 858//275
f 858//275 860//275 861//275
f 860//275 862//275 861//275
f 861//275 862//275 863//275
f 862//275 864//275 863//275
f 863//275 864//275 865//275
f 864//275 866//275 865//275
f 865//275 866//275 867//275
f 866//275 868//275 867//275
f 867//275 868//275 869//275
f 868//275 870//275 869//275
f 869//275 870//275 871//275
f 870//275 872//275 871//275
f 871//275 872//275 873//275
f 872//275 874//275 873//275
f 873//275 874//275 875//275
f 874//275 876//275 875//275
f 875//275 876//275 877//275
f 876//275 878//275 877//275
f 877//275 878//275 879//275
f 880//275 879//275 878//275
s 1
f 905//276 907//277 906//276
f 908//277 906//276 907//277
f 911//278 905//276 912//278
f 906//276 912//278 905//276
f 911//278 912//278 914//279
f 915//279 914//279 912//278
f 914//279 915//279 917//280
f 918//280 917//280 915//279
f 917//280 918//280 920//281
f 921//281 920//281 918//280
f 920//281 921//281 923//282
f 924//282 923//282 921//281
f 923//282 924//282 926//283
f 927//283 926//283 924//282
f 926//283 927//283 929//284
f 930//284 929//284 927//283
f 929//284 930//284 932//285
f 933//285 932//285 930//284
f 932//285 933//285 935//286
f 936//286 935//286 933//285
f 935//286 936//286 938//287
f 939//287 938//287 936//286
f 938//287 939//287 941//288
f 942//288 941//288 939//287
f 941//288 942//288 944//289
f 945//289 944//289 942//288
f 944//289 945//289 947//290
f 948//290 947//290 945//289
f 950//291 947//290 951//291
f 948//290 951//291 947//290
f 953//292 950//291 954//292
f 951//291 954//292 950//291
f 956//293 953//292 957//293
f 954//292 957//293 953//292
f 959//294 956//293 960//294
f 957//293 960//294 956//293
f 962//295 959//294 963//295
f 960//294 963//295 959//294
f 965//296 962//295 966//296
f 963//295 966//296 962//295
f 968//297 965//296 969//297
f 966//296 969//297 965//296
f 971//298 968//297 972//298
f 969//297 972//298 968//297
f 974//299 971//298 975//299
f 972//298 975//299 971//298
f 907//277 974//299 908//277
f 975//299 908//277 974//299
s 0
f 977//300 979//300 978//300
f 978//300 979//300 980//300
f 979//300 981//300 980//300
f 980//300 981//300 982//300
f 981//300 983//300 982//300
f 982//300 983//300 984//300
f 983//300 985//300 984//300
f 984//300 985//300 986//300
f 985//300 987//300 986//300
f 987//300 988//300 986//300
f 986//300 988//300 989//300
f 989//300 988//300 990//300
f 988//300 991//300 990//300
f 990//300 991//300 992//300
f 991//300 993//300 992//300
f 992//300 993//300 994//300
f 993//300 995//300 994//300
f 994//300 995//300 996//300
f 995//300 997//300 996//300
f 996//300 997//300 998//300
f 997//300 999//300 998//300
f 1000//300 998//300 999//300
o ID116
v -0.891540 0.008634 0.829130
v -0.891540 0.008634 0.821366
v -0.892051 0.008634 0.825248
v -0.890041 0.008634 0.832748
v -0.890041 0.008634 0.817748
v -0.887658 0.008634 0.835855
v -0.887658 0.008634 0.814641
v -0.884551 0.008634 0.838238
v -0.884551 0.008634 0.812258
v -0.880933 0.008634 0.839737
v -0.880933 0.008634 0.810759
v -0.877051 0.008634 0.840248
v -0.877051 0.008634 0.810248
v -0.873169 0.008634 0.839737
v -0.873169 0.008634 0.810759
v -0.869551 0.008634 0.838238
v -0.869551 0.008634 0.812258
v -0.866445 0.008634 0.835855
v -0.866445 0.008634 0.814641
v -0.864061 0.008634 0.832748
v -0.864061 0.008634 0.817748
v -0.862562 0.008634 0.829130
v -0.862562 0.008634 0.821366
v -0.862051 0.008634 0.825248
v -0.880933 0.008634 0.810759
v -0.884551 0.008634 0.812258
v -0.887658 0.008634 0.814641
v -0.890041 0.008634 0.817748
v -0.891540 0.008634 0.821366
v -0.892051 0.008634 0.825248
v -0.891540 0.008634 0.829130
v -0.890041 0.008634 0.832748
v -0.887658 0.008634 0.835855
v -0.884551 0.008634 0.838238
v -0.880933 0.008634 0.839737
v -0.877051 0.008634 0.840248
v -0.873169 0.008634 0.839737
v -0.869551 0.008634 0.838238
v -0.866445 0.008634 0.835855
v -0.864061 0.008634 0.832748
v -0.862562 0.008634 0.829130
v -0.862051 0.008634 0.825248
v -0.862562 0.008634 0.821366
v -0.864061 0.008634 0.817748
v -0.866445 0.008634 0.814641
v -0.869551 0.008634 0.812258
v -0.873169 0.008634 0.810759
v -0.877051 0.008634 0.810248
v -0.884551 0.005634 0.812258
v -0.880933 0.008634 0.810759
v -0.880933 0.005634 0.810759
v -0.884551 0.008634 0.812258
v -0.880933 0.005634 0.810759
v -0.884551 0.005634 0.812258
v -0.887658 0.005634 0.814641
v -0.887658 0.008634 0.814641
v -0.887658 0.005634 0.814641
v -0.890041 0.008634 0.817748
v -0.890041 0.005634 0.817748
v -0.890041 0.005634 0.817748
v -0.891540 0.008634 0.821366
v -0.891540 0.005634 0.821366
v -0.891540 0.005634 0.821366
v -0.892051 0.008634 0.825248
v -0.892051 0.005634 0.825248
v -0.892051 0.005634 0.825248
v -0.891540 0.008634 0.829130
v -0.891540 0.005634 0.829130
v -0.891540 0.005634 0.829130
v -0.890041 0.008634 0.832748
v -0.890041 0.005634 0.832748
v -0.890041 0.005634 0.832748
v -0.887658 0.008634 0.835855
v -0.887658 0.005634 0.835855
v -0.887658 0.005634 0.835855
v -0.884551 0.008634 0.838238
v -0.884551 0.005634 0.838238
v -0.884551 0.005634 0.838238
v -0.880933 0.008634 0.839737
v -0.880933 0.005634 0.839737
v -0.880933 0.005634 0.839737
v -0.877051 0.008634 0.840248
v -0.877051 0.005634 0.840248
v -0.877051 0.005634 0.840248
v -0.873169 0.008634 0.839737
v -0.873169 0.005634 0.839737
v -0.873169 0.005634 0.839737
v -0.869551 0.008634 0.838238
v -0.869551 0.005634 0.838238
v -0.869551 0.005634 0.838238
v -0.866445 0.008634 0.835855
v -0.866445 0.005634 0.835855
v -0.866445 0.005634 0.835855
v -0.864061 0.005634 0.832748
v -0.864061 0.008634 0.832748
v -0.864061 0.005634 0.832748
v -0.862562 0.005634 0.829130
v -0.862562 0.008634 0.829130
v -0.862562 0.005634 0.829130
v -0.862051 0.005634 0.825248
v -0.862051 0.008634 0.825248
v -0.862051 0.005634 0.825248
v -0.862562 0.005634 0.821366
v -0.862562 0.008634 0.821366
v -0.862562 0.005634 0.821366
v -0.864061 0.005634 0.817748
v -0.864061 0.008634 0.817748
v -0.864061 0.005634 0.817748
v -0.866445 0.005634 0.814641
v -0.866445 0.008634 0.814641
v -0.866445 0.005634 0.814641
v -0.869551 0.005634 0.812258
v -0.869551 0.008634 0.812258
v -0.869551 0.005634 0.812258
v -0.873169 0.005634 0.810759
v -0.873169 0.008634 0.810759
v -0.873169 0.005634 0.810759
v -0.877051 0.005634 0.810248
v -0.877051 0.008634 0.810248
v -0.877051 0.005634 0.810248
v -0.891540 0.005634 0.821366
v -0.891540 0.005634 0.829130
v -0.892051 0.005634 0.825248
v -0.890041 0.005634 0.832748
v -0.890041 0.005634 0.817748
v -0.887658 0.005634 0.835855
v -0.887658 0.005634 0.814641
v -0.884551 0.005634 0.838238
v -0.884551 0.005634 0.812258
v -0.880933 0.005634 0.839737
v -0.880933 0.005634 0.810759
v -0.877051 0.005634 0.840248
v -0.877051 0.005634 0.810248
v -0.873169 0.005634 0.810759
v -0.873169 0.005634 0.839737
v -0.869551 0.005634 0.838238
v -0.869551 0.005634 0.812258
v -0.866445 0.005634 0.835855
v -0.866445 0.005634 0.814641
v -0.864061 0.005634 0.832748
v -0.864061 0.005634 0.817748
v -0.862562 0.005634 0.829130
v -0.862562 0.005634 0.821366
v -0.862051 0.005634 0.825248
vn -0.0000 1.0000 -0.0000
vn -0.5000 -0.0000 -0.8660
vn -0.2588 -0.0000 -0.9659
vn -0.7071 -0.0000 -0.7071
vn -0.8660 -0.0000 -0.5000
vn -0.9659 -0.0000 -0.2588
vn -1.0000 -0.0000 -0.0000
vn -0.9659 -0.0000 0.2588
vn -0.8660 -0.0000 0.5000
vn -0.7071 -0.0000 0.7071
vn -0.5000 -0.0000 0.8660
vn -0.2588 -0.0000 0.9659
vn -0.0000 -0.0000 1.0000
vn 0.2588 -0.0000 0.9659
vn 0.5000 -0.0000 0.8660
vn 0.7071 -0.0000 0.7071
vn 0.8660 -0.0000 0.5000
vn 0.9659 -0.0000 0.2588
vn 1.0000 -0.0000 -0.0000
vn 0.9659 -0.0000 -0.2588
vn 0.8660 -0.0000 -0.5000
vn 0.7071 -0.0000 -0.7071
vn 0.5000 -0.0000 -0.8660
vn 0.2588 -0.0000 -0.9659
vn -0.0000 -0.0000 -1.0000
vn -0.0000 -1.0000 -0.0000
s 0
usemtl ID78
f 1001//301 1002//301 1003//301
f 1002//301 1001//301 1004//301
f 1002//301 1004//301 1005//301
f 1005//301 1004//301 1006//301
f 1005//301 1006//301 1007//301
f 1007//301 1006//301 1008//301
f 1007//301 1008//301 1009//301
f 1009//301 1008//301 1010//301
f 1009//301 1010//301 1011//301
f 1011//301 1010//301 1012//301
f 1011//301 1012//301 1013//301
f 1013//301 1012//301 1014//301
f 1013//301 1014//301 1015//301
f 1015//301 1014//301 1016//301
f 1015//301 1016//301 1017//301
f 1017//301 1016//301 1018//301
f 1017//301 1018//301 1019//301
f 1019//301 1018//301 1020//301
f 1019//301 1020//301 1021//301
f 1021//301 1020//301 1022//301
f 1021//301 1022//301 1023//301
f 1023//301 1022//301 1024//301
s 1
f 1049//302 1050//303 1051//303
f 1050//303 1049//302 1052//302
f 1055//304 1052//302 1049//302
f 1052//302 1055//304 1056//304
f 1058//305 1055//304 1059//305
f 1055//304 1058//305 1056//304
f 1061//306 1059//305 1062//306
f 1059//305 1061//306 1058//305
f 1064//307 1062//306 1065//307
f 1062//306 1064//307 1061//306
f 1067//308 1065//307 1068//308
f 1065//307 1067//308 1064//307
f 1070//309 1068//308 1071//309
f 1068//308 1070//309 1067//308
f 1073//310 1071//309 1074//310
f 1071//309 1073//310 1070//309
f 1076//311 1074//310 1077//311
f 1074//310 1076//311 1073//310
f 1079//312 1077//311 1080//312
f 1077//311 1079//312 1076//311
f 1082//313 1080//312 1083//313
f 1080//312 1082//313 1079//312
f 1085//314 1083//313 1086//314
f 1083//313 1085//314 1082//313
f 1088//315 1086//314 1089//315
f 1086//314 1088//315 1085//314
f 1091//316 1089//315 1092//316
f 1089//315 1091//316 1088//315
f 1094//317 1091//316 1092//316
f 1091//316 1094//317 1095//317
f 1097//318 1095//317 1094//317
f 1095//317 1097//318 1098//318
f 1100//319 1098//318 1097//318
f 1098//318 1100//319 1101//319
f 1103//320 1101//319 1100//319
f 1101//319 1103//320 1104//320
f 1106//321 1104//320 1103//320
f 1104//320 1106//321 1107//321
f 1109//322 1107//321 1106//321
f 1107//321 1109//322 1110//322
f 1112//323 1110//322 1109//322
f 1110//322 1112//323 1113//323
f 1115//324 1113//323 1112//323
f 1113//323 1115//324 1116//324
f 1118//325 1116//324 1115//324
f 1116//324 1118//325 1119//325
f 1051//303 1119//325 1118//325
f 1119//325 1051//303 1050//303
s 0
f 1121//326 1122//326 1123//326
f 1122//326 1121//326 1124//326
f 1124//326 1121//326 1125//326
f 1124//326 1125//326 1126//326
f 1126//326 1125//326 1127//326
f 1126//326 1127//326 1128//326
f 1128//326 1127//326 1129//326
f 1128//326 1129//326 1130//326
f 1130//326 1129//326 1131//326
f 1130//326 1131//326 1132//326
f 1132//326 1131//326 1133//326
f 1132//326 1133//326 1134//326
f 1132//326 1134//326 1135//326
f 1135//326 1134//326 1136//326
f 1136//326 1134//326 1137//326
f 1136//326 1137//326 1138//326
f 1138//326 1137//326 1139//326
f 1138//326 1139//326 1140//326
f 1140//326 1139//326 1141//326
f 1140//326 1141//326 1142//326
f 1142//326 1141//326 1143//326
f 1142//326 1143//326 1144//326
o ID123
v 0.842949 0.010134 0.174748
v 0.842949 0.757134 0.871748
v 0.842949 0.010134 0.871748
v 0.842949 0.757134 0.174748
v 0.842949 0.010134 0.174748
v 0.842949 0.757134 0.174748
v 0.842949 0.757134 0.871748
v 0.842949 0.010134 0.871748
v 0.841449 0.757134 0.173248
v 0.842949 0.010134 0.174748
v 0.841449 0.010134 0.173248
v 0.842949 0.757134 0.174748
v 0.841449 0.010134 0.173248
v 0.841449 0.757134 0.173248
v 0.841449 0.758634 0.871748
v 0.842949 0.757134 0.871748
v 0.841449 0.758634 0.174748
v 0.841449 0.758634 0.174748
v 0.841449 0.758634 0.871748
v 0.841449 0.757134 0.873248
v 0.842949 0.010134 0.871748
v 0.841449 0.010134 0.873248
v 0.841449 0.757134 0.873248
v 0.841449 0.010134 0.873248
v 0.841449 0.008634 0.174748
v 0.841449 0.008634 0.871748
v 0.841449 0.008634 0.871748
v 0.841449 0.008634 0.174748
v 0.809449 0.010134 0.173248
v 0.841449 0.757134 0.173248
v 0.841449 0.010134 0.173248
v 0.809449 0.757134 0.173248
v 0.809449 0.757134 0.173248
v 0.809449 0.010134 0.173248
v 0.841449 0.758634 0.174748
v 0.809449 0.758634 0.871748
v 0.841449 0.758634 0.871748
v 0.809449 0.758634 0.174748
v 0.809449 0.758634 0.174748
v 0.809449 0.758634 0.871748
v 0.809449 0.757134 0.873248
v 0.841449 0.010134 0.873248
v 0.841449 0.757134 0.873248
v 0.809449 0.010134 0.873248
v 0.809449 0.757134 0.873248
v 0.809449 0.010134 0.873248
v 0.809449 0.008634 0.871748
v 0.841449 0.008634 0.174748
v 0.841449 0.008634 0.871748
v 0.809449 0.008634 0.174748
v 0.809449 0.008634 0.871748
v 0.809449 0.008634 0.174748
v 0.809449 0.010134 0.173248
v 0.809449 0.008634 0.174748
v 0.809449 0.757134 0.173248
v 0.809449 0.758634 0.174748
v 0.807949 0.010134 0.174748
v 0.807949 0.757134 0.174748
v 0.807949 0.010134 0.174748
v 0.807949 0.757134 0.174748
v 0.809449 0.758634 0.871748
v 0.807949 0.757134 0.871748
v 0.807949 0.757134 0.871748
v 0.809449 0.757134 0.873248
v 0.809449 0.010134 0.873248
v 0.807949 0.010134 0.871748
v 0.807949 0.010134 0.871748
v 0.809449 0.008634 0.871748
v 0.807949 0.757134 0.871748
v 0.807949 0.010134 0.174748
v 0.807949 0.010134 0.871748
v 0.807949 0.757134 0.174748
vn 1.0000 -0.0000 -0.0000
vn 0.4606 0.4606 -0.7588
vn 0.7588 -0.4606 -0.4606
vn 0.4606 -0.4606 -0.7588
vn 0.7588 0.4605 -0.4605
vn 0.4606 0.7588 0.4606
vn 0.7588 0.4605 0.4605
vn 0.4606 0.7588 -0.4606
vn 0.4606 0.4605 0.7588
vn 0.7588 -0.4606 0.4606
vn 0.4606 -0.4606 0.7588
vn 0.4606 -0.7588 -0.4605
vn 0.4606 -0.7588 0.4606
vn -0.0000 -0.0000 -1.0000
vn -0.0000 1.0000 -0.0000
vn -0.0000 -0.0000 1.0000
vn -0.0000 -1.0000 -0.0000
vn -0.4606 -0.4606 -0.7588
vn -0.4606 -0.7588 -0.4605
vn -0.4606 0.4606 -0.7588
vn -0.4606 0.7588 -0.4606
vn -0.7588 -0.4606 -0.4605
vn -0.7588 0.4605 -0.4605
vn -0.4606 0.7588 0.4606
vn -0.7588 0.4605 0.4606
vn -0.4606 0.4605 0.7588
vn -0.4606 -0.4606 0.7588
vn -0.7588 -0.4606 0.4605
vn -0.4606 -0.7588 0.4605
vn -1.0000 -0.0000 -0.0000
vt -0.000000 0.833333
vt 0.466065 0.500334
vt 0.466065 0.833333
vt -0.000000 0.500334
vt 0.468071 0.167335
vt 0.469074 0.500334
vt 0.468071 0.500334
vt 0.469074 0.167335
vt 0.935139 0.166667
vt 0.935139 0.167335
vt 0.469074 0.166667
vt 0.933133 0.500334
vt 0.932130 0.833333
vt 0.932130 0.500334
vt 0.933133 0.833333
vt 0.936142 0.478045
vt 0.935139 0.167335
vt 0.936142 0.167335
vt 0.935139 0.478045
vt 0.936142 0.478714
vt 0.935139 0.811713
vt 0.956537 0.478714
vt 0.956537 0.811713
vt 0.935139 0.478714
vt 0.979940 0.477377
vt 0.958543 0.166667
vt 0.979940 0.166667
vt 0.958543 0.477377
vt 0.933133 0.509844
vt 0.934637 0.509844
vt 0.934637 0.510290
vt 0.977934 0.478714
vt 0.956537 0.811713
vt 0.956537 0.478714
vt 0.977934 0.811713
vt 0.936142 0.166667
vt 0.999332 0.478714
vt 0.977934 0.789424
vt 0.977934 0.478714
vt 0.999332 0.789424
vt 0.957539 0.478714
vt 0.957539 0.478045
vt 0.933133 0.510290
vt 0.934637 0.519800
vt 0.933133 0.519800
vt 0.467068 0.500334
vt 0.467068 0.167335
vt 0.001003 0.166667
vt 0.001003 0.167335
vt 0.467068 0.166667
vt 0.934637 0.500334
vt 0.933133 0.500334
vt -0.000000 0.500334
vt -0.000000 0.167335
vt 0.001003 0.500334
vt 0.957539 0.166667
vt 0.957539 0.167335
vt 0.958543 0.167335
vt 0.958543 0.478045
s 0
usemtl ID124
f 1145/512/327 1146/513/327 1147/514/327
f 1146/513/327 1145/512/327 1148/515/327
s 1
f 1153/516/328 1154/517/329 1155/518/330
f 1154/517/329 1153/516/328 1156/519/331
f 1156/519/331 1159/520/332 1160/521/333
f 1159/520/332 1156/519/331 1161/522/334
f 1164/523/335 1165/524/336 1160/525/333
f 1165/524/336 1164/523/335 1166/526/337
f 1169/527/338 1165/528/336 1170/529/339
f 1165/528/336 1169/527/338 1154/530/329
f 1155/531/330 1154/530/329 1169/527/338
s 0
f 1173/532/340 1174/533/340 1175/534/340
f 1174/533/340 1173/532/340 1176/535/340
s 1
f 1161/522/334 1156/519/331 1153/516/328
s 0
f 1179/536/341 1180/537/341 1181/538/341
f 1180/537/341 1179/536/341 1182/539/341
s 1
f 1159/540/332 1164/541/335 1160/542/333
s 0
f 1185/543/342 1186/544/342 1187/545/342
f 1186/544/342 1185/543/342 1188/546/342
s 1
f 1165/528/336 1166/547/337 1170/529/339
s 0
f 1191/548/343 1192/549/343 1193/550/343
f 1192/549/343 1191/548/343 1194/551/343
s 1
f 1197/552/344 1169/527/338 1198/553/345
f 1169/527/338 1197/552/344 1155/531/330
f 1161/554/334 1199/555/346 1200/556/347
f 1199/555/346 1161/554/334 1153/542/328
f 1201/557/348 1199/516/346 1197/518/344
f 1199/516/346 1201/557/348 1202/558/349
f 1205/559/350 1202/558/349 1206/560/351
f 1202/558/349 1205/559/350 1200/561/347
f 1159/540/332 1208/562/352 1164/541/335
f 1208/562/352 1159/540/332 1205/563/350
f 1206/560/351 1209/564/353 1208/565/352
f 1209/564/353 1206/560/351 1210/566/354
f 1209/567/353 1170/529/339 1166/547/337
f 1170/529/339 1209/567/353 1212/568/355
f 1210/569/354 1198/553/345 1212/568/355
f 1198/553/345 1210/569/354 1201/570/348
f 1201/570/348 1197/552/344 1198/553/345
f 1199/516/346 1202/558/349 1200/561/347
s 0
f 1213/513/356 1214/524/356 1215/514/356
f 1214/524/356 1213/513/356 1216/525/356
s 1
f 1206/560/351 1208/565/352 1205/559/350
f 1210/569/354 1212/568/355 1209/567/353
o ID134
v 0.841449 0.792134 0.873248
v -0.905551 0.760134 0.873248
v 0.841449 0.760134 0.873248
v -0.905551 0.792134 0.873248
v 0.841449 0.760134 0.873248
v -0.905551 0.760134 0.873248
v 0.841449 0.792134 0.873248
v -0.905551 0.792134 0.873248
v 0.841449 0.760134 0.873248
v -0.905551 0.758634 0.871748
v 0.841449 0.758634 0.871748
v -0.905551 0.760134 0.873248
v -0.905551 0.758634 0.871748
v 0.841449 0.758634 0.871748
v 0.842949 0.792134 0.871748
v 0.842949 0.760134 0.871748
v 0.841449 0.792134 0.873248
v 0.842949 0.760134 0.871748
v 0.842949 0.792134 0.871748
v 0.841449 0.793634 0.871748
v -0.905551 0.792134 0.873248
v -0.905551 0.793634 0.871748
v -0.905551 0.793634 0.871748
v 0.841449 0.793634 0.871748
v -0.907051 0.792134 0.871748
v -0.907051 0.760134 0.871748
v -0.907051 0.760134 0.871748
v -0.907051 0.792134 0.871748
v -0.905551 0.758634 0.174748
v 0.841449 0.758634 0.871748
v -0.905551 0.758634 0.871748
v 0.841449 0.758634 0.174748
v -0.905551 0.758634 0.174748
v 0.841449 0.758634 0.174748
v 0.842949 0.760134 0.174748
v 0.842949 0.792134 0.871748
v 0.842949 0.760134 0.871748
v 0.842949 0.792134 0.174748
v 0.842949 0.760134 0.174748
v 0.842949 0.792134 0.174748
v 0.841449 0.793634 0.871748
v -0.905551 0.793634 0.174748
v -0.905551 0.793634 0.871748
v 0.841449 0.793634 0.174748
v -0.905551 0.793634 0.174748
v 0.841449 0.793634 0.174748
v -0.907051 0.792134 0.174748
v -0.907051 0.760134 0.871748
v -0.907051 0.792134 0.871748
v -0.907051 0.760134 0.174748
v -0.907051 0.760134 0.174748
v -0.907051 0.792134 0.174748
v -0.905551 0.758634 0.174748
v -0.907051 0.760134 0.174748
v -0.905551 0.760134 0.173248
v 0.841449 0.758634 0.174748
v 0.841449 0.760134 0.173248
v -0.905551 0.760134 0.173248
v 0.841449 0.760134 0.173248
v 0.842949 0.760134 0.174748
v 0.842949 0.792134 0.174748
v 0.841449 0.792134 0.173248
v 0.841449 0.792134 0.173248
v 0.841449 0.793634 0.174748
v -0.905551 0.793634 0.174748
v -0.907051 0.792134 0.174748
v -0.905551 0.792134 0.173248
v -0.905551 0.792134 0.173248
v -0.905551 0.792134 0.173248
v 0.841449 0.760134 0.173248
v -0.905551 0.760134 0.173248
v 0.841449 0.792134 0.173248
vn -0.0000 -0.0000 1.0000
vn 0.4605 -0.4606 0.7588
vn -0.4606 -0.7588 0.4606
vn 0.4606 -0.7588 0.4606
vn -0.4606 -0.4606 0.7588
vn 0.7588 0.4606 0.4606
vn 0.7588 -0.4606 0.4606
vn 0.4605 0.4606 0.7588
vn 0.4605 0.7588 0.4606
vn -0.4605 0.4606 0.7588
vn -0.4606 0.7588 0.4606
vn -0.7588 0.4606 0.4606
vn -0.7588 -0.4606 0.4606
vn -0.0000 -1.0000 -0.0000
vn 1.0000 -0.0000 -0.0000
vn -0.0000 1.0000 -0.0000
vn -1.0000 -0.0000 -0.0000
vn -0.4606 -0.7588 -0.4606
vn -0.7588 -0.4606 -0.4605
vn -0.4606 -0.4606 -0.7588
vn 0.4605 -0.7588 -0.4605
vn 0.4606 -0.4606 -0.7588
vn 0.7588 -0.4606 -0.4606
vn 0.7588 0.4606 -0.4606
vn 0.4606 0.4606 -0.7588
vn 0.4606 0.7588 -0.4605
vn -0.4605 0.7588 -0.4605
vn -0.7588 0.4606 -0.4605
vn -0.4606 0.4606 -0.7588
vn -0.0000 -0.0000 -1.0000
vt 0.000000 0.797855
vt 0.022857 0.536402
vt 0.022857 0.797855
vt 0.000000 0.536402
vt 0.995714 0.536402
vt 0.996785 0.166667
vt 0.996785 0.536402
vt 0.995714 0.166667
vt 0.096306 0.536878
vt 0.097317 0.547037
vt 0.096306 0.547037
vt 0.097317 0.536878
vt 0.997857 0.166667
vt 0.996785 0.536402
vt 0.996786 0.166667
vt 0.997857 0.536402
vt 0.098327 0.536878
vt 0.098327 0.547037
vt 0.497857 0.166667
vt 0.000000 0.536402
vt 0.000000 0.166667
vt 0.497857 0.536402
vt 0.096811 0.547513
vt 0.097822 0.547513
vt 0.091429 0.640710
vt 0.068572 0.536402
vt 0.091429 0.536402
vt 0.068572 0.640710
vt 0.096811 0.536402
vt 0.497857 0.166667
vt 0.995714 0.536402
vt 0.497857 0.536402
vt 0.995714 0.166667
vt 0.097822 0.536402
vt 0.045714 0.536402
vt 0.068572 0.640714
vt 0.045714 0.640714
vt 0.093572 0.536402
vt 0.092857 0.757672
vt 0.092857 0.536402
vt 0.093572 0.757672
vt 0.998928 0.166667
vt 0.998928 0.536402
vt 0.092143 0.536402
vt 0.091429 0.757672
vt 0.091429 0.536402
vt 0.092143 0.757672
vt 0.094286 0.547037
vt 0.095296 0.536878
vt 0.095296 0.547037
vt 0.094286 0.536878
vt 0.094286 0.757672
vt 0.094286 0.536402
vt 1.000000 0.166667
vt 1.000000 0.536402
vt 0.095801 0.547513
vt 0.022857 0.797844
vt 0.045714 0.536402
vt 0.045714 0.797844
vt 0.022857 0.536402
vt 0.094791 0.547513
vt 0.094791 0.536402
vt 0.095801 0.536402
s 0
usemtl ID124
f 1217/571/357 1218/572/357 1219/573/357
f 1218/572/357 1217/571/357 1220/574/357
s 1
f 1225/575/358 1226/576/359 1227/577/360
f 1226/576/359 1225/575/358 1228/578/361
f 1231/579/362 1225/580/358 1232/581/363
f 1225/580/358 1231/579/362 1233/582/364
f 1236/583/365 1237/584/366 1233/585/364
f 1237/584/366 1236/583/365 1238/586/367
f 1241/587/368 1228/580/361 1237/582/366
f 1228/580/361 1241/587/368 1242/588/369
s 0
f 1245/589/370 1246/590/370 1247/591/370
f 1246/590/370 1245/589/370 1248/592/370
s 1
f 1225/580/358 1227/593/360 1232/581/363
f 1242/588/369 1226/594/359 1228/580/361
s 0
f 1251/595/371 1252/596/371 1253/597/371
f 1252/596/371 1251/595/371 1254/598/371
s 1
f 1236/599/365 1233/582/364 1231/579/362
s 0
f 1257/600/372 1258/601/372 1259/602/372
f 1258/601/372 1257/600/372 1260/603/372
s 1
f 1241/587/368 1237/582/366 1238/604/367
s 0
f 1263/605/373 1264/606/373 1265/607/373
f 1264/606/373 1263/605/373 1266/596/373
s 1
f 1242/608/369 1269/609/374 1226/610/359
f 1269/609/374 1242/608/369 1270/611/375
f 1271/612/376 1272/586/377 1269/583/374
f 1272/586/377 1271/612/376 1273/613/378
f 1227/614/360 1276/615/379 1232/616/363
f 1276/615/379 1227/614/360 1272/617/377
f 1273/618/378 1277/619/380 1276/620/379
f 1277/619/380 1273/618/378 1278/621/381
f 1277/609/380 1236/614/365 1231/610/362
f 1236/614/365 1277/609/380 1280/617/382
f 1281/622/383 1241/608/368 1238/623/367
f 1241/608/368 1281/622/383 1282/611/384
f 1281/613/383 1278/624/381 1283/625/385
f 1278/624/381 1281/613/383 1280/612/382
f 1283/579/385 1270/620/375 1282/619/384
f 1270/620/375 1283/579/385 1271/581/376
f 1271/581/376 1269/626/374 1270/620/375
s 0
f 1285/627/386 1286/628/386 1287/629/386
f 1286/628/386 1285/627/386 1288/630/386
s 1
f 1273/618/378 1276/620/379 1272/631/377
f 1278/621/381 1280/632/382 1277/619/380
f 1283/579/385 1282/619/384 1281/633/383
