# Blender 5.2.0 LTS
# www.blender.org
mtllib fondo.mtl
o Cubo
v 282.928925 -132.916901 198.822311
v 282.928925 129.172028 198.822311
v 282.928925 -132.916901 -199.718643
v 282.928925 129.172028 -199.718643
v 299.021027 -132.916901 198.822311
v 299.021027 129.172028 198.822311
v 299.021027 -132.916901 -199.718643
v 299.021027 129.172028 -199.718643
vn -1.0000 -0.0000 -0.0000
vn -0.0000 -0.0000 -1.0000
vn 1.0000 -0.0000 -0.0000
vn -0.0000 -0.0000 1.0000
vn -0.0000 -1.0000 -0.0000
vn -0.0000 1.0000 -0.0000
vt 0.000000 0.287095
vt 0.000000 0.712905
vt 1.000000 0.712905
vt 1.000000 0.287095
vt 0.475331 0.287095
vt 0.475331 0.712905
vt 0.524669 0.712905
vt 0.524669 0.287095
vt 0.475331 1.000000
vt 0.524669 1.000000
vt 0.524669 0.000000
vt 0.475331 0.000000
s 0
usemtl Material
f 1/1/1 2/2/1 4/3/1 3/4/1
f 3/5/2 4/6/2 8/7/2 7/8/2
f 7/4/3 8/3/3 6/2/3 5/1/3
f 5/8/4 6/7/4 2/6/4 1/5/4
f 3/9/5 7/10/5 5/11/5 1/12/5
f 8/10/6 4/9/6 2/12/6 6/11/6
o Cubo.001
v -198.963684 -132.916901 198.822311
v -198.963684 129.172028 198.822311
v -198.963684 -132.916901 -199.718643
v -198.963684 129.172028 -199.718643
v -182.871582 -132.916901 198.822311
v -182.871582 129.172028 198.822311
v -182.871582 -132.916901 -199.718643
v -182.871582 129.172028 -199.718643
vn -1.0000 -0.0000 -0.0000
vn -0.0000 -0.0000 -1.0000
vn 1.0000 -0.0000 -0.0000
vn -0.0000 -0.0000 1.0000
vn -0.0000 -1.0000 -0.0000
vn -0.0000 1.0000 -0.0000
vt 0.000000 0.287095
vt 0.000000 0.712905
vt 1.000000 0.712905
vt 1.000000 0.287095
vt 0.475331 0.287095
vt 0.475331 0.712905
vt 0.524669 0.712905
vt 0.524669 0.287095
vt 0.475331 1.000000
vt 0.524669 1.000000
vt 0.524669 0.000000
vt 0.475331 0.000000
s 0
usemtl Material.009
f 9/13/7 10/14/7 12/15/7 11/16/7
f 11/17/8 12/18/8 16/19/8 15/20/8
f 15/16/9 16/15/9 14/14/9 13/13/9
f 13/20/10 14/19/10 10/18/10 9/17/10
f 11/21/11 15/22/11 13/23/11 9/24/11
f 16/22/12 12/21/12 10/24/12 14/23/12
