{
	"asset":{
		"generator":"Khronos glTF Blender I/O v5.2.39",
		"version":"2.0"
	},
	"scene":0,
	"scenes":[
		{
			"name":"Scene",
			"nodes":[
				0,
				1
			]
		}
	],
	"nodes":[
		{
			"mesh":0,
			"name":"defaultMaterial.001"
		},
		{
			"mesh":1,
			"name":"defaultMaterial",
			"scale":[
				0.009116481989622116,
				0.009116483852267265,
				0.009116483852267265
			],
			"translation":[
				-0.1512243151664734,
				0.7938747406005859,
				0.3210733234882355
			]
		}
	],
	"materials":[
		{
			"doubleSided":true,
			"name":"Checker",
			"pbrMetallicRoughness":{
				"baseColorTexture":{
					"index":0
				},
				"metallicFactor":0,
				"metallicRoughnessTexture":{
					"index":1
				}
			}
		}
	],
	"meshes":[
		{
			"name":"defaultMaterial.001",
			"primitives":[
				{
					"attributes":{
						"POSITION":0,
						"NORMAL":1,
						"TEXCOORD_0":2
					},
					"indices":3,
					"material":0
				}
			]
		},
		{
			"name":"defaultMaterial",
			"primitives":[
				{
					"attributes":{
						"POSITION":4,
						"NORMAL":5,
						"TEXCOORD_0":6
					},
					"indices":7,
					"material":0
				}
			]
		}
	],
	"textures":[
		{
			"sampler":0,
			"source":0
		},
		{
			"sampler":0,
			"source":1
		}
	],
	"images":[
		{
			"mimeType":"image/jpeg",
			"name":"Checker_baseColor.jpeg.001",
			"uri":"Checker_baseColor.jpeg"
		},
		{
			"mimeType":"image/png",
			"name":"Checker_metallicRoughness.png.001",
			"uri":"Checker_metallicRoughness.png"
		}
	],
	"accessors":[
		{
			"bufferView":0,
			"componentType":5126,
			"count":503,
			"max":[
				-0.1069667637348175,
				0.8560636043548584,
				0.39343369007110596
			],
			"min":[
				-0.19548186659812927,
				0.7936301231384277,
				0.2481115758419037
			],
			"type":"VEC3"
		},
		{
			"bufferView":1,
			"componentType":5126,
			"count":503,
			"type":"VEC3"
		},
		{
			"bufferView":2,
			"componentType":5126,
			"count":503,
			"type":"VEC2"
		},
		{
			"bufferView":3,
			"componentType":5123,
			"count":1812,
			"type":"SCALAR"
		},
		{
			"bufferView":4,
			"componentType":5126,
			"count":147,
			"max":[
				0.5704060196876526,
				5.456348896026611,
				6.27195405960083
			],
			"min":[
				-0.5704079866409302,
				1.8443700075149536,
				2.659975051879883
			],
			"type":"VEC3"
		},
		{
			"bufferView":5,
			"componentType":5126,
			"count":147,
			"type":"VEC3"
		},
		{
			"bufferView":6,
			"componentType":5126,
			"count":147,
			"type":"VEC2"
		},
		{
			"bufferView":7,
			"componentType":5123,
			"count":600,
			"type":"SCALAR"
		}
	],
	"bufferViews":[
		{
			"buffer":0,
			"byteLength":6036,
			"byteOffset":0,
			"target":34962
		},
		{
			"buffer":0,
			"byteLength":6036,
			"byteOffset":6036,
			"target":34962
		},
		{
			"buffer":0,
			"byteLength":4024,
			"byteOffset":12072,
			"target":34962
		},
		{
			"buffer":0,
			"byteLength":3624,
			"byteOffset":16096,
			"target":34963
		},
		{
			"buffer":0,
			"byteLength":1764,
			"byteOffset":19720,
			"target":34962
		},
		{
			"buffer":0,
			"byteLength":1764,
			"byteOffset":21484,
			"target":34962
		},
		{
			"buffer":0,
			"byteLength":1176,
			"byteOffset":23248,
			"target":34962
		},
		{
			"buffer":0,
			"byteLength":1200,
			"byteOffset":24424,
			"target":34963
		}
	],
	"samplers":[
		{
			"magFilter":9729,
			"minFilter":9987
		}
	],
	"buffers":[
		{
			"byteLength":25624,
			"uri":"raton.bin"
		}
	]
}
