{
  "accessors": [
    {
      "bufferView": 2,
      "componentType": 5126,
      "count": 147,
      "max": [
        0.5704060196876526,
        5.456348896026611,
        6.27195405960083
      ],
      "min": [
        -0.5704079866409302,
        1.8443700075149536,
        2.659975051879883
      ],
      "type": "VEC3"
    },
    {
      "bufferView": 2,
      "byteOffset": 1764,
      "componentType": 5126,
      "count": 147,
      "max": [
        1.0,
        1.0,
        1.0
      ],
      "min": [
        -1.0,
        -1.0,
        -1.0
      ],
      "type": "VEC3"
    },
    {
      "bufferView": 3,
      "componentType": 5126,
      "count": 147,
      "max": [
        0.9993323087692261,
        0.9695068597793579,
        0.9996948838233948,
        1.0
      ],
      "min": [
        -0.22783540189266205,
        -0.969514012336731,
        -0.9992949962615967,
        1.0
      ],
      "type": "VEC4"
    },
    {
      "bufferView": 1,
      "componentType": 5126,
      "count": 147,
      "max": [
        0.9951149821281433,
        0.40874800086021423
      ],
      "min": [
        0.8172609806060791,
        0.0044450000859797
      ],
      "type": "VEC2"
    },
    {
      "bufferView": 0,
      "componentType": 5125,
      "count": 600,
      "type": "SCALAR"
    },
    {
      "bufferView": 2,
      "byteOffset": 3528,
      "componentType": 5126,
      "count": 501,
      "max": [
        4.854674816131592,
        6.821603775024414,
        7.937323093414307
      ],
      "min": [
        -4.854674816131592,
        -0.02681400068104267,
        -8.00326919555664
      ],
      "type": "VEC3"
    },
    {
      "bufferView": 2,
      "byteOffset": 9540,
      "componentType": 5126,
      "count": 501,
      "max": [
        0.9998791217803955,
        0.9967514872550964,
        0.9963939785957336
      ],
      "min": [
        -0.9998791217803955,
        -0.9999992251396179,
        -0.9994284510612488
      ],
      "type": "VEC3"
    },
    {
      "bufferView": 3,
      "byteOffset": 2352,
      "componentType": 5126,
      "count": 501,
      "max": [
        1.0,
        0.987130880355835,
        0.999999463558197,
        1.0
      ],
      "min": [
        -0.9999997615814209,
        -0.9912992119789124,
        -0.999999463558197,
        1.0
      ],
      "type": "VEC4"
    },
    {
      "bufferView": 1,
      "byteOffset": 1176,
      "componentType": 5126,
      "count": 501,
      "max": [
        0.9887790083885193,
        0.9964460134506226
      ],
      "min": [
        0.0011500000255182385,
        0.0010770000517368317
      ],
      "type": "VEC2"
    },
    {
      "bufferView": 0,
      "byteOffset": 2400,
      "componentType": 5125,
      "count": 1812,
      "type": "SCALAR"
    }
  ],
  "asset": {
    "extras": {
      "author": "Nick Scott (https://sketchfab.com/Nickjjscott)",
      "license": "CC-BY-4.0 (http://creativecommons.org/licenses/by/4.0/)",
      "source": "https://sketchfab.com/3d-models/logitech-m310-mouse-062b547dbd9a42ce94ff0c94ab9ce3af",
      "title": "Logitech M310 Mouse"
    },
    "generator": "Sketchfab-16.0.0",
    "version": "2.0"
  },
  "bufferViews": [
    {
      "buffer": 0,
      "byteLength": 9648,
      "name": "floatBufferViews",
      "target": 34963
    },
    {
      "buffer": 0,
      "byteLength": 5184,
      "byteOffset": 9648,
      "byteStride": 8,
      "name": "floatBufferViews",
      "target": 34962
    },
    {
      "buffer": 0,
      "byteLength": 15552,
      "byteOffset": 14832,
      "byteStride": 12,
      "name": "floatBufferViews",
      "target": 34962
    },
    {
      "buffer": 0,
      "byteLength": 10368,
      "byteOffset": 30384,
      "byteStride": 16,
      "name": "floatBufferViews",
      "target": 34962
    }
  ],
  "buffers": [
    {
      "byteLength": 40752,
      "uri": "scene.bin"
    }
  ],
  "images": [
    {
      "uri": "Checker_baseColor.jpeg"
    },
    {
      "uri": "Checker_metallicRoughness.png"
    },
    {
      "uri": "Checker_normal.png"
    }
  ],
  "materials": [
    {
      "doubleSided": true,
      "name": "Checker",
      "normalTexture": {
        "index": 2
      },
      "occlusionTexture": {
        "index": 1
      },
      "pbrMetallicRoughness": {
        "baseColorTexture": {
          "index": 0
        },
        "metallicFactor": 0.0,
        "metallicRoughnessTexture": {
          "index": 1
        }
      }
    }
  ],
  "meshes": [
    {
      "name": "defaultMaterial",
      "primitives": [
        {
          "attributes": {
            "NORMAL": 1,
            "POSITION": 0,
            "TANGENT": 2,
            "TEXCOORD_0": 3
          },
          "indices": 4,
          "material": 0,
          "mode": 4
        }
      ]
    },
    {
      "name": "defaultMaterial",
      "primitives": [
        {
          "attributes": {
            "NORMAL": 6,
            "POSITION": 5,
            "TANGENT": 7,
            "TEXCOORD_0": 8
          },
          "indices": 9,
          "material": 0,
          "mode": 4
        }
      ]
    }
  ],
  "nodes": [
    {
      "children": [
        1
      ],
      "matrix": [
        1.0,
        0.0,
        0.0,
        0.0,
        0.0,
        2.220446049250313e-16,
        -1.0,
        0.0,
        0.0,
        1.0,
        2.220446049250313e-16,
        0.0,
        0.0,
        0.0,
        0.0,
        1.0
      ],
      "name": "Sketchfab_model"
    },
    {
      "children": [
        2
      ],
      "matrix": [
        1.0,
        0.0,
        0.0,
        0.0,
        0.0,
        -4.371139006309477e-08,
        0.999999999999999,
        0.0,
        0.0,
        -0.999999999999999,
        -4.371139006309477e-08,
        0.0,
        0.0,
        0.0,
        0.0,
        1.0
      ],
      "name": "Collada visual scene group"
    },
    {
      "children": [
        3
      ],
      "name": "Mouse"
    },
    {
      "children": [
        4,
        6
      ],
      "name": "SM_Mouse_L"
    },
    {
      "children": [
        5
      ],
      "name": "SM_mouseWheel_L"
    },
    {
      "mesh": 0,
      "name": "defaultMaterial"
    },
    {
      "children": [
        7
      ],
      "name": "SM_mouseBody_L"
    },
    {
      "mesh": 1,
      "name": "defaultMaterial"
    }
  ],
  "samplers": [
    {
      "magFilter": 9729,
      "minFilter": 9987,
      "wrapS": 10497,
      "wrapT": 10497
    }
  ],
  "scene": 0,
  "scenes": [
    {
      "name": "Sketchfab_Scene",
      "nodes": [
        0
      ]
    }
  ],
  "textures": [
    {
      "sampler": 0,
      "source": 0
    },
    {
      "sampler": 0,
      "source": 1
    },
    {
      "sampler": 0,
      "source": 2
    }
  ]
}
