# Blender 5.2.0 LTS
# www.blender.org
mtllib Sol-MarioGalaxy2.mtl
o mesh0.001
v -0.011944 -9.938902 0.000001
v -1.863767 -9.640745 1.851824
v -0.011944 -9.785552 1.920929
v -1.809031 -9.142267 3.729271
v -0.011944 -9.281640 3.824001
v -0.011944 -8.411633 5.605944
v 1.785143 -9.142267 3.729271
v 1.726131 -8.283129 5.484819
v 3.395493 -7.902282 5.229369
v 1.710604 -7.049358 7.049359
v 3.340752 -6.726353 6.726358
v 3.395493 -5.229363 7.902283
v 4.754272 -6.265146 6.265147
v 4.865690 -4.877634 7.331983
v 6.253202 -4.766215 6.265147
v 5.217425 -3.407431 7.902283
v 6.714409 -3.352696 6.726354
v 7.037415 -1.722548 7.049358
v 7.890339 -3.407436 5.229369
v 8.271185 -1.738075 5.484819
v 9.130323 -1.797087 3.729271
v 8.399690 0.000000 5.605943
v 9.269696 0.000000 3.824000
v 9.130323 1.797087 3.729270
v 9.773608 0.000000 1.920928
v 9.628801 1.851823 1.851823
v 9.773608 1.920928 -0.000000
v 9.130323 3.729271 1.797087
v 9.269696 3.824000 -0.000000
v 8.399690 5.605943 -0.000000
v 9.130323 3.729270 -1.797087
v 8.271185 5.484819 -1.738075
v 7.890339 5.229368 -3.407437
v 7.037415 7.049358 -1.722548
v 6.714409 6.726353 -3.352697
v 5.217425 7.902282 -3.407438
v 6.253202 6.265146 -4.766216
v 4.865690 7.331982 -4.877640
v 4.754272 6.265146 -6.265147
v 3.395493 7.902282 -5.229369
v 3.340752 6.726353 -6.726358
v 1.710604 7.049358 -7.049359
v 3.395493 5.229363 -7.902283
v 1.726131 5.484814 -8.283129
v 1.785143 3.729270 -9.142267
v -0.011944 5.605943 -8.411633
v -0.011944 3.823999 -9.281640
v -1.863767 -9.640745 -1.851822
v -1.932872 -9.785552 0.000001
v -3.741214 -9.142267 -1.797081
v -3.835944 -9.281640 0.000001
v -5.617887 -8.411633 0.000001
v -3.741214 -9.142267 1.797088
v -5.496763 -8.283129 1.738075
v -5.241313 -7.902282 3.407438
v -7.061302 -7.049358 1.722548
v -6.738297 -6.726353 3.352697
v -7.914227 -5.229368 3.407437
v -6.277090 -6.265146 4.766216
v -7.343926 -4.877634 4.877640
v -6.277090 -4.766215 6.265147
v -7.914227 -3.407436 5.229369
v -6.738297 -3.352696 6.726354
v -7.061302 -1.722548 7.049358
v -5.241313 -3.407431 7.902283
v -5.496763 -1.738074 8.283129
v -3.741214 -1.797081 9.142267
v -5.617887 0.000001 8.411633
v -3.835944 0.000001 9.281640
v -3.741214 1.797088 9.142267
v -1.932872 0.000001 9.785552
v -1.863767 1.851824 9.640745
v -0.011944 1.920929 9.785552
v -1.809031 3.729271 9.142267
v -0.011944 3.824001 9.281640
v -0.011944 5.605944 8.411633
v 1.785143 3.729271 9.142267
v 1.726131 5.484819 8.283129
v 3.395493 5.229369 7.902282
v 1.710604 7.049359 7.049358
v 3.340752 6.726358 6.726353
v 3.395493 7.902283 5.229363
v 4.754272 6.265147 6.265146
v 4.865690 7.331983 4.877634
v 6.253202 6.265147 4.766215
v 5.217425 7.902283 3.407431
v 6.714409 6.726354 3.352696
v 7.037415 7.049358 1.722548
v 7.890339 5.229369 3.407436
v 8.271185 5.484819 1.738075
v -0.011944 9.938902 -0.000001
v 1.839879 9.640745 1.851822
v -0.011944 9.785552 1.920927
v 1.785143 9.142267 3.729270
v -0.011944 9.281640 3.823999
v -0.011944 8.411633 5.605943
v -1.809031 9.142267 3.729270
v -1.750019 8.283129 5.484814
v -3.419381 7.902283 5.229363
v -1.734492 7.049359 7.049358
v -3.364640 6.726358 6.726353
v -3.419381 5.229369 7.902282
v -4.778159 6.265147 6.265146
v -4.889578 4.877640 7.331982
v -6.277090 4.766216 6.265146
v -5.241313 3.407438 7.902282
v -6.738297 3.352697 6.726353
v -7.061302 1.722548 7.049358
v -7.914227 3.407437 5.229368
v -8.295073 1.738075 5.484819
v -9.154211 1.797087 3.729270
v -8.423577 0.000000 5.605943
v -9.293584 0.000000 3.824000
v -9.154211 -1.797087 3.729271
v -9.797496 0.000000 1.920928
v -9.652689 -1.851823 1.851823
v -9.797496 -1.920928 0.000000
v -9.154211 -3.729270 1.797087
v -9.293584 -3.824000 0.000000
v -8.423577 -5.605943 0.000000
v -9.154211 -3.729271 -1.797087
v -8.295073 -5.484819 -1.738075
v -7.914227 -5.229369 -3.407436
v -7.061302 -7.049358 -1.722548
v -6.738297 -6.726354 -3.352696
v -5.241313 -7.902283 -3.407431
v -6.277090 -6.265147 -4.766215
v -4.889578 -7.331983 -4.877634
v -4.778159 -6.265147 -6.265146
v -3.419381 -7.902283 -5.229363
v -3.364640 -6.726358 -6.726353
v -1.734492 -7.049359 -7.049358
v -3.419381 -5.229369 -7.902282
v -1.750019 -5.484819 -8.283129
v -1.809031 -3.729271 -9.142267
v -0.011944 -5.605944 -8.411633
v 8.673776 3.568550 3.568549
v 7.890339 3.407437 5.229368
v 7.320039 4.877640 4.877634
v 6.253202 4.766216 6.265146
v 5.776853 5.788797 5.788796
v 4.865690 4.877640 7.331982
v 5.217425 3.407438 7.902282
v 3.556606 3.568550 8.685719
v 3.717327 1.797088 9.142267
v 1.839879 1.851824 9.640745
v 1.908984 0.000001 9.785552
v -0.011944 0.000001 9.938902
v -0.011944 -1.920927 9.785552
v -1.863767 -1.851822 9.640745
v -1.809031 -3.729270 9.142267
v -3.580493 -3.568544 8.685719
v -3.419381 -5.229363 7.902283
v -4.889578 -4.877634 7.331983
v -4.778159 -6.265146 6.265147
v -1.863767 9.640745 1.851822
v -1.932872 9.785552 -0.000001
v -3.741214 9.142267 1.797081
v -3.835944 9.281640 -0.000001
v -5.617887 8.411633 -0.000001
v -3.741214 9.142267 -1.797088
v -5.496763 8.283129 -1.738075
v -5.241313 7.902282 -3.407438
v -7.061302 7.049358 -1.722548
v -6.738297 6.726353 -3.352697
v -7.914227 5.229368 -3.407437
v -6.277090 6.265146 -4.766216
v -7.343926 4.877634 -4.877640
v -6.277090 4.766215 -6.265147
v -7.914227 3.407436 -5.229369
v -6.738297 3.352696 -6.726354
v -7.061302 1.722548 -7.049358
v -5.241313 3.407431 -7.902283
v -5.496763 1.738074 -8.283129
v -3.741214 1.797081 -9.142267
v -5.617887 -0.000001 -8.411633
v -3.835944 -0.000001 -9.281640
v -3.741214 -1.797088 -9.142267
v -1.932872 -0.000001 -9.785552
v -1.863767 -1.851824 -9.640745
v -0.011944 -1.920929 -9.785552
v -0.011944 -3.824001 -9.281640
v 1.839879 -9.640745 1.851824
v 1.908984 -9.785552 0.000001
v 3.717327 -9.142267 1.797088
v 3.812056 -9.281640 0.000001
v 5.593999 -8.411633 0.000001
v 3.717327 -9.142267 -1.797081
v 5.472875 -8.283129 -1.738074
v 5.217425 -7.902283 -3.407431
v 7.037415 -7.049358 -1.722548
v 6.714409 -6.726354 -3.352696
v 7.890339 -5.229369 -3.407436
v 6.253202 -6.265147 -4.766215
v 7.320039 -4.877640 -4.877634
v 6.253202 -4.766216 -6.265146
v 7.890339 -3.407437 -5.229368
v 6.714409 -3.352697 -6.726353
v 7.037415 -1.722548 -7.049358
v 5.217425 -3.407438 -7.902282
v 5.472875 -1.738075 -8.283129
v 3.717327 -1.797088 -9.142267
v 5.593999 -0.000001 -8.411633
v 3.812056 -0.000001 -9.281640
v 3.717327 1.797081 -9.142267
v 1.908984 -0.000001 -9.785552
v 1.839879 1.851822 -9.640745
v -0.011944 1.920927 -9.785552
v -8.697663 -3.568549 3.568550
v -8.295073 -1.738075 5.484819
v -7.188640 0.000001 7.176696
v -5.496763 1.738075 8.283129
v -3.580493 3.568550 8.685719
v -1.750019 5.484819 8.283129
v -0.011944 7.176696 7.176691
v 1.726131 8.283129 5.484814
v 8.271185 1.738075 5.484819
v 7.037415 1.722548 7.049358
v 7.164752 0.000001 7.176696
v 5.593999 0.000001 8.411633
v 5.472875 -1.738074 8.283129
v 3.717327 -1.797081 9.142267
v 3.556606 -3.568544 8.685719
v 1.785143 -3.729270 9.142267
v 1.726131 -5.484814 8.283129
v -0.011944 -5.605943 8.411633
v -0.011944 -7.176691 7.176696
v -1.734492 -7.049358 7.049359
v -1.750019 -8.283129 5.484819
v -3.419381 -7.902282 5.229369
v -3.580493 -3.568550 -8.685719
v -5.241313 -3.407438 -7.902282
v -4.889578 -4.877640 -7.331982
v -6.277090 -4.766216 -6.265146
v -5.800740 -5.788797 -5.788796
v -7.343926 -4.877640 -4.877634
v -7.914227 -3.407437 -5.229368
v -8.697663 -3.568550 -3.568549
v -9.154211 -1.797087 -3.729270
v -9.652689 -1.851823 -1.851823
v -9.797496 -0.000000 -1.920928
v 3.556606 -8.685719 3.568550
v 5.217425 -7.902282 3.407438
v 4.865690 -7.331982 4.877640
v 6.253202 -6.265146 4.766216
v 5.776853 -5.788796 5.788797
v -1.863767 9.640745 -1.851824
v -1.809031 9.142267 -3.729271
v -3.580493 8.685719 -3.568550
v -3.419381 7.902282 -5.229369
v -4.889578 7.331982 -4.877640
v -4.778159 6.265146 -6.265147
v -5.800740 5.788796 -5.788797
v -3.580493 -8.685719 3.568550
v -4.889578 -7.331982 4.877640
v -5.800740 -5.788796 5.788797
v 1.839879 -9.640745 -1.851822
v 1.785143 -9.142267 -3.729270
v 3.556606 -8.685719 -3.568544
v 3.395493 -7.902283 -5.229363
v 4.865690 -7.331983 -4.877634
v 4.754272 -6.265147 -6.265146
v 5.776853 -5.788797 -5.788796
v -3.580493 8.685719 3.568544
v -5.241313 7.902283 3.407431
v -4.889578 7.331983 4.877634
v -6.277090 6.265147 4.766215
v -5.800740 5.788797 5.788796
v 1.839879 -1.851822 9.640745
v -0.011944 -3.823999 9.281640
v -1.750019 -5.484814 8.283129
v -3.364640 -6.726353 6.726358
v -0.011944 -0.000001 -9.938902
v -1.863767 1.851822 -9.640745
v -1.809031 3.729270 -9.142267
v -3.580493 3.568544 -8.685719
v -3.419381 5.229363 -7.902283
v -4.889578 4.877634 -7.331983
v 7.164752 -7.176696 0.000001
v 8.399690 -5.605943 0.000000
v 7.037415 -7.049358 1.722548
v 8.271185 -5.484819 1.738075
v 7.890339 -5.229368 3.407437
v 9.130323 -3.729270 1.797087
v 8.673776 -3.568549 3.568550
v 7.320039 4.877634 -4.877640
v 7.890339 3.407436 -5.229369
v 6.253202 4.766215 -6.265147
v 6.714409 3.352696 -6.726354
v 5.217425 3.407431 -7.902283
v 7.037415 1.722548 -7.049358
v 5.472875 1.738074 -8.283129
v -8.697663 3.568549 -3.568550
v -9.154211 1.797087 -3.729271
v -9.154211 3.729270 -1.797087
v -9.652689 1.851823 -1.851823
v -9.797496 1.920928 -0.000000
v -9.950846 0.000000 0.000000
v -9.652689 1.851823 1.851823
v -9.154211 3.729271 1.797087
v -9.293584 3.824000 -0.000000
v -8.423577 5.605943 -0.000000
v -8.295073 5.484819 -1.738075
v 8.673776 -3.568550 -3.568549
v 9.130323 -1.797087 -3.729270
v 9.130323 -3.729271 -1.797087
v 9.628801 -1.851823 -1.851823
v 9.773608 -1.920928 0.000000
v 9.773608 -0.000000 -1.920928
v 9.926958 0.000000 0.000000
v 9.628801 -1.851823 1.851823
v 9.269696 -3.824000 0.000000
v 8.271185 -5.484819 -1.738075
v -5.496763 -1.738075 -8.283129
v -7.061302 -1.722548 -7.049358
v -7.188640 -0.000001 -7.176696
v -8.423577 -0.000000 -5.605943
v -8.295073 1.738075 -5.484819
v 1.839879 9.640745 -1.851824
v 1.908984 9.785552 -0.000001
v 3.717327 9.142267 -1.797088
v 3.812056 9.281640 -0.000001
v 5.593999 8.411633 -0.000001
v 3.717327 9.142267 1.797081
v 5.472875 8.283129 1.738074
v 8.271185 1.738075 -5.484819
v 9.130323 1.797087 -3.729271
v 8.399690 -0.000000 -5.605943
v 9.269696 -0.000000 -3.824000
v -8.295073 5.484819 1.738075
v -7.914227 5.229369 3.407436
v -7.061302 7.049358 1.722548
v -6.738297 6.726354 3.352696
v 1.785143 -3.729271 -9.142267
v 1.726131 -5.484819 -8.283129
v 3.395493 -5.229369 -7.902282
v 1.710604 -7.049359 -7.049358
v 3.340752 -6.726358 -6.726353
v 3.556606 8.685719 3.568544
v -0.011944 -9.785552 -1.920927
v -1.809031 -9.142267 -3.729270
v -3.580493 -8.685719 -3.568544
v -0.011944 9.785552 -1.920929
v 1.785143 9.142267 -3.729271
v 3.556606 8.685719 -3.568550
v 7.320039 -4.877634 4.877640
v 6.714409 -6.726353 3.352697
v 5.472875 -8.283129 1.738075
v 3.556606 3.568544 -8.685719
v 4.865690 4.877634 -7.331983
v -7.188640 -7.176696 0.000001
v 1.726131 8.283129 -5.484819
v -0.011944 8.411633 -5.605944
v -0.011944 7.176691 -7.176696
v -1.750019 5.484814 -8.283129
v -1.734492 7.049358 -7.049359
v 4.865690 -4.877640 -7.331982
v -1.750019 -8.283129 -5.484814
v -0.011944 -8.411633 -5.605943
v -0.011944 -7.176696 -7.176691
v 7.164752 7.176696 -0.000001
v -7.188640 7.176696 -0.000001
v -7.343926 4.877640 4.877634
v 1.839879 -1.851824 -9.640745
v 9.628801 1.851823 -1.851823
v 7.164752 -0.000001 -7.176696
v 5.472875 1.738075 8.283129
v -8.295073 -1.738075 -5.484819
v -0.011944 9.281640 -3.824001
v -0.011944 -9.281640 -3.823999
v -1.750019 8.283129 -5.484819
v 5.776853 5.788796 -5.788797
v 6.714409 3.352697 6.726353
v -6.738297 -3.352697 -6.726353
v -5.496763 -8.283129 -1.738074
v -9.293584 -0.000000 -3.824000
v -3.364640 6.726353 -6.726358
v -5.496763 8.283129 1.738074
v -8.697663 3.568550 3.568549
v 8.673776 3.568549 -3.568550
v 8.271185 -1.738075 -5.484819
v 3.556606 -3.568550 -8.685719
v 3.812056 0.000001 9.281640
v -8.295073 -5.484819 1.738075
v 1.726131 -8.283129 -5.484814
v 5.472875 8.283129 -1.738075
vn -0.0807 -0.9936 0.0793
vn -0.0800 -0.9936 0.0800
vn -0.0866 -0.9627 0.2564
vn -0.0849 -0.9624 0.2580
vn -0.0864 -0.9627 0.2566
vn -0.0881 -0.9629 0.2550
vn -0.0925 -0.8947 0.4370
vn -0.0965 -0.8928 0.4400
vn -0.0924 -0.8948 0.4369
vn 0.0965 -0.8928 0.4400
vn 0.0925 -0.8947 0.4369
vn 0.0924 -0.8948 0.4369
vn 0.0967 -0.8927 0.4401
vn 0.2623 -0.8630 0.4318
vn 0.2629 -0.8631 0.4312
vn 0.2622 -0.8630 0.4318
vn 0.2646 -0.7561 0.5985
vn 0.2641 -0.7561 0.5988
vn 0.2683 -0.7531 0.6007
vn 0.2683 -0.7528 0.6011
vn 0.2683 -0.6007 0.7531
vn 0.2646 -0.5985 0.7561
vn 0.2683 -0.6011 0.7528
vn 0.4117 -0.5755 0.7066
vn 0.4164 -0.5708 0.7077
vn 0.4170 -0.5708 0.7073
vn 0.4117 -0.5760 0.7062
vn 0.5399 -0.5399 0.6458
vn 0.5708 -0.4164 0.7077
vn 0.5760 -0.4117 0.7062
vn 0.5755 -0.4117 0.7066
vn 0.5708 -0.4170 0.7073
vn 0.5985 -0.2646 0.7561
vn 0.6007 -0.2683 0.7531
vn 0.6011 -0.2683 0.7528
vn 0.7531 -0.2683 0.6007
vn 0.7561 -0.2646 0.5985
vn 0.7528 -0.2683 0.6011
vn 0.7561 -0.2641 0.5988
vn 0.8630 -0.2622 0.4318
vn 0.8631 -0.2629 0.4312
vn 0.8630 -0.2623 0.4318
vn 0.8947 -0.0925 0.4370
vn 0.8927 -0.0967 0.4401
vn 0.8928 -0.0965 0.4400
vn 0.8948 -0.0924 0.4369
vn 0.8928 0.0965 0.4400
vn 0.8947 0.0925 0.4370
vn 0.8948 0.0924 0.4369
vn 0.9627 0.0864 0.2566
vn 0.9627 0.0866 0.2564
vn 0.9629 0.0881 0.2550
vn 0.9624 0.0849 0.2580
vn 0.9936 0.0800 0.0800
vn 0.9935 0.0807 0.0807
vn 0.9627 0.2564 0.0866
vn 0.9624 0.2580 0.0849
vn 0.9627 0.2566 0.0864
vn 0.9629 0.2550 0.0881
vn 0.8947 0.4369 0.0925
vn 0.8928 0.4400 0.0965
vn 0.8948 0.4369 0.0924
vn 0.8928 0.4400 -0.0965
vn 0.8947 0.4369 -0.0925
vn 0.8948 0.4369 -0.0924
vn 0.8927 0.4401 -0.0967
vn 0.8630 0.4318 -0.2623
vn 0.8631 0.4312 -0.2629
vn 0.8630 0.4318 -0.2622
vn 0.7561 0.5985 -0.2646
vn 0.7561 0.5988 -0.2641
vn 0.7531 0.6007 -0.2683
vn 0.7528 0.6011 -0.2683
vn 0.6007 0.7531 -0.2683
vn 0.5985 0.7561 -0.2646
vn 0.6011 0.7528 -0.2683
vn 0.5755 0.7066 -0.4118
vn 0.5708 0.7077 -0.4164
vn 0.5708 0.7073 -0.4170
vn 0.5760 0.7062 -0.4117
vn 0.5399 0.6458 -0.5399
vn 0.4164 0.7077 -0.5708
vn 0.4117 0.7062 -0.5760
vn 0.4118 0.7066 -0.5755
vn 0.4170 0.7073 -0.5708
vn 0.2646 0.7561 -0.5985
vn 0.2683 0.7531 -0.6007
vn 0.2683 0.7528 -0.6011
vn 0.2683 0.6007 -0.7531
vn 0.2646 0.5985 -0.7561
vn 0.2683 0.6011 -0.7528
vn 0.2641 0.5988 -0.7561
vn 0.2622 0.4318 -0.8630
vn 0.2629 0.4312 -0.8631
vn 0.2623 0.4318 -0.8630
vn 0.0925 0.4369 -0.8947
vn 0.0967 0.4401 -0.8927
vn 0.0965 0.4400 -0.8928
vn 0.0924 0.4369 -0.8948
vn -0.0793 -0.9936 -0.0807
vn -0.0800 -0.9936 -0.0800
vn -0.2564 -0.9627 -0.0866
vn -0.2580 -0.9624 -0.0849
vn -0.2566 -0.9627 -0.0864
vn -0.2550 -0.9629 -0.0881
vn -0.4370 -0.8947 -0.0925
vn -0.4400 -0.8928 -0.0965
vn -0.4369 -0.8948 -0.0924
vn -0.4400 -0.8928 0.0965
vn -0.4369 -0.8947 0.0925
vn -0.4369 -0.8948 0.0924
vn -0.4401 -0.8927 0.0967
vn -0.4318 -0.8630 0.2623
vn -0.4312 -0.8631 0.2629
vn -0.4318 -0.8630 0.2622
vn -0.5985 -0.7561 0.2646
vn -0.5988 -0.7561 0.2641
vn -0.6007 -0.7531 0.2683
vn -0.6011 -0.7528 0.2683
vn -0.7531 -0.6007 0.2683
vn -0.7561 -0.5985 0.2646
vn -0.7528 -0.6011 0.2683
vn -0.7066 -0.5755 0.4117
vn -0.7077 -0.5708 0.4164
vn -0.7073 -0.5708 0.4170
vn -0.7062 -0.5760 0.4117
vn -0.6458 -0.5399 0.5399
vn -0.7077 -0.4164 0.5708
vn -0.7062 -0.4117 0.5760
vn -0.7066 -0.4118 0.5755
vn -0.7073 -0.4170 0.5708
vn -0.7561 -0.2646 0.5985
vn -0.7531 -0.2683 0.6007
vn -0.7528 -0.2683 0.6011
vn -0.6007 -0.2683 0.7531
vn -0.5985 -0.2646 0.7561
vn -0.6011 -0.2683 0.7528
vn -0.5988 -0.2641 0.7561
vn -0.4318 -0.2622 0.8630
vn -0.4312 -0.2629 0.8631
vn -0.4318 -0.2623 0.8630
vn -0.4370 -0.0925 0.8947
vn -0.4401 -0.0967 0.8927
vn -0.4400 -0.0965 0.8928
vn -0.4369 -0.0924 0.8948
vn -0.4400 0.0965 0.8928
vn -0.4369 0.0925 0.8947
vn -0.4369 0.0924 0.8948
vn -0.2566 0.0864 0.9627
vn -0.2564 0.0866 0.9627
vn -0.2550 0.0881 0.9629
vn -0.2580 0.0849 0.9624
vn -0.0800 0.0800 0.9936
vn -0.0807 0.0807 0.9935
vn -0.0866 0.2564 0.9627
vn -0.0849 0.2580 0.9624
vn -0.0864 0.2566 0.9627
vn -0.0881 0.2550 0.9629
vn -0.0925 0.4369 0.8947
vn -0.0965 0.4400 0.8928
vn -0.0924 0.4369 0.8948
vn 0.0965 0.4400 0.8928
vn 0.0925 0.4369 0.8947
vn 0.0924 0.4369 0.8948
vn 0.0967 0.4401 0.8927
vn 0.2623 0.4318 0.8630
vn 0.2629 0.4312 0.8631
vn 0.2622 0.4318 0.8630
vn 0.2646 0.5985 0.7561
vn 0.2641 0.5988 0.7561
vn 0.2683 0.6007 0.7531
vn 0.2683 0.6011 0.7528
vn 0.2683 0.7531 0.6007
vn 0.2646 0.7561 0.5985
vn 0.2683 0.7528 0.6011
vn 0.4117 0.7066 0.5755
vn 0.4164 0.7077 0.5708
vn 0.4170 0.7073 0.5708
vn 0.4117 0.7062 0.5760
vn 0.5399 0.6458 0.5399
vn 0.5708 0.7077 0.4164
vn 0.5760 0.7062 0.4117
vn 0.5755 0.7066 0.4117
vn 0.5708 0.7073 0.4170
vn 0.5986 0.7561 0.2646
vn 0.6007 0.7531 0.2683
vn 0.6011 0.7528 0.2683
vn 0.7531 0.6007 0.2683
vn 0.7561 0.5985 0.2646
vn 0.7528 0.6011 0.2683
vn 0.7561 0.5988 0.2641
vn 0.8630 0.4318 0.2622
vn 0.8631 0.4312 0.2629
vn 0.8630 0.4318 0.2623
vn 0.8927 0.4401 0.0967
vn 0.0807 0.9936 0.0793
vn 0.0800 0.9936 0.0800
vn 0.0866 0.9627 0.2564
vn 0.0849 0.9624 0.2580
vn 0.0864 0.9627 0.2566
vn 0.0881 0.9629 0.2550
vn 0.0925 0.8947 0.4369
vn 0.0965 0.8928 0.4400
vn 0.0924 0.8948 0.4369
vn -0.0965 0.8928 0.4400
vn -0.0925 0.8947 0.4369
vn -0.0924 0.8948 0.4369
vn -0.0967 0.8927 0.4401
vn -0.2623 0.8630 0.4318
vn -0.2629 0.8631 0.4312
vn -0.2622 0.8630 0.4318
vn -0.2646 0.7561 0.5985
vn -0.2641 0.7561 0.5988
vn -0.2683 0.7531 0.6007
vn -0.2683 0.7528 0.6011
vn -0.2683 0.6007 0.7531
vn -0.2646 0.5985 0.7561
vn -0.2683 0.6011 0.7528
vn -0.4118 0.5755 0.7066
vn -0.4164 0.5708 0.7077
vn -0.4170 0.5708 0.7073
vn -0.4117 0.5760 0.7062
vn -0.5399 0.5399 0.6458
vn -0.5708 0.4164 0.7077
vn -0.5760 0.4117 0.7062
vn -0.5755 0.4118 0.7066
vn -0.5708 0.4170 0.7073
vn -0.5985 0.2646 0.7561
vn -0.6007 0.2683 0.7531
vn -0.6011 0.2683 0.7528
vn -0.7531 0.2683 0.6007
vn -0.7561 0.2646 0.5985
vn -0.7528 0.2683 0.6011
vn -0.7561 0.2641 0.5988
vn -0.8630 0.2622 0.4318
vn -0.8631 0.2629 0.4312
vn -0.8630 0.2623 0.4318
vn -0.8947 0.0925 0.4370
vn -0.8927 0.0967 0.4401
vn -0.8928 0.0965 0.4400
vn -0.8948 0.0924 0.4369
vn -0.8928 -0.0965 0.4400
vn -0.8947 -0.0925 0.4370
vn -0.8948 -0.0924 0.4369
vn -0.9627 -0.0864 0.2566
vn -0.9627 -0.0866 0.2564
vn -0.9629 -0.0881 0.2550
vn -0.9624 -0.0849 0.2580
vn -0.9936 -0.0800 0.0800
vn -0.9935 -0.0807 0.0807
vn -0.9627 -0.2564 0.0866
vn -0.9624 -0.2580 0.0849
vn -0.9627 -0.2566 0.0864
vn -0.9629 -0.2550 0.0881
vn -0.8947 -0.4369 0.0925
vn -0.8928 -0.4400 0.0965
vn -0.8948 -0.4369 0.0924
vn -0.8928 -0.4400 -0.0965
vn -0.8947 -0.4369 -0.0925
vn -0.8948 -0.4369 -0.0924
vn -0.8927 -0.4401 -0.0967
vn -0.8630 -0.4318 -0.2623
vn -0.8631 -0.4312 -0.2629
vn -0.8630 -0.4318 -0.2622
vn -0.7561 -0.5985 -0.2646
vn -0.7561 -0.5988 -0.2641
vn -0.7531 -0.6007 -0.2683
vn -0.7528 -0.6011 -0.2683
vn -0.6007 -0.7531 -0.2683
vn -0.5985 -0.7561 -0.2646
vn -0.6011 -0.7528 -0.2683
vn -0.5755 -0.7066 -0.4117
vn -0.5708 -0.7077 -0.4164
vn -0.5708 -0.7073 -0.4170
vn -0.5760 -0.7062 -0.4117
vn -0.5399 -0.6458 -0.5399
vn -0.4164 -0.7077 -0.5708
vn -0.4117 -0.7062 -0.5760
vn -0.4117 -0.7066 -0.5755
vn -0.4170 -0.7073 -0.5708
vn -0.2646 -0.7561 -0.5985
vn -0.2683 -0.7531 -0.6007
vn -0.2683 -0.7528 -0.6011
vn -0.2683 -0.6007 -0.7531
vn -0.2646 -0.5985 -0.7561
vn -0.2683 -0.6011 -0.7528
vn -0.2641 -0.5988 -0.7561
vn -0.2622 -0.4318 -0.8630
vn -0.2629 -0.4312 -0.8631
vn -0.2623 -0.4318 -0.8630
vn -0.0925 -0.4369 -0.8947
vn -0.0967 -0.4401 -0.8927
vn -0.0965 -0.4400 -0.8928
vn 0.9283 0.2629 0.2629
vn 0.9327 0.2551 0.2551
vn 0.9282 0.2631 0.2631
vn 0.8629 0.4324 0.2616
vn 0.8108 0.4139 0.4139
vn 0.8043 0.4202 0.4202
vn 0.8111 0.4136 0.4136
vn 0.7066 0.4118 0.5755
vn 0.7077 0.4164 0.5708
vn 0.7062 0.4117 0.5760
vn 0.6458 0.5399 0.5399
vn 0.6298 0.5492 0.5492
vn 0.5492 0.6298 0.5492
vn 0.5492 0.5492 0.6298
vn 0.5399 0.5399 0.6458
vn 0.5708 0.4164 0.7077
vn 0.5755 0.4118 0.7066
vn 0.5760 0.4117 0.7062
vn 0.4139 0.4139 0.8108
vn 0.4136 0.4136 0.8111
vn 0.4202 0.4202 0.8043
vn 0.2616 0.4324 0.8629
vn 0.2629 0.2629 0.9283
vn 0.2631 0.2631 0.9282
vn 0.2551 0.2551 0.9327
vn 0.2566 0.0864 0.9627
vn 0.2564 0.0866 0.9627
vn 0.2580 0.0849 0.9624
vn 0.0800 0.0800 0.9936
vn 0.0807 0.0807 0.9935
vn 0.0793 0.0793 0.9937
vn -0.0793 0.0793 0.9937
vn -0.0800 -0.0800 0.9936
vn -0.0793 -0.0793 0.9937
vn -0.0807 -0.0807 0.9935
vn -0.0866 -0.2564 0.9627
vn -0.0864 -0.2566 0.9627
vn -0.0849 -0.2580 0.9624
vn -0.2629 -0.2629 0.9283
vn -0.2551 -0.2551 0.9327
vn -0.2631 -0.2631 0.9282
vn -0.4324 -0.2616 0.8629
vn -0.4139 -0.4139 0.8108
vn -0.4202 -0.4202 0.8043
vn -0.4136 -0.4136 0.8111
vn -0.4118 -0.5755 0.7066
vn -0.4164 -0.5708 0.7077
vn -0.4117 -0.5760 0.7062
vn -0.5399 -0.5399 0.6458
vn -0.0793 0.9936 0.0807
vn -0.0800 0.9936 0.0800
vn -0.2564 0.9627 0.0866
vn -0.2580 0.9624 0.0849
vn -0.2566 0.9627 0.0864
vn -0.2550 0.9629 0.0881
vn -0.4370 0.8947 0.0925
vn -0.4400 0.8928 0.0965
vn -0.4369 0.8948 0.0924
vn -0.4400 0.8928 -0.0965
vn -0.4369 0.8947 -0.0925
vn -0.4369 0.8948 -0.0924
vn -0.4401 0.8927 -0.0967
vn -0.4318 0.8630 -0.2623
vn -0.4312 0.8631 -0.2629
vn -0.4318 0.8630 -0.2622
vn -0.5985 0.7561 -0.2646
vn -0.5988 0.7561 -0.2641
vn -0.6007 0.7531 -0.2683
vn -0.6011 0.7528 -0.2683
vn -0.7531 0.6007 -0.2683
vn -0.7561 0.5985 -0.2646
vn -0.7528 0.6011 -0.2683
vn -0.7066 0.5755 -0.4117
vn -0.7077 0.5708 -0.4164
vn -0.7073 0.5708 -0.4170
vn -0.7062 0.5760 -0.4117
vn -0.6458 0.5399 -0.5399
vn -0.7077 0.4164 -0.5708
vn -0.7062 0.4117 -0.5760
vn -0.7066 0.4118 -0.5755
vn -0.7073 0.4170 -0.5708
vn -0.7561 0.2646 -0.5985
vn -0.7531 0.2683 -0.6007
vn -0.7528 0.2683 -0.6011
vn -0.6007 0.2683 -0.7531
vn -0.5985 0.2646 -0.7561
vn -0.6011 0.2683 -0.7528
vn -0.5988 0.2641 -0.7561
vn -0.4318 0.2622 -0.8630
vn -0.4312 0.2629 -0.8631
vn -0.4318 0.2623 -0.8630
vn -0.4370 0.0925 -0.8947
vn -0.4401 0.0967 -0.8927
vn -0.4400 0.0965 -0.8928
vn -0.4369 0.0924 -0.8948
vn -0.4400 -0.0965 -0.8928
vn -0.4369 -0.0925 -0.8947
vn -0.4369 -0.0924 -0.8948
vn -0.2566 -0.0864 -0.9627
vn -0.2564 -0.0866 -0.9627
vn -0.2550 -0.0881 -0.9629
vn -0.2580 -0.0849 -0.9624
vn -0.0800 -0.0800 -0.9936
vn -0.0807 -0.0807 -0.9935
vn -0.0866 -0.2564 -0.9627
vn -0.0849 -0.2580 -0.9624
vn -0.0864 -0.2566 -0.9627
vn -0.0881 -0.2550 -0.9629
vn -0.0924 -0.4369 -0.8948
vn 0.0793 -0.9936 0.0807
vn 0.0800 -0.9936 0.0800
vn 0.2564 -0.9627 0.0866
vn 0.2580 -0.9624 0.0849
vn 0.2566 -0.9627 0.0864
vn 0.2550 -0.9629 0.0881
vn 0.4369 -0.8947 0.0925
vn 0.4400 -0.8928 0.0965
vn 0.4369 -0.8948 0.0924
vn 0.4400 -0.8928 -0.0965
vn 0.4370 -0.8947 -0.0925
vn 0.4369 -0.8948 -0.0924
vn 0.4401 -0.8927 -0.0967
vn 0.4318 -0.8630 -0.2623
vn 0.4312 -0.8631 -0.2629
vn 0.4318 -0.8630 -0.2622
vn 0.5985 -0.7561 -0.2646
vn 0.5988 -0.7561 -0.2641
vn 0.6007 -0.7531 -0.2683
vn 0.6011 -0.7528 -0.2683
vn 0.7531 -0.6007 -0.2683
vn 0.7561 -0.5985 -0.2646
vn 0.7528 -0.6011 -0.2683
vn 0.7066 -0.5755 -0.4117
vn 0.7077 -0.5708 -0.4164
vn 0.7073 -0.5708 -0.4170
vn 0.7062 -0.5760 -0.4117
vn 0.6458 -0.5399 -0.5399
vn 0.7077 -0.4164 -0.5708
vn 0.7062 -0.4117 -0.5760
vn 0.7066 -0.4118 -0.5755
vn 0.7073 -0.4170 -0.5708
vn 0.7561 -0.2646 -0.5985
vn 0.7531 -0.2683 -0.6007
vn 0.7528 -0.2683 -0.6011
vn 0.6007 -0.2683 -0.7531
vn 0.5985 -0.2646 -0.7561
vn 0.6011 -0.2683 -0.7528
vn 0.5988 -0.2641 -0.7561
vn 0.4318 -0.2622 -0.8630
vn 0.4312 -0.2629 -0.8631
vn 0.4318 -0.2623 -0.8630
vn 0.4369 -0.0925 -0.8947
vn 0.4401 -0.0967 -0.8927
vn 0.4400 -0.0965 -0.8928
vn 0.4369 -0.0924 -0.8948
vn 0.4400 0.0965 -0.8928
vn 0.4370 0.0925 -0.8947
vn 0.4369 0.0924 -0.8948
vn 0.2566 0.0864 -0.9627
vn 0.2564 0.0866 -0.9627
vn 0.2550 0.0881 -0.9629
vn 0.2580 0.0849 -0.9624
vn 0.0800 0.0800 -0.9936
vn 0.0807 0.0807 -0.9935
vn 0.0866 0.2564 -0.9627
vn 0.0849 0.2580 -0.9624
vn 0.0864 0.2566 -0.9627
vn 0.0881 0.2550 -0.9629
vn -0.8630 -0.2623 0.4318
vn -0.8630 -0.2622 0.4318
vn -0.8629 -0.2616 0.4324
vn -0.8631 -0.2629 0.4312
vn -0.7561 -0.2641 0.5988
vn -0.7813 -0.1019 0.6158
vn -0.7807 -0.1007 0.6167
vn -0.7807 -0.1009 0.6167
vn -0.7819 -0.1032 0.6148
vn -0.7807 0.1009 0.6167
vn -0.7813 0.1019 0.6158
vn -0.7819 0.1032 0.6148
vn -0.6158 0.1019 0.7813
vn -0.6167 0.1009 0.7807
vn -0.6148 0.1032 0.7819
vn -0.6167 0.1007 0.7807
vn -0.4401 0.0967 0.8927
vn -0.4318 0.2623 0.8630
vn -0.4312 0.2629 0.8631
vn -0.4318 0.2622 0.8630
vn -0.4324 0.2616 0.8629
vn -0.4139 0.4139 0.8108
vn -0.4202 0.4202 0.8043
vn -0.2622 0.4318 0.8630
vn -0.2623 0.4318 0.8630
vn -0.2616 0.4324 0.8629
vn -0.2629 0.4312 0.8631
vn -0.0967 0.4401 0.8927
vn -0.1009 0.6167 0.7807
vn -0.1007 0.6167 0.7807
vn -0.1019 0.6158 0.7813
vn -0.1032 0.6148 0.7819
vn -0.1019 0.7813 0.6158
vn -0.1009 0.7807 0.6167
vn -0.1032 0.7819 0.6148
vn 0.1009 0.7807 0.6167
vn 0.1019 0.7813 0.6158
vn 0.1032 0.7819 0.6148
vn 0.1007 0.7807 0.6167
vn 0.2641 0.7561 0.5988
vn 0.2622 0.8630 0.4318
vn 0.2629 0.8631 0.4312
vn 0.2623 0.8630 0.4318
vn 0.8630 0.2623 0.4318
vn 0.8630 0.2622 0.4318
vn 0.8629 0.2616 0.4324
vn 0.8631 0.2629 0.4312
vn 0.7561 0.2646 0.5985
vn 0.7561 0.2641 0.5988
vn 0.7531 0.2683 0.6007
vn 0.7813 0.1019 0.6158
vn 0.7807 0.1007 0.6167
vn 0.7807 0.1009 0.6167
vn 0.7819 0.1032 0.6148
vn 0.7807 -0.1009 0.6167
vn 0.7813 -0.1019 0.6158
vn 0.7819 -0.1032 0.6148
vn 0.6158 -0.1019 0.7813
vn 0.6167 -0.1009 0.7807
vn 0.6148 -0.1032 0.7819
vn 0.6167 -0.1007 0.7807
vn 0.4400 -0.0965 0.8928
vn 0.4401 -0.0967 0.8927
vn 0.4370 -0.0925 0.8947
vn 0.4318 -0.2623 0.8630
vn 0.4312 -0.2629 0.8631
vn 0.4318 -0.2622 0.8630
vn 0.4324 -0.2616 0.8629
vn 0.4139 -0.4139 0.8108
vn 0.4202 -0.4202 0.8043
vn 0.2622 -0.4318 0.8630
vn 0.2623 -0.4318 0.8630
vn 0.2616 -0.4324 0.8629
vn 0.2629 -0.4312 0.8631
vn 0.0925 -0.4369 0.8947
vn 0.0967 -0.4401 0.8927
vn 0.0965 -0.4400 0.8928
vn 0.1009 -0.6167 0.7807
vn 0.1007 -0.6167 0.7807
vn 0.1019 -0.6158 0.7813
vn 0.1032 -0.6148 0.7819
vn 0.1019 -0.7813 0.6158
vn 0.1009 -0.7807 0.6167
vn 0.1032 -0.7819 0.6148
vn -0.1009 -0.7807 0.6167
vn -0.1019 -0.7813 0.6158
vn -0.1032 -0.7819 0.6148
vn -0.1007 -0.7807 0.6167
vn -0.2683 -0.7531 0.6007
vn -0.2641 -0.7561 0.5988
vn -0.2646 -0.7561 0.5985
vn -0.2622 -0.8630 0.4318
vn -0.2629 -0.8631 0.4312
vn -0.2623 -0.8630 0.4318
vn -0.2629 -0.2629 -0.9283
vn -0.2551 -0.2551 -0.9327
vn -0.2631 -0.2631 -0.9282
vn -0.2616 -0.4324 -0.8629
vn -0.4139 -0.4139 -0.8108
vn -0.4202 -0.4202 -0.8043
vn -0.4136 -0.4136 -0.8111
vn -0.5755 -0.4117 -0.7066
vn -0.5708 -0.4164 -0.7077
vn -0.5760 -0.4117 -0.7062
vn -0.5399 -0.5399 -0.6458
vn -0.5492 -0.5492 -0.6298
vn -0.5492 -0.6298 -0.5492
vn -0.6298 -0.5492 -0.5492
vn -0.6458 -0.5399 -0.5399
vn -0.7077 -0.4164 -0.5708
vn -0.7066 -0.4118 -0.5755
vn -0.7062 -0.4117 -0.5760
vn -0.8108 -0.4139 -0.4139
vn -0.8111 -0.4136 -0.4136
vn -0.8043 -0.4202 -0.4202
vn -0.8629 -0.4324 -0.2616
vn -0.9283 -0.2629 -0.2629
vn -0.9282 -0.2631 -0.2631
vn -0.9327 -0.2551 -0.2551
vn -0.9627 -0.0864 -0.2566
vn -0.9627 -0.0866 -0.2564
vn -0.9624 -0.0849 -0.2580
vn -0.9936 -0.0800 -0.0800
vn -0.9935 -0.0807 -0.0807
vn 0.0807 -0.9936 0.0793
vn 0.0866 -0.9627 0.2564
vn 0.0864 -0.9627 0.2566
vn 0.0849 -0.9624 0.2580
vn 0.2629 -0.9283 0.2629
vn 0.2551 -0.9327 0.2551
vn 0.2631 -0.9282 0.2631
vn 0.4318 -0.8630 0.2623
vn 0.4324 -0.8629 0.2616
vn 0.4318 -0.8630 0.2622
vn 0.4139 -0.8108 0.4139
vn 0.4202 -0.8043 0.4202
vn 0.4136 -0.8111 0.4136
vn 0.4117 -0.7066 0.5755
vn 0.4164 -0.7077 0.5708
vn 0.4117 -0.7062 0.5760
vn 0.5399 -0.6458 0.5399
vn 0.5492 -0.6298 0.5492
vn 0.6298 -0.5492 0.5492
vn 0.5492 -0.5492 0.6298
vn -0.0800 0.9936 -0.0800
vn -0.0793 0.9936 -0.0807
vn -0.2564 0.9627 -0.0866
vn -0.2566 0.9627 -0.0864
vn -0.2580 0.9624 -0.0849
vn -0.2629 0.9283 -0.2629
vn -0.2551 0.9327 -0.2551
vn -0.2631 0.9282 -0.2631
vn -0.2623 0.8630 -0.4318
vn -0.2616 0.8629 -0.4324
vn -0.2622 0.8630 -0.4318
vn -0.4139 0.8108 -0.4139
vn -0.4202 0.8043 -0.4202
vn -0.4136 0.8111 -0.4136
vn -0.5755 0.7066 -0.4117
vn -0.5708 0.7077 -0.4164
vn -0.5760 0.7062 -0.4117
vn -0.5399 0.6458 -0.5399
vn -0.5492 0.6298 -0.5492
vn -0.5492 0.5492 -0.6298
vn -0.6298 0.5492 -0.5492
vn -0.0793 -0.9936 0.0807
vn -0.2564 -0.9627 0.0866
vn -0.2566 -0.9627 0.0864
vn -0.2580 -0.9624 0.0849
vn -0.2629 -0.9283 0.2629
vn -0.2551 -0.9327 0.2551
vn -0.2631 -0.9282 0.2631
vn -0.2616 -0.8629 0.4324
vn -0.4139 -0.8108 0.4139
vn -0.4202 -0.8043 0.4202
vn -0.4136 -0.8111 0.4136
vn -0.5755 -0.7066 0.4117
vn -0.5708 -0.7077 0.4164
vn -0.5760 -0.7062 0.4117
vn -0.5399 -0.6458 0.5399
vn -0.5492 -0.6298 0.5492
vn -0.5492 -0.5492 0.6298
vn -0.6298 -0.5492 0.5492
vn 0.0800 -0.9936 -0.0800
vn 0.0793 -0.9936 -0.0807
vn 0.2564 -0.9627 -0.0866
vn 0.2566 -0.9627 -0.0864
vn 0.2580 -0.9624 -0.0849
vn 0.2629 -0.9283 -0.2629
vn 0.2551 -0.9327 -0.2551
vn 0.2631 -0.9282 -0.2631
vn 0.2623 -0.8630 -0.4318
vn 0.2616 -0.8629 -0.4324
vn 0.2622 -0.8630 -0.4318
vn 0.4139 -0.8108 -0.4139
vn 0.4202 -0.8043 -0.4202
vn 0.4136 -0.8111 -0.4136
vn 0.5755 -0.7066 -0.4118
vn 0.5708 -0.7077 -0.4164
vn 0.5760 -0.7062 -0.4117
vn 0.5399 -0.6458 -0.5399
vn 0.5492 -0.6298 -0.5492
vn 0.5492 -0.5492 -0.6298
vn 0.6298 -0.5492 -0.5492
vn -0.0807 0.9936 0.0793
vn -0.0866 0.9627 0.2564
vn -0.0864 0.9627 0.2566
vn -0.0849 0.9624 0.2580
vn -0.2629 0.9283 0.2629
vn -0.2551 0.9327 0.2551
vn -0.2631 0.9282 0.2631
vn -0.4318 0.8630 0.2623
vn -0.4324 0.8629 0.2616
vn -0.4318 0.8630 0.2622
vn -0.4139 0.8108 0.4139
vn -0.4202 0.8043 0.4202
vn -0.4136 0.8111 0.4136
vn -0.4117 0.7066 0.5755
vn -0.4164 0.7077 0.5708
vn -0.4117 0.7062 0.5760
vn -0.5399 0.6458 0.5399
vn -0.5492 0.6298 0.5492
vn -0.6298 0.5492 0.5492
vn -0.5492 0.5492 0.6298
vn 0.0864 -0.2566 0.9627
vn 0.0866 -0.2564 0.9627
vn 0.0849 -0.2580 0.9624
vn 0.0881 -0.2550 0.9629
vn -0.0881 -0.2550 0.9629
vn -0.0925 -0.4369 0.8947
vn -0.0924 -0.4369 0.8948
vn -0.0965 -0.4400 0.8928
vn -0.0967 -0.4401 0.8927
vn -0.1009 -0.6167 0.7807
vn -0.1019 -0.6158 0.7813
vn -0.1007 -0.6167 0.7807
vn -0.2683 -0.6007 0.7531
vn -0.2646 -0.5985 0.7561
vn -0.2641 -0.5988 0.7561
vn -0.2683 -0.6011 0.7528
vn -0.4170 -0.5708 0.7073
vn -0.4164 -0.7077 0.5708
vn -0.4170 -0.7073 0.5708
vn -0.4117 -0.7066 0.5755
vn -0.4117 -0.7062 0.5760
vn -0.0793 -0.0793 -0.9937
vn -0.0800 0.0800 -0.9936
vn -0.0793 0.0793 -0.9937
vn -0.0807 0.0807 -0.9935
vn -0.0866 0.2564 -0.9627
vn -0.0864 0.2566 -0.9627
vn -0.0849 0.2580 -0.9624
vn -0.2629 0.2629 -0.9283
vn -0.2551 0.2551 -0.9327
vn -0.2631 0.2631 -0.9282
vn -0.4324 0.2616 -0.8629
vn -0.4139 0.4139 -0.8108
vn -0.4202 0.4202 -0.8043
vn -0.4136 0.4136 -0.8111
vn -0.4118 0.5755 -0.7066
vn -0.4164 0.5708 -0.7077
vn -0.4117 0.5760 -0.7062
vn -0.5399 0.5399 -0.6458
vn 0.6167 -0.7807 -0.1009
vn 0.6158 -0.7813 -0.1019
vn 0.6167 -0.7807 -0.1007
vn 0.6148 -0.7819 -0.1032
vn 0.7813 -0.6158 -0.1019
vn 0.7819 -0.6148 -0.1032
vn 0.7807 -0.6167 -0.1009
vn 0.7807 -0.6167 0.1009
vn 0.7819 -0.6148 0.1032
vn 0.7813 -0.6158 0.1019
vn 0.7807 -0.6167 0.1007
vn 0.7531 -0.6007 0.2683
vn 0.7561 -0.5985 0.2646
vn 0.7561 -0.5988 0.2641
vn 0.8630 -0.4318 0.2622
vn 0.8630 -0.4318 0.2623
vn 0.8631 -0.4312 0.2629
vn 0.8629 -0.4324 0.2616
vn 0.9283 -0.2629 0.2629
vn 0.9282 -0.2631 0.2631
vn 0.8629 -0.2616 0.4324
vn 0.7077 0.5708 -0.4164
vn 0.7066 0.5755 -0.4117
vn 0.7073 0.5708 -0.4170
vn 0.7062 0.5760 -0.4117
vn 0.8108 0.4139 -0.4139
vn 0.8111 0.4136 -0.4136
vn 0.7066 0.4118 -0.5755
vn 0.7062 0.4117 -0.5760
vn 0.7077 0.4164 -0.5708
vn 0.7073 0.4170 -0.5708
vn 0.5708 0.4164 -0.7077
vn 0.5755 0.4117 -0.7066
vn 0.5708 0.4170 -0.7073
vn 0.5985 0.2646 -0.7561
vn 0.6007 0.2683 -0.7531
vn 0.6011 0.2683 -0.7528
vn 0.5988 0.2641 -0.7561
vn 0.6158 0.1019 -0.7813
vn 0.6167 0.1007 -0.7807
vn 0.6167 0.1009 -0.7807
vn 0.4401 0.0967 -0.8927
vn -0.8108 0.4139 -0.4139
vn -0.8111 0.4136 -0.4136
vn -0.8043 0.4202 -0.4202
vn -0.8630 0.2622 -0.4318
vn -0.8629 0.2616 -0.4324
vn -0.8630 0.2623 -0.4318
vn -0.9283 0.2629 -0.2629
vn -0.9282 0.2631 -0.2631
vn -0.9327 0.2551 -0.2551
vn -0.9627 0.2566 -0.0864
vn -0.9627 0.2564 -0.0866
vn -0.9624 0.2580 -0.0849
vn -0.9936 0.0800 -0.0800
vn -0.9935 0.0807 -0.0807
vn -0.9937 0.0793 -0.0793
vn -0.9937 -0.0793 -0.0793
vn -0.9937 -0.0793 0.0793
vn -0.9627 0.0866 0.2564
vn -0.9627 0.0864 0.2566
vn -0.9629 0.0881 0.2550
vn -0.9624 0.0849 0.2580
vn -0.9283 0.2629 0.2629
vn -0.9327 0.2551 0.2551
vn -0.9627 0.2566 0.0864
vn -0.9624 0.2580 0.0849
vn -0.9627 0.2564 0.0866
vn -0.9629 0.2550 0.0881
vn -0.9629 0.2550 -0.0881
vn -0.8947 0.4369 -0.0925
vn -0.8928 0.4400 -0.0965
vn -0.8948 0.4369 -0.0924
vn -0.8927 0.4401 -0.0967
vn -0.7807 0.6167 -0.1009
vn -0.7807 0.6167 -0.1007
vn -0.7813 0.6158 -0.1019
vn -0.7561 0.5988 -0.2641
vn 0.8108 -0.4139 -0.4139
vn 0.8111 -0.4136 -0.4136
vn 0.8043 -0.4202 -0.4202
vn 0.8630 -0.2622 -0.4318
vn 0.8629 -0.2616 -0.4324
vn 0.8630 -0.2623 -0.4318
vn 0.9283 -0.2629 -0.2629
vn 0.9282 -0.2631 -0.2631
vn 0.9327 -0.2551 -0.2551
vn 0.9627 -0.2566 -0.0864
vn 0.9627 -0.2564 -0.0866
vn 0.9624 -0.2580 -0.0849
vn 0.9936 -0.0800 -0.0800
vn 0.9935 -0.0807 -0.0807
vn 0.9937 -0.0793 -0.0793
vn 0.9936 0.0800 -0.0800
vn 0.9937 0.0793 -0.0793
vn 0.9937 0.0793 0.0793
vn 0.9627 -0.0866 0.2564
vn 0.9627 -0.0864 0.2566
vn 0.9629 -0.0881 0.2550
vn 0.9624 -0.0849 0.2580
vn 0.9327 -0.2551 0.2551
vn 0.9627 -0.2566 0.0864
vn 0.9624 -0.2580 0.0849
vn 0.9627 -0.2564 0.0866
vn 0.9629 -0.2550 0.0881
vn 0.9629 -0.2550 -0.0881
vn 0.8947 -0.4369 -0.0925
vn 0.8928 -0.4400 -0.0965
vn 0.8948 -0.4369 -0.0924
vn 0.8927 -0.4401 -0.0967
vn 0.7807 -0.6167 -0.1007
vn 0.7561 -0.5988 -0.2641
vn -0.4318 -0.2623 -0.8630
vn -0.4318 -0.2622 -0.8630
vn -0.4324 -0.2616 -0.8629
vn -0.4312 -0.2629 -0.8631
vn -0.5985 -0.2646 -0.7561
vn -0.5988 -0.2641 -0.7561
vn -0.6007 -0.2683 -0.7531
vn -0.6158 -0.1019 -0.7813
vn -0.6167 -0.1007 -0.7807
vn -0.6167 -0.1009 -0.7807
vn -0.6148 -0.1032 -0.7819
vn -0.6167 0.1009 -0.7807
vn -0.6158 0.1019 -0.7813
vn -0.6148 0.1032 -0.7819
vn -0.7813 0.1019 -0.6158
vn -0.7807 0.1009 -0.6167
vn -0.7819 0.1032 -0.6148
vn -0.7807 0.1007 -0.6167
vn -0.8928 0.0965 -0.4400
vn -0.8927 0.0967 -0.4401
vn -0.8947 0.0925 -0.4369
vn -0.8631 0.2629 -0.4312
vn 0.0793 0.9936 -0.0807
vn 0.0800 0.9936 -0.0800
vn 0.2564 0.9627 -0.0866
vn 0.2580 0.9624 -0.0849
vn 0.2566 0.9627 -0.0864
vn 0.2550 0.9629 -0.0881
vn 0.4369 0.8947 -0.0925
vn 0.4400 0.8928 -0.0965
vn 0.4369 0.8948 -0.0924
vn 0.4400 0.8928 0.0965
vn 0.4370 0.8947 0.0925
vn 0.4369 0.8948 0.0924
vn 0.4401 0.8927 0.0967
vn 0.4318 0.8630 0.2623
vn 0.4312 0.8631 0.2629
vn 0.4318 0.8630 0.2622
vn 0.5988 0.7561 0.2641
vn 0.7531 0.2683 -0.6007
vn 0.7561 0.2646 -0.5985
vn 0.7528 0.2683 -0.6011
vn 0.7561 0.2641 -0.5988
vn 0.8630 0.2622 -0.4318
vn 0.8631 0.2629 -0.4312
vn 0.8630 0.2623 -0.4318
vn 0.8947 0.0925 -0.4370
vn 0.8927 0.0967 -0.4401
vn 0.8928 0.0965 -0.4400
vn 0.8948 0.0924 -0.4369
vn 0.8928 -0.0965 -0.4400
vn 0.8947 -0.0925 -0.4370
vn 0.8948 -0.0924 -0.4369
vn 0.9627 -0.0864 -0.2566
vn 0.9627 -0.0866 -0.2564
vn 0.9629 -0.0881 -0.2550
vn 0.9624 -0.0849 -0.2580
vn -0.8928 0.4400 0.0965
vn -0.8947 0.4369 0.0925
vn -0.8948 0.4369 0.0924
vn -0.8927 0.4401 0.0967
vn -0.8630 0.4318 0.2623
vn -0.8631 0.4312 0.2629
vn -0.8630 0.4318 0.2622
vn -0.7561 0.5985 0.2646
vn -0.7561 0.5988 0.2641
vn -0.7531 0.6007 0.2683
vn -0.7528 0.6011 0.2683
vn -0.6007 0.7531 0.2683
vn -0.5985 0.7561 0.2646
vn -0.6011 0.7528 0.2683
vn -0.5755 0.7066 0.4117
vn -0.5708 0.7077 0.4164
vn -0.5708 0.7073 0.4170
vn -0.5760 0.7062 0.4117
vn 0.0965 -0.4400 -0.8928
vn 0.0925 -0.4369 -0.8947
vn 0.0924 -0.4369 -0.8948
vn 0.0967 -0.4401 -0.8927
vn 0.2623 -0.4318 -0.8630
vn 0.2629 -0.4312 -0.8631
vn 0.2622 -0.4318 -0.8630
vn 0.2646 -0.5985 -0.7561
vn 0.2641 -0.5988 -0.7561
vn 0.2683 -0.6007 -0.7531
vn 0.2683 -0.6011 -0.7528
vn 0.2683 -0.7531 -0.6007
vn 0.2646 -0.7561 -0.5985
vn 0.2683 -0.7528 -0.6011
vn 0.4117 -0.7066 -0.5755
vn 0.4164 -0.7077 -0.5708
vn 0.4170 -0.7073 -0.5708
vn 0.4117 -0.7062 -0.5760
vn 0.0793 0.9936 0.0807
vn 0.2564 0.9627 0.0866
vn 0.2566 0.9627 0.0864
vn 0.2580 0.9624 0.0849
vn 0.2629 0.9283 0.2629
vn 0.2551 0.9327 0.2551
vn 0.2631 0.9282 0.2631
vn 0.2616 0.8629 0.4324
vn 0.4139 0.8108 0.4139
vn 0.4202 0.8043 0.4202
vn 0.4136 0.8111 0.4136
vn -0.0807 -0.9936 -0.0793
vn -0.0866 -0.9627 -0.2564
vn -0.0864 -0.9627 -0.2566
vn -0.0849 -0.9624 -0.2580
vn -0.2629 -0.9283 -0.2629
vn -0.2551 -0.9327 -0.2551
vn -0.2631 -0.9282 -0.2631
vn -0.4318 -0.8630 -0.2623
vn -0.4324 -0.8629 -0.2616
vn -0.4318 -0.8630 -0.2622
vn -0.4139 -0.8108 -0.4139
vn -0.4202 -0.8043 -0.4202
vn -0.4136 -0.8111 -0.4136
vn 0.0807 0.9936 -0.0793
vn 0.0866 0.9627 -0.2564
vn 0.0864 0.9627 -0.2566
vn 0.0849 0.9624 -0.2580
vn 0.2629 0.9283 -0.2629
vn 0.2551 0.9327 -0.2551
vn 0.2631 0.9282 -0.2631
vn 0.4318 0.8630 -0.2623
vn 0.4324 0.8629 -0.2616
vn 0.4318 0.8630 -0.2622
vn 0.4139 0.8108 -0.4139
vn 0.4202 0.8043 -0.4202
vn 0.4136 0.8111 -0.4136
vn 0.7066 -0.5755 0.4118
vn 0.7077 -0.5708 0.4164
vn 0.7062 -0.5760 0.4117
vn 0.7073 -0.5708 0.4170
vn 0.5708 -0.7077 0.4164
vn 0.5708 -0.7073 0.4170
vn 0.5755 -0.7066 0.4117
vn 0.5985 -0.7561 0.2646
vn 0.6011 -0.7528 0.2683
vn 0.6007 -0.7531 0.2683
vn 0.5988 -0.7561 0.2641
vn 0.6158 -0.7813 0.1019
vn 0.6167 -0.7807 0.1009
vn 0.6167 -0.7807 0.1007
vn 0.4401 -0.8927 0.0967
vn 0.2629 0.2629 -0.9283
vn 0.2551 0.2551 -0.9327
vn 0.2631 0.2631 -0.9282
vn 0.2616 0.4324 -0.8629
vn 0.4139 0.4139 -0.8108
vn 0.4202 0.4202 -0.8043
vn 0.4136 0.4136 -0.8111
vn 0.5760 0.4117 -0.7062
vn 0.5399 0.5399 -0.6458
vn -0.6167 -0.7807 0.1009
vn -0.6158 -0.7813 0.1019
vn -0.6167 -0.7807 0.1007
vn -0.6148 -0.7819 0.1032
vn -0.7813 -0.6158 0.1019
vn -0.7819 -0.6148 0.1032
vn -0.7807 -0.6167 0.1009
vn -0.7807 -0.6167 -0.1009
vn -0.7819 -0.6148 -0.1032
vn -0.7813 -0.6158 -0.1019
vn -0.7807 -0.6167 -0.1007
vn 0.2629 -0.2629 0.9283
vn 0.2631 -0.2631 0.9282
vn 0.2551 -0.2551 0.9327
vn 0.2566 -0.0864 0.9627
vn 0.2580 -0.0849 0.9624
vn 0.2564 -0.0866 0.9627
vn 0.0800 -0.0800 0.9936
vn 0.0807 -0.0807 0.9935
vn 0.0793 -0.0793 0.9937
vn 0.2623 0.8630 -0.4318
vn 0.2622 0.8630 -0.4318
vn 0.2616 0.8629 -0.4324
vn 0.2629 0.8631 -0.4312
vn 0.2641 0.7561 -0.5988
vn 0.1019 0.7813 -0.6158
vn 0.1007 0.7807 -0.6167
vn 0.1009 0.7807 -0.6167
vn 0.1032 0.7819 -0.6148
vn -0.9283 -0.2629 0.2629
vn -0.9327 -0.2551 0.2551
vn -0.9282 -0.2631 0.2631
vn -0.8630 -0.4318 0.2623
vn -0.8629 -0.4324 0.2616
vn -0.8630 -0.4318 0.2622
vn -0.8108 -0.4139 0.4139
vn -0.8043 -0.4202 0.4202
vn -0.8111 -0.4136 0.4136
vn -0.2623 0.4318 -0.8630
vn -0.2622 0.4318 -0.8630
vn -0.2616 0.4324 -0.8629
vn -0.2629 0.4312 -0.8631
vn -0.2646 0.5985 -0.7561
vn -0.2641 0.5988 -0.7561
vn -0.2683 0.6007 -0.7531
vn -0.1019 0.6158 -0.7813
vn -0.1007 0.6167 -0.7807
vn -0.1009 0.6167 -0.7807
vn -0.1032 0.6148 -0.7819
vn 0.4164 -0.5708 -0.7077
vn 0.4117 -0.5755 -0.7066
vn 0.4170 -0.5708 -0.7073
vn 0.4117 -0.5760 -0.7062
vn 0.4139 -0.4139 -0.8108
vn 0.4136 -0.4136 -0.8111
vn 0.5755 -0.4118 -0.7066
vn 0.5760 -0.4117 -0.7062
vn 0.5708 -0.4164 -0.7077
vn 0.5708 -0.4170 -0.7073
vn -0.2623 -0.8630 -0.4318
vn -0.2622 -0.8630 -0.4318
vn -0.2616 -0.8629 -0.4324
vn -0.2629 -0.8631 -0.4312
vn -0.2641 -0.7561 -0.5988
vn -0.1019 -0.7813 -0.6158
vn -0.1007 -0.7807 -0.6167
vn -0.1009 -0.7807 -0.6167
vn -0.1032 -0.7819 -0.6148
vn 0.7807 0.6167 -0.1009
vn 0.7813 0.6158 -0.1019
vn 0.7807 0.6167 -0.1007
vn 0.7819 0.6148 -0.1032
vn 0.6158 0.7813 -0.1019
vn 0.6148 0.7819 -0.1032
vn 0.6167 0.7807 -0.1009
vn 0.6167 0.7807 0.1009
vn 0.6148 0.7819 0.1032
vn 0.6158 0.7813 0.1019
vn 0.6167 0.7807 0.1007
vn -0.7807 0.6167 0.1009
vn -0.7813 0.6158 0.1019
vn -0.7807 0.6167 0.1007
vn -0.7819 0.6148 0.1032
vn -0.6158 0.7813 0.1019
vn -0.6148 0.7819 0.1032
vn -0.6167 0.7807 0.1009
vn -0.6167 0.7807 -0.1009
vn -0.6148 0.7819 -0.1032
vn -0.6158 0.7813 -0.1019
vn -0.6167 0.7807 -0.1007
vn -0.7077 0.5708 0.4164
vn -0.7066 0.5755 0.4117
vn -0.7073 0.5708 0.4170
vn -0.7062 0.5760 0.4117
vn -0.8108 0.4139 0.4139
vn -0.8111 0.4136 0.4136
vn -0.7066 0.4118 0.5755
vn -0.7062 0.4117 0.5760
vn -0.7077 0.4164 0.5708
vn -0.7073 0.4170 0.5708
vn 0.2564 -0.0866 -0.9627
vn 0.2566 -0.0864 -0.9627
vn 0.2550 -0.0881 -0.9629
vn 0.2580 -0.0849 -0.9624
vn 0.2629 -0.2629 -0.9283
vn 0.2551 -0.2551 -0.9327
vn 0.0864 -0.2566 -0.9627
vn 0.0849 -0.2580 -0.9624
vn 0.0866 -0.2564 -0.9627
vn 0.0881 -0.2550 -0.9629
vn 0.9627 0.0866 -0.2564
vn 0.9627 0.0864 -0.2566
vn 0.9629 0.0881 -0.2550
vn 0.9624 0.0849 -0.2580
vn 0.9283 0.2629 -0.2629
vn 0.9327 0.2551 -0.2551
vn 0.9627 0.2566 -0.0864
vn 0.9624 0.2580 -0.0849
vn 0.9627 0.2564 -0.0866
vn 0.9629 0.2550 -0.0881
vn 0.7813 0.1019 -0.6158
vn 0.7807 0.1009 -0.6167
vn 0.7807 0.1007 -0.6167
vn 0.7819 0.1032 -0.6148
vn 0.7807 -0.1009 -0.6167
vn 0.7819 -0.1032 -0.6148
vn 0.7813 -0.1019 -0.6158
vn 0.6158 -0.1019 -0.7813
vn 0.6148 -0.1032 -0.7819
vn 0.6167 -0.1009 -0.7807
vn 0.6167 -0.1007 -0.7807
vn 0.4318 0.2622 0.8630
vn 0.4318 0.2623 0.8630
vn 0.4324 0.2616 0.8629
vn 0.4312 0.2629 0.8631
vn 0.4369 0.0925 0.8947
vn 0.4401 0.0967 0.8927
vn 0.4400 0.0965 0.8928
vn 0.6167 0.1009 0.7807
vn 0.6167 0.1007 0.7807
vn 0.6158 0.1019 0.7813
vn 0.6148 0.1032 0.7819
vn -0.8630 -0.2622 -0.4318
vn -0.8630 -0.2623 -0.4318
vn -0.8629 -0.2616 -0.4324
vn -0.8631 -0.2629 -0.4312
vn -0.8947 -0.0925 -0.4370
vn -0.8927 -0.0967 -0.4401
vn -0.8928 -0.0965 -0.4400
vn -0.7807 -0.1009 -0.6167
vn -0.7807 -0.1007 -0.6167
vn -0.7813 -0.1019 -0.6158
vn -0.7819 -0.1032 -0.6148
vn -0.0807 0.9936 -0.0793
vn -0.0866 0.9627 -0.2564
vn -0.0849 0.9624 -0.2580
vn -0.0864 0.9627 -0.2566
vn -0.0881 0.9629 -0.2550
vn -0.0925 0.8947 -0.4370
vn -0.0965 0.8928 -0.4400
vn -0.0924 0.8948 -0.4369
vn 0.0807 -0.9936 -0.0793
vn 0.0866 -0.9627 -0.2564
vn 0.0849 -0.9624 -0.2580
vn 0.0864 -0.9627 -0.2566
vn 0.0881 -0.9629 -0.2550
vn 0.0925 -0.8947 -0.4369
vn 0.0965 -0.8928 -0.4400
vn 0.0924 -0.8948 -0.4369
vn -0.1009 0.7807 -0.6167
vn -0.1019 0.7813 -0.6158
vn -0.1032 0.7819 -0.6148
vn -0.1007 0.7807 -0.6167
vn -0.2683 0.7531 -0.6007
vn -0.2641 0.7561 -0.5988
vn -0.2646 0.7561 -0.5985
vn -0.2629 0.8631 -0.4312
vn 0.6458 0.5399 -0.5399
vn 0.6298 0.5492 -0.5492
vn 0.5492 0.5492 -0.6298
vn 0.5492 0.6298 -0.5492
vn 0.5985 0.2646 0.7561
vn 0.6007 0.2683 0.7531
vn 0.5988 0.2641 0.7561
vn 0.6011 0.2683 0.7528
vn 0.7528 0.2683 0.6011
vn 0.7073 0.4170 0.5708
vn 0.8108 -0.4139 0.4139
vn 0.8043 -0.4202 0.4202
vn 0.8111 -0.4136 0.4136
vn 0.7066 -0.4118 0.5755
vn 0.7062 -0.4117 0.5760
vn 0.7077 -0.4164 0.5708
vn 0.6458 -0.5399 0.5399
vn -0.7561 -0.2646 -0.5985
vn -0.7531 -0.2683 -0.6007
vn -0.7561 -0.2641 -0.5988
vn -0.7528 -0.2683 -0.6011
vn -0.6011 -0.2683 -0.7528
vn -0.5708 -0.4170 -0.7073
vn -0.6167 -0.7807 -0.1009
vn -0.6158 -0.7813 -0.1019
vn -0.6148 -0.7819 -0.1032
vn -0.6167 -0.7807 -0.1007
vn -0.5988 -0.7561 -0.2641
vn -0.4312 -0.8631 -0.2629
vn -0.9627 0.0866 -0.2564
vn -0.9627 0.0864 -0.2566
vn -0.9624 0.0849 -0.2580
vn -0.9629 0.0881 -0.2550
vn -0.8948 0.0924 -0.4369
vn -0.8948 -0.0924 -0.4369
vn -0.4164 0.7077 -0.5708
vn -0.4118 0.7066 -0.5755
vn -0.4117 0.7062 -0.5760
vn -0.4170 0.7073 -0.5708
vn -0.2683 0.7528 -0.6011
vn -0.2683 0.6011 -0.7528
vn -0.4312 0.8631 0.2629
vn -0.5988 0.7561 0.2641
vn -0.6167 0.7807 0.1007
vn 0.1009 -0.6167 -0.7807
vn 0.1019 -0.6158 -0.7813
vn 0.1007 -0.6167 -0.7807
vn 0.1032 -0.6148 -0.7819
vn 0.1019 -0.7813 -0.6158
vn 0.1032 -0.7819 -0.6148
vn 0.1009 -0.7807 -0.6167
vn -0.9282 0.2631 0.2631
vn -0.8629 0.4324 0.2616
vn -0.8043 0.4202 0.4202
vn 0.9282 0.2631 -0.2631
vn 0.8629 0.4324 -0.2616
vn 0.8043 0.4202 -0.4202
vn 0.8631 -0.2629 -0.4312
vn 0.8927 -0.0967 -0.4401
vn 0.7807 -0.1007 -0.6167
vn 0.2631 -0.2631 -0.9282
vn 0.2616 -0.4324 -0.8629
vn 0.4202 -0.4202 -0.8043
vn 0.2550 0.0881 0.9629
vn 0.4369 0.0924 0.8948
vn 0.4369 -0.0924 0.8948
vn -0.8631 -0.4312 0.2629
vn -0.7561 -0.5988 0.2641
vn -0.7807 -0.6167 0.1007
vn 0.2629 -0.8631 -0.4312
vn 0.2641 -0.7561 -0.5988
vn 0.1007 -0.7807 -0.6167
vn 0.4312 0.8631 -0.2629
vn 0.5988 0.7561 -0.2641
vn 0.6167 0.7807 -0.1007
vn 0.8630 -0.4318 -0.2622
vn 0.8630 -0.4318 -0.2623
vn 0.8629 -0.4324 -0.2616
vn 0.8631 -0.4312 -0.2629
vn -0.1009 -0.6167 -0.7807
vn -0.1019 -0.6158 -0.7813
vn -0.1032 -0.6148 -0.7819
vn -0.1007 -0.6167 -0.7807
vn 0.1009 0.6167 -0.7807
vn 0.1019 0.6158 -0.7813
vn 0.1032 0.6148 -0.7819
vn 0.1007 0.6167 -0.7807
vn -0.7077 -0.5708 -0.4164
vn -0.7066 -0.5755 -0.4117
vn -0.7073 -0.5708 -0.4170
vn -0.7062 -0.5760 -0.4117
vn -0.0925 0.4369 -0.8947
vn -0.0965 0.4400 -0.8928
vn -0.0967 0.4401 -0.8927
vn -0.0924 0.4369 -0.8948
vn 0.4164 0.5708 0.7077
vn 0.4117 0.5755 0.7066
vn 0.4170 0.5708 0.7073
vn 0.4117 0.5760 0.7062
vn 0.4318 0.2623 -0.8630
vn 0.4318 0.2622 -0.8630
vn 0.4324 0.2616 -0.8629
vn 0.4312 0.2629 -0.8631
vn 0.1019 0.6158 0.7813
vn 0.1009 0.6167 0.7807
vn 0.1032 0.6148 0.7819
vn 0.1007 0.6167 0.7807
vn -0.0925 -0.8947 -0.4369
vn -0.0965 -0.8928 -0.4400
vn -0.0967 -0.8927 -0.4401
vn -0.0924 -0.8948 -0.4369
vn -0.6167 -0.1009 0.7807
vn -0.6158 -0.1019 0.7813
vn -0.6148 -0.1032 0.7819
vn -0.6167 -0.1007 0.7807
vn -0.2629 0.2629 0.9283
vn -0.2631 0.2631 0.9282
vn -0.2551 0.2551 0.9327
vn 0.7066 0.5755 0.4117
vn 0.7077 0.5708 0.4164
vn 0.7073 0.5708 0.4170
vn 0.7062 0.5760 0.4117
vn -0.4118 -0.5755 -0.7066
vn -0.4164 -0.5708 -0.7077
vn -0.4170 -0.5708 -0.7073
vn -0.4117 -0.5760 -0.7062
vn 0.4117 0.5755 -0.7066
vn 0.4164 0.5708 -0.7077
vn 0.4170 0.5708 -0.7073
vn 0.4117 0.5760 -0.7062
vn 0.0925 0.8947 -0.4370
vn 0.0965 0.8928 -0.4400
vn 0.0967 0.8927 -0.4401
vn 0.0924 0.8948 -0.4369
vn 0.0864 0.2566 0.9627
vn 0.0866 0.2564 0.9627
vn 0.0881 0.2550 0.9629
vn 0.0849 0.2580 0.9624
vn 0.0800 -0.0800 -0.9936
vn 0.0807 -0.0807 -0.9935
vn 0.0793 -0.0793 -0.9937
vn -0.5755 0.4118 -0.7066
vn -0.5708 0.4164 -0.7077
vn -0.5708 0.4170 -0.7073
vn -0.5760 0.4117 -0.7062
vn -0.5755 -0.4118 0.7066
vn -0.5708 -0.4164 0.7077
vn -0.5708 -0.4170 0.7073
vn -0.5760 -0.4117 0.7062
vn -0.2564 0.0866 -0.9627
vn -0.2566 0.0864 -0.9627
vn -0.2550 0.0881 -0.9629
vn -0.2580 0.0849 -0.9624
vn -0.2564 -0.0866 0.9627
vn -0.2566 -0.0864 0.9627
vn -0.2550 -0.0881 0.9629
vn -0.2580 -0.0849 0.9624
vn -0.2623 -0.4318 0.8630
vn -0.2622 -0.4318 0.8630
vn -0.2616 -0.4324 0.8629
vn -0.2629 -0.4312 0.8631
vn -0.8630 0.4318 -0.2622
vn -0.8630 0.4318 -0.2623
vn -0.8629 0.4324 -0.2616
vn -0.8631 0.4312 -0.2629
vn 0.7807 0.6167 0.1009
vn 0.7813 0.6158 0.1019
vn 0.7819 0.6148 0.1032
vn 0.7807 0.6167 0.1007
vn -0.9936 0.0800 0.0800
vn -0.9937 0.0793 0.0793
vn -0.9935 0.0807 0.0807
vn 0.8928 -0.4400 0.0965
vn 0.8947 -0.4369 0.0925
vn 0.8948 -0.4369 0.0924
vn 0.8927 -0.4401 0.0967
vn 0.9936 -0.0800 0.0800
vn 0.9937 -0.0793 0.0793
vn 0.9935 -0.0807 0.0807
vn -0.9627 -0.2566 -0.0864
vn -0.9627 -0.2564 -0.0866
vn -0.9629 -0.2550 -0.0881
vn -0.9624 -0.2580 -0.0849
vn 0.4312 -0.8631 0.2629
vn 0.6148 -0.7819 0.1032
vn 0.4324 -0.8629 -0.2616
vn 0.5708 -0.7073 -0.4170
vn -0.4401 -0.0967 -0.8927
vn -0.2641 0.5988 0.7561
vn 0.5399 -0.5399 -0.6458
vn 0.0793 0.0793 -0.9937
vn 0.2641 -0.5988 0.7561
vn -0.4324 0.8629 -0.2616
vn -0.5708 0.7073 -0.4170
vn 0.7807 -0.1007 0.6167
vn 0.4324 0.8629 0.2616
vn -0.6167 0.1007 -0.7807
vn -0.4136 0.4136 0.8111
vn 0.4136 -0.4136 0.8111
vn -0.9629 -0.0881 -0.2550
vn -0.7561 0.2641 -0.5988
vn -0.2616 0.8629 0.4324
vn -0.2550 -0.9629 0.0881
vn 0.0881 -0.9629 0.2550
vn 0.5760 -0.7062 0.4117
vn 0.2550 -0.9629 -0.0881
vn -0.1007 0.7807 0.6167
vn -0.4170 0.7073 0.5708
vn -0.2550 0.9629 -0.0881
vn -0.6458 0.5399 0.5399
vn -0.4170 0.5708 -0.7073
vn 0.0881 0.9629 -0.2550
vn 0.2550 0.9629 0.0881
vn -0.5988 0.2641 0.7561
vn -0.8927 -0.0967 0.4401
vn 0.5708 0.4170 0.7073
vn 0.5988 -0.2641 0.7561
vn -0.1032 -0.6148 0.7819
vn -0.7073 -0.4170 -0.5708
vn 0.7528 -0.6011 0.2683
vn 0.7073 -0.4170 0.5708
vn -0.0881 -0.9629 -0.2550
vn -0.0881 0.2550 -0.9629
vn 0.8927 0.0967 0.4401
vn -0.0881 0.9629 0.2550
vn -0.7819 0.6148 -0.1032
vn -0.0967 -0.8927 0.4401
vn -0.0967 0.8927 -0.4401
vn 0.0967 0.8927 0.4401
vn 0.0924 -0.4369 0.8948
vn -0.4401 -0.8927 -0.0967
vn -0.7807 0.1007 0.6167
vn -0.8629 0.2616 0.4324
vn -0.4324 -0.8629 0.2616
vn 0.8629 0.2616 -0.4324
vn -0.5708 -0.7073 0.4170
vn 0.7561 -0.2641 -0.5988
vn 0.2616 -0.8629 0.4324
vn 0.4324 -0.2616 -0.8629
vn 0.9935 0.0807 -0.0807
vn 0.2550 -0.0881 0.9629
vn 0.1007 -0.7807 0.6167
vn -0.8927 -0.4401 0.0967
vn 0.6148 0.1032 -0.7819
vn 0.0967 -0.8927 -0.4401
vn 0.4170 -0.7073 0.5708
vn 0.4401 0.8927 -0.0967
vn -0.2683 -0.7528 0.6011
vn -0.4401 0.8927 0.0967
vt 0.500000 -0.376587
vt 0.000000 -0.331055
vt 0.255981 -0.500000
vt 0.214111 -0.229248
vt 0.500000 -0.251099
vt 0.500000 -0.125732
vt 0.785889 -0.229248
vt 0.695312 -0.113403
vt 0.867676 -0.074341
vt 0.652588 0.009277
vt 0.794434 0.035278
vt 0.759155 0.152466
vt 0.914062 0.072144
vt 0.873779 0.178101
vt 1.000000 0.185791
vt 0.872192 0.280273
vt 1.000000 0.284302
vt 1.000000 0.391113
vt 1.127808 0.280273
vt 1.127686 0.389771
vt 1.253418 0.385376
vt 1.125732 0.500000
vt 1.251221 0.500000
vt 1.253418 0.614746
vt 1.376587 0.500000
vt 1.379150 0.618774
vt 1.500000 0.623413
vt 1.376465 0.742432
vt 1.500000 0.748901
vt 1.500000 0.874268
vt 1.623535 0.742432
vt 1.631714 0.866089
vt 1.759155 0.847656
vt 1.652588 0.990845
vt 1.794434 0.964844
vt 1.867676 1.074341
vt 1.914062 0.927979
vt 2.000000 1.019287
vt 2.085938 0.927979
vt 2.132324 1.074341
vt 2.205566 0.964844
vt 2.347412 0.990845
vt 2.240845 0.847656
vt 2.368286 0.866089
vt 2.376465 0.742432
vt 2.500000 0.874268
vt 2.500000 0.748901
vt -0.499878 -0.376587
vt -0.999878 -0.331055
vt -0.744263 -0.500000
vt -0.785767 -0.229248
vt -0.499878 -0.251099
vt -0.499878 -0.125732
vt -0.213989 -0.229248
vt -0.304565 -0.113403
vt -0.132202 -0.074341
vt -0.347290 0.009277
vt -0.205444 0.035278
vt -0.240723 0.152466
vt -0.085815 0.072144
vt -0.126099 0.178101
vt 0.000000 0.185791
vt -0.127686 0.280273
vt 0.000000 0.284302
vt 0.000000 0.391113
vt 0.127808 0.280273
vt 0.127686 0.389771
vt 0.253418 0.385376
vt 0.125732 0.500000
vt 0.251221 0.500000
vt 0.253418 0.614746
vt 0.376587 0.500000
vt 0.379150 0.618774
vt 0.500000 0.623413
vt 0.376465 0.742432
vt 0.500000 0.748901
vt 0.500000 0.874268
vt 0.623535 0.742432
vt 0.631714 0.866089
vt 0.759155 0.847656
vt 0.652588 0.990845
vt 0.794434 0.964844
vt 0.867676 1.074341
vt 0.914062 0.927979
vt 1.000000 1.019287
vt 1.085938 0.927979
vt 1.132324 1.074341
vt 1.205566 0.964844
vt 1.347412 0.990845
vt 1.240845 0.847656
vt 1.368286 0.866089
vt 0.500000 1.376587
vt 1.000000 1.331055
vt 0.760254 1.500000
vt 0.785889 1.229248
vt 0.500000 1.251099
vt 0.500000 1.125732
vt 0.214111 1.229248
vt 0.304688 1.113403
vt 0.132324 1.074341
vt 0.347412 0.990845
vt 0.205566 0.964844
vt 0.240845 0.847656
vt 0.085938 0.927979
vt 0.126343 0.822021
vt 0.000000 0.814331
vt 0.127808 0.719849
vt 0.000000 0.715820
vt 0.000000 0.609009
vt -0.127686 0.719849
vt -0.127563 0.610352
vt -0.253296 0.614746
vt -0.125610 0.500000
vt -0.251099 0.500000
vt -0.253296 0.385376
vt -0.376465 0.500000
vt -0.379028 0.381348
vt -0.499878 0.376709
vt -0.376343 0.257690
vt -0.499878 0.251221
vt -0.499878 0.125854
vt -0.623413 0.257690
vt -0.631592 0.134033
vt -0.759033 0.152466
vt -0.652466 0.009277
vt -0.794312 0.035278
vt -0.867554 -0.074341
vt -0.913940 0.072144
vt -0.999878 -0.019287
vt -1.085815 0.072144
vt -1.132202 -0.074341
vt -1.205444 0.035278
vt -1.347290 0.009277
vt -1.240723 0.152466
vt -1.368164 0.134033
vt -1.376343 0.257690
vt -1.499878 0.125854
vt 1.251831 0.731323
vt 1.127808 0.719849
vt 1.126343 0.822021
vt 1.000000 0.814331
vt 1.000000 0.891846
vt 0.873779 0.822021
vt 0.872192 0.719849
vt 0.748169 0.731323
vt 0.746582 0.614746
vt 0.620850 0.618774
vt 0.623413 0.500000
vt 0.500000 0.500000
vt 0.500000 0.376709
vt 0.379150 0.381348
vt 0.376465 0.257690
vt 0.251831 0.268799
vt 0.240845 0.152466
vt 0.126343 0.178101
vt 0.085938 0.072144
vt -0.499878 1.376587
vt 0.000000 1.331055
vt -0.256348 1.500000
vt -0.213989 1.229248
vt -0.499878 1.251099
vt -0.499878 1.125732
vt -0.785767 1.229248
vt -0.695190 1.113403
vt -0.867554 1.074341
vt -0.652466 0.990845
vt -0.794312 0.964844
vt -0.759033 0.847656
vt -0.913940 0.927979
vt -0.873535 0.822021
vt -0.999878 0.814331
vt -0.872070 0.719849
vt -0.999878 0.715820
vt -0.999878 0.609009
vt -1.127686 0.719849
vt -1.127563 0.610352
vt -1.253296 0.614746
vt -1.125610 0.500000
vt -1.251099 0.500000
vt -1.253296 0.385376
vt -1.376465 0.500000
vt -1.379028 0.381348
vt -1.499878 0.376709
vt -1.499878 0.251221
vt 1.500000 -0.376587
vt 1.000000 -0.331055
vt 1.256348 -0.500000
vt 1.214111 -0.229248
vt 1.500000 -0.251099
vt 1.500000 -0.125732
vt 1.785889 -0.229248
vt 1.695312 -0.113403
vt 1.867676 -0.074341
vt 1.652588 0.009277
vt 1.794434 0.035278
vt 1.759155 0.152466
vt 1.914062 0.072144
vt 1.873779 0.178101
vt 2.000000 0.185791
vt 1.872192 0.280273
vt 2.000000 0.284302
vt 2.000000 0.391113
vt 2.127808 0.280273
vt 2.127686 0.389771
vt 2.253418 0.385376
vt 2.125732 0.500000
vt 2.251221 0.500000
vt 2.253418 0.614746
vt 2.376587 0.500000
vt 2.379150 0.618774
vt 2.500000 0.623413
vt -0.251709 0.268799
vt -0.127563 0.389771
vt 0.000000 0.500000
vt 0.127686 0.610352
vt 0.251831 0.731323
vt 0.368286 0.866089
vt 0.500000 1.000000
vt 0.695312 1.113403
vt 1.127686 0.610352
vt 1.000000 0.609009
vt 1.000000 0.500000
vt 0.874268 0.500000
vt 0.872314 0.389771
vt 0.746582 0.385376
vt 0.748169 0.268799
vt 0.623535 0.257690
vt 0.631714 0.134033
vt 0.500000 0.125854
vt 0.500000 0.000000
vt 0.347412 0.009277
vt 0.304688 -0.113403
vt 0.132324 -0.074341
vt -1.251709 0.268799
vt -1.127686 0.280273
vt -1.126099 0.178101
vt -0.999878 0.185791
vt -0.999878 0.108276
vt -0.873535 0.178101
vt -0.872070 0.280273
vt -0.748047 0.268799
vt -0.746460 0.385376
vt -0.620728 0.381348
vt -0.623291 0.500000
vt 0.792725 -0.500000
vt 1.000000 -0.164795
vt 1.132324 -0.074341
vt 1.000000 -0.019287
vt 1.085938 0.072144
vt 1.000000 0.108276
vt -0.999878 1.331055
vt -0.744263 1.500000
vt -1.213989 1.229248
vt -0.999878 1.164795
vt -1.132202 1.074341
vt -0.999878 1.019287
vt -1.085815 0.927979
vt -0.999878 0.891846
vt -0.207520 -0.500000
vt 0.000000 -0.164795
vt 0.000000 -0.019287
vt 0.000000 0.108276
vt 2.000000 -0.331055
vt 1.785034 -0.500000
vt 2.214111 -0.229248
vt 2.000000 -0.164795
vt 2.132324 -0.074341
vt 2.000000 -0.019287
vt 2.085938 0.072144
vt 2.000000 0.108276
vt 0.288452 1.500000
vt 0.000000 1.164795
vt -0.132202 1.074341
vt 0.000000 1.019287
vt -0.085815 0.927979
vt 0.000000 0.891846
vt 0.620850 0.381348
vt 0.500000 0.251221
vt 0.368286 0.134033
vt 0.205566 0.035278
vt -1.499878 0.500000
vt -1.499878 0.623413
vt -1.379028 0.618774
vt -1.376343 0.742432
vt -1.251709 0.731323
vt -1.240723 0.847656
vt -1.126099 0.822021
vt 1.500000 0.000000
vt 1.500000 0.125854
vt 1.347412 0.009277
vt 1.368286 0.134033
vt 1.240845 0.152466
vt 1.376465 0.257690
vt 1.251831 0.268799
vt 1.873779 0.822021
vt 1.872192 0.719849
vt 2.000000 0.814331
vt 2.000000 0.715820
vt 2.127808 0.719849
vt 2.000000 0.609009
vt 2.127686 0.610352
vt -0.748047 0.731323
vt -0.746460 0.614746
vt -0.623413 0.742432
vt -0.620728 0.618774
vt -0.499878 0.623413
vt -0.499878 0.500000
vt -0.379028 0.618774
vt -0.376343 0.742432
vt -0.499878 0.748901
vt -0.499878 0.874268
vt -0.631592 0.866089
vt 1.748169 0.268799
vt 1.746582 0.385376
vt 1.623535 0.257690
vt 1.620850 0.381348
vt 1.500000 0.376709
vt 1.623413 0.500000
vt 1.500000 0.500000
vt 1.379150 0.381348
vt 1.500000 0.251221
vt 1.631714 0.134033
vt -1.127563 0.389771
vt -0.999878 0.391113
vt -0.999878 0.500000
vt -0.874146 0.500000
vt -0.872192 0.610352
vt 1.500000 1.376587
vt 2.000000 1.331055
vt 1.744263 1.500000
vt 1.785889 1.229248
vt 1.500000 1.251099
vt 1.500000 1.125732
vt 1.214111 1.229248
vt 1.304688 1.113403
vt 1.872314 0.610352
vt 1.746582 0.614746
vt 1.874268 0.500000
vt 1.748779 0.500000
vt -0.368164 0.866089
vt -0.240723 0.847656
vt -0.347290 0.990845
vt -0.205444 0.964844
vt 2.376465 0.257690
vt 2.500000 0.125854
vt 2.500000 0.251221
vt 2.368286 0.134033
vt 2.240845 0.152466
vt 2.347412 0.009277
vt 2.205566 0.035278
vt 1.207520 1.500000
vt 1.000000 1.164795
vt -1.499878 -0.376587
vt -1.191650 -0.500000
vt -1.213989 -0.229248
vt -0.999878 -0.164795
vt 2.500000 1.376587
vt 2.216064 1.500000
vt 2.214111 1.229248
vt 2.000000 1.164795
vt 1.126343 0.178101
vt 1.205566 0.035278
vt 1.304688 -0.113403
vt 2.251831 0.731323
vt 2.126343 0.822021
vt -0.499878 0.000000
vt 2.304688 1.113403
vt 2.500000 1.125732
vt 2.500000 1.000000
vt -1.368164 0.866089
vt -1.347290 0.990845
vt -1.499878 0.874268
vt -1.499878 1.000000
vt 2.126343 0.178101
vt -1.304565 -0.113403
vt -1.499878 -0.125732
vt -1.499878 0.000000
vt 1.500000 1.000000
vt -0.499878 1.000000
vt -0.126099 0.822021
vt 2.379150 0.381348
vt 2.500000 0.376709
vt 1.620850 0.618774
vt 2.000000 0.500000
vt 0.872314 0.610352
vt -0.872192 0.389771
vt -1.499878 1.376587
vt -1.256714 1.500000
vt -1.499878 1.251099
vt -1.499878 1.125732
vt 2.500000 -0.376587
vt 2.240479 -0.500000
vt 2.500000 -0.251099
vt 2.500000 -0.125732
vt -1.304565 1.113403
vt 2.000000 0.891846
vt 1.000000 0.715820
vt -0.999878 0.284302
vt -0.695190 -0.113403
vt -0.748657 0.500000
vt -1.205444 0.964844
vt -0.304565 1.113403
vt 2.500000 0.000000
vt -0.251709 0.731323
vt 1.748169 0.731323
vt 1.872314 0.389771
vt 2.251831 0.268799
vt 0.748779 0.500000
vt -0.368164 0.134033
vt 2.304688 -0.113403
vt 1.695312 1.113403
vt -1.499878 0.748901
vt -1.499878 -0.251099
vt 2.500000 1.251099
vt 2.500000 0.500000
s 1
usemtl mat0.001
f 3/1/1 2/2/2 1/3/2
f 4/4/3 2/2/4 3/1/5
f 5/5/6 4/4/3 3/1/5
f 6/6/7 4/4/8 5/5/9
f 7/7/10 6/6/11 5/5/12
f 8/8/13 6/6/11 7/7/10
f 9/9/14 8/8/15 7/7/16
f 10/10/17 8/8/18 9/9/19
f 11/11/20 10/10/17 9/9/19
f 12/12/21 10/10/22 11/11/23
f 13/13/24 12/12/25 11/11/26
f 14/14/27 12/12/25 13/13/24
f 15/15/28 14/14/28 13/13/28
f 16/16/29 14/14/30 15/15/31
f 17/17/32 16/16/29 15/15/31
f 18/18/33 16/16/34 17/17/35
f 19/19/36 18/18/37 17/17/38
f 20/20/39 18/18/37 19/19/36
f 21/21/40 20/20/41 19/19/42
f 22/22/43 20/20/44 21/21/45
f 23/23/46 22/22/43 21/21/45
f 24/24/47 22/22/48 23/23/49
f 25/25/50 24/24/51 23/23/52
f 26/26/53 24/24/51 25/25/50
f 27/27/54 26/26/55 25/25/54
f 28/28/56 26/26/57 27/27/58
f 29/29/59 28/28/56 27/27/58
f 30/30/60 28/28/61 29/29/62
f 31/31/63 30/30/64 29/29/65
f 32/32/66 30/30/64 31/31/63
f 33/33/67 32/32/68 31/31/69
f 34/34/70 32/32/71 33/33/72
f 35/35/73 34/34/70 33/33/72
f 36/36/74 34/34/75 35/35/76
f 37/37/77 36/36/78 35/35/79
f 38/38/80 36/36/78 37/37/77
f 39/39/81 38/38/81 37/37/81
f 40/40/82 38/38/83 39/39/84
f 41/41/85 40/40/82 39/39/84
f 42/42/86 40/40/87 41/41/88
f 43/43/89 42/42/90 41/41/91
f 44/44/92 42/42/90 43/43/89
f 45/45/93 44/44/94 43/43/95
f 46/46/96 44/44/97 45/45/98
f 47/47/99 46/46/96 45/45/98
f 49/48/100 48/49/101 1/50/101
f 50/51/102 48/49/103 49/48/104
f 51/52/105 50/51/102 49/48/104
f 52/53/106 50/51/107 51/52/108
f 53/54/109 52/53/110 51/52/111
f 54/55/112 52/53/110 53/54/109
f 55/56/113 54/55/114 53/54/115
f 56/57/116 54/55/117 55/56/118
f 57/58/119 56/57/116 55/56/118
f 58/59/120 56/57/121 57/58/122
f 59/60/123 58/59/124 57/58/125
f 60/61/126 58/59/124 59/60/123
f 61/62/127 60/61/127 59/60/127
f 62/63/128 60/61/129 61/62/130
f 63/64/131 62/63/128 61/62/130
f 64/65/132 62/63/133 63/64/134
f 65/66/135 64/65/136 63/64/137
f 66/67/138 64/65/136 65/66/135
f 67/68/139 66/67/140 65/66/141
f 68/69/142 66/67/143 67/68/144
f 69/70/145 68/69/142 67/68/144
f 70/71/146 68/69/147 69/70/148
f 71/72/149 70/71/150 69/70/151
f 72/73/152 70/71/150 71/72/149
f 73/74/153 72/73/154 71/72/153
f 74/75/155 72/73/156 73/74/157
f 75/76/158 74/75/155 73/74/157
f 76/77/159 74/75/160 75/76/161
f 77/78/162 76/77/163 75/76/164
f 78/79/165 76/77/163 77/78/162
f 79/80/166 78/79/167 77/78/168
f 80/81/169 78/79/170 79/80/171
f 81/82/172 80/81/169 79/80/171
f 82/83/173 80/81/174 81/82/175
f 83/84/176 82/83/177 81/82/178
f 84/85/179 82/83/177 83/84/176
f 85/86/180 84/85/180 83/84/180
f 86/87/181 84/85/182 85/86/183
f 87/88/184 86/87/181 85/86/183
f 88/89/185 86/87/186 87/88/187
f 89/90/188 88/89/189 87/88/190
f 90/91/191 88/89/189 89/90/188
f 28/28/192 90/91/193 89/90/194
f 30/30/60 90/91/195 28/28/61
f 93/92/196 92/93/197 91/94/197
f 94/95/198 92/93/199 93/92/200
f 95/96/201 94/95/198 93/92/200
f 96/97/202 94/95/203 95/96/204
f 97/98/205 96/97/206 95/96/207
f 98/99/208 96/97/206 97/98/205
f 99/100/209 98/99/210 97/98/211
f 100/101/212 98/99/213 99/100/214
f 101/102/215 100/101/212 99/100/214
f 102/103/216 100/101/217 101/102/218
f 103/104/219 102/103/220 101/102/221
f 104/105/222 102/103/220 103/104/219
f 105/106/223 104/105/223 103/104/223
f 106/107/224 104/105/225 105/106/226
f 107/108/227 106/107/224 105/106/226
f 108/109/228 106/107/229 107/108/230
f 109/110/231 108/109/232 107/108/233
f 110/111/234 108/109/232 109/110/231
f 111/112/235 110/111/236 109/110/237
f 112/113/238 110/111/239 111/112/240
f 113/114/241 112/113/238 111/112/240
f 114/115/242 112/113/243 113/114/244
f 115/116/245 114/115/246 113/114/247
f 116/117/248 114/115/246 115/116/245
f 117/118/249 116/117/250 115/116/249
f 118/119/251 116/117/252 117/118/253
f 119/120/254 118/119/251 117/118/253
f 120/121/255 118/119/256 119/120/257
f 121/122/258 120/121/259 119/120/260
f 122/123/261 120/121/259 121/122/258
f 123/124/262 122/123/263 121/122/264
f 124/125/265 122/123/266 123/124/267
f 125/126/268 124/125/265 123/124/267
f 126/127/269 124/125/270 125/126/271
f 127/128/272 126/127/273 125/126/274
f 128/129/275 126/127/273 127/128/272
f 129/130/276 128/129/276 127/128/276
f 130/131/277 128/129/278 129/130/279
f 131/132/280 130/131/277 129/130/279
f 132/133/281 130/131/282 131/132/283
f 133/134/284 132/133/285 131/132/286
f 134/135/287 132/133/285 133/134/284
f 135/136/288 134/135/289 133/134/290
f 136/137/291 134/135/292 135/136/293
f 28/28/294 24/24/294 26/26/295
f 137/138/296 24/24/294 28/28/294
f 89/90/194 137/138/297 28/28/192
f 138/139/298 137/138/299 89/90/298
f 139/140/300 138/139/298 89/90/298
f 140/141/301 138/139/302 139/140/303
f 85/86/304 140/141/304 139/140/304
f 141/142/305 140/141/305 85/86/305
f 83/84/306 141/142/306 85/86/306
f 140/141/307 141/142/307 83/84/307
f 142/143/308 140/141/308 83/84/308
f 143/144/309 140/141/310 142/143/311
f 79/80/312 143/144/312 142/143/313
f 144/145/314 143/144/312 79/80/312
f 77/78/168 144/145/315 79/80/166
f 145/146/316 144/145/317 77/78/316
f 146/147/318 145/146/316 77/78/316
f 147/148/319 145/146/320 146/147/321
f 73/74/322 147/148/322 146/147/323
f 148/149/324 147/148/322 73/74/322
f 71/72/153 148/149/325 73/74/153
f 149/150/326 148/149/327 71/72/326
f 150/151/328 149/150/326 71/72/326
f 151/152/329 149/150/330 150/151/331
f 67/68/332 151/152/332 150/151/333
f 152/153/334 151/152/332 67/68/332
f 65/66/141 152/153/335 67/68/139
f 153/154/336 152/153/337 65/66/336
f 154/155/338 153/154/336 65/66/336
f 155/156/339 153/154/340 154/155/341
f 61/62/342 155/156/342 154/155/342
f 157/157/343 156/158/344 91/159/344
f 158/160/345 156/158/346 157/157/347
f 159/161/348 158/160/345 157/157/347
f 160/162/349 158/160/350 159/161/351
f 161/163/352 160/162/353 159/161/354
f 162/164/355 160/162/353 161/163/352
f 163/165/356 162/164/357 161/163/358
f 164/166/359 162/164/360 163/165/361
f 165/167/362 164/166/359 163/165/361
f 166/168/363 164/166/364 165/167/365
f 167/169/366 166/168/367 165/167/368
f 168/170/369 166/168/367 167/169/366
f 169/171/370 168/170/370 167/169/370
f 170/172/371 168/170/372 169/171/373
f 171/173/374 170/172/371 169/171/373
f 172/174/375 170/172/376 171/173/377
f 173/175/378 172/174/379 171/173/380
f 174/176/381 172/174/379 173/175/378
f 175/177/382 174/176/383 173/175/384
f 176/178/385 174/176/386 175/177/387
f 177/179/388 176/178/385 175/177/387
f 178/180/389 176/178/390 177/179/391
f 179/181/392 178/180/393 177/179/394
f 180/182/395 178/180/393 179/181/392
f 181/183/396 180/182/397 179/181/396
f 135/136/398 180/182/399 181/183/400
f 182/184/401 135/136/398 181/183/400
f 136/137/291 135/136/293 182/184/402
f 184/185/403 183/186/404 1/187/404
f 185/188/405 183/186/406 184/185/407
f 186/189/408 185/188/405 184/185/407
f 187/190/409 185/188/410 186/189/411
f 188/191/412 187/190/413 186/189/414
f 189/192/415 187/190/413 188/191/412
f 190/193/416 189/192/417 188/191/418
f 191/194/419 189/192/420 190/193/421
f 192/195/422 191/194/419 190/193/421
f 193/196/423 191/194/424 192/195/425
f 194/197/426 193/196/427 192/195/428
f 195/198/429 193/196/427 194/197/426
f 196/199/430 195/198/430 194/197/430
f 197/200/431 195/198/432 196/199/433
f 198/201/434 197/200/431 196/199/433
f 199/202/435 197/200/436 198/201/437
f 200/203/438 199/202/439 198/201/440
f 201/204/441 199/202/439 200/203/438
f 202/205/442 201/204/443 200/203/444
f 203/206/445 201/204/446 202/205/447
f 204/207/448 203/206/445 202/205/447
f 205/208/449 203/206/450 204/207/451
f 206/209/452 205/208/453 204/207/454
f 207/210/455 205/208/453 206/209/452
f 208/211/456 207/210/457 206/209/456
f 45/45/458 207/210/459 208/211/460
f 47/47/461 45/45/458 208/211/460
f 62/63/462 114/115/463 209/212/464
f 210/213/465 114/115/463 62/63/462
f 64/65/132 210/213/466 62/63/133
f 112/113/467 210/213/468 64/65/469
f 211/214/470 112/113/467 64/65/469
f 108/109/471 112/113/472 211/214/473
f 68/69/474 108/109/475 211/214/476
f 212/215/477 108/109/475 68/69/474
f 70/71/146 212/215/478 68/69/147
f 106/107/479 212/215/480 70/71/481
f 213/216/482 106/107/479 70/71/481
f 102/103/483 106/107/483 213/216/484
f 74/75/485 102/103/486 213/216/487
f 214/217/488 102/103/486 74/75/485
f 76/77/159 214/217/489 74/75/160
f 100/101/490 214/217/491 76/77/492
f 215/218/493 100/101/490 76/77/492
f 96/97/494 100/101/495 215/218/496
f 80/81/497 96/97/498 215/218/499
f 216/219/500 96/97/498 80/81/497
f 82/83/173 216/219/501 80/81/174
f 94/95/502 216/219/503 82/83/504
f 138/139/505 24/24/506 137/138/507
f 217/220/508 24/24/506 138/139/505
f 218/221/509 217/220/510 138/139/511
f 22/22/512 217/220/513 218/221/514
f 219/222/515 22/22/512 218/221/514
f 18/18/516 22/22/517 219/222/518
f 220/223/519 18/18/520 219/222/521
f 221/224/522 18/18/520 220/223/519
f 222/225/523 221/224/524 220/223/525
f 16/16/526 221/224/527 222/225/528
f 223/226/529 16/16/526 222/225/528
f 12/12/530 16/16/530 223/226/531
f 224/227/532 12/12/533 223/226/534
f 225/228/535 12/12/533 224/227/532
f 226/229/536 225/228/537 224/227/538
f 10/10/539 225/228/540 226/229/541
f 227/230/542 10/10/539 226/229/541
f 6/6/543 10/10/544 227/230/545
f 228/231/546 6/6/547 227/230/548
f 229/232/549 6/6/547 228/231/546
f 230/233/550 229/232/551 228/231/552
f 4/4/553 229/232/554 230/233/555
f 135/136/556 178/180/556 180/182/557
f 231/234/558 178/180/556 135/136/556
f 133/134/290 231/234/559 135/136/288
f 232/235/560 231/234/561 133/134/560
f 233/236/562 232/235/560 133/134/560
f 234/237/563 232/235/564 233/236/565
f 129/130/566 234/237/566 233/236/566
f 235/238/567 234/237/567 129/130/567
f 127/128/568 235/238/568 129/130/568
f 234/237/569 235/238/569 127/128/569
f 236/239/570 234/237/570 127/128/570
f 237/240/571 234/237/572 236/239/573
f 123/124/574 237/240/574 236/239/575
f 238/241/576 237/240/574 123/124/574
f 121/122/264 238/241/577 123/124/262
f 239/242/578 238/241/579 121/122/578
f 240/243/580 239/242/578 121/122/578
f 241/244/581 239/242/582 240/243/583
f 117/118/584 241/244/584 240/243/585
f 183/186/404 3/1/586 1/245/404
f 7/7/587 3/1/588 183/186/589
f 185/188/590 7/7/590 183/186/591
f 242/246/592 7/7/590 185/188/590
f 243/247/593 242/246/594 185/188/595
f 9/9/596 242/246/597 243/247/596
f 244/248/598 9/9/596 243/247/596
f 13/13/599 9/9/600 244/248/601
f 245/249/602 13/13/602 244/248/602
f 246/250/603 13/13/603 245/249/603
f 15/15/604 246/250/604 245/249/604
f 13/13/605 246/250/605 15/15/605
f 247/251/606 157/157/607 91/252/606
f 161/163/608 157/157/609 247/251/610
f 248/253/611 161/163/611 247/251/612
f 249/254/613 161/163/611 248/253/611
f 250/255/614 249/254/615 248/253/616
f 163/165/617 249/254/618 250/255/617
f 251/256/619 163/165/617 250/255/617
f 167/169/620 163/165/621 251/256/622
f 252/257/623 167/169/623 251/256/623
f 253/258/624 167/169/624 252/257/624
f 169/171/625 253/258/625 252/257/625
f 167/169/626 253/258/626 169/171/626
f 2/2/2 49/48/627 1/259/2
f 53/54/628 49/48/629 2/2/630
f 4/4/631 53/54/631 2/2/632
f 254/260/633 53/54/631 4/4/631
f 230/233/555 254/260/634 4/4/553
f 55/56/635 254/260/636 230/233/635
f 255/261/637 55/56/635 230/233/635
f 59/60/638 55/56/639 255/261/640
f 155/156/641 59/60/641 255/261/641
f 256/262/642 59/60/642 155/156/642
f 61/62/643 256/262/643 155/156/643
f 59/60/644 256/262/644 61/62/644
f 257/263/645 184/185/646 1/264/645
f 188/191/647 184/185/648 257/263/649
f 258/265/650 188/191/650 257/263/651
f 259/266/652 188/191/650 258/265/650
f 260/267/653 259/266/654 258/265/655
f 190/193/656 259/266/657 260/267/656
f 261/268/658 190/193/656 260/267/656
f 194/197/659 190/193/660 261/268/661
f 262/269/662 194/197/662 261/268/662
f 263/270/663 194/197/663 262/269/663
f 196/199/664 263/270/664 262/269/664
f 194/197/665 263/270/665 196/199/665
f 156/158/344 93/92/666 91/271/344
f 97/98/667 93/92/668 156/158/669
f 158/160/670 97/98/670 156/158/671
f 264/272/672 97/98/670 158/160/670
f 265/273/673 264/272/674 158/160/675
f 99/100/676 264/272/677 265/273/676
f 266/274/678 99/100/676 265/273/676
f 103/104/679 99/100/680 266/274/681
f 267/275/682 103/104/682 266/274/682
f 268/276/683 103/104/683 267/275/683
f 105/106/684 268/276/684 267/275/684
f 103/104/685 268/276/685 105/106/685
f 149/150/686 224/227/687 269/277/688
f 270/278/689 224/227/687 149/150/686
f 151/152/329 270/278/690 149/150/330
f 226/229/691 270/278/692 151/152/693
f 271/279/694 226/229/691 151/152/693
f 228/231/695 226/229/696 271/279/697
f 153/154/698 228/231/699 271/279/700
f 272/280/701 228/231/699 153/154/698
f 155/156/339 272/280/702 153/154/340
f 230/233/703 272/280/704 155/156/705
f 255/261/706 230/233/703 155/156/705
f 179/181/396 273/281/707 181/183/396
f 208/282/708 273/281/709 179/181/708
f 274/283/710 208/282/708 179/181/708
f 275/284/711 208/282/712 274/283/713
f 175/177/714 275/284/714 274/283/715
f 276/285/716 275/284/714 175/177/714
f 173/175/384 276/285/717 175/177/382
f 277/286/718 276/285/719 173/175/718
f 278/287/720 277/286/718 173/175/718
f 252/257/721 277/286/722 278/287/723
f 169/171/724 252/257/724 278/287/724
f 191/194/725 187/190/726 189/192/727
f 279/288/728 187/190/726 191/194/725
f 280/289/729 279/288/730 191/194/731
f 281/290/732 279/288/733 280/289/734
f 282/291/735 281/290/732 280/289/734
f 283/292/736 281/290/737 282/291/738
f 284/293/739 283/292/740 282/291/741
f 285/294/742 283/292/740 284/293/739
f 21/21/743 285/294/744 284/293/743
f 19/19/42 285/294/745 21/21/40
f 33/33/746 37/37/747 35/35/748
f 286/295/749 37/37/747 33/33/746
f 287/296/750 286/295/751 33/33/750
f 288/297/752 286/295/753 287/296/754
f 289/298/755 288/297/752 287/296/754
f 290/299/756 288/297/757 289/298/758
f 291/300/759 290/299/760 289/298/761
f 292/301/762 290/299/760 291/300/759
f 203/206/763 292/301/764 291/300/765
f 205/208/449 292/301/766 203/206/450
f 170/172/767 166/168/767 168/170/768
f 293/302/769 166/168/767 170/172/767
f 294/303/770 293/302/771 170/172/772
f 295/304/773 293/302/774 294/303/773
f 296/305/775 295/304/773 294/303/773
f 297/306/776 295/304/777 296/305/778
f 241/244/779 297/306/779 296/305/780
f 298/307/781 297/306/779 241/244/779
f 117/118/584 298/307/782 241/244/584
f 115/116/249 298/307/783 117/118/249
f 111/112/784 115/116/785 113/114/786
f 299/308/787 115/116/785 111/112/784
f 300/309/788 299/308/789 111/112/788
f 297/306/790 299/308/791 300/309/792
f 301/310/793 297/306/790 300/309/792
f 295/304/777 297/306/776 301/310/794
f 302/311/795 295/304/796 301/310/797
f 303/312/798 295/304/796 302/311/795
f 164/166/799 303/312/800 302/311/801
f 166/168/363 303/312/802 164/166/364
f 197/200/803 193/196/803 195/198/804
f 304/313/805 193/196/803 197/200/803
f 305/314/806 304/313/807 197/200/808
f 306/315/809 304/313/810 305/314/809
f 307/316/811 306/315/809 305/314/809
f 308/317/812 306/315/813 307/316/814
f 309/318/815 308/317/815 307/316/816
f 310/319/817 308/317/815 309/318/815
f 27/27/818 310/319/819 309/318/818
f 25/25/54 310/319/820 27/27/54
f 21/21/821 25/25/822 23/23/823
f 311/320/824 25/25/822 21/21/821
f 284/293/743 311/320/825 21/21/743
f 308/317/826 311/320/827 284/293/828
f 312/321/829 308/317/826 284/293/828
f 306/315/813 308/317/812 312/321/830
f 280/289/831 306/315/832 312/321/833
f 313/322/834 306/315/832 280/289/831
f 191/194/731 313/322/835 280/289/729
f 193/196/423 313/322/836 191/194/424
f 232/235/837 178/180/838 231/234/839
f 314/323/840 178/180/838 232/235/837
f 315/324/841 314/323/842 232/235/843
f 176/178/844 314/323/845 315/324/846
f 316/325/847 176/178/844 315/324/846
f 172/174/848 176/178/849 316/325/850
f 317/326/851 172/174/852 316/325/853
f 318/327/854 172/174/852 317/326/851
f 294/303/855 318/327/856 317/326/857
f 170/172/772 318/327/858 294/303/770
f 320/328/859 319/329/860 91/330/860
f 321/331/861 319/329/862 320/328/863
f 322/332/864 321/331/861 320/328/863
f 323/333/865 321/331/866 322/332/867
f 324/334/868 323/333/869 322/332/870
f 325/335/871 323/333/869 324/334/868
f 86/87/872 325/335/873 324/334/874
f 88/89/185 325/335/875 86/87/186
f 287/296/876 291/300/877 289/298/878
f 326/336/879 291/300/877 287/296/876
f 327/337/880 326/336/881 287/296/882
f 328/338/883 326/336/884 327/337/885
f 329/339/886 328/338/883 327/337/885
f 305/314/887 328/338/888 329/339/889
f 309/318/890 305/314/891 329/339/892
f 307/316/893 305/314/891 309/318/890
f 300/309/894 302/311/895 301/310/896
f 330/340/897 302/311/895 300/309/894
f 331/341/898 330/340/899 300/309/900
f 332/342/901 330/340/902 331/341/903
f 333/343/904 332/342/901 331/341/903
f 265/273/905 332/342/906 333/343/907
f 267/275/908 265/273/909 333/343/910
f 266/274/911 265/273/909 267/275/908
f 334/344/912 136/345/913 182/346/914
f 335/347/915 136/345/913 334/344/912
f 336/348/916 335/347/917 334/344/918
f 337/349/919 335/347/920 336/348/921
f 338/350/922 337/349/919 336/348/921
f 260/267/923 337/349/924 338/350/925
f 262/269/926 260/267/927 338/350/928
f 261/268/929 260/267/927 262/269/926
f 92/93/197 320/328/930 91/351/197
f 324/334/931 320/328/932 92/93/933
f 94/95/934 324/334/934 92/93/935
f 339/352/936 324/334/934 94/95/934
f 82/83/504 339/352/937 94/95/502
f 86/87/938 339/352/939 82/83/938
f 84/85/940 86/87/938 82/83/938
f 48/49/101 340/353/941 1/354/101
f 341/355/942 340/353/943 48/49/944
f 50/51/945 341/355/945 48/49/946
f 342/356/947 341/355/945 50/51/945
f 126/127/948 342/356/949 50/51/950
f 130/131/951 342/356/952 126/127/951
f 128/129/953 130/131/951 126/127/951
f 319/329/860 343/357/954 91/358/860
f 344/359/955 343/357/956 319/329/957
f 321/331/958 344/359/958 319/329/959
f 345/360/960 344/359/958 321/331/958
f 36/36/961 345/360/962 321/331/963
f 40/40/964 345/360/965 36/36/964
f 38/38/966 40/40/964 36/36/964
f 245/249/967 283/292/968 346/361/969
f 347/362/970 283/292/968 245/249/967
f 243/247/971 347/362/972 245/249/973
f 281/290/974 347/362/975 243/247/976
f 348/363/977 281/290/974 243/247/976
f 187/190/978 281/290/979 348/363/980
f 185/188/410 187/190/409 348/363/981
f 45/45/982 205/208/982 207/210/983
f 349/364/984 205/208/982 45/45/982
f 43/43/95 349/364/985 45/45/93
f 290/299/986 349/364/987 43/43/986
f 350/365/988 290/299/986 43/43/986
f 288/297/757 290/299/756 350/365/989
f 39/39/990 288/297/990 350/365/990
f 56/57/991 52/53/992 54/55/993
f 351/366/994 52/53/992 56/57/991
f 120/121/995 351/366/996 56/57/997
f 124/125/998 351/366/999 120/121/1000
f 122/123/1001 124/125/998 120/121/1000
f 222/225/1002 224/227/1002 223/226/1003
f 269/277/1004 224/227/1002 222/225/1002
f 147/148/1005 269/277/1006 222/225/1007
f 149/150/1008 269/277/1009 147/148/1008
f 148/149/1010 149/150/1008 147/148/1008
f 40/40/1011 344/359/1012 345/360/1013
f 352/367/1014 344/359/1012 40/40/1011
f 42/42/86 352/367/1015 40/40/87
f 353/368/1016 352/367/1017 42/42/1018
f 354/369/1019 353/368/1016 42/42/1018
f 118/119/1020 114/115/1020 116/117/1021
f 209/212/1022 114/115/1020 118/119/1020
f 58/59/1023 209/212/1024 118/119/1025
f 62/63/1026 209/212/1027 58/59/1026
f 60/61/1028 62/63/1026 58/59/1026
f 277/286/1029 275/284/1030 276/285/1031
f 355/370/1032 275/284/1030 277/286/1029
f 356/371/1033 355/370/1034 277/286/1035
f 46/372/1036 355/370/1037 356/371/1038
f 354/373/1039 46/372/1036 356/371/1038
f 336/348/1040 262/269/1041 338/350/1042
f 357/374/1043 262/269/1041 336/348/1040
f 200/203/1044 357/374/1045 336/348/1044
f 196/199/1046 357/374/1047 200/203/1048
f 198/201/1049 196/199/1046 200/203/1048
f 130/131/1050 341/355/1051 342/356/1052
f 358/375/1053 341/355/1051 130/131/1050
f 132/133/281 358/375/1054 130/131/282
f 359/376/1055 358/375/1056 132/133/1057
f 360/377/1058 359/376/1055 132/133/1057
f 34/34/1059 30/30/1060 32/32/1061
f 361/378/1062 30/30/1060 34/34/1059
f 323/333/1063 361/378/1064 34/34/1065
f 88/89/1066 361/378/1067 323/333/1068
f 325/335/1069 88/89/1066 323/333/1068
f 332/342/1070 302/311/1071 330/340/1072
f 362/379/1073 302/311/1071 332/342/1070
f 160/162/1074 362/379/1075 332/342/1076
f 164/166/1077 362/379/1078 160/162/1079
f 162/164/1080 164/166/1077 160/162/1079
f 331/341/1081 267/275/1082 333/343/1083
f 363/380/1084 267/275/1082 331/341/1081
f 109/110/1085 363/380/1086 331/341/1085
f 105/106/1087 363/380/1088 109/110/1089
f 107/108/1090 105/106/1087 109/110/1089
f 202/205/1091 206/209/1092 204/207/1093
f 364/381/1094 206/209/1092 202/205/1091
f 334/344/1095 364/381/1096 202/205/1095
f 181/382/1097 364/381/1098 334/344/1099
f 182/346/1100 181/382/1097 334/344/1099
f 327/337/1101 309/318/1102 329/339/1103
f 365/383/1104 309/318/1102 327/337/1101
f 31/31/1105 365/383/1106 327/337/1105
f 27/27/1107 365/383/1108 31/31/1109
f 29/29/1110 27/27/1107 31/31/1109
f 328/338/1111 291/300/1112 326/336/1113
f 366/384/1114 291/300/1112 328/338/1111
f 199/202/1115 366/384/1116 328/338/1117
f 203/206/1118 366/384/1119 199/202/1120
f 201/204/1121 203/206/1118 199/202/1120
f 145/146/1122 143/144/1123 144/145/1124
f 367/385/1125 143/144/1123 145/146/1122
f 220/223/1126 367/385/1127 145/146/1128
f 218/221/1129 367/385/1130 220/223/1131
f 219/222/1132 218/221/1129 220/223/1131
f 239/242/1133 237/240/1134 238/241/1135
f 368/386/1136 237/240/1134 239/242/1133
f 317/326/1137 368/386/1138 239/242/1139
f 315/324/1140 368/386/1141 317/326/1142
f 316/325/1143 315/324/1140 317/326/1142
f 343/387/1144 247/251/606 91/388/606
f 248/253/1145 247/251/1146 343/387/1147
f 369/389/1148 248/253/1145 343/387/1147
f 353/390/1149 248/253/1150 369/389/1151
f 340/391/1152 257/263/645 1/392/645
f 258/265/1153 257/263/1154 340/391/1155
f 370/393/1156 258/265/1153 340/391/1155
f 359/394/1157 258/265/1158 370/393/1159
f 356/371/1160 353/390/1161 354/373/1162
f 371/395/1163 353/390/1161 356/371/1160
f 250/255/1164 371/395/1165 356/371/1166
f 248/253/616 371/395/1167 250/255/614
f 288/297/1168 37/37/1168 286/295/1168
f 372/396/1169 37/37/1169 288/297/1169
f 39/39/1170 372/396/1170 288/297/1170
f 37/37/1171 372/396/1171 39/39/1171
f 218/221/1172 143/144/1173 367/385/1174
f 373/397/1175 143/144/1173 218/221/1172
f 138/139/511 373/397/1176 218/221/509
f 140/141/301 373/397/1177 138/139/302
f 19/19/1178 283/292/1178 285/294/1179
f 346/361/1180 283/292/1178 19/19/1178
f 15/15/1181 346/361/1182 19/19/1183
f 245/249/1184 346/361/1184 15/15/1184
f 315/324/1185 237/240/1186 368/386/1187
f 374/398/1188 237/240/1186 315/324/1185
f 232/235/843 374/398/1189 315/324/841
f 234/237/563 374/398/1190 232/235/564
f 124/125/1191 52/53/1192 351/366/1193
f 375/399/1194 52/53/1192 124/125/1191
f 126/127/269 375/399/1195 124/125/270
f 50/51/950 375/399/1196 126/127/948
f 294/303/1197 241/244/1198 296/305/1199
f 376/400/1200 241/244/1198 294/303/1197
f 317/326/857 376/400/1201 294/303/855
f 239/242/1139 376/400/1202 317/326/1137
f 250/255/1203 252/257/1204 251/256/1205
f 377/401/1206 252/257/1204 250/255/1203
f 356/371/1166 377/401/1207 250/255/1164
f 277/286/1035 377/401/1208 356/371/1033
f 378/402/1209 265/273/673 158/160/675
f 332/342/906 265/273/905 378/402/1210
f 160/162/1074 332/342/1076 378/402/1211
f 337/349/1212 136/345/1213 335/347/1214
f 360/403/1215 136/345/1213 337/349/1212
f 359/394/1216 360/403/1217 337/349/1218
f 379/404/1219 300/309/788 111/112/788
f 331/341/898 300/309/900 379/404/1220
f 109/110/1085 331/341/1085 379/404/1221
f 380/405/1222 31/31/1105 327/337/1105
f 33/33/67 31/31/69 380/405/1223
f 287/296/750 33/33/750 380/405/1224
f 381/406/1225 305/314/806 197/200/808
f 328/338/888 305/314/887 381/406/1226
f 199/202/1115 328/338/1117 381/406/1227
f 382/407/1228 334/344/1095 202/205/1095
f 336/348/916 334/344/918 382/407/1229
f 200/203/1044 336/348/1044 382/407/1230
f 383/408/1231 145/146/320 147/148/319
f 220/223/1126 145/146/1128 383/408/1232
f 222/225/523 220/223/525 383/408/1233
f 384/409/1234 58/59/1023 118/119/1025
f 56/57/121 58/59/120 384/409/1235
f 120/121/995 56/57/997 384/409/1236
f 385/410/1237 260/267/653 258/265/655
f 337/349/924 260/267/923 385/410/1238
f 359/394/1216 337/349/1218 385/410/1239
f 386/411/1240 36/36/961 321/331/963
f 34/34/75 36/36/74 386/411/1241
f 323/333/1063 34/34/1065 386/411/1242
f 306/315/1243 193/196/1244 304/313/1245
f 313/322/1246 193/196/1244 306/315/1243
f 132/133/1247 136/137/1248 360/377/1249
f 134/135/1250 136/137/1248 132/133/1247
f 42/42/1251 46/46/1252 354/369/1253
f 44/44/1254 46/46/1252 42/42/1251
f 123/124/1255 127/128/1256 125/126/1257
f 236/239/1258 127/128/1256 123/124/1255
f 46/372/1259 275/284/1260 355/370/1261
f 47/412/1262 275/284/1260 46/372/1259
f 79/80/1263 83/84/1264 81/82/1265
f 142/143/1266 83/84/1264 79/80/1263
f 290/299/1267 205/208/1268 349/364/1269
f 292/301/1270 205/208/1268 290/299/1267
f 76/77/1271 80/81/1272 215/218/1273
f 78/79/1274 80/81/1272 76/77/1271
f 359/376/1275 341/355/1276 358/375/1277
f 370/413/1278 341/355/1276 359/376/1275
f 64/65/1279 68/69/1280 211/214/1281
f 66/67/1282 68/69/1280 64/65/1279
f 70/71/1283 74/75/1283 213/216/1284
f 72/73/1285 74/75/1283 70/71/1283
f 85/86/1286 89/90/1287 87/88/1288
f 139/140/1289 89/90/1287 85/86/1286
f 129/130/1290 133/134/1291 131/132/1292
f 233/236/1293 133/134/1291 129/130/1290
f 39/39/1294 43/43/1295 41/41/1296
f 350/365/1297 43/43/1295 39/39/1294
f 353/368/1298 344/359/1299 352/367/1300
f 369/414/1301 344/359/1299 353/368/1298
f 73/74/1302 77/78/1303 75/76/1304
f 146/147/1305 77/78/1303 73/74/1302
f 181/382/1306 206/209/1306 364/381/1307
f 273/415/1308 206/209/1306 181/382/1306
f 169/171/1309 173/175/1310 171/173/1311
f 278/287/1312 173/175/1310 169/171/1309
f 61/62/1313 65/66/1314 63/64/1315
f 154/155/1316 65/66/1314 61/62/1313
f 175/177/1317 179/181/1318 177/179/1319
f 274/283/1320 179/181/1318 175/177/1317
f 67/68/1321 71/72/1322 69/70/1323
f 150/151/1324 71/72/1322 67/68/1321
f 153/154/1325 151/152/1326 152/153/1327
f 271/279/1328 151/152/1326 153/154/1325
f 295/304/1329 166/168/1330 293/302/1331
f 303/312/1332 166/168/1330 295/304/1329
f 88/89/1333 30/30/1334 361/378/1335
f 90/91/1336 30/30/1334 88/89/1333
f 115/116/1337 297/306/1337 298/307/1338
f 299/308/1339 297/306/1337 115/116/1337
f 284/293/1340 280/289/1341 312/321/1342
f 282/291/1343 280/289/1341 284/293/1340
f 25/25/1344 308/317/1344 310/319/1345
f 311/320/1346 308/317/1344 25/25/1344
f 117/118/1347 121/122/1348 119/120/1349
f 240/243/1350 121/122/1348 117/118/1347
f 243/247/593 185/188/595 348/363/1351
f 187/190/978 279/288/1352 281/290/979
f 188/191/418 259/266/1353 190/193/416
f 194/197/659 192/195/1354 190/193/660
f 176/178/390 178/180/389 314/323/1355
f 100/101/217 102/103/216 214/217/1356
f 196/199/1357 262/269/1357 357/374/1357
f 206/209/456 273/415/1358 208/211/456
f 10/10/22 12/12/21 225/228/1359
f 161/163/358 249/254/1360 163/165/356
f 167/169/620 165/167/1361 163/165/621
f 22/22/517 18/18/516 20/20/1362
f 324/334/874 339/352/1363 86/87/872
f 176/178/849 172/174/848 174/176/1364
f 106/107/483 102/103/483 104/105/1365
f 16/16/530 12/12/530 14/14/1366
f 241/244/581 376/400/1367 239/242/582
f 170/172/376 172/174/375 318/327/1368
f 97/98/211 264/272/1369 99/100/209
f 53/54/628 51/52/1370 49/48/629
f 7/7/587 5/5/1371 3/1/588
f 243/247/971 245/249/973 244/248/1372
f 188/191/647 186/189/1373 184/185/648
f 100/101/495 96/97/494 98/99/1374
f 103/104/679 101/102/1375 99/100/680
f 161/163/608 159/161/1376 157/157/609
f 105/106/1377 267/275/1377 363/380/1377
f 252/257/721 377/401/1378 277/286/722
f 344/359/955 369/414/1379 343/357/956
f 324/334/931 322/332/1380 320/328/932
f 106/107/229 108/109/228 212/215/1381
f 112/113/243 114/115/242 210/213/1382
f 143/144/309 373/397/1383 140/141/310
f 16/16/34 18/18/33 221/224/1384
f 228/231/695 227/230/1385 226/229/696
f 237/240/571 374/398/1386 234/237/572
f 283/292/736 347/362/1387 281/290/737
f 19/19/1183 17/17/1388 15/15/1181
f 341/355/942 370/413/1389 340/353/943
f 275/284/711 47/412/1390 208/282/712
f 22/22/48 24/24/47 217/220/1391
f 97/98/667 95/96/1392 93/92/668
f 302/311/801 362/379/1393 164/166/799
f 4/4/8 6/6/7 229/232/1394
f 248/253/1150 353/390/1149 371/395/1395
f 94/95/203 96/97/202 216/219/1396
f 224/227/538 270/278/1397 226/229/536
f 50/51/107 52/53/106 375/399/1398
f 112/113/472 108/109/471 110/111/1399
f 109/110/237 379/404/1400 111/112/235
f 53/54/115 254/260/1401 55/56/113
f 287/296/882 380/405/1402 327/337/880
f 59/60/638 57/58/1403 55/56/639
f 197/200/436 199/202/435 381/406/1404
f 7/7/16 242/246/1405 9/9/14
f 200/203/444 382/407/1406 202/205/442
f 27/27/818 309/318/818 365/383/1407
f 222/225/1007 383/408/1408 147/148/1005
f 10/10/544 6/6/543 8/8/1409
f 118/119/256 120/121/255 384/409/1410
f 291/300/765 366/384/1411 203/206/763
f 258/265/1158 359/394/1157 385/410/1412
f 13/13/599 11/11/1413 9/9/600
f 321/331/866 323/333/865 386/411/1414
f 228/231/552 272/280/1415 230/233/550
f 158/160/350 160/162/349 378/402/1416
