# Blender 5.2.0 LTS
# www.blender.org
mtllib Sol-MarioGalaxy.mtl
o mesh0
v 0.000000 -2.077810 0.000000
v -0.387139 -2.015478 0.387139
v 0.000000 -2.045751 0.401586
v -0.375696 -1.911267 0.779635
v 0.000000 -1.940404 0.799439
v 0.000000 -1.758522 1.171969
v 0.375696 -1.911267 0.779635
v 0.363359 -1.731657 1.146647
v 0.712353 -1.652038 1.093243
v 0.360113 -1.473727 1.473727
v 0.700909 -1.406200 1.406201
v 0.712353 -1.093242 1.652038
v 0.996417 -1.309781 1.309781
v 1.019710 -1.019710 1.532812
v 1.309781 -0.996417 1.309781
v 1.093243 -0.712352 1.652038
v 1.406200 -0.700909 1.406200
v 1.473727 -0.360113 1.473727
v 1.652038 -0.712353 1.093243
v 1.731657 -0.363359 1.146647
v 1.911267 -0.375696 0.779635
v 1.758522 0.000000 1.171969
v 1.940404 0.000000 0.799439
v 1.911267 0.375696 0.779635
v 2.045751 0.000000 0.401586
v 2.015478 0.387139 0.387139
v 2.045751 0.401586 -0.000000
v 1.911267 0.779635 0.375696
v 1.940404 0.799439 -0.000000
v 1.758522 1.171969 -0.000000
v 1.911267 0.779635 -0.375696
v 1.731657 1.146647 -0.363359
v 1.652038 1.093243 -0.712353
v 1.473727 1.473727 -0.360113
v 1.406200 1.406200 -0.700909
v 1.093243 1.652038 -0.712353
v 1.309781 1.309781 -0.996417
v 1.019710 1.532812 -1.019711
v 0.996417 1.309781 -1.309781
v 0.712353 1.652038 -1.093243
v 0.700909 1.406200 -1.406201
v 0.360113 1.473727 -1.473727
v 0.712353 1.093242 -1.652038
v 0.363359 1.146646 -1.731657
v 0.375696 0.779635 -1.911267
v 0.000000 1.171969 -1.758522
v 0.000000 0.799439 -1.940404
v -0.387139 -2.015478 -0.387139
v -0.401586 -2.045751 0.000000
v -0.779635 -1.911267 -0.375695
v -0.799439 -1.940404 0.000000
v -1.171969 -1.758522 0.000000
v -0.779635 -1.911267 0.375696
v -1.146647 -1.731657 0.363359
v -1.093243 -1.652038 0.712353
v -1.473727 -1.473727 0.360113
v -1.406200 -1.406200 0.700909
v -1.652038 -1.093243 0.712353
v -1.309781 -1.309781 0.996417
v -1.532812 -1.019710 1.019711
v -1.309781 -0.996417 1.309781
v -1.652038 -0.712353 1.093243
v -1.406200 -0.700909 1.406200
v -1.473727 -0.360113 1.473727
v -1.093243 -0.712352 1.652038
v -1.146647 -0.363359 1.731657
v -0.779635 -0.375695 1.911267
v -1.171969 0.000000 1.758522
v -0.799439 0.000000 1.940404
v -0.779635 0.375696 1.911267
v -0.401586 0.000000 2.045751
v -0.387139 0.387139 2.015478
v 0.000000 0.401586 2.045751
v -0.375696 0.779635 1.911267
v 0.000000 0.799439 1.940404
v 0.000000 1.171969 1.758522
v 0.375696 0.779635 1.911267
v 0.363359 1.146647 1.731657
v 0.712353 1.093243 1.652038
v 0.360113 1.473727 1.473727
v 0.700909 1.406201 1.406200
v 0.712353 1.652038 1.093242
v 0.996417 1.309781 1.309781
v 1.019710 1.532812 1.019710
v 1.309781 1.309781 0.996417
v 1.093243 1.652038 0.712352
v 1.406200 1.406200 0.700909
v 1.473727 1.473727 0.360113
v 1.652038 1.093243 0.712353
v 1.731657 1.146647 0.363359
v 0.000000 2.077810 -0.000000
v 0.387139 2.015478 0.387139
v 0.000000 2.045751 0.401586
v 0.375696 1.911267 0.779635
v 0.000000 1.940404 0.799439
v 0.000000 1.758522 1.171969
v -0.375696 1.911267 0.779635
v -0.363359 1.731657 1.146646
v -0.712353 1.652038 1.093242
v -0.360113 1.473727 1.473727
v -0.700909 1.406201 1.406200
v -0.712353 1.093243 1.652038
v -0.996417 1.309781 1.309781
v -1.019710 1.019711 1.532812
v -1.309781 0.996417 1.309781
v -1.093243 0.712353 1.652038
v -1.406200 0.700909 1.406200
v -1.473727 0.360113 1.473727
v -1.652038 0.712353 1.093243
v -1.731657 0.363359 1.146647
v -1.911267 0.375696 0.779635
v -1.758522 0.000000 1.171969
v -1.940404 0.000000 0.799439
v -1.911267 -0.375696 0.779635
v -2.045751 0.000000 0.401586
v -2.015478 -0.387139 0.387139
v -2.045751 -0.401586 0.000000
v -1.911267 -0.779635 0.375696
v -1.940404 -0.799439 0.000000
v -1.758522 -1.171969 0.000000
v -1.911267 -0.779635 -0.375696
v -1.731657 -1.146647 -0.363359
v -1.652038 -1.093243 -0.712353
v -1.473727 -1.473727 -0.360113
v -1.406200 -1.406200 -0.700909
v -1.093243 -1.652038 -0.712352
v -1.309781 -1.309781 -0.996417
v -1.019710 -1.532812 -1.019710
v -0.996417 -1.309781 -1.309781
v -0.712353 -1.652038 -1.093242
v -0.700909 -1.406201 -1.406200
v -0.360113 -1.473727 -1.473727
v -0.712353 -1.093243 -1.652038
v -0.363359 -1.146647 -1.731657
v -0.375696 -0.779635 -1.911267
v 0.000000 -1.171969 -1.758522
v 1.815822 0.746035 0.746035
v 1.652038 0.712353 1.093243
v 1.532812 1.019711 1.019710
v 1.309781 0.996417 1.309781
v 1.210196 1.210196 1.210196
v 1.019710 1.019711 1.532812
v 1.093243 0.712353 1.652038
v 0.746035 0.746035 1.815822
v 0.779635 0.375696 1.911267
v 0.387139 0.387139 2.015478
v 0.401586 0.000000 2.045751
v 0.000000 0.000000 2.077810
v 0.000000 -0.401586 2.045751
v -0.387139 -0.387139 2.015478
v -0.375696 -0.779635 1.911267
v -0.746035 -0.746034 1.815822
v -0.712353 -1.093242 1.652038
v -1.019710 -1.019710 1.532812
v -0.996417 -1.309781 1.309781
v -0.387139 2.015478 0.387139
v -0.401586 2.045751 -0.000000
v -0.779635 1.911267 0.375695
v -0.799439 1.940404 -0.000000
v -1.171969 1.758522 -0.000000
v -0.779635 1.911267 -0.375696
v -1.146647 1.731657 -0.363359
v -1.093243 1.652038 -0.712353
v -1.473727 1.473727 -0.360113
v -1.406200 1.406200 -0.700909
v -1.652038 1.093243 -0.712353
v -1.309781 1.309781 -0.996417
v -1.532812 1.019710 -1.019711
v -1.309781 0.996417 -1.309781
v -1.652038 0.712353 -1.093243
v -1.406200 0.700909 -1.406200
v -1.473727 0.360113 -1.473727
v -1.093243 0.712352 -1.652038
v -1.146647 0.363359 -1.731657
v -0.779635 0.375695 -1.911267
v -1.171969 -0.000000 -1.758522
v -0.799439 -0.000000 -1.940404
v -0.779635 -0.375696 -1.911267
v -0.401586 -0.000000 -2.045751
v -0.387139 -0.387139 -2.015478
v 0.000000 -0.401586 -2.045751
v 0.000000 -0.799439 -1.940404
v 0.387139 -2.015478 0.387139
v 0.401586 -2.045751 0.000000
v 0.779635 -1.911267 0.375696
v 0.799439 -1.940404 0.000000
v 1.171969 -1.758522 0.000000
v 0.779635 -1.911267 -0.375695
v 1.146647 -1.731657 -0.363359
v 1.093243 -1.652038 -0.712352
v 1.473727 -1.473727 -0.360113
v 1.406200 -1.406200 -0.700909
v 1.652038 -1.093243 -0.712353
v 1.309781 -1.309781 -0.996417
v 1.532812 -1.019711 -1.019710
v 1.309781 -0.996417 -1.309781
v 1.652038 -0.712353 -1.093243
v 1.406200 -0.700909 -1.406200
v 1.473727 -0.360113 -1.473727
v 1.093243 -0.712353 -1.652038
v 1.146647 -0.363359 -1.731657
v 0.779635 -0.375696 -1.911267
v 1.171969 -0.000000 -1.758522
v 0.799439 -0.000000 -1.940404
v 0.779635 0.375695 -1.911267
v 0.401586 -0.000000 -2.045751
v 0.387139 0.387139 -2.015478
v 0.000000 0.401586 -2.045751
v -1.815822 -0.746035 0.746035
v -1.731657 -0.363359 1.146647
v -1.500348 0.000000 1.500348
v -1.146647 0.363359 1.731657
v -0.746035 0.746035 1.815822
v -0.363359 1.146647 1.731657
v 0.000000 1.500348 1.500347
v 0.363359 1.731657 1.146646
v 1.731657 0.363359 1.146647
v 1.473727 0.360113 1.473727
v 1.500348 0.000000 1.500348
v 1.171969 0.000000 1.758522
v 1.146647 -0.363359 1.731657
v 0.779635 -0.375695 1.911267
v 0.746035 -0.746034 1.815822
v 0.375696 -0.779635 1.911267
v 0.363359 -1.146646 1.731657
v 0.000000 -1.171969 1.758522
v 0.000000 -1.500347 1.500348
v -0.360113 -1.473727 1.473727
v -0.363359 -1.731657 1.146647
v -0.712353 -1.652038 1.093243
v -0.746035 -0.746035 -1.815822
v -1.093243 -0.712353 -1.652038
v -1.019710 -1.019711 -1.532812
v -1.309781 -0.996417 -1.309781
v -1.210196 -1.210196 -1.210196
v -1.532812 -1.019711 -1.019710
v -1.652038 -0.712353 -1.093243
v -1.815822 -0.746035 -0.746035
v -1.911267 -0.375696 -0.779635
v -2.015478 -0.387139 -0.387139
v -2.045751 -0.000000 -0.401586
v 0.746035 -1.815822 0.746035
v 1.093243 -1.652038 0.712353
v 1.019710 -1.532812 1.019711
v 1.309781 -1.309781 0.996417
v 1.210196 -1.210196 1.210196
v -0.387139 2.015478 -0.387139
v -0.375696 1.911267 -0.779635
v -0.746035 1.815822 -0.746035
v -0.712353 1.652038 -1.093243
v -1.019710 1.532812 -1.019711
v -0.996417 1.309781 -1.309781
v -1.210196 1.210196 -1.210196
v -0.746035 -1.815822 0.746035
v -1.019710 -1.532812 1.019711
v -1.210196 -1.210196 1.210196
v 0.387139 -2.015478 -0.387139
v 0.375696 -1.911267 -0.779635
v 0.746035 -1.815822 -0.746034
v 0.712353 -1.652038 -1.093242
v 1.019710 -1.532812 -1.019710
v 0.996417 -1.309781 -1.309781
v 1.210196 -1.210196 -1.210196
v -0.746035 1.815822 0.746034
v -1.093243 1.652038 0.712352
v -1.019710 1.532812 1.019710
v -1.309781 1.309781 0.996417
v -1.210196 1.210196 1.210196
v 0.387139 -0.387139 2.015478
v 0.000000 -0.799439 1.940404
v -0.363359 -1.146646 1.731657
v -0.700909 -1.406200 1.406201
v 0.000000 -0.000000 -2.077810
v -0.387139 0.387139 -2.015478
v -0.375696 0.779635 -1.911267
v -0.746035 0.746034 -1.815822
v -0.712353 1.093242 -1.652038
v -1.019710 1.019710 -1.532812
v 1.500348 -1.500348 0.000000
v 1.758522 -1.171969 0.000000
v 1.473727 -1.473727 0.360113
v 1.731657 -1.146647 0.363359
v 1.652038 -1.093243 0.712353
v 1.911267 -0.779635 0.375696
v 1.815822 -0.746035 0.746035
v 1.532812 1.019710 -1.019711
v 1.652038 0.712353 -1.093243
v 1.309781 0.996417 -1.309781
v 1.406200 0.700909 -1.406200
v 1.093243 0.712352 -1.652038
v 1.473727 0.360113 -1.473727
v 1.146647 0.363359 -1.731657
v -1.815822 0.746035 -0.746035
v -1.911267 0.375696 -0.779635
v -1.911267 0.779635 -0.375696
v -2.015478 0.387139 -0.387139
v -2.045751 0.401586 -0.000000
v -2.077810 0.000000 0.000000
v -2.015478 0.387139 0.387139
v -1.911267 0.779635 0.375696
v -1.940404 0.799439 -0.000000
v -1.758522 1.171969 -0.000000
v -1.731657 1.146647 -0.363359
v 1.815822 -0.746035 -0.746035
v 1.911267 -0.375696 -0.779635
v 1.911267 -0.779635 -0.375696
v 2.015478 -0.387139 -0.387139
v 2.045751 -0.401586 0.000000
v 2.045751 -0.000000 -0.401586
v 2.077810 0.000000 0.000000
v 2.015478 -0.387139 0.387139
v 1.940404 -0.799439 0.000000
v 1.731657 -1.146647 -0.363359
v -1.146647 -0.363359 -1.731657
v -1.473727 -0.360113 -1.473727
v -1.500348 -0.000000 -1.500348
v -1.758522 -0.000000 -1.171969
v -1.731657 0.363359 -1.146647
v 0.387139 2.015478 -0.387139
v 0.401586 2.045751 -0.000000
v 0.779635 1.911267 -0.375696
v 0.799439 1.940404 -0.000000
v 1.171969 1.758522 -0.000000
v 0.779635 1.911267 0.375695
v 1.146647 1.731657 0.363359
v 1.731657 0.363359 -1.146647
v 1.911267 0.375696 -0.779635
v 1.758522 -0.000000 -1.171969
v 1.940404 -0.000000 -0.799439
v -1.731657 1.146647 0.363359
v -1.652038 1.093243 0.712353
v -1.473727 1.473727 0.360113
v -1.406200 1.406200 0.700909
v 0.375696 -0.779635 -1.911267
v 0.363359 -1.146647 -1.731657
v 0.712353 -1.093243 -1.652038
v 0.360113 -1.473727 -1.473727
v 0.700909 -1.406201 -1.406200
v 0.746035 1.815822 0.746034
v 0.000000 -2.045751 -0.401586
v -0.375696 -1.911267 -0.779635
v -0.746035 -1.815822 -0.746034
v 0.000000 2.045751 -0.401586
v 0.375696 1.911267 -0.779635
v 0.746035 1.815822 -0.746035
v 1.532812 -1.019710 1.019711
v 1.406200 -1.406200 0.700909
v 1.146647 -1.731657 0.363359
v 0.746035 0.746034 -1.815822
v 1.019710 1.019710 -1.532812
v -1.500348 -1.500348 0.000000
v 0.363359 1.731657 -1.146647
v 0.000000 1.758522 -1.171969
v 0.000000 1.500347 -1.500348
v -0.363359 1.146646 -1.731657
v -0.360113 1.473727 -1.473727
v 1.019710 -1.019711 -1.532812
v -0.363359 -1.731657 -1.146646
v 0.000000 -1.758522 -1.171969
v 0.000000 -1.500348 -1.500347
v 1.500348 1.500348 -0.000000
v -1.500348 1.500348 -0.000000
v -1.532812 1.019711 1.019710
v 0.387139 -0.387139 -2.015478
v 2.015478 0.387139 -0.387139
v 1.500348 -0.000000 -1.500348
v 1.146647 0.363359 1.731657
v -1.731657 -0.363359 -1.146647
v 0.000000 1.940404 -0.799439
v 0.000000 -1.940404 -0.799439
v -0.363359 1.731657 -1.146647
v 1.210196 1.210196 -1.210196
v 1.406200 0.700909 1.406200
v -1.406200 -0.700909 -1.406200
v -1.146647 -1.731657 -0.363359
v -1.940404 -0.000000 -0.799439
v -0.700909 1.406200 -1.406201
v -1.146647 1.731657 0.363359
v -1.815822 0.746035 0.746035
v 1.815822 0.746035 -0.746035
v 1.731657 -0.363359 -1.146647
v 0.746035 -0.746035 -1.815822
v 0.799439 0.000000 1.940404
v -1.731657 -1.146647 0.363359
v 0.363359 -1.731657 -1.146646
v 1.146647 1.731657 -0.363359
vn -0.0807 -0.9936 0.0793
vn -0.0849 -0.9624 0.2580
vn -0.0881 -0.9629 0.2550
vn -0.0924 -0.8948 0.4369
vn 0.0924 -0.8948 0.4369
vn 0.0967 -0.8927 0.4401
vn 0.2629 -0.8631 0.4312
vn 0.2641 -0.7561 0.5988
vn 0.2683 -0.7528 0.6011
vn 0.2683 -0.6011 0.7528
vn 0.4170 -0.5708 0.7073
vn 0.4117 -0.5760 0.7062
vn 0.5399 -0.5399 0.6458
vn 0.5760 -0.4117 0.7062
vn 0.5708 -0.4170 0.7073
vn 0.6011 -0.2683 0.7528
vn 0.7528 -0.2683 0.6011
vn 0.7561 -0.2641 0.5988
vn 0.8631 -0.2629 0.4312
vn 0.8927 -0.0967 0.4401
vn 0.8948 -0.0924 0.4369
vn 0.8948 0.0924 0.4369
vn 0.9629 0.0881 0.2550
vn 0.9624 0.0849 0.2580
vn 0.9935 0.0807 0.0807
vn 0.9624 0.2580 0.0849
vn 0.9629 0.2550 0.0881
vn 0.8948 0.4369 0.0924
vn 0.8948 0.4369 -0.0924
vn 0.8927 0.4401 -0.0967
vn 0.8631 0.4312 -0.2629
vn 0.7561 0.5988 -0.2641
vn 0.7528 0.6011 -0.2683
vn 0.6011 0.7528 -0.2683
vn 0.5708 0.7073 -0.4170
vn 0.5760 0.7062 -0.4117
vn 0.5399 0.6458 -0.5399
vn 0.4117 0.7062 -0.5760
vn 0.4170 0.7073 -0.5708
vn 0.2683 0.7528 -0.6011
vn 0.2683 0.6011 -0.7528
vn 0.2641 0.5988 -0.7561
vn 0.2629 0.4312 -0.8631
vn 0.0967 0.4401 -0.8927
vn 0.0924 0.4369 -0.8948
vn -0.0793 -0.9936 -0.0807
vn -0.2580 -0.9624 -0.0849
vn -0.2550 -0.9629 -0.0881
vn -0.4369 -0.8948 -0.0924
vn -0.4369 -0.8948 0.0924
vn -0.4401 -0.8927 0.0967
vn -0.4312 -0.8631 0.2629
vn -0.5988 -0.7561 0.2641
vn -0.6011 -0.7528 0.2683
vn -0.7528 -0.6011 0.2683
vn -0.7073 -0.5708 0.4170
vn -0.7062 -0.5760 0.4117
vn -0.6458 -0.5399 0.5399
vn -0.7062 -0.4117 0.5760
vn -0.7073 -0.4170 0.5708
vn -0.7528 -0.2683 0.6011
vn -0.6011 -0.2683 0.7528
vn -0.5988 -0.2641 0.7561
vn -0.4312 -0.2629 0.8631
vn -0.4401 -0.0967 0.8927
vn -0.4369 -0.0924 0.8948
vn -0.4369 0.0924 0.8948
vn -0.2550 0.0881 0.9629
vn -0.2580 0.0849 0.9624
vn -0.0807 0.0807 0.9935
vn -0.0849 0.2580 0.9624
vn -0.0881 0.2550 0.9629
vn -0.0924 0.4369 0.8948
vn 0.0924 0.4369 0.8948
vn 0.0967 0.4401 0.8927
vn 0.2629 0.4312 0.8631
vn 0.2641 0.5988 0.7561
vn 0.2683 0.6011 0.7528
vn 0.2683 0.7528 0.6011
vn 0.4170 0.7073 0.5708
vn 0.4117 0.7062 0.5760
vn 0.5399 0.6458 0.5399
vn 0.5760 0.7062 0.4117
vn 0.5708 0.7073 0.4170
vn 0.6011 0.7528 0.2683
vn 0.7528 0.6011 0.2683
vn 0.7561 0.5988 0.2641
vn 0.8631 0.4312 0.2629
vn 0.8927 0.4401 0.0967
vn 0.0807 0.9936 0.0793
vn 0.0849 0.9624 0.2580
vn 0.0881 0.9629 0.2550
vn 0.0924 0.8948 0.4369
vn -0.0924 0.8948 0.4369
vn -0.0967 0.8927 0.4401
vn -0.2629 0.8631 0.4312
vn -0.2641 0.7561 0.5988
vn -0.2683 0.7528 0.6011
vn -0.2683 0.6011 0.7528
vn -0.4170 0.5708 0.7073
vn -0.4117 0.5760 0.7062
vn -0.5399 0.5399 0.6458
vn -0.5760 0.4117 0.7062
vn -0.5708 0.4170 0.7073
vn -0.6011 0.2683 0.7528
vn -0.7528 0.2683 0.6011
vn -0.7561 0.2641 0.5988
vn -0.8631 0.2629 0.4312
vn -0.8927 0.0967 0.4401
vn -0.8948 0.0924 0.4369
vn -0.8948 -0.0924 0.4369
vn -0.9629 -0.0881 0.2550
vn -0.9624 -0.0849 0.2580
vn -0.9935 -0.0807 0.0807
vn -0.9624 -0.2580 0.0849
vn -0.9629 -0.2550 0.0881
vn -0.8948 -0.4369 0.0924
vn -0.8948 -0.4369 -0.0924
vn -0.8927 -0.4401 -0.0967
vn -0.8631 -0.4312 -0.2629
vn -0.7561 -0.5988 -0.2641
vn -0.7528 -0.6011 -0.2683
vn -0.6011 -0.7528 -0.2683
vn -0.5708 -0.7073 -0.4170
vn -0.5760 -0.7062 -0.4117
vn -0.5399 -0.6458 -0.5399
vn -0.4117 -0.7062 -0.5760
vn -0.4170 -0.7073 -0.5708
vn -0.2683 -0.7528 -0.6011
vn -0.2683 -0.6011 -0.7528
vn -0.2641 -0.5988 -0.7561
vn -0.2629 -0.4312 -0.8631
vn -0.0967 -0.4401 -0.8927
vn 0.9327 0.2551 0.2551
vn 0.9282 0.2631 0.2631
vn 0.8629 0.4324 0.2616
vn 0.8043 0.4202 0.4202
vn 0.8111 0.4136 0.4136
vn 0.7062 0.4117 0.5760
vn 0.6458 0.5399 0.5399
vn 0.6298 0.5492 0.5492
vn 0.5492 0.6298 0.5492
vn 0.5492 0.5492 0.6298
vn 0.5399 0.5399 0.6458
vn 0.5760 0.4117 0.7062
vn 0.4136 0.4136 0.8111
vn 0.4202 0.4202 0.8043
vn 0.2616 0.4324 0.8629
vn 0.2631 0.2631 0.9282
vn 0.2551 0.2551 0.9327
vn 0.2580 0.0849 0.9624
vn 0.0807 0.0807 0.9935
vn 0.0793 0.0793 0.9937
vn -0.0793 0.0793 0.9937
vn -0.0793 -0.0793 0.9937
vn -0.0807 -0.0807 0.9935
vn -0.0849 -0.2580 0.9624
vn -0.2551 -0.2551 0.9327
vn -0.2631 -0.2631 0.9282
vn -0.4324 -0.2616 0.8629
vn -0.4202 -0.4202 0.8043
vn -0.4136 -0.4136 0.8111
vn -0.4117 -0.5760 0.7062
vn -0.5399 -0.5399 0.6458
vn -0.0793 0.9936 0.0807
vn -0.2580 0.9624 0.0849
vn -0.2550 0.9629 0.0881
vn -0.4369 0.8948 0.0924
vn -0.4369 0.8948 -0.0924
vn -0.4401 0.8927 -0.0967
vn -0.4312 0.8631 -0.2629
vn -0.5988 0.7561 -0.2641
vn -0.6011 0.7528 -0.2683
vn -0.7528 0.6011 -0.2683
vn -0.7073 0.5708 -0.4170
vn -0.7062 0.5760 -0.4117
vn -0.6458 0.5399 -0.5399
vn -0.7062 0.4117 -0.5760
vn -0.7073 0.4170 -0.5708
vn -0.7528 0.2683 -0.6011
vn -0.6011 0.2683 -0.7528
vn -0.5988 0.2641 -0.7561
vn -0.4312 0.2629 -0.8631
vn -0.4401 0.0967 -0.8927
vn -0.4369 0.0924 -0.8948
vn -0.4369 -0.0924 -0.8948
vn -0.2550 -0.0881 -0.9629
vn -0.2580 -0.0849 -0.9624
vn -0.0807 -0.0807 -0.9935
vn -0.0849 -0.2580 -0.9624
vn -0.0881 -0.2550 -0.9629
vn -0.0924 -0.4369 -0.8948
vn 0.0793 -0.9936 0.0807
vn 0.2580 -0.9624 0.0849
vn 0.2550 -0.9629 0.0881
vn 0.4369 -0.8948 0.0924
vn 0.4369 -0.8948 -0.0924
vn 0.4401 -0.8927 -0.0967
vn 0.4312 -0.8631 -0.2629
vn 0.5988 -0.7561 -0.2641
vn 0.6011 -0.7528 -0.2683
vn 0.7528 -0.6011 -0.2683
vn 0.7073 -0.5708 -0.4170
vn 0.7062 -0.5760 -0.4117
vn 0.6458 -0.5399 -0.5399
vn 0.7062 -0.4117 -0.5760
vn 0.7073 -0.4170 -0.5708
vn 0.7528 -0.2683 -0.6011
vn 0.6011 -0.2683 -0.7528
vn 0.5988 -0.2641 -0.7561
vn 0.4312 -0.2629 -0.8631
vn 0.4401 -0.0967 -0.8927
vn 0.4369 -0.0924 -0.8948
vn 0.4369 0.0924 -0.8948
vn 0.2550 0.0881 -0.9629
vn 0.2580 0.0849 -0.9624
vn 0.0807 0.0807 -0.9935
vn 0.0849 0.2580 -0.9624
vn 0.0881 0.2550 -0.9629
vn -0.8629 -0.2616 0.4324
vn -0.8631 -0.2629 0.4312
vn -0.7561 -0.2641 0.5988
vn -0.7807 -0.1007 0.6167
vn -0.7819 -0.1032 0.6148
vn -0.7819 0.1032 0.6148
vn -0.6148 0.1032 0.7819
vn -0.6167 0.1007 0.7807
vn -0.4401 0.0967 0.8927
vn -0.4312 0.2629 0.8631
vn -0.4324 0.2616 0.8629
vn -0.4202 0.4202 0.8043
vn -0.2616 0.4324 0.8629
vn -0.2629 0.4312 0.8631
vn -0.0967 0.4401 0.8927
vn -0.1007 0.6167 0.7807
vn -0.1032 0.6148 0.7819
vn -0.1032 0.7819 0.6148
vn 0.1032 0.7819 0.6148
vn 0.1007 0.7807 0.6167
vn 0.2641 0.7561 0.5988
vn 0.2629 0.8631 0.4312
vn 0.8629 0.2616 0.4324
vn 0.8631 0.2629 0.4312
vn 0.7561 0.2641 0.5988
vn 0.7807 0.1007 0.6167
vn 0.7819 0.1032 0.6148
vn 0.7819 -0.1032 0.6148
vn 0.6148 -0.1032 0.7819
vn 0.6167 -0.1007 0.7807
vn 0.4401 -0.0967 0.8927
vn 0.4312 -0.2629 0.8631
vn 0.4324 -0.2616 0.8629
vn 0.4202 -0.4202 0.8043
vn 0.2616 -0.4324 0.8629
vn 0.2629 -0.4312 0.8631
vn 0.0967 -0.4401 0.8927
vn 0.1007 -0.6167 0.7807
vn 0.1032 -0.6148 0.7819
vn 0.1032 -0.7819 0.6148
vn -0.1032 -0.7819 0.6148
vn -0.1007 -0.7807 0.6167
vn -0.2641 -0.7561 0.5988
vn -0.2629 -0.8631 0.4312
vn -0.2551 -0.2551 -0.9327
vn -0.2631 -0.2631 -0.9282
vn -0.2616 -0.4324 -0.8629
vn -0.4202 -0.4202 -0.8043
vn -0.4136 -0.4136 -0.8111
vn -0.5760 -0.4117 -0.7062
vn -0.5399 -0.5399 -0.6458
vn -0.5492 -0.5492 -0.6298
vn -0.5492 -0.6298 -0.5492
vn -0.6298 -0.5492 -0.5492
vn -0.6458 -0.5399 -0.5399
vn -0.7062 -0.4117 -0.5760
vn -0.8111 -0.4136 -0.4136
vn -0.8043 -0.4202 -0.4202
vn -0.8629 -0.4324 -0.2616
vn -0.9282 -0.2631 -0.2631
vn -0.9327 -0.2551 -0.2551
vn -0.9624 -0.0849 -0.2580
vn -0.9935 -0.0807 -0.0807
vn 0.0807 -0.9936 0.0793
vn 0.0849 -0.9624 0.2580
vn 0.2551 -0.9327 0.2551
vn 0.2631 -0.9282 0.2631
vn 0.4324 -0.8629 0.2616
vn 0.4202 -0.8043 0.4202
vn 0.4136 -0.8111 0.4136
vn 0.4117 -0.7062 0.5760
vn 0.5399 -0.6458 0.5399
vn 0.5492 -0.6298 0.5492
vn 0.6298 -0.5492 0.5492
vn 0.5492 -0.5492 0.6298
vn -0.0793 0.9936 -0.0807
vn -0.2580 0.9624 -0.0849
vn -0.2551 0.9327 -0.2551
vn -0.2631 0.9282 -0.2631
vn -0.2616 0.8629 -0.4324
vn -0.4202 0.8043 -0.4202
vn -0.4136 0.8111 -0.4136
vn -0.5760 0.7062 -0.4117
vn -0.5399 0.6458 -0.5399
vn -0.5492 0.6298 -0.5492
vn -0.5492 0.5492 -0.6298
vn -0.6298 0.5492 -0.5492
vn -0.0793 -0.9936 0.0807
vn -0.2580 -0.9624 0.0849
vn -0.2551 -0.9327 0.2551
vn -0.2631 -0.9282 0.2631
vn -0.2616 -0.8629 0.4324
vn -0.4202 -0.8043 0.4202
vn -0.4136 -0.8111 0.4136
vn -0.5760 -0.7062 0.4117
vn -0.5399 -0.6458 0.5399
vn -0.5492 -0.6298 0.5492
vn -0.5492 -0.5492 0.6298
vn -0.6298 -0.5492 0.5492
vn 0.0793 -0.9936 -0.0807
vn 0.2580 -0.9624 -0.0849
vn 0.2551 -0.9327 -0.2551
vn 0.2631 -0.9282 -0.2631
vn 0.2616 -0.8629 -0.4324
vn 0.4202 -0.8043 -0.4202
vn 0.4136 -0.8111 -0.4136
vn 0.5760 -0.7062 -0.4117
vn 0.5399 -0.6458 -0.5399
vn 0.5492 -0.6298 -0.5492
vn 0.5492 -0.5492 -0.6298
vn 0.6298 -0.5492 -0.5492
vn -0.0807 0.9936 0.0793
vn -0.0849 0.9624 0.2580
vn -0.2551 0.9327 0.2551
vn -0.2631 0.9282 0.2631
vn -0.4324 0.8629 0.2616
vn -0.4202 0.8043 0.4202
vn -0.4136 0.8111 0.4136
vn -0.4117 0.7062 0.5760
vn -0.5399 0.6458 0.5399
vn -0.5492 0.6298 0.5492
vn -0.6298 0.5492 0.5492
vn -0.5492 0.5492 0.6298
vn 0.0849 -0.2580 0.9624
vn 0.0881 -0.2550 0.9629
vn -0.0881 -0.2550 0.9629
vn -0.0924 -0.4369 0.8948
vn -0.0967 -0.4401 0.8927
vn -0.1007 -0.6167 0.7807
vn -0.2641 -0.5988 0.7561
vn -0.2683 -0.6011 0.7528
vn -0.4170 -0.5708 0.7073
vn -0.4170 -0.7073 0.5708
vn -0.4117 -0.7062 0.5760
vn -0.0793 -0.0793 -0.9937
vn -0.0793 0.0793 -0.9937
vn -0.0807 0.0807 -0.9935
vn -0.0849 0.2580 -0.9624
vn -0.2551 0.2551 -0.9327
vn -0.2631 0.2631 -0.9282
vn -0.4324 0.2616 -0.8629
vn -0.4202 0.4202 -0.8043
vn -0.4136 0.4136 -0.8111
vn -0.4117 0.5760 -0.7062
vn -0.5399 0.5399 -0.6458
vn 0.6167 -0.7807 -0.1007
vn 0.6148 -0.7819 -0.1032
vn 0.7819 -0.6148 -0.1032
vn 0.7819 -0.6148 0.1032
vn 0.7807 -0.6167 0.1007
vn 0.7561 -0.5988 0.2641
vn 0.8631 -0.4312 0.2629
vn 0.8629 -0.4324 0.2616
vn 0.9282 -0.2631 0.2631
vn 0.8629 -0.2616 0.4324
vn 0.7073 0.5708 -0.4170
vn 0.7062 0.5760 -0.4117
vn 0.8111 0.4136 -0.4136
vn 0.7062 0.4117 -0.5760
vn 0.7073 0.4170 -0.5708
vn 0.5708 0.4170 -0.7073
vn 0.6011 0.2683 -0.7528
vn 0.5988 0.2641 -0.7561
vn 0.6167 0.1007 -0.7807
vn 0.4401 0.0967 -0.8927
vn -0.8111 0.4136 -0.4136
vn -0.8043 0.4202 -0.4202
vn -0.8629 0.2616 -0.4324
vn -0.9282 0.2631 -0.2631
vn -0.9327 0.2551 -0.2551
vn -0.9624 0.2580 -0.0849
vn -0.9935 0.0807 -0.0807
vn -0.9937 0.0793 -0.0793
vn -0.9937 -0.0793 -0.0793
vn -0.9937 -0.0793 0.0793
vn -0.9629 0.0881 0.2550
vn -0.9624 0.0849 0.2580
vn -0.9327 0.2551 0.2551
vn -0.9624 0.2580 0.0849
vn -0.9629 0.2550 0.0881
vn -0.9629 0.2550 -0.0881
vn -0.8948 0.4369 -0.0924
vn -0.8927 0.4401 -0.0967
vn -0.7807 0.6167 -0.1007
vn -0.7561 0.5988 -0.2641
vn 0.8111 -0.4136 -0.4136
vn 0.8043 -0.4202 -0.4202
vn 0.8629 -0.2616 -0.4324
vn 0.9282 -0.2631 -0.2631
vn 0.9327 -0.2551 -0.2551
vn 0.9624 -0.2580 -0.0849
vn 0.9935 -0.0807 -0.0807
vn 0.9937 -0.0793 -0.0793
vn 0.9937 0.0793 -0.0793
vn 0.9937 0.0793 0.0793
vn 0.9629 -0.0881 0.2550
vn 0.9624 -0.0849 0.2580
vn 0.9327 -0.2551 0.2551
vn 0.9624 -0.2580 0.0849
vn 0.9629 -0.2550 0.0881
vn 0.9629 -0.2550 -0.0881
vn 0.8948 -0.4369 -0.0924
vn 0.8927 -0.4401 -0.0967
vn 0.7807 -0.6167 -0.1007
vn 0.7561 -0.5988 -0.2641
vn -0.4324 -0.2616 -0.8629
vn -0.4312 -0.2629 -0.8631
vn -0.5988 -0.2641 -0.7561
vn -0.6167 -0.1007 -0.7807
vn -0.6148 -0.1032 -0.7819
vn -0.6148 0.1032 -0.7819
vn -0.7819 0.1032 -0.6148
vn -0.7807 0.1007 -0.6167
vn -0.8927 0.0967 -0.4401
vn -0.8631 0.2629 -0.4312
vn 0.0793 0.9936 -0.0807
vn 0.2580 0.9624 -0.0849
vn 0.2550 0.9629 -0.0881
vn 0.4369 0.8948 -0.0924
vn 0.4369 0.8948 0.0924
vn 0.4401 0.8927 0.0967
vn 0.4312 0.8631 0.2629
vn 0.5988 0.7561 0.2641
vn 0.7528 0.2683 -0.6011
vn 0.7561 0.2641 -0.5988
vn 0.8631 0.2629 -0.4312
vn 0.8927 0.0967 -0.4401
vn 0.8948 0.0924 -0.4369
vn 0.8948 -0.0924 -0.4369
vn 0.9629 -0.0881 -0.2550
vn 0.9624 -0.0849 -0.2580
vn -0.8948 0.4369 0.0924
vn -0.8927 0.4401 0.0967
vn -0.8631 0.4312 0.2629
vn -0.7561 0.5988 0.2641
vn -0.7528 0.6011 0.2683
vn -0.6011 0.7528 0.2683
vn -0.5708 0.7073 0.4170
vn -0.5760 0.7062 0.4117
vn 0.0924 -0.4369 -0.8948
vn 0.0967 -0.4401 -0.8927
vn 0.2629 -0.4312 -0.8631
vn 0.2641 -0.5988 -0.7561
vn 0.2683 -0.6011 -0.7528
vn 0.2683 -0.7528 -0.6011
vn 0.4170 -0.7073 -0.5708
vn 0.4117 -0.7062 -0.5760
vn 0.0793 0.9936 0.0807
vn 0.2580 0.9624 0.0849
vn 0.2551 0.9327 0.2551
vn 0.2631 0.9282 0.2631
vn 0.2616 0.8629 0.4324
vn 0.4202 0.8043 0.4202
vn 0.4136 0.8111 0.4136
vn -0.0807 -0.9936 -0.0793
vn -0.0849 -0.9624 -0.2580
vn -0.2551 -0.9327 -0.2551
vn -0.2631 -0.9282 -0.2631
vn -0.4324 -0.8629 -0.2616
vn -0.4202 -0.8043 -0.4202
vn -0.4136 -0.8111 -0.4136
vn 0.0807 0.9936 -0.0793
vn 0.0849 0.9624 -0.2580
vn 0.2551 0.9327 -0.2551
vn 0.2631 0.9282 -0.2631
vn 0.4324 0.8629 -0.2616
vn 0.4202 0.8043 -0.4202
vn 0.4136 0.8111 -0.4136
vn 0.7062 -0.5760 0.4117
vn 0.7073 -0.5708 0.4170
vn 0.5708 -0.7073 0.4170
vn 0.6011 -0.7528 0.2683
vn 0.5988 -0.7561 0.2641
vn 0.6167 -0.7807 0.1007
vn 0.4401 -0.8927 0.0967
vn 0.2551 0.2551 -0.9327
vn 0.2631 0.2631 -0.9282
vn 0.2616 0.4324 -0.8629
vn 0.4202 0.4202 -0.8043
vn 0.4136 0.4136 -0.8111
vn 0.5760 0.4117 -0.7062
vn 0.5399 0.5399 -0.6458
vn -0.6167 -0.7807 0.1007
vn -0.6148 -0.7819 0.1032
vn -0.7819 -0.6148 0.1032
vn -0.7819 -0.6148 -0.1032
vn -0.7807 -0.6167 -0.1007
vn 0.2631 -0.2631 0.9282
vn 0.2551 -0.2551 0.9327
vn 0.2580 -0.0849 0.9624
vn 0.0807 -0.0807 0.9935
vn 0.0793 -0.0793 0.9937
vn 0.2616 0.8629 -0.4324
vn 0.2629 0.8631 -0.4312
vn 0.2641 0.7561 -0.5988
vn 0.1007 0.7807 -0.6167
vn 0.1032 0.7819 -0.6148
vn -0.9327 -0.2551 0.2551
vn -0.9282 -0.2631 0.2631
vn -0.8629 -0.4324 0.2616
vn -0.8043 -0.4202 0.4202
vn -0.8111 -0.4136 0.4136
vn -0.2616 0.4324 -0.8629
vn -0.2629 0.4312 -0.8631
vn -0.2641 0.5988 -0.7561
vn -0.1007 0.6167 -0.7807
vn -0.1032 0.6148 -0.7819
vn 0.4170 -0.5708 -0.7073
vn 0.4117 -0.5760 -0.7062
vn 0.4136 -0.4136 -0.8111
vn 0.5760 -0.4117 -0.7062
vn 0.5708 -0.4170 -0.7073
vn -0.2616 -0.8629 -0.4324
vn -0.2629 -0.8631 -0.4312
vn -0.2641 -0.7561 -0.5988
vn -0.1007 -0.7807 -0.6167
vn -0.1032 -0.7819 -0.6148
vn 0.7807 0.6167 -0.1007
vn 0.7819 0.6148 -0.1032
vn 0.6148 0.7819 -0.1032
vn 0.6148 0.7819 0.1032
vn 0.6167 0.7807 0.1007
vn -0.7807 0.6167 0.1007
vn -0.7819 0.6148 0.1032
vn -0.6148 0.7819 0.1032
vn -0.6148 0.7819 -0.1032
vn -0.6167 0.7807 -0.1007
vn -0.7073 0.5708 0.4170
vn -0.7062 0.5760 0.4117
vn -0.8111 0.4136 0.4136
vn -0.7062 0.4117 0.5760
vn -0.7073 0.4170 0.5708
vn 0.2550 -0.0881 -0.9629
vn 0.2580 -0.0849 -0.9624
vn 0.2551 -0.2551 -0.9327
vn 0.0849 -0.2580 -0.9624
vn 0.0881 -0.2550 -0.9629
vn 0.9629 0.0881 -0.2550
vn 0.9624 0.0849 -0.2580
vn 0.9327 0.2551 -0.2551
vn 0.9624 0.2580 -0.0849
vn 0.9629 0.2550 -0.0881
vn 0.7807 0.1007 -0.6167
vn 0.7819 0.1032 -0.6148
vn 0.7819 -0.1032 -0.6148
vn 0.6148 -0.1032 -0.7819
vn 0.6167 -0.1007 -0.7807
vn 0.4324 0.2616 0.8629
vn 0.4312 0.2629 0.8631
vn 0.4401 0.0967 0.8927
vn 0.6167 0.1007 0.7807
vn 0.6148 0.1032 0.7819
vn -0.8629 -0.2616 -0.4324
vn -0.8631 -0.2629 -0.4312
vn -0.8927 -0.0967 -0.4401
vn -0.7807 -0.1007 -0.6167
vn -0.7819 -0.1032 -0.6148
vn -0.0807 0.9936 -0.0793
vn -0.0849 0.9624 -0.2580
vn -0.0881 0.9629 -0.2550
vn -0.0924 0.8948 -0.4369
vn 0.0807 -0.9936 -0.0793
vn 0.0849 -0.9624 -0.2580
vn 0.0881 -0.9629 -0.2550
vn 0.0924 -0.8948 -0.4369
vn -0.1032 0.7819 -0.6148
vn -0.1007 0.7807 -0.6167
vn -0.2641 0.7561 -0.5988
vn -0.2629 0.8631 -0.4312
vn 0.6458 0.5399 -0.5399
vn 0.6298 0.5492 -0.5492
vn 0.5492 0.5492 -0.6298
vn 0.5492 0.6298 -0.5492
vn 0.5988 0.2641 0.7561
vn 0.6011 0.2683 0.7528
vn 0.7528 0.2683 0.6011
vn 0.7073 0.4170 0.5708
vn 0.8043 -0.4202 0.4202
vn 0.8111 -0.4136 0.4136
vn 0.7062 -0.4117 0.5760
vn 0.6458 -0.5399 0.5399
vn -0.7561 -0.2641 -0.5988
vn -0.7528 -0.2683 -0.6011
vn -0.6011 -0.2683 -0.7528
vn -0.5708 -0.4170 -0.7073
vn -0.6148 -0.7819 -0.1032
vn -0.6167 -0.7807 -0.1007
vn -0.5988 -0.7561 -0.2641
vn -0.4312 -0.8631 -0.2629
vn -0.9624 0.0849 -0.2580
vn -0.9629 0.0881 -0.2550
vn -0.8948 0.0924 -0.4369
vn -0.8948 -0.0924 -0.4369
vn -0.4117 0.7062 -0.5760
vn -0.4170 0.7073 -0.5708
vn -0.2683 0.7528 -0.6011
vn -0.2683 0.6011 -0.7528
vn -0.4312 0.8631 0.2629
vn -0.5988 0.7561 0.2641
vn -0.6167 0.7807 0.1007
vn 0.1007 -0.6167 -0.7807
vn 0.1032 -0.6148 -0.7819
vn 0.1032 -0.7819 -0.6148
vn -0.9282 0.2631 0.2631
vn -0.8629 0.4324 0.2616
vn -0.8043 0.4202 0.4202
vn 0.9282 0.2631 -0.2631
vn 0.8629 0.4324 -0.2616
vn 0.8043 0.4202 -0.4202
vn 0.8631 -0.2629 -0.4312
vn 0.8927 -0.0967 -0.4401
vn 0.7807 -0.1007 -0.6167
vn 0.2631 -0.2631 -0.9282
vn 0.2616 -0.4324 -0.8629
vn 0.4202 -0.4202 -0.8043
vn 0.2550 0.0881 0.9629
vn 0.4369 0.0924 0.8948
vn 0.4369 -0.0924 0.8948
vn -0.8631 -0.4312 0.2629
vn -0.7561 -0.5988 0.2641
vn -0.7807 -0.6167 0.1007
vn 0.2629 -0.8631 -0.4312
vn 0.2641 -0.7561 -0.5988
vn 0.1007 -0.7807 -0.6167
vn 0.4312 0.8631 -0.2629
vn 0.5988 0.7561 -0.2641
vn 0.6167 0.7807 -0.1007
vn 0.8629 -0.4324 -0.2616
vn 0.8631 -0.4312 -0.2629
vn -0.1032 -0.6148 -0.7819
vn -0.1007 -0.6167 -0.7807
vn 0.1032 0.6148 -0.7819
vn 0.1007 0.6167 -0.7807
vn -0.7073 -0.5708 -0.4170
vn -0.7062 -0.5760 -0.4117
vn -0.0967 0.4401 -0.8927
vn -0.0924 0.4369 -0.8948
vn 0.4170 0.5708 0.7073
vn 0.4117 0.5760 0.7062
vn 0.4324 0.2616 -0.8629
vn 0.4312 0.2629 -0.8631
vn 0.1032 0.6148 0.7819
vn 0.1007 0.6167 0.7807
vn -0.0967 -0.8927 -0.4401
vn -0.0924 -0.8948 -0.4369
vn -0.6148 -0.1032 0.7819
vn -0.6167 -0.1007 0.7807
vn -0.2631 0.2631 0.9282
vn -0.2551 0.2551 0.9327
vn 0.7073 0.5708 0.4170
vn 0.7062 0.5760 0.4117
vn -0.4170 -0.5708 -0.7073
vn -0.4117 -0.5760 -0.7062
vn 0.4170 0.5708 -0.7073
vn 0.4117 0.5760 -0.7062
vn 0.0967 0.8927 -0.4401
vn 0.0924 0.8948 -0.4369
vn 0.0881 0.2550 0.9629
vn 0.0849 0.2580 0.9624
vn 0.0807 -0.0807 -0.9935
vn 0.0793 -0.0793 -0.9937
vn -0.5708 0.4170 -0.7073
vn -0.5760 0.4117 -0.7062
vn -0.5708 -0.4170 0.7073
vn -0.5760 -0.4117 0.7062
vn -0.2550 0.0881 -0.9629
vn -0.2580 0.0849 -0.9624
vn -0.2550 -0.0881 0.9629
vn -0.2580 -0.0849 0.9624
vn -0.2616 -0.4324 0.8629
vn -0.2629 -0.4312 0.8631
vn -0.8629 0.4324 -0.2616
vn -0.8631 0.4312 -0.2629
vn 0.7819 0.6148 0.1032
vn 0.7807 0.6167 0.1007
vn -0.9937 0.0793 0.0793
vn -0.9935 0.0807 0.0807
vn 0.8948 -0.4369 0.0924
vn 0.8927 -0.4401 0.0967
vn 0.9937 -0.0793 0.0793
vn 0.9935 -0.0807 0.0807
vn -0.9629 -0.2550 -0.0881
vn -0.9624 -0.2580 -0.0849
vn 0.4312 -0.8631 0.2629
vn 0.6148 -0.7819 0.1032
vn 0.4324 -0.8629 -0.2616
vn 0.5708 -0.7073 -0.4170
vn -0.4401 -0.0967 -0.8927
vn -0.2641 0.5988 0.7561
vn 0.5399 -0.5399 -0.6458
vn 0.0793 0.0793 -0.9937
vn 0.2641 -0.5988 0.7561
vn -0.4324 0.8629 -0.2616
vn -0.5708 0.7073 -0.4170
vn 0.7807 -0.1007 0.6167
vn 0.4324 0.8629 0.2616
vn -0.6167 0.1007 -0.7807
vn -0.4136 0.4136 0.8111
vn 0.4136 -0.4136 0.8111
vn -0.9629 -0.0881 -0.2550
vn -0.7561 0.2641 -0.5988
vn -0.2616 0.8629 0.4324
vn -0.2550 -0.9629 0.0881
vn 0.0881 -0.9629 0.2550
vn 0.5760 -0.7062 0.4117
vn 0.2550 -0.9629 -0.0881
vn -0.1007 0.7807 0.6167
vn -0.4170 0.7073 0.5708
vn -0.2550 0.9629 -0.0881
vn -0.6458 0.5399 0.5399
vn -0.4170 0.5708 -0.7073
vn 0.0881 0.9629 -0.2550
vn 0.2550 0.9629 0.0881
vn -0.5988 0.2641 0.7561
vn -0.8927 -0.0967 0.4401
vn 0.5708 0.4170 0.7073
vn 0.5988 -0.2641 0.7561
vn -0.1032 -0.6148 0.7819
vn -0.7073 -0.4170 -0.5708
vn 0.7528 -0.6011 0.2683
vn 0.7073 -0.4170 0.5708
vn -0.0881 -0.9629 -0.2550
vn -0.0881 0.2550 -0.9629
vn 0.8927 0.0967 0.4401
vn -0.0881 0.9629 0.2550
vn -0.7819 0.6148 -0.1032
vn -0.0967 -0.8927 0.4401
vn -0.0967 0.8927 -0.4401
vn 0.0967 0.8927 0.4401
vn 0.0924 -0.4369 0.8948
vn -0.4401 -0.8927 -0.0967
vn -0.7807 0.1007 0.6167
vn -0.8629 0.2616 0.4324
vn -0.4324 -0.8629 0.2616
vn 0.8629 0.2616 -0.4324
vn -0.5708 -0.7073 0.4170
vn 0.7561 -0.2641 -0.5988
vn 0.2616 -0.8629 0.4324
vn 0.4324 -0.2616 -0.8629
vn 0.9935 0.0807 -0.0807
vn 0.2550 -0.0881 0.9629
vn 0.1007 -0.7807 0.6167
vn -0.8927 -0.4401 0.0967
vn 0.6148 0.1032 -0.7819
vn 0.0967 -0.8927 -0.4401
vn 0.4170 -0.7073 0.5708
vn 0.4401 0.8927 -0.0967
vn -0.2683 -0.7528 0.6011
vn -0.4401 0.8927 0.0967
vt 0.500000 -0.376587
vt 0.000000 -0.331055
vt 0.255981 -0.500000
vt 0.214111 -0.229248
vt 0.500000 -0.251099
vt 0.500000 -0.125732
vt 0.785889 -0.229248
vt 0.695312 -0.113403
vt 0.867676 -0.074341
vt 0.652588 0.009277
vt 0.794434 0.035278
vt 0.759155 0.152466
vt 0.914062 0.072144
vt 0.873779 0.178101
vt 1.000000 0.185791
vt 0.872192 0.280273
vt 1.000000 0.284302
vt 1.000000 0.391113
vt 1.127808 0.280273
vt 1.127686 0.389771
vt 1.253418 0.385376
vt 1.125732 0.500000
vt 1.251221 0.500000
vt 1.253418 0.614746
vt 1.376587 0.500000
vt 1.379150 0.618774
vt 1.500000 0.623413
vt 1.376465 0.742432
vt 1.500000 0.748901
vt 1.500000 0.874268
vt 1.623535 0.742432
vt 1.631714 0.866089
vt 1.759155 0.847656
vt 1.652588 0.990845
vt 1.794434 0.964844
vt 1.867676 1.074341
vt 1.914062 0.927979
vt 2.000000 1.019287
vt 2.085938 0.927979
vt 2.132324 1.074341
vt 2.205566 0.964844
vt 2.347412 0.990845
vt 2.240845 0.847656
vt 2.368286 0.866089
vt 2.376465 0.742432
vt 2.500000 0.874268
vt 2.500000 0.748901
vt -0.499878 -0.376587
vt -0.999878 -0.331055
vt -0.744263 -0.500000
vt -0.785767 -0.229248
vt -0.499878 -0.251099
vt -0.499878 -0.125732
vt -0.213989 -0.229248
vt -0.304565 -0.113403
vt -0.132202 -0.074341
vt -0.347290 0.009277
vt -0.205444 0.035278
vt -0.240723 0.152466
vt -0.085815 0.072144
vt -0.126099 0.178101
vt 0.000000 0.185791
vt -0.127686 0.280273
vt 0.000000 0.284302
vt 0.000000 0.391113
vt 0.127808 0.280273
vt 0.127686 0.389771
vt 0.253418 0.385376
vt 0.125732 0.500000
vt 0.251221 0.500000
vt 0.253418 0.614746
vt 0.376587 0.500000
vt 0.379150 0.618774
vt 0.500000 0.623413
vt 0.376465 0.742432
vt 0.500000 0.748901
vt 0.500000 0.874268
vt 0.623535 0.742432
vt 0.631714 0.866089
vt 0.759155 0.847656
vt 0.652588 0.990845
vt 0.794434 0.964844
vt 0.867676 1.074341
vt 0.914062 0.927979
vt 1.000000 1.019287
vt 1.085938 0.927979
vt 1.132324 1.074341
vt 1.205566 0.964844
vt 1.347412 0.990845
vt 1.240845 0.847656
vt 1.368286 0.866089
vt 0.500000 1.376587
vt 1.000000 1.331055
vt 0.760254 1.500000
vt 0.785889 1.229248
vt 0.500000 1.251099
vt 0.500000 1.125732
vt 0.214111 1.229248
vt 0.304688 1.113403
vt 0.132324 1.074341
vt 0.347412 0.990845
vt 0.205566 0.964844
vt 0.240845 0.847656
vt 0.085938 0.927979
vt 0.126343 0.822021
vt 0.000000 0.814331
vt 0.127808 0.719849
vt 0.000000 0.715820
vt 0.000000 0.609009
vt -0.127686 0.719849
vt -0.127563 0.610352
vt -0.253296 0.614746
vt -0.125610 0.500000
vt -0.251099 0.500000
vt -0.253296 0.385376
vt -0.376465 0.500000
vt -0.379028 0.381348
vt -0.499878 0.376709
vt -0.376343 0.257690
vt -0.499878 0.251221
vt -0.499878 0.125854
vt -0.623413 0.257690
vt -0.631592 0.134033
vt -0.759033 0.152466
vt -0.652466 0.009277
vt -0.794312 0.035278
vt -0.867554 -0.074341
vt -0.913940 0.072144
vt -0.999878 -0.019287
vt -1.085815 0.072144
vt -1.132202 -0.074341
vt -1.205444 0.035278
vt -1.347290 0.009277
vt -1.240723 0.152466
vt -1.368164 0.134033
vt -1.376343 0.257690
vt -1.499878 0.125854
vt 1.251831 0.731323
vt 1.127808 0.719849
vt 1.126343 0.822021
vt 1.000000 0.814331
vt 1.000000 0.891846
vt 0.873779 0.822021
vt 0.872192 0.719849
vt 0.748169 0.731323
vt 0.746582 0.614746
vt 0.620850 0.618774
vt 0.623413 0.500000
vt 0.500000 0.500000
vt 0.500000 0.376709
vt 0.379150 0.381348
vt 0.376465 0.257690
vt 0.251831 0.268799
vt 0.240845 0.152466
vt 0.126343 0.178101
vt 0.085938 0.072144
vt -0.499878 1.376587
vt 0.000000 1.331055
vt -0.256348 1.500000
vt -0.213989 1.229248
vt -0.499878 1.251099
vt -0.499878 1.125732
vt -0.785767 1.229248
vt -0.695190 1.113403
vt -0.867554 1.074341
vt -0.652466 0.990845
vt -0.794312 0.964844
vt -0.759033 0.847656
vt -0.913940 0.927979
vt -0.873535 0.822021
vt -0.999878 0.814331
vt -0.872070 0.719849
vt -0.999878 0.715820
vt -0.999878 0.609009
vt -1.127686 0.719849
vt -1.127563 0.610352
vt -1.253296 0.614746
vt -1.125610 0.500000
vt -1.251099 0.500000
vt -1.253296 0.385376
vt -1.376465 0.500000
vt -1.379028 0.381348
vt -1.499878 0.376709
vt -1.499878 0.251221
vt 1.500000 -0.376587
vt 1.000000 -0.331055
vt 1.256348 -0.500000
vt 1.214111 -0.229248
vt 1.500000 -0.251099
vt 1.500000 -0.125732
vt 1.785889 -0.229248
vt 1.695312 -0.113403
vt 1.867676 -0.074341
vt 1.652588 0.009277
vt 1.794434 0.035278
vt 1.759155 0.152466
vt 1.914062 0.072144
vt 1.873779 0.178101
vt 2.000000 0.185791
vt 1.872192 0.280273
vt 2.000000 0.284302
vt 2.000000 0.391113
vt 2.127808 0.280273
vt 2.127686 0.389771
vt 2.253418 0.385376
vt 2.125732 0.500000
vt 2.251221 0.500000
vt 2.253418 0.614746
vt 2.376587 0.500000
vt 2.379150 0.618774
vt 2.500000 0.623413
vt -0.251709 0.268799
vt -0.127563 0.389771
vt 0.000000 0.500000
vt 0.127686 0.610352
vt 0.251831 0.731323
vt 0.368286 0.866089
vt 0.500000 1.000000
vt 0.695312 1.113403
vt 1.127686 0.610352
vt 1.000000 0.609009
vt 1.000000 0.500000
vt 0.874268 0.500000
vt 0.872314 0.389771
vt 0.746582 0.385376
vt 0.748169 0.268799
vt 0.623535 0.257690
vt 0.631714 0.134033
vt 0.500000 0.125854
vt 0.500000 0.000000
vt 0.347412 0.009277
vt 0.304688 -0.113403
vt 0.132324 -0.074341
vt -1.251709 0.268799
vt -1.127686 0.280273
vt -1.126099 0.178101
vt -0.999878 0.185791
vt -0.999878 0.108276
vt -0.873535 0.178101
vt -0.872070 0.280273
vt -0.748047 0.268799
vt -0.746460 0.385376
vt -0.620728 0.381348
vt -0.623291 0.500000
vt 0.792725 -0.500000
vt 1.000000 -0.164795
vt 1.132324 -0.074341
vt 1.000000 -0.019287
vt 1.085938 0.072144
vt 1.000000 0.108276
vt -0.999878 1.331055
vt -0.744263 1.500000
vt -1.213989 1.229248
vt -0.999878 1.164795
vt -1.132202 1.074341
vt -0.999878 1.019287
vt -1.085815 0.927979
vt -0.999878 0.891846
vt -0.207520 -0.500000
vt 0.000000 -0.164795
vt 0.000000 -0.019287
vt 0.000000 0.108276
vt 2.000000 -0.331055
vt 1.785034 -0.500000
vt 2.214111 -0.229248
vt 2.000000 -0.164795
vt 2.132324 -0.074341
vt 2.000000 -0.019287
vt 2.085938 0.072144
vt 2.000000 0.108276
vt 0.288452 1.500000
vt 0.000000 1.164795
vt -0.132202 1.074341
vt 0.000000 1.019287
vt -0.085815 0.927979
vt 0.000000 0.891846
vt 0.620850 0.381348
vt 0.500000 0.251221
vt 0.368286 0.134033
vt 0.205566 0.035278
vt -1.499878 0.500000
vt -1.499878 0.623413
vt -1.379028 0.618774
vt -1.376343 0.742432
vt -1.251709 0.731323
vt -1.240723 0.847656
vt -1.126099 0.822021
vt 1.500000 0.000000
vt 1.500000 0.125854
vt 1.347412 0.009277
vt 1.368286 0.134033
vt 1.240845 0.152466
vt 1.376465 0.257690
vt 1.251831 0.268799
vt 1.873779 0.822021
vt 1.872192 0.719849
vt 2.000000 0.814331
vt 2.000000 0.715820
vt 2.127808 0.719849
vt 2.000000 0.609009
vt 2.127686 0.610352
vt -0.748047 0.731323
vt -0.746460 0.614746
vt -0.623413 0.742432
vt -0.620728 0.618774
vt -0.499878 0.623413
vt -0.499878 0.500000
vt -0.379028 0.618774
vt -0.376343 0.742432
vt -0.499878 0.748901
vt -0.499878 0.874268
vt -0.631592 0.866089
vt 1.748169 0.268799
vt 1.746582 0.385376
vt 1.623535 0.257690
vt 1.620850 0.381348
vt 1.500000 0.376709
vt 1.623413 0.500000
vt 1.500000 0.500000
vt 1.379150 0.381348
vt 1.500000 0.251221
vt 1.631714 0.134033
vt -1.127563 0.389771
vt -0.999878 0.391113
vt -0.999878 0.500000
vt -0.874146 0.500000
vt -0.872192 0.610352
vt 1.500000 1.376587
vt 2.000000 1.331055
vt 1.744263 1.500000
vt 1.785889 1.229248
vt 1.500000 1.251099
vt 1.500000 1.125732
vt 1.214111 1.229248
vt 1.304688 1.113403
vt 1.872314 0.610352
vt 1.746582 0.614746
vt 1.874268 0.500000
vt 1.748779 0.500000
vt -0.368164 0.866089
vt -0.240723 0.847656
vt -0.347290 0.990845
vt -0.205444 0.964844
vt 2.376465 0.257690
vt 2.500000 0.125854
vt 2.500000 0.251221
vt 2.368286 0.134033
vt 2.240845 0.152466
vt 2.347412 0.009277
vt 2.205566 0.035278
vt 1.207520 1.500000
vt 1.000000 1.164795
vt -1.499878 -0.376587
vt -1.191650 -0.500000
vt -1.213989 -0.229248
vt -0.999878 -0.164795
vt 2.500000 1.376587
vt 2.216064 1.500000
vt 2.214111 1.229248
vt 2.000000 1.164795
vt 1.126343 0.178101
vt 1.205566 0.035278
vt 1.304688 -0.113403
vt 2.251831 0.731323
vt 2.126343 0.822021
vt -0.499878 0.000000
vt 2.304688 1.113403
vt 2.500000 1.125732
vt 2.500000 1.000000
vt -1.368164 0.866089
vt -1.347290 0.990845
vt -1.499878 0.874268
vt -1.499878 1.000000
vt 2.126343 0.178101
vt -1.304565 -0.113403
vt -1.499878 -0.125732
vt -1.499878 0.000000
vt 1.500000 1.000000
vt -0.499878 1.000000
vt -0.126099 0.822021
vt 2.379150 0.381348
vt 2.500000 0.376709
vt 1.620850 0.618774
vt 2.000000 0.500000
vt 0.872314 0.610352
vt -0.872192 0.389771
vt -1.499878 1.376587
vt -1.256714 1.500000
vt -1.499878 1.251099
vt -1.499878 1.125732
vt 2.500000 -0.376587
vt 2.240479 -0.500000
vt 2.500000 -0.251099
vt 2.500000 -0.125732
vt -1.304565 1.113403
vt 2.000000 0.891846
vt 1.000000 0.715820
vt -0.999878 0.284302
vt -0.695190 -0.113403
vt -0.748657 0.500000
vt -1.205444 0.964844
vt -0.304565 1.113403
vt 2.500000 0.000000
vt -0.251709 0.731323
vt 1.748169 0.731323
vt 1.872314 0.389771
vt 2.251831 0.268799
vt 0.748779 0.500000
vt -0.368164 0.134033
vt 2.304688 -0.113403
vt 1.695312 1.113403
vt -1.499878 0.748901
vt -1.499878 -0.251099
vt 2.500000 1.251099
vt 2.500000 0.500000
s 0
usemtl mat0
f 3/1/1 2/2/1 1/3/1
f 4/4/2 2/2/2 3/1/2
f 5/5/3 4/4/3 3/1/3
f 6/6/4 4/4/4 5/5/4
f 7/7/5 6/6/5 5/5/5
f 8/8/6 6/6/6 7/7/6
f 9/9/7 8/8/7 7/7/7
f 10/10/8 8/8/8 9/9/8
f 11/11/9 10/10/9 9/9/9
f 12/12/10 10/10/10 11/11/10
f 13/13/11 12/12/11 11/11/11
f 14/14/12 12/12/12 13/13/12
f 15/15/13 14/14/13 13/13/13
f 16/16/14 14/14/14 15/15/14
f 17/17/15 16/16/15 15/15/15
f 18/18/16 16/16/16 17/17/16
f 19/19/17 18/18/17 17/17/17
f 20/20/18 18/18/18 19/19/18
f 21/21/19 20/20/19 19/19/19
f 22/22/20 20/20/20 21/21/20
f 23/23/21 22/22/21 21/21/21
f 24/24/22 22/22/22 23/23/22
f 25/25/23 24/24/23 23/23/23
f 26/26/24 24/24/24 25/25/24
f 27/27/25 26/26/25 25/25/25
f 28/28/26 26/26/26 27/27/26
f 29/29/27 28/28/27 27/27/27
f 30/30/28 28/28/28 29/29/28
f 31/31/29 30/30/29 29/29/29
f 32/32/30 30/30/30 31/31/30
f 33/33/31 32/32/31 31/31/31
f 34/34/32 32/32/32 33/33/32
f 35/35/33 34/34/33 33/33/33
f 36/36/34 34/34/34 35/35/34
f 37/37/35 36/36/35 35/35/35
f 38/38/36 36/36/36 37/37/36
f 39/39/37 38/38/37 37/37/37
f 40/40/38 38/38/38 39/39/38
f 41/41/39 40/40/39 39/39/39
f 42/42/40 40/40/40 41/41/40
f 43/43/41 42/42/41 41/41/41
f 44/44/42 42/42/42 43/43/42
f 45/45/43 44/44/43 43/43/43
f 46/46/44 44/44/44 45/45/44
f 47/47/45 46/46/45 45/45/45
f 49/48/46 48/49/46 1/50/46
f 50/51/47 48/49/47 49/48/47
f 51/52/48 50/51/48 49/48/48
f 52/53/49 50/51/49 51/52/49
f 53/54/50 52/53/50 51/52/50
f 54/55/51 52/53/51 53/54/51
f 55/56/52 54/55/52 53/54/52
f 56/57/53 54/55/53 55/56/53
f 57/58/54 56/57/54 55/56/54
f 58/59/55 56/57/55 57/58/55
f 59/60/56 58/59/56 57/58/56
f 60/61/57 58/59/57 59/60/57
f 61/62/58 60/61/58 59/60/58
f 62/63/59 60/61/59 61/62/59
f 63/64/60 62/63/60 61/62/60
f 64/65/61 62/63/61 63/64/61
f 65/66/62 64/65/62 63/64/62
f 66/67/63 64/65/63 65/66/63
f 67/68/64 66/67/64 65/66/64
f 68/69/65 66/67/65 67/68/65
f 69/70/66 68/69/66 67/68/66
f 70/71/67 68/69/67 69/70/67
f 71/72/68 70/71/68 69/70/68
f 72/73/69 70/71/69 71/72/69
f 73/74/70 72/73/70 71/72/70
f 74/75/71 72/73/71 73/74/71
f 75/76/72 74/75/72 73/74/72
f 76/77/73 74/75/73 75/76/73
f 77/78/74 76/77/74 75/76/74
f 78/79/75 76/77/75 77/78/75
f 79/80/76 78/79/76 77/78/76
f 80/81/77 78/79/77 79/80/77
f 81/82/78 80/81/78 79/80/78
f 82/83/79 80/81/79 81/82/79
f 83/84/80 82/83/80 81/82/80
f 84/85/81 82/83/81 83/84/81
f 85/86/82 84/85/82 83/84/82
f 86/87/83 84/85/83 85/86/83
f 87/88/84 86/87/84 85/86/84
f 88/89/85 86/87/85 87/88/85
f 89/90/86 88/89/86 87/88/86
f 90/91/87 88/89/87 89/90/87
f 28/28/88 90/91/88 89/90/88
f 30/30/89 90/91/89 28/28/89
f 93/92/90 92/93/90 91/94/90
f 94/95/91 92/93/91 93/92/91
f 95/96/92 94/95/92 93/92/92
f 96/97/93 94/95/93 95/96/93
f 97/98/94 96/97/94 95/96/94
f 98/99/95 96/97/95 97/98/95
f 99/100/96 98/99/96 97/98/96
f 100/101/97 98/99/97 99/100/97
f 101/102/98 100/101/98 99/100/98
f 102/103/99 100/101/99 101/102/99
f 103/104/100 102/103/100 101/102/100
f 104/105/101 102/103/101 103/104/101
f 105/106/102 104/105/102 103/104/102
f 106/107/103 104/105/103 105/106/103
f 107/108/104 106/107/104 105/106/104
f 108/109/105 106/107/105 107/108/105
f 109/110/106 108/109/106 107/108/106
f 110/111/107 108/109/107 109/110/107
f 111/112/108 110/111/108 109/110/108
f 112/113/109 110/111/109 111/112/109
f 113/114/110 112/113/110 111/112/110
f 114/115/111 112/113/111 113/114/111
f 115/116/112 114/115/112 113/114/112
f 116/117/113 114/115/113 115/116/113
f 117/118/114 116/117/114 115/116/114
f 118/119/115 116/117/115 117/118/115
f 119/120/116 118/119/116 117/118/116
f 120/121/117 118/119/117 119/120/117
f 121/122/118 120/121/118 119/120/118
f 122/123/119 120/121/119 121/122/119
f 123/124/120 122/123/120 121/122/120
f 124/125/121 122/123/121 123/124/121
f 125/126/122 124/125/122 123/124/122
f 126/127/123 124/125/123 125/126/123
f 127/128/124 126/127/124 125/126/124
f 128/129/125 126/127/125 127/128/125
f 129/130/126 128/129/126 127/128/126
f 130/131/127 128/129/127 129/130/127
f 131/132/128 130/131/128 129/130/128
f 132/133/129 130/131/129 131/132/129
f 133/134/130 132/133/130 131/132/130
f 134/135/131 132/133/131 133/134/131
f 135/136/132 134/135/132 133/134/132
f 136/137/133 134/135/133 135/136/133
f 28/28/134 24/24/134 26/26/134
f 137/138/135 24/24/135 28/28/135
f 89/90/136 137/138/136 28/28/136
f 138/139/137 137/138/137 89/90/137
f 139/140/138 138/139/138 89/90/138
f 140/141/139 138/139/139 139/140/139
f 85/86/140 140/141/140 139/140/140
f 141/142/141 140/141/141 85/86/141
f 83/84/142 141/142/142 85/86/142
f 140/141/143 141/142/143 83/84/143
f 142/143/144 140/141/144 83/84/144
f 143/144/145 140/141/145 142/143/145
f 79/80/146 143/144/146 142/143/146
f 144/145/147 143/144/147 79/80/147
f 77/78/148 144/145/148 79/80/148
f 145/146/149 144/145/149 77/78/149
f 146/147/150 145/146/150 77/78/150
f 147/148/151 145/146/151 146/147/151
f 73/74/152 147/148/152 146/147/152
f 148/149/153 147/148/153 73/74/153
f 71/72/154 148/149/154 73/74/154
f 149/150/155 148/149/155 71/72/155
f 150/151/156 149/150/156 71/72/156
f 151/152/157 149/150/157 150/151/157
f 67/68/158 151/152/158 150/151/158
f 152/153/159 151/152/159 67/68/159
f 65/66/160 152/153/160 67/68/160
f 153/154/161 152/153/161 65/66/161
f 154/155/162 153/154/162 65/66/162
f 155/156/163 153/154/163 154/155/163
f 61/62/164 155/156/164 154/155/164
f 157/157/165 156/158/165 91/159/165
f 158/160/166 156/158/166 157/157/166
f 159/161/167 158/160/167 157/157/167
f 160/162/168 158/160/168 159/161/168
f 161/163/169 160/162/169 159/161/169
f 162/164/170 160/162/170 161/163/170
f 163/165/171 162/164/171 161/163/171
f 164/166/172 162/164/172 163/165/172
f 165/167/173 164/166/173 163/165/173
f 166/168/174 164/166/174 165/167/174
f 167/169/175 166/168/175 165/167/175
f 168/170/176 166/168/176 167/169/176
f 169/171/177 168/170/177 167/169/177
f 170/172/178 168/170/178 169/171/178
f 171/173/179 170/172/179 169/171/179
f 172/174/180 170/172/180 171/173/180
f 173/175/181 172/174/181 171/173/181
f 174/176/182 172/174/182 173/175/182
f 175/177/183 174/176/183 173/175/183
f 176/178/184 174/176/184 175/177/184
f 177/179/185 176/178/185 175/177/185
f 178/180/186 176/178/186 177/179/186
f 179/181/187 178/180/187 177/179/187
f 180/182/188 178/180/188 179/181/188
f 181/183/189 180/182/189 179/181/189
f 135/136/190 180/182/190 181/183/190
f 182/184/191 135/136/191 181/183/191
f 136/137/192 135/136/192 182/184/192
f 184/185/193 183/186/193 1/187/193
f 185/188/194 183/186/194 184/185/194
f 186/189/195 185/188/195 184/185/195
f 187/190/196 185/188/196 186/189/196
f 188/191/197 187/190/197 186/189/197
f 189/192/198 187/190/198 188/191/198
f 190/193/199 189/192/199 188/191/199
f 191/194/200 189/192/200 190/193/200
f 192/195/201 191/194/201 190/193/201
f 193/196/202 191/194/202 192/195/202
f 194/197/203 193/196/203 192/195/203
f 195/198/204 193/196/204 194/197/204
f 196/199/205 195/198/205 194/197/205
f 197/200/206 195/198/206 196/199/206
f 198/201/207 197/200/207 196/199/207
f 199/202/208 197/200/208 198/201/208
f 200/203/209 199/202/209 198/201/209
f 201/204/210 199/202/210 200/203/210
f 202/205/211 201/204/211 200/203/211
f 203/206/212 201/204/212 202/205/212
f 204/207/213 203/206/213 202/205/213
f 205/208/214 203/206/214 204/207/214
f 206/209/215 205/208/215 204/207/215
f 207/210/216 205/208/216 206/209/216
f 208/211/217 207/210/217 206/209/217
f 45/45/218 207/210/218 208/211/218
f 47/47/219 45/45/219 208/211/219
f 62/63/220 114/115/220 209/212/220
f 210/213/221 114/115/221 62/63/221
f 64/65/222 210/213/222 62/63/222
f 112/113/223 210/213/223 64/65/223
f 211/214/224 112/113/224 64/65/224
f 108/109/225 112/113/225 211/214/225
f 68/69/226 108/109/226 211/214/226
f 212/215/227 108/109/227 68/69/227
f 70/71/228 212/215/228 68/69/228
f 106/107/229 212/215/229 70/71/229
f 213/216/230 106/107/230 70/71/230
f 102/103/231 106/107/231 213/216/231
f 74/75/232 102/103/232 213/216/232
f 214/217/233 102/103/233 74/75/233
f 76/77/234 214/217/234 74/75/234
f 100/101/235 214/217/235 76/77/235
f 215/218/236 100/101/236 76/77/236
f 96/97/237 100/101/237 215/218/237
f 80/81/238 96/97/238 215/218/238
f 216/219/239 96/97/239 80/81/239
f 82/83/240 216/219/240 80/81/240
f 94/95/241 216/219/241 82/83/241
f 138/139/242 24/24/242 137/138/242
f 217/220/243 24/24/243 138/139/243
f 218/221/244 217/220/244 138/139/244
f 22/22/245 217/220/245 218/221/245
f 219/222/246 22/22/246 218/221/246
f 18/18/247 22/22/247 219/222/247
f 220/223/248 18/18/248 219/222/248
f 221/224/249 18/18/249 220/223/249
f 222/225/250 221/224/250 220/223/250
f 16/16/251 221/224/251 222/225/251
f 223/226/252 16/16/252 222/225/252
f 12/12/253 16/16/253 223/226/253
f 224/227/254 12/12/254 223/226/254
f 225/228/255 12/12/255 224/227/255
f 226/229/256 225/228/256 224/227/256
f 10/10/257 225/228/257 226/229/257
f 227/230/258 10/10/258 226/229/258
f 6/6/259 10/10/259 227/230/259
f 228/231/260 6/6/260 227/230/260
f 229/232/261 6/6/261 228/231/261
f 230/233/262 229/232/262 228/231/262
f 4/4/263 229/232/263 230/233/263
f 135/136/264 178/180/264 180/182/264
f 231/234/265 178/180/265 135/136/265
f 133/134/266 231/234/266 135/136/266
f 232/235/267 231/234/267 133/134/267
f 233/236/268 232/235/268 133/134/268
f 234/237/269 232/235/269 233/236/269
f 129/130/270 234/237/270 233/236/270
f 235/238/271 234/237/271 129/130/271
f 127/128/272 235/238/272 129/130/272
f 234/237/273 235/238/273 127/128/273
f 236/239/274 234/237/274 127/128/274
f 237/240/275 234/237/275 236/239/275
f 123/124/276 237/240/276 236/239/276
f 238/241/277 237/240/277 123/124/277
f 121/122/278 238/241/278 123/124/278
f 239/242/279 238/241/279 121/122/279
f 240/243/280 239/242/280 121/122/280
f 241/244/281 239/242/281 240/243/281
f 117/118/282 241/244/282 240/243/282
f 183/186/283 3/1/283 1/245/283
f 7/7/284 3/1/284 183/186/284
f 185/188/285 7/7/285 183/186/285
f 242/246/286 7/7/286 185/188/286
f 243/247/287 242/246/287 185/188/287
f 9/9/288 242/246/288 243/247/288
f 244/248/289 9/9/289 243/247/289
f 13/13/290 9/9/290 244/248/290
f 245/249/291 13/13/291 244/248/291
f 246/250/292 13/13/292 245/249/292
f 15/15/293 246/250/293 245/249/293
f 13/13/294 246/250/294 15/15/294
f 247/251/295 157/157/295 91/252/295
f 161/163/296 157/157/296 247/251/296
f 248/253/297 161/163/297 247/251/297
f 249/254/298 161/163/298 248/253/298
f 250/255/299 249/254/299 248/253/299
f 163/165/300 249/254/300 250/255/300
f 251/256/301 163/165/301 250/255/301
f 167/169/302 163/165/302 251/256/302
f 252/257/303 167/169/303 251/256/303
f 253/258/304 167/169/304 252/257/304
f 169/171/305 253/258/305 252/257/305
f 167/169/306 253/258/306 169/171/306
f 2/2/307 49/48/307 1/259/307
f 53/54/308 49/48/308 2/2/308
f 4/4/309 53/54/309 2/2/309
f 254/260/310 53/54/310 4/4/310
f 230/233/311 254/260/311 4/4/311
f 55/56/312 254/260/312 230/233/312
f 255/261/313 55/56/313 230/233/313
f 59/60/314 55/56/314 255/261/314
f 155/156/315 59/60/315 255/261/315
f 256/262/316 59/60/316 155/156/316
f 61/62/317 256/262/317 155/156/317
f 59/60/318 256/262/318 61/62/318
f 257/263/319 184/185/319 1/264/319
f 188/191/320 184/185/320 257/263/320
f 258/265/321 188/191/321 257/263/321
f 259/266/322 188/191/322 258/265/322
f 260/267/323 259/266/323 258/265/323
f 190/193/324 259/266/324 260/267/324
f 261/268/325 190/193/325 260/267/325
f 194/197/326 190/193/326 261/268/326
f 262/269/327 194/197/327 261/268/327
f 263/270/328 194/197/328 262/269/328
f 196/199/329 263/270/329 262/269/329
f 194/197/330 263/270/330 196/199/330
f 156/158/331 93/92/331 91/271/331
f 97/98/332 93/92/332 156/158/332
f 158/160/333 97/98/333 156/158/333
f 264/272/334 97/98/334 158/160/334
f 265/273/335 264/272/335 158/160/335
f 99/100/336 264/272/336 265/273/336
f 266/274/337 99/100/337 265/273/337
f 103/104/338 99/100/338 266/274/338
f 267/275/339 103/104/339 266/274/339
f 268/276/340 103/104/340 267/275/340
f 105/106/341 268/276/341 267/275/341
f 103/104/342 268/276/342 105/106/342
f 149/150/343 224/227/343 269/277/343
f 270/278/344 224/227/344 149/150/344
f 151/152/345 270/278/345 149/150/345
f 226/229/346 270/278/346 151/152/346
f 271/279/347 226/229/347 151/152/347
f 228/231/348 226/229/348 271/279/348
f 153/154/349 228/231/349 271/279/349
f 272/280/350 228/231/350 153/154/350
f 155/156/351 272/280/351 153/154/351
f 230/233/352 272/280/352 155/156/352
f 255/261/353 230/233/353 155/156/353
f 179/181/354 273/281/354 181/183/354
f 208/282/355 273/281/355 179/181/355
f 274/283/356 208/282/356 179/181/356
f 275/284/357 208/282/357 274/283/357
f 175/177/358 275/284/358 274/283/358
f 276/285/359 275/284/359 175/177/359
f 173/175/360 276/285/360 175/177/360
f 277/286/361 276/285/361 173/175/361
f 278/287/362 277/286/362 173/175/362
f 252/257/363 277/286/363 278/287/363
f 169/171/364 252/257/364 278/287/364
f 191/194/365 187/190/365 189/192/365
f 279/288/366 187/190/366 191/194/366
f 280/289/367 279/288/367 191/194/367
f 281/290/368 279/288/368 280/289/368
f 282/291/369 281/290/369 280/289/369
f 283/292/370 281/290/370 282/291/370
f 284/293/371 283/292/371 282/291/371
f 285/294/372 283/292/372 284/293/372
f 21/21/373 285/294/373 284/293/373
f 19/19/374 285/294/374 21/21/374
f 33/33/375 37/37/375 35/35/375
f 286/295/376 37/37/376 33/33/376
f 287/296/377 286/295/377 33/33/377
f 288/297/378 286/295/378 287/296/378
f 289/298/379 288/297/379 287/296/379
f 290/299/380 288/297/380 289/298/380
f 291/300/381 290/299/381 289/298/381
f 292/301/382 290/299/382 291/300/382
f 203/206/383 292/301/383 291/300/383
f 205/208/384 292/301/384 203/206/384
f 170/172/385 166/168/385 168/170/385
f 293/302/386 166/168/386 170/172/386
f 294/303/387 293/302/387 170/172/387
f 295/304/388 293/302/388 294/303/388
f 296/305/389 295/304/389 294/303/389
f 297/306/390 295/304/390 296/305/390
f 241/244/391 297/306/391 296/305/391
f 298/307/392 297/306/392 241/244/392
f 117/118/393 298/307/393 241/244/393
f 115/116/394 298/307/394 117/118/394
f 111/112/395 115/116/395 113/114/395
f 299/308/396 115/116/396 111/112/396
f 300/309/397 299/308/397 111/112/397
f 297/306/398 299/308/398 300/309/398
f 301/310/399 297/306/399 300/309/399
f 295/304/400 297/306/400 301/310/400
f 302/311/401 295/304/401 301/310/401
f 303/312/402 295/304/402 302/311/402
f 164/166/403 303/312/403 302/311/403
f 166/168/404 303/312/404 164/166/404
f 197/200/405 193/196/405 195/198/405
f 304/313/406 193/196/406 197/200/406
f 305/314/407 304/313/407 197/200/407
f 306/315/408 304/313/408 305/314/408
f 307/316/409 306/315/409 305/314/409
f 308/317/410 306/315/410 307/316/410
f 309/318/411 308/317/411 307/316/411
f 310/319/412 308/317/412 309/318/412
f 27/27/413 310/319/413 309/318/413
f 25/25/414 310/319/414 27/27/414
f 21/21/415 25/25/415 23/23/415
f 311/320/416 25/25/416 21/21/416
f 284/293/417 311/320/417 21/21/417
f 308/317/418 311/320/418 284/293/418
f 312/321/419 308/317/419 284/293/419
f 306/315/420 308/317/420 312/321/420
f 280/289/421 306/315/421 312/321/421
f 313/322/422 306/315/422 280/289/422
f 191/194/423 313/322/423 280/289/423
f 193/196/424 313/322/424 191/194/424
f 232/235/425 178/180/425 231/234/425
f 314/323/426 178/180/426 232/235/426
f 315/324/427 314/323/427 232/235/427
f 176/178/428 314/323/428 315/324/428
f 316/325/429 176/178/429 315/324/429
f 172/174/430 176/178/430 316/325/430
f 317/326/431 172/174/431 316/325/431
f 318/327/432 172/174/432 317/326/432
f 294/303/433 318/327/433 317/326/433
f 170/172/434 318/327/434 294/303/434
f 320/328/435 319/329/435 91/330/435
f 321/331/436 319/329/436 320/328/436
f 322/332/437 321/331/437 320/328/437
f 323/333/438 321/331/438 322/332/438
f 324/334/439 323/333/439 322/332/439
f 325/335/440 323/333/440 324/334/440
f 86/87/441 325/335/441 324/334/441
f 88/89/442 325/335/442 86/87/442
f 287/296/443 291/300/443 289/298/443
f 326/336/444 291/300/444 287/296/444
f 327/337/445 326/336/445 287/296/445
f 328/338/446 326/336/446 327/337/446
f 329/339/447 328/338/447 327/337/447
f 305/314/448 328/338/448 329/339/448
f 309/318/449 305/314/449 329/339/449
f 307/316/450 305/314/450 309/318/450
f 300/309/451 302/311/451 301/310/451
f 330/340/452 302/311/452 300/309/452
f 331/341/453 330/340/453 300/309/453
f 332/342/454 330/340/454 331/341/454
f 333/343/455 332/342/455 331/341/455
f 265/273/456 332/342/456 333/343/456
f 267/275/457 265/273/457 333/343/457
f 266/274/458 265/273/458 267/275/458
f 334/344/459 136/345/459 182/346/459
f 335/347/460 136/345/460 334/344/460
f 336/348/461 335/347/461 334/344/461
f 337/349/462 335/347/462 336/348/462
f 338/350/463 337/349/463 336/348/463
f 260/267/464 337/349/464 338/350/464
f 262/269/465 260/267/465 338/350/465
f 261/268/466 260/267/466 262/269/466
f 92/93/467 320/328/467 91/351/467
f 324/334/468 320/328/468 92/93/468
f 94/95/469 324/334/469 92/93/469
f 339/352/470 324/334/470 94/95/470
f 82/83/471 339/352/471 94/95/471
f 86/87/472 339/352/472 82/83/472
f 84/85/473 86/87/473 82/83/473
f 48/49/474 340/353/474 1/354/474
f 341/355/475 340/353/475 48/49/475
f 50/51/476 341/355/476 48/49/476
f 342/356/477 341/355/477 50/51/477
f 126/127/478 342/356/478 50/51/478
f 130/131/479 342/356/479 126/127/479
f 128/129/480 130/131/480 126/127/480
f 319/329/481 343/357/481 91/358/481
f 344/359/482 343/357/482 319/329/482
f 321/331/483 344/359/483 319/329/483
f 345/360/484 344/359/484 321/331/484
f 36/36/485 345/360/485 321/331/485
f 40/40/486 345/360/486 36/36/486
f 38/38/487 40/40/487 36/36/487
f 245/249/488 283/292/488 346/361/488
f 347/362/489 283/292/489 245/249/489
f 243/247/490 347/362/490 245/249/490
f 281/290/491 347/362/491 243/247/491
f 348/363/492 281/290/492 243/247/492
f 187/190/493 281/290/493 348/363/493
f 185/188/494 187/190/494 348/363/494
f 45/45/495 205/208/495 207/210/495
f 349/364/496 205/208/496 45/45/496
f 43/43/497 349/364/497 45/45/497
f 290/299/498 349/364/498 43/43/498
f 350/365/499 290/299/499 43/43/499
f 288/297/500 290/299/500 350/365/500
f 39/39/501 288/297/501 350/365/501
f 56/57/502 52/53/502 54/55/502
f 351/366/503 52/53/503 56/57/503
f 120/121/504 351/366/504 56/57/504
f 124/125/505 351/366/505 120/121/505
f 122/123/506 124/125/506 120/121/506
f 222/225/507 224/227/507 223/226/507
f 269/277/508 224/227/508 222/225/508
f 147/148/509 269/277/509 222/225/509
f 149/150/510 269/277/510 147/148/510
f 148/149/511 149/150/511 147/148/511
f 40/40/512 344/359/512 345/360/512
f 352/367/513 344/359/513 40/40/513
f 42/42/514 352/367/514 40/40/514
f 353/368/515 352/367/515 42/42/515
f 354/369/516 353/368/516 42/42/516
f 118/119/517 114/115/517 116/117/517
f 209/212/518 114/115/518 118/119/518
f 58/59/519 209/212/519 118/119/519
f 62/63/520 209/212/520 58/59/520
f 60/61/521 62/63/521 58/59/521
f 277/286/522 275/284/522 276/285/522
f 355/370/523 275/284/523 277/286/523
f 356/371/524 355/370/524 277/286/524
f 46/372/525 355/370/525 356/371/525
f 354/373/526 46/372/526 356/371/526
f 336/348/527 262/269/527 338/350/527
f 357/374/528 262/269/528 336/348/528
f 200/203/529 357/374/529 336/348/529
f 196/199/530 357/374/530 200/203/530
f 198/201/531 196/199/531 200/203/531
f 130/131/532 341/355/532 342/356/532
f 358/375/533 341/355/533 130/131/533
f 132/133/534 358/375/534 130/131/534
f 359/376/535 358/375/535 132/133/535
f 360/377/536 359/376/536 132/133/536
f 34/34/537 30/30/537 32/32/537
f 361/378/538 30/30/538 34/34/538
f 323/333/539 361/378/539 34/34/539
f 88/89/540 361/378/540 323/333/540
f 325/335/541 88/89/541 323/333/541
f 332/342/542 302/311/542 330/340/542
f 362/379/543 302/311/543 332/342/543
f 160/162/544 362/379/544 332/342/544
f 164/166/545 362/379/545 160/162/545
f 162/164/546 164/166/546 160/162/546
f 331/341/547 267/275/547 333/343/547
f 363/380/548 267/275/548 331/341/548
f 109/110/549 363/380/549 331/341/549
f 105/106/550 363/380/550 109/110/550
f 107/108/551 105/106/551 109/110/551
f 202/205/552 206/209/552 204/207/552
f 364/381/553 206/209/553 202/205/553
f 334/344/554 364/381/554 202/205/554
f 181/382/555 364/381/555 334/344/555
f 182/346/556 181/382/556 334/344/556
f 327/337/557 309/318/557 329/339/557
f 365/383/558 309/318/558 327/337/558
f 31/31/559 365/383/559 327/337/559
f 27/27/560 365/383/560 31/31/560
f 29/29/561 27/27/561 31/31/561
f 328/338/562 291/300/562 326/336/562
f 366/384/563 291/300/563 328/338/563
f 199/202/564 366/384/564 328/338/564
f 203/206/565 366/384/565 199/202/565
f 201/204/566 203/206/566 199/202/566
f 145/146/567 143/144/567 144/145/567
f 367/385/568 143/144/568 145/146/568
f 220/223/569 367/385/569 145/146/569
f 218/221/570 367/385/570 220/223/570
f 219/222/571 218/221/571 220/223/571
f 239/242/572 237/240/572 238/241/572
f 368/386/573 237/240/573 239/242/573
f 317/326/574 368/386/574 239/242/574
f 315/324/575 368/386/575 317/326/575
f 316/325/576 315/324/576 317/326/576
f 343/387/577 247/251/577 91/388/577
f 248/253/578 247/251/578 343/387/578
f 369/389/579 248/253/579 343/387/579
f 353/390/580 248/253/580 369/389/580
f 340/391/581 257/263/581 1/392/581
f 258/265/582 257/263/582 340/391/582
f 370/393/583 258/265/583 340/391/583
f 359/394/584 258/265/584 370/393/584
f 356/371/585 353/390/585 354/373/585
f 371/395/586 353/390/586 356/371/586
f 250/255/587 371/395/587 356/371/587
f 248/253/588 371/395/588 250/255/588
f 288/297/589 37/37/589 286/295/589
f 372/396/590 37/37/590 288/297/590
f 39/39/591 372/396/591 288/297/591
f 37/37/592 372/396/592 39/39/592
f 218/221/593 143/144/593 367/385/593
f 373/397/594 143/144/594 218/221/594
f 138/139/595 373/397/595 218/221/595
f 140/141/596 373/397/596 138/139/596
f 19/19/597 283/292/597 285/294/597
f 346/361/598 283/292/598 19/19/598
f 15/15/599 346/361/599 19/19/599
f 245/249/600 346/361/600 15/15/600
f 315/324/601 237/240/601 368/386/601
f 374/398/602 237/240/602 315/324/602
f 232/235/603 374/398/603 315/324/603
f 234/237/604 374/398/604 232/235/604
f 124/125/605 52/53/605 351/366/605
f 375/399/606 52/53/606 124/125/606
f 126/127/607 375/399/607 124/125/607
f 50/51/608 375/399/608 126/127/608
f 294/303/609 241/244/609 296/305/609
f 376/400/610 241/244/610 294/303/610
f 317/326/611 376/400/611 294/303/611
f 239/242/612 376/400/612 317/326/612
f 250/255/613 252/257/613 251/256/613
f 377/401/614 252/257/614 250/255/614
f 356/371/615 377/401/615 250/255/615
f 277/286/616 377/401/616 356/371/616
f 378/402/617 265/273/617 158/160/617
f 332/342/618 265/273/618 378/402/618
f 160/162/619 332/342/619 378/402/619
f 337/349/620 136/345/620 335/347/620
f 360/403/621 136/345/621 337/349/621
f 359/394/622 360/403/622 337/349/622
f 379/404/623 300/309/623 111/112/623
f 331/341/624 300/309/624 379/404/624
f 109/110/625 331/341/625 379/404/625
f 380/405/626 31/31/626 327/337/626
f 33/33/627 31/31/627 380/405/627
f 287/296/628 33/33/628 380/405/628
f 381/406/629 305/314/629 197/200/629
f 328/338/630 305/314/630 381/406/630
f 199/202/631 328/338/631 381/406/631
f 382/407/632 334/344/632 202/205/632
f 336/348/633 334/344/633 382/407/633
f 200/203/634 336/348/634 382/407/634
f 383/408/635 145/146/635 147/148/635
f 220/223/636 145/146/636 383/408/636
f 222/225/637 220/223/637 383/408/637
f 384/409/638 58/59/638 118/119/638
f 56/57/639 58/59/639 384/409/639
f 120/121/640 56/57/640 384/409/640
f 385/410/641 260/267/641 258/265/641
f 337/349/642 260/267/642 385/410/642
f 359/394/643 337/349/643 385/410/643
f 386/411/644 36/36/644 321/331/644
f 34/34/645 36/36/645 386/411/645
f 323/333/646 34/34/646 386/411/646
f 306/315/647 193/196/647 304/313/647
f 313/322/648 193/196/648 306/315/648
f 132/133/649 136/137/649 360/377/649
f 134/135/650 136/137/650 132/133/650
f 42/42/651 46/46/651 354/369/651
f 44/44/652 46/46/652 42/42/652
f 123/124/653 127/128/653 125/126/653
f 236/239/654 127/128/654 123/124/654
f 46/372/655 275/284/655 355/370/655
f 47/412/656 275/284/656 46/372/656
f 79/80/657 83/84/657 81/82/657
f 142/143/658 83/84/658 79/80/658
f 290/299/659 205/208/659 349/364/659
f 292/301/660 205/208/660 290/299/660
f 76/77/661 80/81/661 215/218/661
f 78/79/662 80/81/662 76/77/662
f 359/376/663 341/355/663 358/375/663
f 370/413/664 341/355/664 359/376/664
f 64/65/665 68/69/665 211/214/665
f 66/67/666 68/69/666 64/65/666
f 70/71/667 74/75/667 213/216/667
f 72/73/668 74/75/668 70/71/668
f 85/86/669 89/90/669 87/88/669
f 139/140/670 89/90/670 85/86/670
f 129/130/671 133/134/671 131/132/671
f 233/236/672 133/134/672 129/130/672
f 39/39/673 43/43/673 41/41/673
f 350/365/674 43/43/674 39/39/674
f 353/368/675 344/359/675 352/367/675
f 369/414/676 344/359/676 353/368/676
f 73/74/677 77/78/677 75/76/677
f 146/147/678 77/78/678 73/74/678
f 181/382/679 206/209/679 364/381/679
f 273/415/680 206/209/680 181/382/680
f 169/171/681 173/175/681 171/173/681
f 278/287/682 173/175/682 169/171/682
f 61/62/683 65/66/683 63/64/683
f 154/155/684 65/66/684 61/62/684
f 175/177/685 179/181/685 177/179/685
f 274/283/686 179/181/686 175/177/686
f 67/68/687 71/72/687 69/70/687
f 150/151/688 71/72/688 67/68/688
f 153/154/689 151/152/689 152/153/689
f 271/279/690 151/152/690 153/154/690
f 295/304/691 166/168/691 293/302/691
f 303/312/692 166/168/692 295/304/692
f 88/89/693 30/30/693 361/378/693
f 90/91/694 30/30/694 88/89/694
f 115/116/695 297/306/695 298/307/695
f 299/308/696 297/306/696 115/116/696
f 284/293/697 280/289/697 312/321/697
f 282/291/698 280/289/698 284/293/698
f 25/25/699 308/317/699 310/319/699
f 311/320/700 308/317/700 25/25/700
f 117/118/701 121/122/701 119/120/701
f 240/243/702 121/122/702 117/118/702
f 243/247/703 185/188/703 348/363/703
f 187/190/704 279/288/704 281/290/704
f 188/191/705 259/266/705 190/193/705
f 194/197/706 192/195/706 190/193/706
f 176/178/707 178/180/707 314/323/707
f 100/101/708 102/103/708 214/217/708
f 196/199/709 262/269/709 357/374/709
f 206/209/710 273/415/710 208/211/710
f 10/10/711 12/12/711 225/228/711
f 161/163/712 249/254/712 163/165/712
f 167/169/713 165/167/713 163/165/713
f 22/22/714 18/18/714 20/20/714
f 324/334/715 339/352/715 86/87/715
f 176/178/716 172/174/716 174/176/716
f 106/107/717 102/103/717 104/105/717
f 16/16/718 12/12/718 14/14/718
f 241/244/719 376/400/719 239/242/719
f 170/172/720 172/174/720 318/327/720
f 97/98/721 264/272/721 99/100/721
f 53/54/722 51/52/722 49/48/722
f 7/7/723 5/5/723 3/1/723
f 243/247/724 245/249/724 244/248/724
f 188/191/725 186/189/725 184/185/725
f 100/101/726 96/97/726 98/99/726
f 103/104/727 101/102/727 99/100/727
f 161/163/728 159/161/728 157/157/728
f 105/106/729 267/275/729 363/380/729
f 252/257/730 377/401/730 277/286/730
f 344/359/731 369/414/731 343/357/731
f 324/334/732 322/332/732 320/328/732
f 106/107/733 108/109/733 212/215/733
f 112/113/734 114/115/734 210/213/734
f 143/144/735 373/397/735 140/141/735
f 16/16/736 18/18/736 221/224/736
f 228/231/737 227/230/737 226/229/737
f 237/240/738 374/398/738 234/237/738
f 283/292/739 347/362/739 281/290/739
f 19/19/740 17/17/740 15/15/740
f 341/355/741 370/413/741 340/353/741
f 275/284/742 47/412/742 208/282/742
f 22/22/743 24/24/743 217/220/743
f 97/98/744 95/96/744 93/92/744
f 302/311/745 362/379/745 164/166/745
f 4/4/746 6/6/746 229/232/746
f 248/253/747 353/390/747 371/395/747
f 94/95/748 96/97/748 216/219/748
f 224/227/749 270/278/749 226/229/749
f 50/51/750 52/53/750 375/399/750
f 112/113/751 108/109/751 110/111/751
f 109/110/752 379/404/752 111/112/752
f 53/54/753 254/260/753 55/56/753
f 287/296/754 380/405/754 327/337/754
f 59/60/755 57/58/755 55/56/755
f 197/200/756 199/202/756 381/406/756
f 7/7/757 242/246/757 9/9/757
f 200/203/758 382/407/758 202/205/758
f 27/27/759 309/318/759 365/383/759
f 222/225/760 383/408/760 147/148/760
f 10/10/761 6/6/761 8/8/761
f 118/119/762 120/121/762 384/409/762
f 291/300/763 366/384/763 203/206/763
f 258/265/764 359/394/764 385/410/764
f 13/13/765 11/11/765 9/9/765
f 321/331/766 323/333/766 386/411/766
f 228/231/767 272/280/767 230/233/767
f 158/160/768 160/162/768 378/402/768
