# Blender 5.2.0 LTS
# www.blender.org
mtllib kolog1-obj.mtl
o Cylinder
v 0.038550 3.702387 0.311880
v 0.055985 3.787179 0.714656
v 0.127425 3.638179 0.320436
v 0.130939 3.734122 0.727671
v 0.115830 3.532065 0.334578
v 0.121160 3.646437 0.749181
v 0.015361 3.490157 0.340163
v 0.036427 3.611808 0.757676
v -0.073514 3.554364 0.331606
v -0.038526 3.664864 0.744661
v -0.061919 3.660479 0.317465
v -0.028748 3.752549 0.723151
v -0.812147 2.474388 0.209392
v -0.748559 3.576145 0.204176
v -0.812147 2.472210 -0.224139
v -0.748559 3.577805 -0.216996
v 0.735003 2.491589 0.211435
v 0.664000 3.554623 0.204176
v 0.735002 2.489412 -0.226182
v 0.664000 3.556283 -0.216996
v -0.846179 4.583196 0.182873
v -0.846179 4.582635 -0.198832
v 0.852661 4.510960 0.172985
v 0.852661 4.510399 -0.188945
v 0.001518 4.718771 -0.337045
v 0.003491 4.720903 0.327447
v 1.152326 4.984099 0.112125
v 1.152326 4.983871 -0.114645
v 0.796137 5.016386 -0.146292
v 0.796137 5.017302 0.144347
v 1.377452 5.270031 0.033015
v 1.377452 5.270031 -0.033014
v 1.308648 5.307581 -0.028406
v 1.308648 5.307581 0.028407
v 1.024735 5.151423 0.075340
v 1.024735 5.151423 -0.075339
v 0.886733 5.212607 -0.057517
v 0.886733 5.212607 0.057519
v 0.932601 5.230174 0.036131
v 0.932601 5.230175 -0.036130
v -0.948381 4.908201 0.153028
v -0.948381 4.907884 -0.156528
v -0.471381 4.943290 -0.213470
v -0.468065 4.938617 0.211422
v -1.081340 5.154970 0.090913
v -1.081340 5.154970 -0.090912
v -0.894979 5.189532 -0.093956
v -0.894979 5.189532 0.093958
v -1.139575 5.328529 0.040546
v -1.139575 5.328529 -0.040544
v -1.072608 5.350038 -0.040544
v -1.072608 5.350038 0.040546
v -0.223404 5.006120 -0.119597
v -0.208207 4.982414 0.121178
v -0.315359 5.011144 -0.103942
v -0.300162 4.986006 0.101974
v -0.034362 2.467624 -0.473359
v -0.042279 3.551658 -0.427138
v -0.034362 2.480287 0.493590
v -0.042279 3.545017 0.442468
v -0.789244 1.417154 -0.230586
v -0.789244 1.419314 0.213670
v 0.040437 1.530140 -0.489852
v 0.733088 1.464191 0.213671
v 0.733088 1.462031 -0.230585
v 0.040437 1.539348 0.489810
v -0.748352 0.688393 -0.220473
v -0.748352 0.686824 0.222398
v 0.127205 0.679014 -0.321083
v 0.716645 0.735541 0.194276
v 0.716645 0.737510 -0.200613
v 0.127205 0.669106 0.374544
v -0.800241 0.365377 -0.143115
v -0.800241 0.365377 0.151832
v -0.546742 0.352509 -0.096798
v -0.546742 0.352509 0.199107
v -0.382905 0.525686 0.259869
v -0.382905 0.527786 -0.160170
v -0.727347 0.185093 -0.062076
v -0.727347 0.185092 0.093779
v -0.608315 0.183780 -0.038862
v -0.608315 0.183780 0.118186
v 0.425498 0.381221 -0.115733
v 0.668539 0.380451 0.137785
v 0.668538 0.381081 -0.120986
v 0.425498 0.379331 0.198143
v 0.506650 0.140473 -0.016206
v 0.600075 0.140473 0.065911
v 0.600075 0.140473 -0.023448
v 0.506650 0.140473 0.084769
v -0.931336 1.700828 -0.176266
v -0.931336 1.701962 0.156071
v 0.851528 1.809689 -0.179103
v 0.851528 1.810824 0.158908
v 1.152389 1.981446 0.086625
v 1.152389 1.981446 -0.108829
v 1.111932 1.676405 -0.108829
v 1.111932 1.676405 0.086625
v 1.395592 1.760520 0.043116
v 1.395592 1.760520 -0.065320
v 1.357028 1.592194 -0.065320
v 1.357028 1.592194 0.043116
v 1.474121 1.680883 0.012784
v 1.474121 1.680883 -0.034989
v 1.457132 1.606725 -0.034989
v 1.457132 1.606725 0.012784
v -1.147283 1.968685 0.074945
v -1.147283 1.968685 -0.097150
v -1.145491 1.632764 -0.097150
v -1.145491 1.632764 0.074945
v -1.403781 1.802388 0.038473
v -1.403781 1.802387 -0.060678
v -1.393824 1.608655 -0.060678
v -1.393824 1.608655 0.038473
v -1.546024 1.740061 0.010853
v -1.546024 1.740061 -0.033057
v -1.541615 1.654265 -0.033057
v -1.541615 1.654265 0.010853
v 0.083993 4.865381 -0.004077
v 0.656164 5.008472 -0.001251
v 0.854638 5.200316 0.000001
v -0.401473 4.957003 -0.001101
v -0.337373 4.995805 -0.002245
v -0.183745 4.998841 0.001531
v 0.081098 3.663851 0.317015
v 0.096150 3.767381 0.719513
v 0.047858 3.752120 0.518040
v 0.135391 3.688323 0.525142
v 0.120185 3.577704 0.328496
v 0.129114 3.696196 0.736975
v 0.123971 3.582886 0.548276
v 0.063504 3.502837 0.338473
v 0.081312 3.634331 0.752151
v 0.025018 3.541246 0.564307
v -0.032263 3.514116 0.336970
v 0.000544 3.643651 0.749865
v -0.062515 3.605043 0.557205
v -0.071350 3.600262 0.325490
v -0.032421 3.714836 0.732402
v -0.051095 3.710480 0.534071
v -0.014670 3.675130 0.315512
v 0.015382 3.776701 0.717227
v -0.890052 2.589064 -0.010265
v -0.739288 3.035056 0.212202
v -0.854501 3.583059 -0.009929
v -0.739288 3.034643 -0.223391
v -0.466224 2.472676 -0.399225
v 0.363832 3.551240 -0.368712
v 0.646358 3.033738 -0.223561
v 0.815352 2.595745 -0.010265
v 0.769942 3.558308 -0.009929
v 0.646358 3.034152 0.212373
v 0.389322 2.494404 0.406976
v -0.448390 3.558842 0.373485
v -0.961368 4.582936 -0.008934
v 0.534310 4.558925 -0.306319
v 0.962182 4.496952 -0.008934
v -0.516486 4.596600 0.309855
v -0.792297 4.136349 0.193716
v -0.792297 4.137372 -0.209590
v 0.737349 4.076205 0.192480
v 0.737349 4.077227 -0.208354
v -0.516732 4.594985 -0.321242
v 0.534441 4.560733 0.294896
v 0.080811 4.853218 0.156988
v 0.942891 4.964125 -0.168736
v 1.213724 4.966038 -0.001718
v 0.942891 4.964989 0.165821
v 0.680323 5.010892 0.086261
v 0.998175 4.785196 -0.153205
v 0.998175 4.786014 0.143002
v 0.499082 4.877627 0.225617
v 0.498893 4.874226 -0.233212
v 1.360824 5.306839 -0.034080
v 1.399481 5.286857 0.000001
v 1.360824 5.306839 0.034081
v 1.322167 5.326822 0.000001
v 1.196579 5.238086 0.048159
v 0.933954 5.088548 -0.116771
v 1.307492 5.161569 -0.059891
v 1.307492 5.161582 0.059626
v 0.933954 5.088644 0.116566
v 1.196579 5.238086 -0.048157
v 1.029445 5.185636 0.000001
v 1.114593 5.089251 -0.110449
v 1.114593 5.089283 0.110196
v 0.870583 5.206423 0.029531
v 0.911769 5.222196 -0.048345
v 0.911769 5.222196 0.048346
v 0.933999 5.230710 0.000001
v 0.941314 5.177412 -0.054171
v 0.941314 5.177412 0.054172
v 0.854285 5.119557 0.088342
v 0.854284 5.119461 -0.088534
v -1.030007 4.903431 -0.001825
v -0.725909 4.921349 0.231772
v -0.726282 4.921106 -0.234775
v -0.433855 4.962138 0.083967
v -0.327272 4.859546 0.284191
v -0.895012 4.804413 0.171287
v -0.332151 4.864050 -0.290464
v -0.895012 4.803588 -0.181597
v -1.115146 5.147830 0.000001
v -0.990433 5.173570 0.127098
v -0.990432 5.173570 -0.127097
v -0.853596 5.192276 0.000001
v -1.015755 5.025155 0.123737
v -1.015754 5.025116 -0.124174
v -0.700428 5.053374 -0.140400
v -0.700113 5.052938 0.140150
v -1.150714 5.337639 0.000001
v -1.111941 5.350093 0.046950
v -1.111941 5.350093 -0.046948
v -1.073169 5.362546 0.000001
v -1.017273 5.297101 -0.063045
v -1.017273 5.297101 0.063047
v -1.125302 5.265566 0.062666
v -1.125302 5.265566 -0.062665
v -0.203519 5.004618 0.059666
v -0.320337 4.999076 0.045506
v -0.258989 4.994388 0.105419
v -0.275312 5.020856 -0.104940
v -0.160644 4.926177 -0.206505
v -0.148321 4.909308 0.203767
v -0.323352 4.950852 0.161209
v -0.335801 4.970947 -0.163859
v 0.389322 2.485675 -0.399483
v -0.448390 3.563615 -0.368712
v -0.466224 2.481405 0.406717
v 0.363832 3.546467 0.373485
v -0.003620 1.971266 -0.483455
v -0.045847 2.998195 0.477210
v -0.045847 2.996043 -0.453899
v -0.027436 4.125849 0.399340
v -0.027568 4.129743 -0.397856
v -0.912939 1.382548 -0.010441
v -0.435945 1.496712 -0.409870
v 0.823290 1.435242 -0.010441
v 0.464286 1.527001 0.403124
v 0.464286 1.520649 -0.409870
v -0.435945 1.503064 0.403123
v 0.726870 1.086540 -0.222664
v -0.841701 1.995757 -0.262687
v -0.841701 1.998656 0.246265
v -0.003620 1.985632 0.489920
v 0.756697 1.724932 -0.218079
v 0.756697 1.727752 0.200883
v -0.884886 0.716198 -0.008523
v -0.361164 0.747118 -0.342782
v 0.792191 0.736305 -0.008080
v 0.496688 0.727759 0.347697
v 0.496688 0.733763 -0.327261
v -0.361164 0.740733 0.370090
v 0.135459 0.581716 0.038588
v 0.083088 1.092307 -0.450440
v 0.726870 1.086388 0.209087
v -0.763734 1.064384 -0.225076
v -0.763734 1.064284 0.212110
v 0.083088 1.091373 0.463826
v -0.847772 0.367791 -0.004415
v -0.673492 0.358943 -0.175349
v -0.673492 0.358943 0.230862
v -0.499211 0.350096 0.059929
v -0.813151 0.492712 -0.168281
v -0.813151 0.492522 0.172341
v -0.174266 0.579597 0.298729
v -0.497035 0.450640 -0.123943
v -0.497035 0.450377 0.229688
v -0.174266 0.585869 -0.216345
v -0.316913 0.520070 0.057993
v -0.555560 0.556577 0.307012
v -0.555560 0.559030 -0.251956
v -0.735359 0.172039 0.014015
v -0.666753 0.171373 -0.063744
v -0.666753 0.171372 0.119257
v -0.598147 0.170707 0.041499
v -0.764178 0.252927 0.124465
v -0.580298 0.249176 0.161254
v -0.764178 0.252927 -0.105151
v -0.580298 0.249177 -0.069542
v 0.714109 0.380857 0.002248
v 0.547018 0.379654 0.221650
v 0.547018 0.381387 -0.172045
v 0.379928 0.380184 0.047356
v 0.353066 0.508703 0.264118
v 0.697655 0.521600 0.170948
v 0.353066 0.514516 -0.192634
v 0.697655 0.523343 -0.167140
v 0.605695 0.121247 0.020700
v 0.553362 0.121247 0.079220
v 0.553363 0.121247 -0.023706
v 0.501030 0.121248 0.034814
v 0.631341 0.236407 0.096721
v 0.631341 0.236486 -0.065096
v 0.473798 0.236503 -0.054843
v 0.473798 0.236267 0.132768
v -0.834129 1.640331 -0.217725
v -0.834129 1.643150 0.200529
v -0.970756 1.601007 -0.010851
v 0.774179 2.059836 -0.266492
v 0.774179 2.062736 0.250070
v 0.884262 1.726705 -0.010851
v 1.159975 2.038641 -0.011102
v 1.132161 1.828925 -0.145477
v 1.132161 1.828925 0.123273
v 1.104347 1.619209 -0.011102
v 0.972837 2.185990 0.123347
v 0.972837 2.185729 -0.144836
v 0.976873 1.764914 -0.140185
v 0.976873 1.765056 0.118232
v 1.402823 1.792081 -0.011102
v 1.376310 1.676357 -0.085652
v 1.376310 1.676357 0.063447
v 1.349797 1.560633 -0.011102
v 1.245868 1.616621 -0.084643
v 1.245868 1.616621 0.062438
v 1.294544 1.845140 -0.084643
v 1.294544 1.845140 0.062438
v 1.479674 1.685524 -0.011102
v 1.469892 1.642827 -0.038608
v 1.469891 1.642827 0.016403
v 1.460109 1.600130 -0.011102
v 1.426537 1.593182 0.026289
v 1.453132 1.709266 0.026289
v 1.453132 1.709266 -0.048493
v 1.426537 1.593182 -0.048493
v -1.147619 2.031670 -0.011102
v -1.146387 1.800725 -0.129417
v -1.146387 1.800724 0.107213
v -1.145155 1.569779 -0.011102
v -1.035549 1.677657 -0.131987
v -1.006484 2.161363 -0.136734
v -1.006484 2.161624 0.115245
v -1.035549 1.677799 0.110034
v -1.405648 1.838712 -0.011102
v -1.398803 1.705521 -0.079269
v -1.398803 1.705521 0.057064
v -1.391957 1.572330 -0.011102
v -1.281888 1.859456 0.053268
v -1.270896 1.607952 0.053268
v -1.281888 1.859456 -0.075472
v -1.270896 1.607952 -0.075473
v -1.555593 1.746491 -0.011102
v -1.553072 1.697436 -0.036209
v -1.553072 1.697437 0.014004
v -1.550551 1.648382 -0.011102
v -1.490468 1.629309 0.023680
v -1.490468 1.629309 -0.045884
v -1.497453 1.765231 -0.045884
v -1.497454 1.765230 0.023680
v 0.078434 4.853574 -0.165373
v 0.680323 5.010060 -0.088709
v 0.870583 5.206422 -0.029530
v 0.794538 5.096408 -0.000156
v 0.379220 4.907768 -0.003483
v -0.436300 4.966164 -0.085463
v -0.328498 5.012756 -0.048807
v -0.360598 4.967021 -0.002029
v -0.211681 5.017406 -0.056380
v -0.101701 4.928306 -0.001072
v 0.099227 3.730352 0.518894
v 0.142526 3.634078 0.536094
v 0.079737 3.550409 0.558374
v -0.026351 3.563014 0.563454
v -0.069651 3.659288 0.546253
v -0.006862 3.742957 0.523973
v 0.018415 3.571746 0.329290
v -0.840273 3.051732 -0.009767
v 0.351500 3.009382 -0.387490
v 0.747726 3.049661 -0.009767
v -0.444131 3.010860 0.397816
v -0.928988 1.556183 -0.010476
v -0.905492 4.139622 -0.010137
v -0.613939 4.817268 0.274520
v 0.416081 4.096515 0.341440
v -0.469981 4.133361 -0.348019
v 0.849836 4.070091 -0.010137
v 1.086454 4.772362 -0.005425
v 1.180548 5.253559 0.000001
v 0.754381 4.823558 0.226937
v 0.754348 4.821149 -0.235724
v 0.397061 4.904681 0.131245
v 1.398126 5.344684 0.000001
v 1.330752 5.150071 -0.000201
v 1.255045 5.203238 0.071861
v 1.004253 5.041422 -0.134486
v 0.952513 5.188912 0.000001
v 1.255045 5.203235 -0.071907
v 1.004253 5.041575 0.133975
v 0.902163 5.218517 0.000001
v 0.904486 5.150824 0.085169
v 0.811283 5.103015 0.053724
v 0.904485 5.150805 -0.085204
v -1.071776 5.018673 -0.000228
v -0.115004 4.930474 -0.119874
v -0.614497 4.815742 -0.283194
v -0.998535 4.801593 -0.005452
v -0.997182 5.303487 0.000001
v -0.603716 5.039179 -0.000127
v -0.863580 5.041528 0.178055
v -0.863644 5.041533 -0.178426
v -1.124218 5.372777 0.000001
v -1.072148 5.282564 0.085952
v -1.072148 5.282564 -0.085950
v -1.145599 5.260763 0.000001
v -0.278247 5.035289 0.000694
v -0.353916 4.962360 0.082630
v -0.258583 4.951591 -0.208601
v -0.244158 4.929962 0.206061
v -0.535722 1.919416 -0.387336
v 0.351499 3.010870 0.397859
v -0.444131 3.009373 -0.387448
v -0.469948 4.130471 0.343086
v 0.416049 4.099405 -0.346373
v 0.812727 1.081837 -0.009894
v 0.474636 1.095312 -0.385868
v -0.535722 1.928455 0.382784
v 0.494624 1.960434 -0.387669
v 0.835153 1.655843 -0.010476
v 0.494624 1.969474 0.383118
v 0.529846 0.517933 0.288409
v -0.876661 0.502696 -0.007504
v -0.897680 1.058065 -0.009877
v -0.386158 1.085631 0.390821
v 0.474636 1.094797 0.388312
v -0.386158 1.086183 -0.387688
v -0.672132 0.249764 0.185302
v -0.653472 0.467367 0.264990
v -0.363532 0.609578 -0.299312
v -0.438590 0.445052 0.062273
v -0.102078 0.570843 0.047277
v -0.363532 0.603150 0.355718
v -0.653472 0.467664 -0.209666
v -0.664489 0.143957 0.027756
v -0.797785 0.252315 0.003019
v -0.546479 0.247213 0.052495
v -0.672132 0.249764 -0.129789
v 0.659956 0.234562 0.011654
v 0.294028 0.503741 0.042535
v 0.529845 0.522871 -0.251199
v 0.759204 0.522661 -0.004324
v 0.553363 0.080900 0.027756
v 0.445183 0.234478 0.043120
v 0.552569 0.234411 0.146167
v 0.552570 0.234628 -0.091393
v -1.016286 1.911671 -0.180334
v 0.980173 2.265602 -0.010955
v 1.236742 1.573773 -0.011102
v 0.979488 1.690895 -0.011071
v 0.971312 1.967492 -0.191582
v 0.971311 1.967841 0.170059
v 1.440255 1.651128 0.039997
v 1.270206 1.730880 -0.112220
v 1.270206 1.730880 0.090016
v 1.303670 1.887987 -0.011102
v 1.478842 1.640776 -0.011102
v 1.458428 1.730450 -0.011102
v 1.422082 1.571806 -0.011102
v 1.440255 1.651128 -0.062202
v -1.276392 1.733704 0.077407
v -1.016286 1.912021 0.158811
v -1.043600 1.591882 -0.011071
v -1.009183 2.252372 -0.010955
v -1.490103 1.604486 -0.011102
v -1.283949 1.906613 -0.011102
v -1.268835 1.560795 -0.011102
v -1.276392 1.733704 -0.099611
v -1.572489 1.698010 -0.011102
v -1.494873 1.697297 -0.058603
v -1.494873 1.697297 0.036398
v -1.499643 1.790107 -0.011102
v 0.811283 5.102916 -0.054019
v 0.396798 4.902583 -0.138296
v -0.361144 4.974435 -0.086114
v -0.107808 4.920920 0.117649
v -0.729746 1.907202 0.399361
v 0.858142 1.890795 0.285680
v -0.568818 2.663217 0.452719
v 0.658382 2.706970 0.343027
v 0.053729 1.407103 0.702518
v 0.086794 2.644403 0.746093
v -0.622024 3.040588 0.435078
v 0.698495 3.084341 0.331512
v 0.051643 2.994429 0.702518
v -0.482769 3.450775 0.481249
v 0.554164 3.494528 0.372946
v 0.060564 3.431961 0.702518
v 0.038416 4.247016 0.623426
v -1.036030 1.936009 0.297809
v -0.849145 2.776608 0.359773
v -1.366877 2.253880 0.188112
v -1.136055 2.808763 0.264644
v -1.578515 2.706334 0.117941
v 1.166207 1.960878 0.197241
v 1.023190 2.768146 0.238298
v 1.497387 2.210877 0.102166
v 1.354370 2.747851 0.143223
v 1.678206 2.594217 0.050257
v -0.898872 1.727644 0.343285
v -0.225182 1.167942 0.566656
v -0.997254 1.433200 0.310665
v -0.573246 0.959224 0.451250
v -0.998091 0.900878 0.310388
v 0.990438 1.667177 0.247701
v 0.303812 1.158222 0.547907
v 1.077799 1.346320 0.222621
v 0.584429 0.969536 0.398362
v 1.010722 0.893586 0.241877
v 0.064667 2.025753 0.702518
v -0.694423 2.285209 0.551954
v -0.987729 2.356308 0.464938
v -1.296608 2.531321 0.362526
v 0.808261 2.298882 0.488519
v 1.144698 2.364512 0.391935
v 1.475878 2.479364 0.296860
v -0.401940 1.661090 0.615136
v -0.594016 1.447793 0.551451
v -0.817240 1.196212 0.477438
v 0.538544 1.652887 0.565949
v 0.697125 1.412699 0.520424
v 0.881113 1.157928 0.467605
v -0.808281 2.482402 0.529962
v -0.808281 2.482402 0.518155
v -0.713136 2.451488 0.558581
v -0.713136 2.451488 0.546774
v -0.654333 2.370553 0.575371
v -0.654333 2.370553 0.563563
v -0.654333 2.270512 0.575371
v -0.654333 2.270512 0.563563
v -0.713136 2.189577 0.558581
v -0.713136 2.189577 0.546774
v -0.808281 2.158663 0.529962
v -0.808281 2.158663 0.518155
v -0.903425 2.189577 0.497104
v -0.903425 2.189577 0.485296
v -0.962228 2.270512 0.479084
v -0.962228 2.270512 0.467277
v -0.962228 2.370553 0.479084
v -0.962228 2.370553 0.467277
v -0.903425 2.451488 0.497104
v -0.903425 2.451488 0.485296
v 0.044362 2.055102 0.694044
v 0.201900 2.029152 0.652705
v 0.044362 2.055102 0.713559
v -0.111945 2.022552 0.660125
v -0.207318 1.943936 0.642106
v -0.111945 2.022552 0.679641
v -0.207318 1.943936 0.661621
v -0.205327 1.849281 0.661621
v -0.205327 1.849281 0.642106
v 0.302484 1.859961 0.643602
v 0.300494 1.954615 0.643602
v 0.302484 1.859961 0.624086
v 0.300494 1.954615 0.624086
v 0.201900 2.029152 0.672221
v 0.048579 1.854621 0.711202
v 0.048579 1.854621 0.691687
v 0.807801 2.563533 0.476221
v 0.916677 2.546726 0.446967
v 0.807802 2.563533 0.495914
v 0.703995 2.519167 0.506254
v 0.644908 2.442677 0.525721
v 0.703995 2.519167 0.525946
v 0.644908 2.442677 0.545414
v 0.653110 2.355801 0.545414
v 0.725468 2.299202 0.520858
v 0.653110 2.355801 0.525722
v 0.725468 2.299202 0.501166
v 0.834343 2.282395 0.468590
v 0.938149 2.319281 0.440607
v 0.834343 2.282395 0.488282
v 0.938149 2.319281 0.460299
v 0.997236 2.395770 0.446307
v 0.989034 2.482646 0.446308
v 0.997236 2.395770 0.426615
v 0.989034 2.482646 0.426615
v 0.916677 2.546726 0.466659
v -0.037297 2.162728 0.686941
v -0.018666 2.156978 0.689575
v -0.038965 2.162071 0.697299
v -0.055603 2.156344 0.683589
v -0.066593 2.140265 0.680799
v -0.057271 2.155687 0.693947
v -0.068260 2.139607 0.691158
v -0.067736 2.119973 0.689996
v -0.055897 2.104285 0.690907
v -0.066068 2.120631 0.679638
v -0.054229 2.104942 0.680548
v -0.035598 2.099192 0.683183
v -0.017292 2.105576 0.686535
v -0.037266 2.098535 0.693541
v -0.018960 2.104918 0.696894
v -0.007970 2.120998 0.699683
v -0.008495 2.140632 0.700844
v -0.006303 2.121655 0.689324
v -0.006828 2.141289 0.690486
v -0.020334 2.156321 0.699934
v 0.124162 2.177659 0.682378
v 0.142366 2.171578 0.678045
v 0.127905 2.177659 0.698104
v 0.105958 2.171578 0.686711
v 0.094708 2.155661 0.689388
v 0.109701 2.171578 0.702437
v 0.098451 2.155661 0.705115
v 0.098451 2.135986 0.705115
v 0.109702 2.120068 0.702437
v 0.094708 2.135986 0.689388
v 0.105958 2.120068 0.686711
v 0.124162 2.113988 0.682378
v 0.142366 2.120068 0.678045
v 0.127905 2.113988 0.698104
v 0.146109 2.120068 0.693772
v 0.157359 2.135986 0.691094
v 0.157359 2.155661 0.691094
v 0.153616 2.135986 0.675367
v 0.153616 2.155661 0.675367
v 0.146109 2.171578 0.693771
vn 0.1096 0.8211 -0.5601
vn 0.1076 0.9684 -0.2250
vn 0.5895 0.7817 -0.2035
vn 0.4808 0.5689 -0.6672
vn 0.0942 0.9745 0.2036
vn 0.5163 0.8129 0.2695
vn 0.8402 0.4541 0.2966
vn 0.9112 0.3956 -0.1150
vn 0.8289 0.2992 -0.4727
vn 0.9943 -0.1062 0.0134
vn 0.8600 -0.1761 -0.4790
vn 0.8724 0.0439 0.4868
vn 0.7350 -0.4403 0.5157
vn 0.8040 -0.5752 0.1509
vn 0.7573 -0.5876 -0.2849
vn 0.3961 -0.8832 0.2511
vn 0.3543 -0.8952 -0.2705
vn 0.3366 -0.5941 0.7306
vn -0.1042 -0.7605 0.6409
vn -0.1058 -0.9489 0.2974
vn -0.0947 -0.9771 -0.1905
vn -0.5837 -0.7646 0.2733
vn -0.5413 -0.8020 -0.2527
vn -0.4671 -0.4804 0.7423
vn -0.8121 -0.2374 0.5331
vn -0.9034 -0.3823 0.1943
vn -0.8682 -0.4182 -0.2672
vn -0.0000 0.2382 0.9712
vn -0.9909 0.1187 0.0627
vn -0.8983 0.0188 -0.4391
vn -0.8199 0.2350 0.5220
vn -0.7220 0.6173 0.3125
vn -0.8062 0.5875 -0.0697
vn -0.7382 0.5027 -0.4499
vn -0.3968 0.9001 -0.1801
vn -0.3377 0.6800 -0.6508
vn -0.3316 0.8987 0.2870
vn -0.0000 -0.1321 -0.9912
vn -0.7262 0.1842 0.6623
vn -0.7744 0.0497 0.6307
vn -0.9988 0.0467 0.0166
vn -0.9779 0.2090 0.0034
vn -0.7589 -0.0182 0.6509
vn -0.9983 -0.0510 0.0267
vn -0.7337 -0.0247 -0.6791
vn -0.7506 0.0400 -0.6595
vn -0.7136 0.1777 -0.6776
vn 0.0014 0.0240 -0.9997
vn 0.0003 0.0372 -0.9993
vn 0.3196 0.0379 -0.9468
vn 0.3118 0.0536 -0.9486
vn 0.0012 0.0402 -0.9992
vn 0.2998 0.0151 -0.9539
vn 0.7348 -0.0534 -0.6762
vn 0.7509 0.0461 -0.6588
vn 0.6922 0.2271 -0.6850
vn 0.9978 0.0595 -0.0300
vn 0.9578 0.2840 -0.0432
vn 0.9958 -0.0895 -0.0212
vn 0.7506 -0.0433 0.6593
vn 0.7637 0.0575 0.6430
vn 0.6927 0.2205 0.6867
vn -0.0025 0.0097 1.0000
vn -0.0034 0.0410 0.9992
vn -0.3613 0.0383 0.9317
vn -0.3456 0.0282 0.9380
vn -0.0011 0.0564 0.9984
vn -0.3365 0.0351 0.9410
vn -0.4215 -0.4583 0.7825
vn -0.3794 -0.9217 0.0803
vn -0.9154 -0.3991 0.0527
vn -0.6349 -0.2252 0.7390
vn -0.4146 -0.4200 -0.8073
vn -0.5988 -0.2183 -0.7706
vn -0.7024 -0.0833 -0.7069
vn -0.9948 -0.0970 0.0324
vn -0.7202 -0.0764 0.6896
vn -0.9945 -0.0991 0.0344
vn -0.7014 -0.0526 -0.7108
vn -0.7251 -0.0498 0.6869
vn -0.6916 -0.0797 0.7179
vn -0.9883 -0.1477 0.0394
vn -0.6718 -0.0711 -0.7373
vn -0.2197 0.0613 0.9736
vn -0.1910 0.2038 0.9602
vn -0.6699 -0.1293 0.7311
vn 0.0657 0.4385 0.8963
vn 0.0187 0.5107 0.8596
vn 0.1207 0.8300 0.5445
vn -0.1571 0.2933 0.9430
vn -0.6891 -0.1987 0.6969
vn 0.3329 0.0266 0.9426
vn 0.2780 0.0280 0.9602
vn 0.0049 0.0784 0.9969
vn 0.7078 -0.1073 0.6982
vn 0.6540 -0.1801 0.7348
vn 0.2249 0.0750 0.9715
vn -0.2982 0.0240 -0.9542
vn -0.2515 0.0309 -0.9674
vn 0.0062 0.0618 -0.9981
vn -0.2026 0.0667 -0.9770
vn 0.0864 0.4920 -0.8663
vn 0.9808 -0.1946 -0.0132
vn 0.6933 -0.1152 -0.7113
vn 0.6425 -0.1802 -0.7448
vn 0.9414 -0.3373 -0.0010
vn 0.8683 -0.4958 0.0131
vn 0.6158 -0.2694 0.7404
vn 0.6071 -0.2496 -0.7544
vn 0.5876 -0.2619 -0.7656
vn 0.8337 -0.5518 0.0187
vn 0.5994 -0.2983 0.7428
vn -0.0580 0.7489 -0.6601
vn -0.1659 0.9853 -0.0411
vn -0.4292 0.9022 -0.0424
vn -0.3002 0.7150 -0.6313
vn -0.0417 0.7258 0.6867
vn -0.2893 0.7085 0.6437
vn -0.2827 0.7210 0.6327
vn -0.2612 0.9616 -0.0849
vn -0.2829 0.7235 -0.6297
vn 0.1937 0.1541 0.9689
vn -0.0890 0.6353 0.7671
vn 0.1600 0.1806 0.9704
vn -0.1881 0.5839 0.7898
vn 0.2107 0.0818 -0.9741
vn 0.1832 0.1906 -0.9644
vn -0.1046 0.6631 -0.7412
vn -0.1947 0.5952 -0.7797
vn 0.1531 0.2179 -0.9639
vn 0.0878 0.9961 0.0045
vn 0.0705 0.9466 0.3146
vn -0.2181 0.9386 0.2672
vn -0.2322 0.9727 -0.0042
vn -0.3930 0.8755 0.2811
vn -0.4188 0.9081 -0.0045
vn 0.7075 -0.1704 -0.6859
vn 0.2094 0.5005 -0.8400
vn 0.6099 0.7813 -0.1327
vn 0.9975 -0.0652 -0.0278
vn 0.2413 0.4627 0.8531
vn 0.7231 -0.2122 0.6574
vn 0.8645 -0.5025 0.0103
vn 0.6530 -0.3070 0.6924
vn 0.6509 -0.2822 -0.7047
vn 0.0825 0.2514 0.9644
vn 0.1010 0.2668 0.9585
vn 0.0925 0.3374 -0.9368
vn 0.0911 0.2829 -0.9548
vn -0.0057 0.4752 -0.8798
vn 0.6532 0.7569 -0.0194
vn 0.4003 0.6415 0.6544
vn 0.4347 0.6441 -0.6295
vn 0.4126 0.8365 -0.3606
vn 0.4456 0.8949 -0.0244
vn 0.4002 0.8713 0.2841
vn 0.0736 0.2630 -0.9620
vn 0.0969 0.3162 0.9437
vn -0.0119 0.4654 0.8850
vn -0.3971 0.8072 -0.4368
vn -0.5862 0.7812 -0.2147
vn -0.3576 0.9339 -0.0000
vn -0.1469 0.8899 -0.4319
vn -0.7497 0.6614 -0.0214
vn -0.5876 0.7855 0.1940
vn -0.4223 0.7917 0.4414
vn -0.1652 0.9055 0.3910
vn 0.0199 0.4730 0.8808
vn -0.4240 0.5394 0.7275
vn -0.6427 0.6701 0.3714
vn -0.6652 0.7467 0.0051
vn 0.0297 0.4729 -0.8806
vn -0.4236 0.5387 -0.7283
vn -0.6741 -0.1563 -0.7219
vn -0.9331 -0.3564 0.0474
vn -0.9338 -0.3553 0.0416
vn -0.7059 -0.1875 -0.6831
vn -0.7202 -0.2127 0.6604
vn -0.7614 -0.1832 0.6218
vn -0.9516 -0.3057 0.0328
vn -0.7487 -0.1656 -0.6419
vn 0.0758 0.9427 -0.3250
vn 0.4728 0.8385 -0.2709
vn 0.4836 0.8752 0.0152
vn 0.3425 0.7516 -0.5638
vn 0.3037 0.8789 -0.3680
vn 0.4094 0.9055 -0.1113
vn 0.5700 0.8212 0.0275
vn -0.1764 0.2553 -0.9506
vn 0.0040 0.5218 -0.8530
vn -0.6502 -0.0962 -0.7537
vn -0.1352 0.3545 -0.9252
vn 0.0877 0.8488 -0.5214
vn -0.9628 -0.2666 0.0436
vn 0.4337 0.7173 0.5453
vn 0.5556 0.8309 -0.0293
vn 0.6179 0.7856 -0.0324
vn 0.4650 0.7036 0.5374
vn 0.4419 0.7191 -0.5363
vn 0.4718 0.7054 -0.5290
vn 0.3527 0.7953 -0.4930
vn 0.3667 0.9288 -0.0541
vn 0.3585 0.8002 0.4807
vn 0.1856 0.9770 0.1047
vn 0.3973 0.9176 -0.0138
vn 0.3358 0.7823 0.5247
vn 0.0361 0.9985 0.0400
vn 0.1314 0.9894 -0.0617
vn 0.3387 0.7871 -0.5155
vn -0.1141 0.2920 0.9496
vn -0.1060 0.2783 0.9546
vn -0.0852 0.3285 -0.9407
vn -0.0726 0.3044 -0.9498
vn -0.2154 0.7624 -0.6103
vn -0.3820 0.9219 -0.0651
vn -0.7993 0.2873 -0.5279
vn -0.9386 0.3449 0.0030
vn -0.8381 0.1946 0.5095
vn -0.2871 0.7228 0.6286
vn -0.1376 0.3378 0.9311
vn -0.8129 -0.0762 0.5774
vn -0.1037 0.3648 -0.9253
vn -0.8025 -0.0487 -0.5947
vn -0.9833 -0.1807 0.0221
vn 0.2828 0.8587 0.4273
vn 0.3871 0.8986 0.2068
vn -0.1071 0.9915 0.0732
vn -0.0431 0.8992 0.4355
vn -0.0242 0.9446 -0.3273
vn -0.3741 0.8779 -0.2988
vn -0.5794 0.8141 -0.0379
vn -0.6950 0.7092 0.1185
vn -0.5256 0.8147 0.2451
vn -0.3134 0.8589 0.4051
vn -0.2831 0.9449 0.1644
vn -0.4529 0.8872 0.0879
vn -0.1088 0.8908 0.4412
vn 0.0800 0.7574 -0.6481
vn -0.2329 0.8618 -0.4505
vn 0.0801 0.7718 0.6308
vn 0.2917 0.7566 0.5852
vn -0.3091 0.0369 -0.9503
vn -0.3188 -0.0098 -0.9478
vn -0.4475 0.0087 -0.8943
vn 0.0055 0.0166 -0.9998
vn 0.0144 -0.0250 -0.9996
vn -0.2970 -0.0506 -0.9535
vn 0.3555 0.0428 0.9337
vn 0.3442 0.0455 0.9378
vn -0.3193 0.0344 -0.9470
vn -0.2791 0.0418 0.9594
vn 0.2545 0.0173 -0.9669
vn 0.8027 -0.0358 -0.5953
vn 0.9989 -0.0426 -0.0201
vn 0.9989 -0.0411 -0.0211
vn 0.8055 -0.0491 -0.5906
vn 0.8097 -0.0289 0.5861
vn 0.8174 -0.0375 0.5749
vn 0.8217 -0.0980 0.5614
vn 0.9948 -0.0997 -0.0195
vn 0.7996 -0.1194 -0.5885
vn 0.3784 -0.0137 -0.9255
vn 0.3539 -0.1013 -0.9298
vn 0.0200 -0.1507 -0.9884
vn 0.2800 -0.2583 -0.9246
vn -0.0648 -0.7083 -0.7029
vn -0.3472 -0.0249 0.9375
vn 0.0022 -0.0008 1.0000
vn -0.4706 0.0009 0.8823
vn -0.3213 -0.0465 0.9458
vn 0.0108 -0.0196 0.9997
vn 0.3453 0.0093 -0.9384
vn 0.4192 0.0097 -0.9078
vn 0.3763 -0.4613 -0.8035
vn 0.6912 -0.2083 -0.6920
vn 0.2929 -0.9553 0.0409
vn 0.9538 -0.3004 0.0017
vn 0.4039 -0.4938 0.7701
vn 0.7189 -0.1897 0.6688
vn 0.3754 -0.0018 0.9269
vn 0.4427 -0.0039 0.8966
vn 0.3987 -0.0077 0.9171
vn 0.3447 -0.1921 0.9188
vn 0.2740 -0.3456 0.8975
vn 0.8123 -0.2213 0.5396
vn -0.0556 -0.7500 0.6591
vn -0.4586 -0.6731 0.5802
vn -0.6291 -0.5312 0.5676
vn 0.2194 -0.4239 0.8787
vn 0.7875 -0.3245 0.5241
vn -0.6962 0.0071 0.7178
vn -0.9997 0.0136 0.0212
vn -0.9985 -0.0506 0.0194
vn -0.8183 -0.0847 0.5685
vn -0.6346 -0.0682 -0.7698
vn -0.7462 -0.1071 -0.6570
vn -0.7386 -0.3131 -0.5970
vn -0.9611 -0.2758 0.0160
vn -0.8105 -0.2860 0.5112
vn -0.9983 -0.0504 0.0289
vn -0.7071 -0.0436 0.7057
vn -0.6803 -0.0645 -0.7301
vn -0.2777 -0.0746 0.9578
vn 0.0216 -0.1002 0.9947
vn -0.1995 -0.1424 0.9695
vn 0.3882 -0.0648 0.9193
vn -0.2438 -0.1186 -0.9625
vn -0.1515 -0.2801 -0.9479
vn 0.6466 -0.4621 0.6070
vn -0.2143 -0.3351 0.9175
vn -0.1798 -0.5230 0.8331
vn 0.6424 -0.5354 0.5484
vn -0.7407 -0.4869 0.4628
vn -0.5630 -0.7293 0.3887
vn -0.0938 -0.8745 0.4759
vn 0.4633 -0.7753 0.4294
vn -0.2454 -0.2369 0.9400
vn -0.1586 -0.2954 0.9421
vn 0.5049 -0.6302 0.5899
vn 0.2771 -0.8655 0.4174
vn -0.0009 -0.6616 -0.7499
vn -0.0252 -0.4824 -0.8756
vn 0.1513 -0.9024 -0.4035
vn 0.2867 -0.8946 -0.3429
vn 0.3375 -0.9413 -0.0015
vn 0.6639 -0.7477 0.0122
vn 0.5522 -0.6747 -0.4897
vn 0.8793 -0.4758 0.0194
vn 0.7346 -0.4409 -0.5158
vn -0.2013 -0.9795 0.0034
vn 0.1839 -0.9829 0.0074
vn 0.1558 -0.8741 0.4601
vn -0.0438 -0.5467 0.8362
vn 0.0122 -0.3533 -0.9354
vn 0.1111 -0.3600 -0.9263
vn -0.4958 -0.7683 -0.4048
vn 0.0922 -0.8732 -0.4786
vn 0.0064 -0.9993 0.0374
vn -0.5957 -0.8029 0.0241
vn 0.6243 -0.6842 -0.3769
vn 0.6234 -0.7814 0.0296
vn -0.8789 -0.4767 0.0186
vn -0.6622 -0.5304 -0.5293
vn 0.8856 -0.4640 0.0201
vn 0.7534 -0.4560 -0.4737
vn 0.1481 -0.5039 -0.8510
vn 0.7331 -0.3771 -0.5660
vn 0.9467 -0.3220 -0.0102
vn 0.9232 -0.3842 -0.0062
vn 0.7007 -0.4388 -0.5625
vn 0.7620 -0.3903 0.5167
vn 0.6730 -0.5282 0.5178
vn 0.7301 -0.6832 0.0146
vn 0.6333 -0.5518 -0.5426
vn -0.6362 -0.7715 0.0077
vn -0.4525 -0.7070 -0.5434
vn -0.6755 -0.5376 -0.5047
vn -0.8597 -0.5103 0.0241
vn 0.1561 -0.4226 -0.8928
vn 0.7756 -0.2557 -0.5771
vn 0.0302 -0.4838 -0.8747
vn 0.9758 -0.2181 -0.0145
vn -0.6793 -0.5418 -0.4949
vn -0.0392 -0.7385 -0.6732
vn 0.0244 -0.9948 0.0988
vn -0.7097 -0.7005 0.0755
vn 0.0797 -0.7439 0.6636
vn -0.5726 -0.6023 0.5562
vn -0.9039 -0.4264 0.0328
vn -0.6577 -0.4963 0.5666
vn -0.7293 -0.4573 -0.5089
vn 0.1868 -0.4624 0.8668
vn -0.0343 -0.4856 -0.8735
vn -0.4243 0.0131 -0.9054
vn -0.7223 0.3372 -0.6038
vn -0.1011 -0.5781 -0.8097
vn 0.0024 -0.5953 -0.8035
vn -0.2780 -0.0119 -0.9605
vn -0.5998 0.4359 -0.6710
vn 0.8449 0.5324 -0.0521
vn 0.6639 0.4040 -0.6293
vn 0.6611 0.3902 0.6409
vn 0.5907 0.4466 0.6720
vn 0.7657 0.6408 -0.0549
vn 0.6027 0.4645 -0.6489
vn -0.2334 -0.6562 0.7176
vn -0.3905 -0.9164 0.0873
vn -0.2175 -0.9717 0.0922
vn -0.1025 -0.6777 0.7281
vn -0.2103 -0.6277 -0.7496
vn -0.0857 -0.6473 -0.7574
vn 0.0876 -0.6683 -0.7387
vn 0.0054 -0.9962 0.0868
vn 0.0752 -0.6983 0.7118
vn -0.3956 -0.9155 0.0729
vn -0.1467 -0.6750 0.7231
vn -0.1235 -0.6368 -0.7611
vn 0.3245 -0.0108 -0.9458
vn 0.2209 -0.0304 -0.9748
vn 0.3267 -0.0276 0.9447
vn 0.2109 -0.0480 0.9763
vn 0.5551 0.4480 0.7009
vn 0.2595 -0.0766 0.9627
vn 0.4478 -0.1202 0.8860
vn 0.7003 0.3593 0.6169
vn 0.3783 -0.6866 0.6209
vn 0.6908 -0.5368 0.4844
vn 0.8378 -0.2113 0.5034
vn 0.8758 0.1158 0.4687
vn 0.2076 -0.0430 -0.9773
vn 0.5524 0.4822 -0.6799
vn 0.5681 0.4709 -0.6749
vn 0.2677 -0.0584 -0.9617
vn 0.1982 -0.0601 0.9783
vn 0.5376 0.4598 0.7068
vn 0.7151 0.6960 -0.0651
vn 0.7119 0.6989 -0.0691
vn 0.8620 0.1598 -0.4811
vn 0.9723 0.2321 -0.0273
vn 0.9745 -0.2245 -0.0048
vn 0.8459 -0.1783 -0.5027
vn 0.7597 -0.6500 0.0184
vn 0.7302 -0.4947 -0.4713
vn 0.8016 0.5951 -0.0577
vn 0.7042 0.3784 -0.6007
vn 0.3267 -0.9430 0.0628
vn 0.3967 -0.6647 -0.6331
vn 0.4549 -0.1019 -0.8847
vn 0.0093 -0.6204 0.7842
vn -0.2761 -0.0207 0.9609
vn -0.1800 -0.0261 0.9833
vn -0.0556 -0.6175 0.7846
vn -0.5877 0.4254 0.6883
vn -0.4046 0.4850 0.7753
vn -0.3311 0.5166 0.7896
vn -0.1829 -0.0232 0.9829
vn -0.1778 -0.6119 0.7707
vn -0.4326 0.0067 0.9016
vn -0.0873 -0.6079 0.7892
vn -0.7238 0.3348 0.6033
vn 0.1159 -0.9893 0.0885
vn 0.1308 -0.9868 0.0954
vn -0.9049 0.4255 -0.0082
vn -0.8049 0.5930 -0.0228
vn -0.1724 -0.5812 -0.7953
vn -0.1871 -0.9766 0.1060
vn -0.4147 -0.9046 0.0983
vn -0.3614 -0.5622 -0.7438
vn -0.3723 -0.5900 0.7165
vn -0.5819 -0.4756 0.6596
vn -0.7914 -0.6054 0.0849
vn -0.5968 -0.4429 -0.6691
vn -0.6155 0.7866 -0.0491
vn -0.4195 0.5056 -0.7539
vn -0.3401 0.5421 -0.7684
vn -0.4752 0.8773 -0.0673
vn -0.0071 -0.9947 0.1029
vn -0.0569 -0.5889 -0.8062
vn -0.1827 -0.0166 -0.9830
vn -0.1838 -0.0119 -0.9829
vn -0.6240 0.3838 0.6807
vn -0.8221 0.5685 -0.0303
vn -0.9989 -0.0275 0.0381
vn -0.6911 -0.0638 0.7199
vn -0.5949 0.4383 -0.6738
vn -0.6837 -0.0141 -0.7296
vn -0.2774 -0.0127 -0.9607
vn -0.4108 0.5403 -0.7344
vn -0.2788 -0.0248 0.9600
vn -0.4093 0.5155 0.7528
vn -0.5157 0.8545 -0.0621
vn -0.3929 0.8695 -0.2993
vn -0.6480 0.6544 -0.3896
vn -0.2163 0.9306 -0.2953
vn -0.4372 0.8979 -0.0515
vn 0.4418 0.8540 0.2747
vn 0.0505 0.0206 0.9985
vn 0.3552 0.0057 0.9348
vn 0.3949 0.1849 0.8999
vn 0.0833 0.0922 0.9922
vn -0.2990 -0.0158 0.9541
vn -0.2949 0.1387 0.9454
vn 0.5242 0.0503 0.8501
vn 0.0643 0.0417 0.9971
vn -0.3794 0.0223 0.9250
vn 0.5292 0.0626 0.8462
vn 0.0967 0.0617 0.9934
vn -0.3727 0.0387 0.9271
vn 0.1069 0.0989 0.9893
vn -0.1898 0.3252 0.9264
vn -0.3568 -0.0543 0.9326
vn -0.2533 0.4017 0.8800
vn -0.5261 0.0315 0.8498
vn -0.5799 0.1772 0.7952
vn 0.4587 -0.1018 0.8828
vn 0.3818 -0.4057 0.8304
vn 0.3411 -0.0502 0.9387
vn 0.5752 -0.3969 0.7152
vn 0.6075 0.0062 0.7943
vn 0.6900 0.1102 0.7153
vn 0.5056 -0.2268 0.8324
vn 0.5433 -0.3750 0.7511
vn -0.3175 -0.0328 0.9477
vn -0.3843 -0.0774 0.9199
vn -0.4810 0.1465 0.8644
vn -0.3518 -0.0206 0.9359
vn -0.5561 0.1028 0.8247
vn -0.4460 -0.1020 0.8892
vn 0.4095 -0.0150 0.9122
vn 0.0290 -0.0952 0.9950
vn 0.2186 -0.2133 0.9522
vn 0.4179 -0.0164 0.9083
vn 0.1493 -0.3836 0.9113
vn -0.4010 -0.3173 0.8594
vn -0.5727 -0.2880 0.7675
vn 0.1853 0.4255 0.8858
vn 0.2848 0.5139 0.8092
vn -0.2039 -0.1884 0.9607
vn -0.1873 -0.2560 0.9483
vn 0.5863 0.2007 0.7849
vn -0.4562 -0.2098 0.8648
vn 0.7042 0.2134 0.6772
vn -0.3090 -0.9511 -0.0000
vn -0.8090 -0.5878 -0.0000
vn -1.0000 -0.0000 -0.0000
vn -0.8090 0.5878 -0.0000
vn -0.3090 0.9511 -0.0000
vn 0.3090 0.9511 -0.0000
vn 0.8090 0.5878 -0.0000
vn 1.0000 -0.0000 -0.0000
vn -0.3010 -0.0000 0.9536
vn 0.8090 -0.5878 -0.0000
vn 0.3090 -0.9511 -0.0000
vn 0.3010 -0.0000 -0.9536
vn -0.2586 0.0070 -0.9660
vn 0.1625 0.9867 -0.0000
vn -0.2039 0.9790 -0.0000
vn -0.6361 0.7716 -0.0000
vn -0.1972 -0.0057 0.9804
vn -0.9998 -0.0210 -0.0000
vn 0.9998 0.0210 -0.0000
vn 0.6031 0.7977 -0.0000
vn 0.2586 -0.0070 0.9660
vn 0.1972 0.0057 -0.9804
vn -0.2747 -0.0029 -0.9615
vn 0.1526 0.9883 -0.0000
vn -0.3930 0.9195 -0.0000
vn -0.7914 0.6113 -0.0000
vn 0.2747 0.0029 0.9615
vn -0.9956 -0.0940 -0.0000
vn -0.6161 -0.7877 -0.0000
vn -0.1526 -0.9883 -0.0000
vn 0.3348 -0.9423 -0.0000
vn 0.7914 -0.6113 -0.0000
vn 0.9956 0.0940 -0.0000
vn 0.6630 0.7486 -0.0000
vn 0.1586 0.0625 -0.9854
vn 0.2796 0.9543 0.1056
vn -0.3304 0.9438 0.0067
vn -0.8142 0.5729 -0.0947
vn -0.1586 -0.0625 0.9854
vn -0.9870 -0.0169 -0.1600
vn -0.7828 -0.6002 -0.1641
vn -0.2796 -0.9543 -0.1056
vn 0.3304 -0.9438 -0.0067
vn 0.8142 -0.5729 0.0947
vn 0.9870 0.0169 0.1600
vn 0.7828 0.6002 0.1641
vn -0.2316 -0.0000 -0.9728
vn 0.3006 0.9511 -0.0716
vn -0.3006 0.9511 0.0716
vn -0.7870 0.5878 0.1873
vn 0.2316 -0.0000 0.9728
vn -0.9728 -0.0000 0.2316
vn -0.7870 -0.5878 0.1873
vn -0.3006 -0.9511 0.0716
vn 0.3006 -0.9511 -0.0716
vn 0.7870 -0.5878 -0.1873
vn 0.9728 -0.0000 -0.2316
vn 0.7870 0.5878 -0.1873
vt 0.746353 0.812268
vt 0.746506 0.796578
vt 0.752964 0.796250
vt 0.750862 0.811586
vt 0.746079 0.781573
vt 0.750962 0.780986
vt 0.046939 0.799753
vt 0.048554 0.784337
vt 0.051984 0.784905
vt 0.051460 0.800669
vt 0.756419 0.795494
vt 0.756419 0.811067
vt 0.051975 0.816535
vt 0.059015 0.801157
vt 0.060886 0.817192
vt 0.057600 0.785042
vt 0.065197 0.785154
vt 0.067245 0.801172
vt 0.067565 0.817702
vt 0.073879 0.800610
vt 0.073879 0.817420
vt 0.068604 0.784715
vt 0.796022 0.798228
vt 0.791428 0.814381
vt 0.787862 0.813063
vt 0.790159 0.797307
vt 0.795546 0.781574
vt 0.790730 0.780345
vt 0.782085 0.797247
vt 0.782907 0.780285
vt 0.780773 0.813219
vt 0.774198 0.813063
vt 0.774140 0.797913
vt 0.774497 0.780850
vt 0.110122 0.796674
vt 0.110200 0.804305
vt 0.104127 0.806869
vt 0.104127 0.786575
vt 0.086494 0.804493
vt 0.086141 0.796864
vt 0.092137 0.806964
vt 0.086494 0.791118
vt 0.092137 0.786669
vt 0.098347 0.811086
vt 0.768682 0.799262
vt 0.770915 0.782339
vt 0.770694 0.814381
vt 0.725905 0.794521
vt 0.730537 0.780285
vt 0.732619 0.781111
vt 0.730651 0.795565
vt 0.726697 0.811274
vt 0.730427 0.812062
vt 0.738305 0.796290
vt 0.737716 0.812090
vt 0.739882 0.781488
vt 0.020613 0.784337
vt 0.027471 0.789384
vt 0.019754 0.803954
vt 0.013245 0.789178
vt 0.034677 0.792471
vt 0.034584 0.801521
vt 0.034677 0.808333
vt 0.027471 0.813452
vt 0.020613 0.816060
vt 0.013245 0.813246
vt 0.006550 0.807926
vt 0.006131 0.801109
vt 0.006550 0.792064
vt 0.575692 0.342213
vt 0.584592 0.423668
vt 0.571382 0.431713
vt 0.565548 0.364464
vt 0.525834 0.895299
vt 0.524839 0.844875
vt 0.545506 0.836632
vt 0.546650 0.886811
vt 0.350747 0.437500
vt 0.354078 0.514668
vt 0.337079 0.519302
vt 0.334407 0.440580
vt 0.357008 0.370272
vt 0.343839 0.358849
vt 0.227497 0.365196
vt 0.230548 0.441439
vt 0.172427 0.441988
vt 0.165554 0.366257
vt 0.231489 0.521458
vt 0.171992 0.520220
vt 0.128744 0.517298
vt 0.130088 0.441553
vt 0.115734 0.362627
vt 0.965192 0.014857
vt 0.963732 0.087472
vt 0.949196 0.089195
vt 0.950164 0.028363
vt 0.114493 0.512362
vt 0.116588 0.438459
vt 0.950011 0.161154
vt 0.931532 0.152136
vt 0.930176 0.078535
vt 0.931507 0.006131
vt 0.688139 0.336918
vt 0.684892 0.412529
vt 0.626742 0.415794
vt 0.625134 0.338648
vt 0.683913 0.492840
vt 0.624525 0.495989
vt 0.581531 0.502430
vt 0.695389 0.790278
vt 0.710546 0.794793
vt 0.709990 0.803636
vt 0.690067 0.806783
vt 0.366608 0.226707
vt 0.359936 0.245483
vt 0.345188 0.237837
vt 0.360347 0.220221
vt 0.337967 0.205786
vt 0.357577 0.195013
vt 0.713643 0.820850
vt 0.692955 0.831788
vt 0.362889 0.595472
vt 0.344877 0.600355
vt 0.526160 0.789123
vt 0.546650 0.780285
vt 0.558234 0.589582
vt 0.573343 0.583975
vt 0.564032 0.649055
vt 0.548546 0.653831
vt 0.372167 0.659788
vt 0.353929 0.664711
vt 0.611610 0.648224
vt 0.596800 0.681028
vt 0.556204 0.681398
vt 0.687741 0.666656
vt 0.638857 0.687380
vt 0.618408 0.700531
vt 0.580286 0.697075
vt 0.548140 0.696859
vt 0.744329 0.495506
vt 0.750498 0.576296
vt 0.684552 0.578327
vt 0.789886 0.501591
vt 0.799100 0.577749
vt 0.814843 0.641571
vt 0.766807 0.645105
vt 0.291784 0.521374
vt 0.296429 0.603580
vt 0.230857 0.604685
vt 0.304572 0.669907
vt 0.228338 0.688704
vt 0.951919 0.235777
vt 0.934208 0.228114
vt 0.119196 0.592800
vt 0.103901 0.586765
vt 0.103328 0.655312
vt 0.088335 0.648825
vt 0.954264 0.299751
vt 0.938209 0.293733
vt 0.956542 0.342968
vt 0.943465 0.338409
vt 0.082747 0.694424
vt 0.070674 0.688837
vt 0.060732 0.722414
vt 0.052382 0.716974
vt 0.958800 0.374870
vt 0.948894 0.372679
vt 0.829610 0.791421
vt 0.835269 0.792421
vt 0.834938 0.816435
vt 0.831289 0.818740
vt 0.840071 0.744331
vt 0.838899 0.737392
vt 0.864168 0.750963
vt 0.862131 0.754438
vt 0.880622 0.761749
vt 0.882775 0.765306
vt 0.834585 0.839302
vt 0.832482 0.837018
vt 0.798915 0.685396
vt 0.761105 0.692869
vt 0.835640 0.682528
vt 0.857968 0.712343
vt 0.826729 0.707830
vt 0.805088 0.715748
vt 0.149608 0.665119
vt 0.118238 0.701571
vt 0.156046 0.709013
vt 0.113120 0.727667
vt 0.091211 0.720768
vt 0.955818 0.596430
vt 0.968133 0.592850
vt 0.968243 0.640075
vt 0.957817 0.639894
vt 0.700045 0.690437
vt 0.746711 0.699091
vt 0.788486 0.716145
vt 0.966513 0.685011
vt 0.959664 0.682943
vt 0.028741 0.762062
vt 0.031271 0.767422
vt 0.026083 0.772074
vt 0.025749 0.763676
vt 0.039003 0.767344
vt 0.037242 0.769419
vt 0.893917 0.768023
vt 0.888273 0.761578
vt 0.894305 0.759628
vt 0.890853 0.756289
vt 0.961026 0.405076
vt 0.955992 0.404553
vt 0.038627 0.746943
vt 0.035564 0.743759
vt 0.965192 0.407018
vt 0.964522 0.424322
vt 0.962408 0.426842
vt 0.959439 0.422959
vt 0.880682 0.739735
vt 0.872718 0.745378
vt 0.852077 0.727606
vt 0.082569 0.731165
vt 0.066568 0.737583
vt 0.093161 0.737499
vt 0.080194 0.745640
vt 0.828716 0.744682
vt 0.826679 0.741583
vt 0.831143 0.780285
vt 0.835269 0.781621
vt 0.166088 0.789394
vt 0.168001 0.792971
vt 0.161169 0.793236
vt 0.161052 0.790416
vt 0.168001 0.784337
vt 0.161169 0.787477
vt 0.046378 0.753262
vt 0.055237 0.757668
vt 0.835777 0.719881
vt 0.825395 0.727055
vt 0.956455 0.724296
vt 0.958496 0.721307
vt 0.960942 0.725754
vt 0.957306 0.728057
vt 0.960657 0.718326
vt 0.963009 0.720329
vt 0.965244 0.722389
vt 0.964694 0.726455
vt 0.963885 0.729914
vt 0.961133 0.730731
vt 0.958364 0.731111
vt 0.821093 0.736855
vt 0.813767 0.732151
vt 0.825364 0.749701
vt 0.822223 0.748190
vt 0.818490 0.746517
vt 0.964707 0.707607
vt 0.960490 0.705875
vt 0.807751 0.730581
vt 0.816348 0.746323
vt 0.097859 0.745708
vt 0.092695 0.748806
vt 0.105166 0.741201
vt 0.100803 0.753960
vt 0.097195 0.755138
vt 0.094221 0.756001
vt 0.370033 0.710785
vt 0.383080 0.706104
vt 0.389517 0.722769
vt 0.380454 0.726929
vt 0.560601 0.828275
vt 0.575129 0.820886
vt 0.571448 0.838763
vt 0.560260 0.843393
vt 0.567817 0.857574
vt 0.559953 0.859939
vt 0.396214 0.741488
vt 0.390646 0.744884
vt 0.943486 0.597867
vt 0.945416 0.572587
vt 0.954592 0.572423
vt 0.218443 0.703938
vt 0.253592 0.715349
vt 0.247444 0.713787
vt 0.938489 0.567386
vt 0.944488 0.560068
vt 0.949371 0.561110
vt 0.954038 0.563411
vt 0.319752 0.700918
vt 0.278184 0.708345
vt 0.361756 0.696321
vt 0.336799 0.714890
vt 0.299405 0.717768
vt 0.378179 0.691429
vt 0.558913 0.791525
vt 0.577552 0.780285
vt 0.577552 0.805674
vt 0.560474 0.815504
vt 0.555562 0.739336
vt 0.562388 0.742250
vt 0.540855 0.758167
vt 0.537421 0.755564
vt 0.948752 0.475747
vt 0.941291 0.471331
vt 0.942525 0.457541
vt 0.947466 0.459588
vt 0.943723 0.451323
vt 0.946785 0.451044
vt 0.529459 0.766619
vt 0.529265 0.763746
vt 0.968243 0.517332
vt 0.958684 0.525185
vt 0.950877 0.505400
vt 0.960886 0.489924
vt 0.952423 0.530993
vt 0.945711 0.527797
vt 0.935744 0.524078
vt 0.939448 0.494545
vt 0.584378 0.718613
vt 0.599732 0.720428
vt 0.560015 0.715704
vt 0.538054 0.714497
vt 0.541280 0.736000
vt 0.528218 0.734095
vt 0.357705 0.730827
vt 0.333917 0.731701
vt 0.377046 0.748587
vt 0.363227 0.750132
vt 0.942959 0.445852
vt 0.946403 0.444191
vt 0.943310 0.441011
vt 0.946307 0.439104
vt 0.521898 0.768023
vt 0.518106 0.762877
vt 0.519461 0.760515
vt 0.523416 0.763525
vt 0.529198 0.752766
vt 0.521597 0.750820
vt 0.389620 0.763298
vt 0.381713 0.764866
vt 0.397572 0.760189
vt 0.399968 0.768755
vt 0.395902 0.772074
vt 0.390143 0.771933
vt 0.400967 0.757868
vt 0.565321 0.872264
vt 0.560059 0.873569
vt 0.564058 0.879372
vt 0.560938 0.881099
vt 0.401899 0.769030
vt 0.657289 0.709663
vt 0.658388 0.714499
vt 0.647730 0.720367
vt 0.649884 0.711729
vt 0.953221 0.551400
vt 0.958327 0.559862
vt 0.945208 0.553020
vt 0.945029 0.546957
vt 0.949146 0.544241
vt 0.952685 0.541570
vt 0.956444 0.543319
vt 0.643867 0.710537
vt 0.641292 0.713873
vt 0.959139 0.536553
vt 0.952612 0.537184
vt 0.965386 0.539150
vt 0.960932 0.544750
vt 0.268079 0.719017
vt 0.279805 0.720619
vt 0.937581 0.554492
vt 0.940411 0.543530
vt 0.271391 0.726404
vt 0.263606 0.724682
vt 0.651494 0.699776
vt 0.640100 0.703850
vt 0.665710 0.696991
vt 0.291677 0.363684
vt 0.300717 0.282963
vt 0.346834 0.290609
vt 0.221745 0.293383
vt 0.214181 0.229509
vt 0.284874 0.222223
vt 0.803752 0.347160
vt 0.788912 0.425774
vt 0.744061 0.417080
vt 0.751244 0.341911
vt 0.289744 0.441355
vt 0.619727 0.579750
vt 0.165713 0.599308
vt 0.964196 0.949118
vt 0.949023 0.944017
vt 0.949467 0.894197
vt 0.964196 0.896217
vt 0.930176 0.939600
vt 0.931138 0.886654
vt 0.932759 0.837545
vt 0.949618 0.845064
vt 0.962991 0.846548
vt 0.152188 0.226414
vt 0.149832 0.164026
vt 0.207134 0.164936
vt 0.113600 0.213512
vt 0.113696 0.158764
vt 0.114538 0.107494
vt 0.146127 0.110025
vt 0.200521 0.101622
vt 0.616870 0.258869
vt 0.694307 0.265238
vt 0.572591 0.272127
vt 0.561043 0.231251
vt 0.575219 0.221710
vt 0.582462 0.188938
vt 0.632805 0.196732
vt 0.702254 0.200510
vt 0.148884 0.289747
vt 0.108693 0.301296
vt 0.097283 0.262781
vt 0.110812 0.251396
vt 0.093373 0.246437
vt 0.100452 0.236095
vt 0.949599 0.987137
vt 0.935848 0.993868
vt 0.931077 0.977640
vt 0.948818 0.975313
vt 0.963162 0.986506
vt 0.768661 0.266483
vt 0.810619 0.283945
vt 0.765470 0.201664
vt 0.806789 0.197916
vt 0.809514 0.236559
vt 0.823556 0.249868
vt 0.806883 0.092594
vt 0.773275 0.087109
vt 0.779310 0.058241
vt 0.804959 0.062105
vt 0.718775 0.077293
vt 0.753463 0.057247
vt 0.765079 0.040298
vt 0.782813 0.039930
vt 0.801384 0.042429
vt 0.590803 0.082417
vt 0.572379 0.092482
vt 0.574278 0.061466
vt 0.582271 0.055405
vt 0.351905 0.098198
vt 0.330310 0.099707
vt 0.339754 0.069895
vt 0.350203 0.067167
vt 0.337721 0.050764
vt 0.345650 0.047516
vt 0.677804 0.834419
vt 0.663108 0.841622
vt 0.662072 0.826237
vt 0.674608 0.821429
vt 0.566093 0.189241
vt 0.569393 0.142136
vt 0.587389 0.137468
vt 0.333422 0.154427
vt 0.354577 0.147879
vt 0.641599 0.136520
vt 0.710201 0.136209
vt 0.646565 0.087021
vt 0.768515 0.139309
vt 0.807136 0.143167
vt 0.276725 0.162066
vt 0.272548 0.111683
vt 0.621799 0.034807
vt 0.602840 0.034708
vt 0.603751 0.020044
vt 0.617482 0.020735
vt 0.584747 0.037498
vt 0.590644 0.021942
vt 0.596535 0.012951
vt 0.605315 0.010393
vt 0.613899 0.012318
vt 0.605173 0.049595
vt 0.618993 0.061611
vt 0.628572 0.048302
vt 0.644919 0.058634
vt 0.272864 0.090588
vt 0.301373 0.081879
vt 0.245449 0.085165
vt 0.276448 0.075121
vt 0.619392 0.846973
vt 0.604882 0.840595
vt 0.605624 0.825113
vt 0.618018 0.830334
vt 0.589815 0.831129
vt 0.593072 0.817200
vt 0.597671 0.802895
vt 0.608035 0.809706
vt 0.618551 0.813854
vt 0.201451 0.078264
vt 0.236508 0.076275
vt 0.493509 0.836256
vt 0.467821 0.833214
vt 0.479829 0.802195
vt 0.495834 0.808059
vt 0.486892 0.780285
vt 0.499597 0.785869
vt 0.268139 0.068455
vt 0.646776 0.067415
vt 0.675205 0.065786
vt 0.315878 0.067444
vt 0.318804 0.050756
vt 0.293337 0.062897
vt 0.300617 0.047907
vt 0.327087 0.022554
vt 0.318110 0.020653
vt 0.318316 0.014324
vt 0.328741 0.018700
vt 0.309687 0.021864
vt 0.308686 0.017910
vt 0.668430 0.785392
vt 0.672933 0.780285
vt 0.677804 0.783031
vt 0.674926 0.788601
vt 0.664766 0.795934
vt 0.670685 0.796618
vt 0.662675 0.810207
vt 0.672312 0.807076
vt 0.332392 0.033484
vt 0.338059 0.030592
vt 0.657062 0.805841
vt 0.660334 0.795780
vt 0.611174 0.793961
vt 0.619392 0.797337
vt 0.603106 0.788788
vt 0.607828 0.780285
vt 0.613731 0.781765
vt 0.618909 0.786100
vt 0.318650 0.033730
vt 0.305505 0.032171
vt 0.956706 0.793098
vt 0.948095 0.792116
vt 0.946675 0.769354
vt 0.952031 0.770206
vt 0.936894 0.787291
vt 0.939641 0.766619
vt 0.941618 0.752674
vt 0.945218 0.751205
vt 0.948460 0.754648
vt 0.495167 0.862030
vt 0.479949 0.872156
vt 0.512576 0.822168
vt 0.509366 0.864959
vt 0.177915 0.066963
vt 0.167683 0.074612
vt 0.157200 0.053333
vt 0.164992 0.048962
vt 0.499558 0.882526
vt 0.489338 0.890418
vt 0.141250 0.077467
vt 0.117061 0.075512
vt 0.121328 0.053640
vt 0.138910 0.054899
vt 0.949143 0.813837
vt 0.960494 0.815136
vt 0.934611 0.807419
vt 0.145331 0.015875
vt 0.138349 0.013313
vt 0.138595 0.006132
vt 0.146451 0.011768
vt 0.131508 0.016136
vt 0.130925 0.012215
vt 0.943808 0.743374
vt 0.939791 0.747875
vt 0.510827 0.917906
vt 0.512576 0.927456
vt 0.507412 0.924993
vt 0.506657 0.917797
vt 0.505745 0.902122
vt 0.499550 0.906816
vt 0.150144 0.030788
vt 0.155005 0.027958
vt 0.784693 0.020817
vt 0.796688 0.022522
vt 0.773176 0.021307
vt 0.778707 0.008703
vt 0.785700 0.006132
vt 0.792629 0.009346
vt 0.138283 0.031517
vt 0.126845 0.031176
vt 0.372925 0.276146
vt 0.372348 0.311302
vt 0.375541 0.240898
vt 0.391877 0.233397
vt 0.392187 0.258621
vt 0.392922 0.282188
vt 0.105557 0.372595
vt 0.080482 0.324789
vt 0.080496 0.316618
vt 0.816994 0.368193
vt 0.840503 0.305466
vt 0.842375 0.320539
vt 0.867929 0.277014
vt 0.869625 0.287878
vt 0.053442 0.291969
vt 0.053783 0.286165
vt 0.642803 0.825991
vt 0.634211 0.822512
vt 0.636394 0.802719
vt 0.642948 0.804909
vt 0.060670 0.231003
vt 0.059039 0.241825
vt 0.039311 0.232628
vt 0.041042 0.224508
vt 0.022991 0.228672
vt 0.024342 0.222691
vt 0.639105 0.788012
vt 0.643951 0.789564
vt 0.644799 0.868402
vt 0.631654 0.858149
vt 0.633107 0.843645
vt 0.644073 0.849638
vt 0.078953 0.255379
vt 0.079247 0.241316
vt 0.079905 0.286118
vt 0.056170 0.264935
vt 0.840621 0.272570
vt 0.842505 0.244486
vt 0.862954 0.232655
vt 0.865155 0.253880
vt 0.904847 0.246462
vt 0.902119 0.233681
vt 0.911813 0.230732
vt 0.913630 0.239552
vt 0.899708 0.221958
vt 0.910086 0.222652
vt 0.914659 0.225021
vt 0.916394 0.230190
vt 0.916923 0.235817
vt 0.035806 0.249950
vt 0.032664 0.265858
vt 0.017695 0.253151
vt 0.020209 0.241434
vt 0.886089 0.240732
vt 0.889522 0.258081
vt 0.883087 0.224821
vt 0.031903 0.270201
vt 0.891303 0.266235
vt 0.906235 0.252470
vt 0.017060 0.256350
vt 0.145283 0.789823
vt 0.147048 0.789695
vt 0.146230 0.795929
vt 0.144368 0.795156
vt 0.148789 0.791306
vt 0.148406 0.796865
vt 0.147641 0.802274
vt 0.145726 0.802324
vt 0.144135 0.800790
vt 0.008718 0.247442
vt 0.009203 0.245321
vt 0.914634 0.243610
vt 0.917912 0.237122
vt 0.145098 0.786327
vt 0.148164 0.784337
vt 0.641485 0.780285
vt 0.644799 0.781385
vt 0.012855 0.228439
vt 0.013709 0.224371
vt 0.008464 0.230083
vt 0.008167 0.228514
vt 0.148789 0.805818
vt 0.145708 0.807799
vt 0.010877 0.237217
vt 0.006131 0.240868
vt 0.006642 0.235430
vt 0.530323 0.222973
vt 0.529393 0.246517
vt 0.510674 0.237352
vt 0.512082 0.219732
vt 0.528968 0.271746
vt 0.509645 0.256233
vt 0.491972 0.248135
vt 0.492875 0.233593
vt 0.494069 0.220020
vt 0.547812 0.261543
vt 0.546114 0.228775
vt 0.548788 0.298939
vt 0.377326 0.225330
vt 0.703139 0.780285
vt 0.713643 0.787083
vt 0.546152 0.219442
vt 0.531250 0.216070
vt 0.392249 0.222040
vt 0.549081 0.315401
vt 0.373787 0.321291
vt 0.122463 0.784337
vt 0.131872 0.784461
vt 0.131872 0.812487
vt 0.125405 0.812162
vt 0.529386 0.283134
vt 0.428679 0.228762
vt 0.428647 0.222216
vt 0.443193 0.226809
vt 0.443075 0.231306
vt 0.809033 0.810910
vt 0.814073 0.812857
vt 0.814329 0.826637
vt 0.810829 0.825438
vt 0.814880 0.835090
vt 0.813192 0.836201
vt 0.452209 0.233135
vt 0.450760 0.234560
vt 0.509690 0.264755
vt 0.393686 0.289127
vt 0.412660 0.265659
vt 0.413498 0.270855
vt 0.430597 0.256893
vt 0.431285 0.260897
vt 0.491965 0.254700
vt 0.410465 0.220636
vt 0.410454 0.229137
vt 0.808607 0.780285
vt 0.817348 0.783301
vt 0.814827 0.797341
vt 0.808284 0.794858
vt 0.411398 0.248018
vt 0.429516 0.243305
vt 0.471416 0.239574
vt 0.470156 0.241066
vt 0.467821 0.233999
vt 0.470490 0.233292
vt 0.453180 0.247381
vt 0.451610 0.247019
vt 0.452528 0.240904
vt 0.455559 0.240326
vt 0.817348 0.839693
vt 0.815810 0.842649
vt 0.443799 0.241505
vt 0.444421 0.251043
vt 0.478897 0.232782
vt 0.479867 0.223249
vt 0.478395 0.242973
vt 0.472344 0.227125
vt 0.478264 0.247490
vt 0.445031 0.253761
vt 0.182840 0.793926
vt 0.180264 0.793797
vt 0.181203 0.785768
vt 0.182840 0.784337
vt 0.130562 0.725178
vt 0.111696 0.737879
vt 0.953146 0.687879
vt 0.956475 0.709389
vt 0.103354 0.752331
vt 0.930176 0.584705
vt 0.947652 0.644424
vt 0.941185 0.659405
vt 0.949539 0.705498
vt 0.946165 0.538780
vt 0.672319 0.700989
vt 0.963639 0.569311
vt 0.110200 0.790931
vt 0.098347 0.784337
vt 0.386129 0.438902
vt 0.586572 0.327009
vt 0.659844 0.423610
vt 0.515892 0.553423
vt 0.325798 0.629729
vt 0.435716 0.668080
vt 0.746776 0.485566
vt 0.587285 0.623119
vt 0.507566 0.748269
vt 0.805110 0.594122
vt 0.680621 0.703368
vt 0.612945 0.800475
vt 0.854903 0.855246
vt 0.420713 0.739058
vt 0.300121 0.695080
vt 0.387747 0.795974
vt 0.294101 0.782676
vt 0.304997 0.855246
vt 0.526953 0.226782
vt 0.600934 0.172365
vt 0.665077 0.265536
vt 0.717129 0.146611
vt 0.752904 0.214444
vt 0.454922 0.076530
vt 0.361089 0.097119
vt 0.346983 0.006358
vt 0.239117 0.457855
vt 0.254743 0.554879
vt 0.193640 0.551211
vt 0.167755 0.451931
vt 0.867620 0.326252
vt 0.948975 0.254141
vt 0.948974 0.336392
vt 0.885705 0.396949
vt 0.399078 0.265041
vt 0.254436 0.325099
vt 0.257533 0.217982
vt 0.379170 0.185233
vt 0.277933 0.116393
vt 0.960115 0.241425
vt 0.867620 0.153643
vt 0.881640 0.087569
vt 0.960115 0.137124
vt 0.218392 0.614603
vt 0.742873 0.355080
vt 0.802330 0.278650
vt 0.169410 0.326787
vt 0.084045 0.444354
vt 0.077416 0.349389
vt 0.505466 0.155845
vt 0.006358 0.413801
vt 0.832386 0.178830
vt 0.931428 0.006358
vt 0.925969 0.484559
vt 0.104504 0.883222
vt 0.178328 0.867962
vt 0.178328 0.961650
vt 0.435612 0.893501
vt 0.432453 0.894561
vt 0.432649 0.869022
vt 0.435808 0.867962
vt 0.287124 0.867962
vt 0.290430 0.867989
vt 0.283610 0.891798
vt 0.280304 0.891771
vt 0.283610 0.919980
vt 0.280304 0.919953
vt 0.290430 0.941770
vt 0.287124 0.941743
vt 0.414585 0.923240
vt 0.411542 0.921881
vt 0.413650 0.897527
vt 0.416693 0.898886
vt 0.416693 0.867962
vt 0.419736 0.869321
vt 0.351156 0.941867
vt 0.347823 0.941868
vt 0.342498 0.918591
vt 0.345831 0.918589
vt 0.342498 0.890361
vt 0.345831 0.890360
vt 0.229497 0.867962
vt 0.253244 0.870648
vt 0.267588 0.887884
vt 0.267588 0.913565
vt 0.252939 0.937611
vt 0.229236 0.950836
vt 0.205839 0.948462
vt 0.191146 0.930915
vt 0.191044 0.905143
vt 0.205693 0.881097
vt 0.347823 0.867963
vt 0.351156 0.867962
vt 0.435808 0.923118
vt 0.432649 0.924178
vt 0.022710 0.950358
vt 0.006379 0.928284
vt 0.006358 0.900386
vt 0.022680 0.877345
vt 0.049110 0.867962
vt 0.075528 0.875797
vt 0.091787 0.897799
vt 0.091787 0.925676
vt 0.075466 0.948716
vt 0.049056 0.958120
vt 0.867620 0.570337
vt 0.876045 0.525219
vt 0.897780 0.497276
vt 0.924501 0.497297
vt 0.924227 0.570326
vt 0.967179 0.333013
vt 0.961691 0.333494
vt 0.969444 0.287989
vt 0.974932 0.287508
vt 0.980065 0.371496
vt 0.974577 0.371977
vt 0.386188 0.894606
vt 0.391638 0.894991
vt 0.398825 0.915969
vt 0.393375 0.915584
vt 0.937217 0.557481
vt 0.944032 0.520375
vt 0.964776 0.497276
vt 0.991437 0.497526
vt 0.993642 0.558267
vt 0.387925 0.867962
vt 0.393375 0.868348
vt 0.565568 0.867963
vt 0.571077 0.867962
vt 0.571077 0.894686
vt 0.565568 0.894687
vt 0.974577 0.254622
vt 0.980065 0.254141
vt 0.945464 0.602934
vt 0.993642 0.631765
vt 0.966981 0.631515
vt 0.876062 0.613695
vt 0.924501 0.640596
vt 0.897780 0.640575
vt 0.883558 0.785110
vt 0.911157 0.769543
vt 0.938751 0.770926
vt 0.955722 0.788770
vt 0.955722 0.816189
vt 0.938638 0.842769
vt 0.910968 0.858373
vt 0.884591 0.858698
vt 0.867620 0.840854
vt 0.867736 0.813373
vt 0.322785 0.895200
vt 0.328135 0.893691
vt 0.328519 0.925550
vt 0.323169 0.927059
vt 0.324432 0.869471
vt 0.329781 0.867962
vt 0.369937 0.888479
vt 0.364425 0.888376
vt 0.367959 0.867962
vt 0.373471 0.868065
vt 0.867741 0.727305
vt 0.867620 0.695360
vt 0.884376 0.667304
vt 0.908247 0.653313
vt 0.932143 0.659210
vt 0.944670 0.682948
vt 0.944670 0.715239
vt 0.930069 0.743407
vt 0.906397 0.756827
vt 0.882501 0.750930
vt 0.369385 0.913094
vt 0.363873 0.912992
vt 0.373471 0.930427
vt 0.367959 0.930325
vt 0.310068 0.899516
vt 0.304686 0.898131
vt 0.303147 0.867962
vt 0.308529 0.869347
vt 0.310068 0.931429
vt 0.304686 0.930044
vt 0.308882 0.952989
vt 0.303499 0.951604
vt 0.583793 0.867962
vt 0.589351 0.867968
vt 0.589351 0.892544
vt 0.583793 0.892538
vt 0.329781 0.951008
vt 0.324432 0.952517
vt 0.524994 0.879448
vt 0.521732 0.883778
vt 0.516453 0.885396
vt 0.511174 0.883685
vt 0.507912 0.879298
vt 0.507912 0.873911
vt 0.511174 0.869581
vt 0.516453 0.867962
vt 0.521732 0.869673
vt 0.524994 0.874060
vt 0.656994 0.878009
vt 0.654042 0.878009
vt 0.654042 0.872456
vt 0.656994 0.872456
vt 0.657327 0.882502
vt 0.654375 0.882502
vt 0.637546 0.878097
vt 0.640389 0.878122
vt 0.641325 0.882521
vt 0.638482 0.882496
vt 0.538992 0.871221
vt 0.542677 0.867962
vt 0.547356 0.867962
vt 0.551242 0.871221
vt 0.552852 0.876494
vt 0.551570 0.881768
vt 0.547886 0.885027
vt 0.543207 0.885027
vt 0.539320 0.881768
vt 0.537710 0.876494
vt 0.637546 0.872546
vt 0.640389 0.872571
vt 0.638482 0.867962
vt 0.641325 0.867987
vt 0.720730 0.873485
vt 0.723697 0.873490
vt 0.723713 0.878304
vt 0.720745 0.878298
vt 0.720745 0.867962
vt 0.723713 0.867968
vt 0.707699 0.872483
vt 0.704782 0.872648
vt 0.705096 0.868127
vt 0.708013 0.867962
vt 0.708013 0.878028
vt 0.705096 0.878193
vt 0.654375 0.867962
vt 0.657327 0.867962
vt 0.448525 0.874064
vt 0.451788 0.869635
vt 0.457067 0.867962
vt 0.462346 0.869685
vt 0.465609 0.874145
vt 0.465609 0.879639
vt 0.462346 0.884068
vt 0.457067 0.885741
vt 0.451788 0.884018
vt 0.448525 0.879558
vt 0.687385 0.872635
vt 0.691936 0.872536
vt 0.692065 0.878087
vt 0.687515 0.878185
vt 0.687515 0.868061
vt 0.692065 0.867962
vt 0.624486 0.872240
vt 0.619948 0.872270
vt 0.620292 0.867993
vt 0.624830 0.867962
vt 0.481547 0.869738
vt 0.486760 0.867962
vt 0.491974 0.869608
vt 0.495196 0.874048
vt 0.495196 0.879586
vt 0.491974 0.884106
vt 0.486760 0.885882
vt 0.481547 0.884236
vt 0.478325 0.879796
vt 0.478325 0.874258
vt 0.624486 0.877782
vt 0.619948 0.877813
vt 0.624830 0.882473
vt 0.620292 0.882503
vt 0.670043 0.873495
vt 0.674603 0.873535
vt 0.674669 0.878292
vt 0.670109 0.878252
vt 0.670109 0.867962
vt 0.674669 0.868002
vt 0.607231 0.872395
vt 0.602777 0.872369
vt 0.602068 0.867962
vt 0.606522 0.867989
vt 0.607231 0.877947
vt 0.602777 0.877921
vt 0.606522 0.882524
vt 0.602068 0.882497
s 1
usemtl Body
f 1/1/1 127/2/2 361/3/3 125/4/4
f 127/2/2 2/5/5 126/6/6 361/3/3
f 361/7/3 126/8/6 4/9/7 128/10/8
f 125/4/4 361/3/3 128/11/8 3/12/9
f 3/13/9 128/10/8 362/14/10 129/15/11
f 128/10/8 4/9/7 130/16/12 362/14/10
f 362/14/10 130/16/12 6/17/13 131/18/14
f 129/15/11 362/14/10 131/18/14 5/19/15
f 5/19/15 131/18/14 363/20/16 132/21/17
f 131/18/14 6/17/13 133/22/18 363/20/16
f 363/23/16 133/24/18 8/25/19 134/26/20
f 132/27/17 363/23/16 134/26/20 7/28/21
f 7/28/21 134/26/20 364/29/22 135/30/23
f 134/26/20 8/25/19 136/31/24 364/29/22
f 364/29/22 136/31/24 10/32/25 137/33/26
f 135/30/23 364/29/22 137/33/26 9/34/27
f 139/35/28 10/36/28 136/37/28
f 142/38/28 139/35/28 136/37/28
f 6/39/28 130/40/28 133/41/28
f 130/40/28 4/42/28 126/43/28
f 133/41/28 126/43/28 136/37/28
f 133/41/28 136/37/28 8/44/28
f 9/34/27 137/33/26 365/45/29 138/46/30
f 137/33/26 10/32/25 139/47/31 365/45/29
f 365/48/29 139/49/31 12/50/32 140/51/33
f 138/52/30 365/48/29 140/51/33 11/53/34
f 11/53/34 140/51/33 366/54/35 141/55/36
f 140/51/33 12/50/32 142/56/37 366/54/35
f 366/54/35 142/56/37 2/5/5 127/2/2
f 141/55/36 366/54/35 127/2/2 1/1/1
f 1/57/1 125/58/4 367/59/38 141/60/36
f 3/61/9 129/62/11 367/59/38 125/58/4
f 5/63/15 132/64/17 367/59/38 129/62/11
f 7/65/21 135/66/23 367/59/38 132/64/17
f 9/67/27 138/68/30 367/59/38 135/66/23
f 11/69/34 141/60/36 367/59/38 138/68/30
f 13/70/39 144/71/40 368/72/41 143/73/42
f 144/74/40 14/75/43 145/76/44 368/77/41
f 368/78/41 145/79/44 16/80/45 146/81/46
f 143/82/42 368/78/41 146/81/46 15/83/47
f 57/84/48 233/85/49 369/86/50 227/87/51
f 233/85/49 58/88/52 148/89/53 369/86/50
f 369/86/50 148/89/53 20/90/54 149/91/55
f 227/87/51 369/86/50 149/91/55 19/92/56
f 19/93/56 149/94/55 370/95/57 150/96/58
f 149/91/55 20/90/54 151/97/59 370/98/57
f 370/95/57 151/99/59 18/100/60 152/101/61
f 150/96/58 370/95/57 152/101/61 17/102/62
f 59/103/63 232/104/64 371/105/65 229/106/66
f 232/104/64 60/107/67 154/108/68 371/105/65
f 371/105/65 154/108/68 14/109/43 144/71/40
f 229/106/66 371/105/65 144/71/40 13/70/39
f 92/110/69 299/111/70 372/112/71 298/113/72
f 299/114/70 91/115/73 297/116/74 372/117/71
f 372/117/71 297/116/74 61/118/75 236/119/76
f 298/113/72 372/112/71 236/120/76 62/121/77
f 16/80/45 145/79/44 373/122/78 160/123/79
f 145/76/44 14/75/43 159/124/80 373/125/78
f 373/126/78 159/127/80 21/128/81 155/129/82
f 160/123/79 373/122/78 155/130/82 22/131/83
f 21/128/81 158/132/84 374/133/85 200/134/86
f 158/132/84 26/135/87 199/136/88 374/133/85
f 374/133/85 199/136/88 44/137/89 196/138/90
f 200/134/86 374/133/85 196/138/90 41/139/91
f 60/107/67 230/140/92 375/141/93 234/142/94
f 230/140/92 18/143/60 161/144/95 375/141/93
f 375/141/93 161/144/95 23/145/96 164/146/97
f 234/142/94 375/141/93 164/146/97 26/135/87
f 58/88/52 228/147/98 376/148/99 235/149/100
f 228/147/98 16/80/45 160/123/79 376/148/99
f 376/148/99 160/123/79 22/131/83 163/150/101
f 235/149/100 376/148/99 163/150/101 25/151/102
f 18/100/60 151/99/59 377/152/103 161/153/95
f 151/97/59 20/90/54 162/154/104 377/155/103
f 377/155/103 162/154/104 24/156/105 157/157/106
f 161/153/95 377/152/103 157/158/106 23/159/96
f 23/159/96 157/158/106 378/160/107 171/161/108
f 157/157/106 24/156/105 170/162/109 378/163/107
f 378/163/107 170/162/109 28/164/110 167/165/111
f 171/161/108 378/160/107 167/166/111 27/167/112
f 36/168/113 184/169/114 379/170/115 183/171/116
f 184/172/114 35/173/117 178/174/118 379/175/115
f 379/175/115 178/174/118 34/176/119 177/177/120
f 183/171/116 379/170/115 177/178/120 33/179/121
f 26/135/87 164/146/97 380/180/122 172/181/123
f 164/146/97 23/145/96 171/182/108 380/180/122
f 380/180/122 171/182/108 27/183/112 168/184/124
f 172/181/123 380/180/122 168/184/124 30/185/125
f 24/156/105 156/186/126 381/187/127 170/162/109
f 156/186/126 25/151/102 173/188/128 381/187/127
f 381/187/127 173/188/128 29/189/129 166/190/130
f 170/162/109 381/187/127 166/190/130 28/164/110
f 119/191/131 165/192/132 382/193/133 355/194/134
f 165/195/132 26/135/87 172/181/123 382/196/133
f 382/196/133 172/181/123 30/185/125 169/197/135
f 355/194/134 382/193/133 169/198/135 120/199/136
f 32/200/137 174/201/138 383/202/139 175/203/140
f 174/201/138 33/204/121 177/205/120 383/202/139
f 383/206/139 177/177/120 34/176/119 176/207/141
f 175/208/140 383/206/139 176/207/141 31/209/142
f 27/167/112 167/166/111 384/210/143 181/211/144
f 167/165/111 28/164/110 180/212/145 384/213/143
f 384/210/143 180/214/145 32/215/137 175/216/140
f 181/211/144 384/210/143 175/216/140 31/217/142
f 27/183/112 181/218/144 385/219/146 186/220/147
f 181/218/144 31/209/142 176/207/141 385/219/146
f 385/219/146 176/207/141 34/176/119 178/174/118
f 186/220/147 385/219/146 178/174/118 35/173/117
f 28/164/110 166/190/130 386/221/148 185/222/149
f 29/189/129 179/223/150 386/221/148 166/190/130
f 36/224/113 185/222/149 386/221/148 179/223/150
f 35/173/117 184/172/114 387/225/151 192/226/152
f 184/169/114 36/168/113 191/227/153 387/228/151
f 387/229/151 191/230/153 40/231/154 190/232/155
f 192/233/152 387/229/151 190/232/155 39/234/156
f 32/200/137 180/212/145 388/235/157 174/201/138
f 180/212/145 28/164/110 185/222/149 388/235/157
f 388/235/157 185/222/149 36/224/113 183/236/116
f 174/201/138 388/235/157 183/236/116 33/204/121
f 30/185/125 168/184/124 389/237/158 182/238/159
f 27/183/112 186/220/147 389/237/158 168/184/124
f 35/173/117 182/238/159 389/237/158 186/220/147
f 37/239/160 353/240/161 390/241/162 188/242/163
f 121/243/164 187/244/165 390/241/162 353/240/161
f 38/245/166 189/246/167 390/241/162 187/244/165
f 39/247/156 190/248/155 390/241/162 189/246/167
f 40/249/154 188/242/163 390/241/162 190/248/155
f 30/185/125 182/238/159 391/250/168 193/251/169
f 182/238/159 35/173/117 192/226/152 391/250/168
f 391/250/168 192/226/152 39/252/156 189/253/167
f 193/251/169 391/250/168 189/253/167 38/254/166
f 120/199/136 169/198/135 392/255/170 354/256/171
f 169/197/135 30/185/125 193/251/169 392/257/170
f 392/257/170 193/251/169 38/254/166 187/258/165
f 354/256/171 392/255/170 187/244/165 121/243/164
f 36/224/113 179/223/150 393/259/172 191/260/153
f 179/223/150 29/189/129 194/261/173 393/259/172
f 393/259/172 194/261/173 37/262/160 188/263/163
f 191/260/153 393/259/172 188/263/163 40/264/154
f 42/265/174 195/266/175 394/267/176 208/268/177
f 195/269/175 41/270/91 207/271/178 394/272/176
f 394/272/176 207/271/178 45/273/179 203/274/180
f 208/268/177 394/267/176 203/275/180 46/276/181
f 119/191/131 351/277/182 395/278/183 360/279/184
f 351/280/182 25/151/102 223/281/185 395/282/183
f 395/278/183 223/283/185 53/284/186 359/285/187
f 360/279/184 395/278/183 359/285/187 124/286/188
f 25/151/102 163/150/101 396/287/189 201/288/190
f 163/150/101 22/131/83 202/289/191 396/287/189
f 396/287/189 202/289/191 42/265/174 197/290/192
f 201/288/190 396/287/189 197/290/192 43/291/193
f 22/131/83 155/130/82 397/292/194 202/289/191
f 155/293/82 21/294/81 200/295/86 397/296/194
f 397/296/194 200/295/86 41/270/91 195/269/175
f 202/289/191 397/292/194 195/266/175 42/265/174
f 48/297/195 206/298/196 398/299/197 216/300/198
f 206/301/196 47/302/199 215/303/200 398/304/197
f 398/304/197 215/303/200 51/305/201 214/306/202
f 216/300/198 398/299/197 214/307/202 52/308/203
f 44/309/89 198/310/204 399/311/205 210/312/206
f 122/313/207 356/314/208 399/311/205 198/310/204
f 43/315/193 209/316/209 399/311/205 356/314/208
f 47/302/199 206/301/196 399/311/205 209/316/209
f 48/297/195 210/317/206 399/318/205 206/298/196
f 41/139/91 196/138/90 400/319/210 207/320/178
f 196/138/90 44/137/89 210/317/206 400/319/210
f 400/319/210 210/317/206 48/297/195 204/321/211
f 207/320/178 400/319/210 204/321/211 45/322/179
f 43/291/193 197/290/192 401/323/212 209/324/209
f 197/290/192 42/265/174 208/268/177 401/323/212
f 401/323/212 208/268/177 46/276/181 205/325/213
f 209/324/209 401/323/212 205/325/213 47/326/199
f 51/305/201 213/327/214 402/328/215 214/306/202
f 213/327/214 50/329/216 211/330/217 402/328/215
f 402/331/215 211/332/217 49/333/218 212/334/219
f 214/307/202 402/331/215 212/334/219 52/308/203
f 45/322/179 204/321/211 403/335/220 217/336/221
f 204/321/211 48/297/195 216/300/198 403/335/220
f 403/335/220 216/300/198 52/308/203 212/334/219
f 217/336/221 403/335/220 212/334/219 49/333/218
f 47/326/199 205/325/213 404/337/222 215/338/200
f 205/325/213 46/276/181 218/339/223 404/337/222
f 404/337/222 218/339/223 50/340/216 213/341/214
f 215/338/200 404/337/222 213/341/214 51/342/201
f 46/276/181 203/275/180 405/343/224 218/339/223
f 203/274/180 45/273/179 217/344/221 405/345/224
f 405/345/224 217/344/221 49/346/218 211/347/217
f 218/339/223 405/343/224 211/348/217 50/340/216
f 54/349/225 219/350/226 406/351/227 221/352/228
f 124/286/188 359/285/187 406/353/227 219/354/226
f 53/284/186 222/355/229 406/353/227 359/285/187
f 55/356/230 357/357/231 406/353/227 222/355/229
f 123/358/232 220/359/233 406/353/227 357/357/231
f 56/360/234 221/352/228 406/351/227 220/361/233
f 122/313/207 198/310/204 407/362/235 358/363/236
f 198/310/204 44/309/89 225/364/237 407/362/235
f 407/362/235 225/364/237 56/365/234 220/359/233
f 358/363/236 407/362/235 220/359/233 123/358/232
f 25/151/102 201/288/190 408/366/238 223/281/185
f 201/288/190 43/291/193 226/367/239 408/366/238
f 408/368/238 226/369/239 55/356/230 222/355/229
f 223/281/185 408/366/238 222/370/229 53/371/186
f 44/137/89 199/136/88 409/372/240 225/373/237
f 199/136/88 26/135/87 224/374/241 409/372/240
f 409/372/240 224/374/241 54/349/225 221/352/228
f 225/373/237 409/372/240 221/352/228 56/360/234
f 15/83/47 147/375/242 410/376/243 243/377/244
f 57/84/48 231/378/245 410/376/243 147/375/242
f 63/379/246 237/380/247 410/376/243 231/378/245
f 61/118/75 297/116/74 410/376/243 237/380/247
f 91/115/73 243/377/244 410/376/243 297/116/74
f 17/381/62 152/382/61 411/383/248 153/384/249
f 152/382/61 18/143/60 230/140/92 411/383/248
f 411/383/248 230/140/92 60/107/67 232/104/64
f 153/384/249 411/383/248 232/104/64 59/103/63
f 15/83/47 146/81/46 412/385/250 147/375/242
f 146/81/46 16/80/45 228/147/98 412/385/250
f 412/385/250 228/147/98 58/88/52 233/85/49
f 147/375/242 412/385/250 233/85/49 57/84/48
f 14/109/43 154/108/68 413/386/251 159/127/80
f 154/108/68 60/107/67 234/142/94 413/386/251
f 413/386/251 234/142/94 26/135/87 158/132/84
f 159/127/80 413/386/251 158/132/84 21/128/81
f 20/90/54 148/89/53 414/387/252 162/154/104
f 148/89/53 58/88/52 235/149/100 414/387/252
f 414/387/252 235/149/100 25/151/102 156/186/126
f 162/154/104 414/387/252 156/186/126 24/156/105
f 65/388/253 238/389/254 415/390/255 242/391/256
f 238/389/254 64/392/257 256/393/258 415/390/255
f 415/390/255 256/393/258 70/394/259 250/395/260
f 242/391/256 415/390/255 250/395/260 71/396/261
f 63/379/246 240/397/262 416/398/263 255/399/264
f 240/397/262 65/400/253 242/401/256 416/398/263
f 416/398/263 242/401/256 71/402/261 252/403/265
f 255/399/264 416/398/263 252/403/265 69/404/266
f 59/103/63 229/106/66 417/405/267 245/406/268
f 13/70/39 244/407/269 417/405/267 229/106/66
f 92/408/69 298/409/72 417/405/267 244/407/269
f 62/410/77 241/411/270 417/405/267 298/409/72
f 66/412/271 245/406/268 417/405/267 241/411/270
f 57/84/48 227/87/51 418/413/272 231/378/245
f 19/92/56 300/414/273 418/413/272 227/87/51
f 93/415/274 246/416/275 418/413/272 300/414/273
f 65/400/253 240/397/262 418/413/272 246/416/275
f 63/379/246 231/378/245 418/413/272 240/397/262
f 93/415/274 302/417/276 419/418/277 246/416/275
f 302/419/276 94/420/278 247/421/279 419/422/277
f 419/422/277 247/421/279 64/392/257 238/389/254
f 246/423/275 419/422/277 238/389/254 65/388/253
f 17/381/62 153/384/249 420/424/280 301/425/281
f 59/103/63 245/406/268 420/424/280 153/384/249
f 66/412/271 239/426/282 420/424/280 245/406/268
f 64/427/257 247/428/279 420/424/280 239/426/282
f 94/429/278 301/425/281 420/424/280 247/428/279
f 70/430/259 251/431/283 421/432/284 286/433/285
f 251/431/283 72/434/286 285/435/287 421/432/284
f 421/432/284 285/435/287 86/436/288 282/437/289
f 286/433/285 421/432/284 282/437/289 84/438/290
f 68/439/291 248/440/292 422/441/293 265/442/294
f 248/443/292 67/444/295 264/445/296 422/446/293
f 422/446/293 264/445/296 73/447/297 260/448/298
f 265/449/294 422/450/293 260/451/298 74/452/299
f 62/410/77 236/453/76 423/454/300 258/455/301
f 236/119/76 61/118/75 257/456/302 423/457/300
f 423/457/300 257/456/302 67/444/295 248/443/292
f 258/455/301 423/454/300 248/440/292 68/439/291
f 66/412/271 241/411/270 424/458/303 259/459/304
f 241/411/270 62/410/77 258/455/301 424/458/303
f 424/458/303 258/455/301 68/439/291 253/460/305
f 259/459/304 424/458/303 253/460/305 72/434/286
f 64/427/257 239/426/282 425/461/306 256/462/258
f 239/426/282 66/412/271 259/459/304 425/461/306
f 425/461/306 259/459/304 72/434/286 251/431/283
f 256/462/258 425/461/306 251/431/283 70/430/259
f 61/118/75 237/380/247 426/463/307 257/456/302
f 237/380/247 63/379/246 255/399/264 426/463/307
f 426/463/307 255/399/264 69/404/266 249/464/308
f 257/456/302 426/463/307 249/464/308 67/444/295
f 76/465/309 262/466/310 427/467/311 278/468/312
f 262/466/310 74/469/299 277/470/313 427/467/311
f 427/467/311 277/470/313 80/471/314 275/472/315
f 278/468/312 427/467/311 275/472/315 82/473/316
f 68/439/291 265/442/294 428/474/317 271/475/318
f 265/442/294 74/469/299 262/466/310 428/474/317
f 428/474/317 262/466/310 76/465/309 268/476/319
f 271/475/318 428/474/317 268/476/319 77/477/320
f 67/444/295 249/464/308 429/478/321 272/479/322
f 69/404/266 269/480/323 429/478/321 249/464/308
f 78/481/324 272/479/322 429/478/321 269/480/323
f 78/482/324 270/483/325 430/484/326 267/485/327
f 270/483/325 77/486/320 268/487/319 430/484/326
f 430/484/326 268/487/319 76/488/309 263/489/328
f 267/485/327 430/484/326 263/489/328 75/490/329
f 69/404/266 254/491/330 431/492/331 269/480/323
f 254/493/330 72/494/286 266/495/332 431/496/331
f 431/496/331 266/495/332 77/497/320 270/498/325
f 269/480/323 431/492/331 270/499/325 78/481/324
f 72/434/286 253/460/305 432/500/333 266/501/332
f 68/439/291 271/475/318 432/500/333 253/460/305
f 77/477/320 266/501/332 432/500/333 271/475/318
f 73/447/297 264/445/296 433/502/334 261/503/335
f 264/445/296 67/444/295 272/479/322 433/502/334
f 433/502/334 272/479/322 78/481/324 267/504/327
f 261/503/335 433/502/334 267/504/327 75/505/329
f 79/506/336 274/507/337 434/508/338 273/509/339
f 274/507/337 81/510/340 276/511/341 434/508/338
f 434/512/338 276/513/341 82/514/316 275/515/315
f 273/516/339 434/512/338 275/515/315 80/517/314
f 74/452/299 260/451/298 435/518/342 277/519/313
f 260/448/298 73/447/297 279/520/343 435/521/342
f 435/518/342 279/522/343 79/523/336 273/516/339
f 277/519/313 435/518/342 273/516/339 80/517/314
f 75/490/329 263/489/328 436/524/344 280/525/345
f 263/489/328 76/488/309 278/526/312 436/524/344
f 436/524/344 278/526/312 82/527/316 276/528/341
f 280/525/345 436/524/344 276/528/341 81/529/340
f 73/447/297 261/503/335 437/530/346 279/520/343
f 261/503/335 75/505/329 280/531/345 437/530/346
f 437/530/346 280/531/345 81/510/340 274/507/337
f 279/520/343 437/530/346 274/507/337 79/506/336
f 85/532/347 281/533/348 438/534/349 294/535/350
f 281/533/348 84/536/290 293/537/351 438/534/349
f 438/534/349 293/537/351 88/538/352 289/539/353
f 294/535/350 438/534/349 289/539/353 89/540/354
f 72/494/286 254/493/330 439/541/355 285/542/287
f 254/493/330 69/543/266 287/544/356 439/541/355
f 439/545/355 287/546/356 83/547/357 284/548/358
f 285/542/287 439/541/355 284/549/358 86/550/288
f 69/404/266 252/403/265 440/551/359 287/546/356
f 252/403/265 71/402/261 288/552/360 440/551/359
f 440/551/359 288/552/360 85/553/347 283/554/361
f 287/546/356 440/551/359 283/554/361 83/547/357
f 71/396/261 250/395/260 441/555/362 288/556/360
f 250/395/260 70/394/259 286/557/285 441/555/362
f 441/555/362 286/557/285 84/536/290 281/533/348
f 288/556/360 441/555/362 281/533/348 85/532/347
f 87/558/363 291/559/364 442/560/365 292/561/366
f 291/559/364 89/562/354 289/563/353 442/560/365
f 442/564/365 289/539/353 88/538/352 290/565/367
f 292/566/366 442/567/365 290/568/367 90/569/368
f 86/550/288 284/549/358 443/570/369 296/571/370
f 284/548/358 83/547/357 295/572/371 443/573/369
f 443/573/369 295/572/371 87/558/363 292/561/366
f 296/571/370 443/570/369 292/566/366 90/569/368
f 84/438/290 282/437/289 444/574/372 293/575/351
f 282/437/289 86/436/288 296/576/370 444/574/372
f 444/574/372 296/576/370 90/577/368 290/578/367
f 293/575/351 444/574/372 290/578/367 88/579/352
f 83/547/357 283/554/361 445/580/373 295/572/371
f 283/554/361 85/553/347 294/581/350 445/580/373
f 445/580/373 294/581/350 89/562/354 291/559/364
f 295/572/371 445/580/373 291/559/364 87/558/363
f 15/83/47 243/377/244 446/582/374 332/583/375
f 243/377/244 91/115/73 331/584/376 446/582/374
f 446/582/374 331/584/376 109/585/377 328/586/378
f 332/583/375 446/582/374 328/586/378 108/587/379
f 19/92/56 150/588/58 447/589/380 308/590/381
f 150/591/58 17/381/62 307/592/382 447/593/380
f 447/593/380 307/592/382 95/594/383 303/595/384
f 308/590/381 447/589/380 303/596/384 96/597/385
f 98/598/386 306/599/387 448/600/388 316/601/389
f 306/602/387 97/603/390 315/604/391 448/605/388
f 448/605/388 315/604/391 101/606/392 314/607/393
f 316/601/389 448/600/388 314/608/393 102/609/394
f 94/610/278 302/611/276 449/612/395 310/613/396
f 302/417/276 93/415/274 309/614/397 449/615/395
f 449/615/395 309/614/397 97/603/390 306/602/387
f 310/613/396 449/612/395 306/599/387 98/598/386
f 93/415/274 300/414/273 450/616/398 309/614/397
f 300/414/273 19/92/56 308/590/381 450/616/398
f 450/616/398 308/590/381 96/597/385 304/617/399
f 309/614/397 450/616/398 304/617/399 97/603/390
f 17/381/62 301/425/281 451/618/400 307/592/382
f 301/425/281 94/429/278 310/619/396 451/618/400
f 451/618/400 310/619/396 98/620/386 305/621/401
f 307/592/382 451/618/400 305/621/401 95/594/383
f 99/622/402 313/623/403 452/624/404 324/625/405
f 313/623/403 102/626/394 323/627/406 452/624/404
f 452/624/404 323/627/406 106/628/407 321/629/408
f 324/625/405 452/624/404 321/629/408 103/630/409
f 97/603/390 304/617/399 453/631/410 315/604/391
f 304/617/399 96/597/385 317/632/411 453/631/410
f 453/631/410 317/632/411 100/633/412 312/634/413
f 315/604/391 453/631/410 312/634/413 101/606/392
f 95/594/383 305/621/401 454/635/414 318/636/415
f 305/621/401 98/620/386 316/637/389 454/635/414
f 454/635/414 316/637/389 102/626/394 313/623/403
f 318/636/415 454/635/414 313/623/403 99/622/402
f 96/597/385 303/596/384 455/638/416 317/632/411
f 303/595/384 95/594/383 318/636/415 455/639/416
f 455/639/416 318/636/415 99/622/402 311/640/417
f 317/632/411 455/638/416 311/641/417 100/633/412
f 104/642/418 319/643/419 456/644/420 320/645/421
f 319/643/419 103/646/409 321/647/408 456/644/420
f 456/644/420 321/647/408 106/648/407 322/649/422
f 320/645/421 456/644/420 322/649/422 105/650/423
f 100/633/412 311/641/417 457/651/424 325/652/425
f 311/640/417 99/622/402 324/625/405 457/653/424
f 457/653/424 324/625/405 103/630/409 319/654/419
f 325/655/425 457/656/424 319/643/419 104/642/418
f 102/609/394 314/608/393 458/657/426 323/658/406
f 314/607/393 101/606/392 326/659/427 458/660/426
f 458/660/426 326/659/427 105/661/423 322/662/422
f 323/663/406 458/664/426 322/649/422 106/648/407
f 101/606/392 312/634/413 459/665/428 326/659/427
f 312/634/413 100/633/412 325/652/425 459/665/428
f 459/665/428 325/652/425 104/666/418 320/667/421
f 326/659/427 459/665/428 320/667/421 105/661/423
f 110/668/429 329/669/430 460/670/431 340/671/432
f 329/669/430 107/672/433 339/673/434 460/670/431
f 460/670/431 339/673/434 111/674/435 337/675/436
f 340/671/432 460/670/431 337/675/436 114/676/437
f 92/408/69 244/407/269 461/677/438 334/678/439
f 244/407/269 13/70/39 333/679/440 461/677/438
f 461/677/438 333/679/440 107/672/433 329/669/430
f 334/678/439 461/677/438 329/669/430 110/668/429
f 91/115/73 299/114/70 462/680/441 331/584/376
f 299/111/70 92/110/69 334/681/439 462/682/441
f 462/683/441 334/678/439 110/668/429 330/684/442
f 331/584/376 462/680/441 330/685/442 109/585/377
f 13/70/39 143/73/42 463/686/443 333/679/440
f 143/82/42 15/83/47 332/583/375 463/687/443
f 463/688/443 332/689/375 108/690/379 327/691/444
f 333/679/440 463/686/443 327/692/444 107/672/433
f 113/693/445 338/694/446 464/695/447 348/696/448
f 338/697/446 114/698/437 347/699/449 464/700/447
f 464/700/447 347/699/449 118/701/450 346/702/451
f 348/696/448 464/695/447 346/703/451 117/704/452
f 107/672/433 327/692/444 465/705/453 339/673/434
f 327/706/444 108/587/379 341/707/454 465/708/453
f 465/708/453 341/707/454 112/709/455 335/710/456
f 339/673/434 465/705/453 335/711/456 111/674/435
f 109/585/377 330/685/442 466/712/457 342/713/458
f 330/714/442 110/715/429 340/716/432 466/717/457
f 466/717/457 340/716/432 114/698/437 338/697/446
f 342/713/458 466/712/457 338/694/446 113/693/445
f 108/587/379 328/586/378 467/718/459 341/707/454
f 328/586/378 109/585/377 342/713/458 467/718/459
f 467/718/459 342/713/458 113/693/445 336/719/460
f 341/707/454 467/718/459 336/719/460 112/709/455
f 115/720/461 343/721/462 468/722/463 345/723/464
f 343/724/462 116/725/465 344/726/466 468/727/463
f 468/727/463 344/726/466 117/704/452 346/703/451
f 345/728/464 468/729/463 346/702/451 118/701/450
f 112/709/455 336/719/460 469/730/467 349/731/468
f 336/719/460 113/693/445 348/696/448 469/730/467
f 469/730/467 348/696/448 117/704/452 344/726/466
f 349/731/468 469/730/467 344/726/466 116/725/465
f 114/676/437 337/675/436 470/732/469 347/733/449
f 337/675/436 111/674/435 350/734/470 470/732/469
f 470/732/469 350/734/470 115/720/461 345/723/464
f 347/733/449 470/732/469 345/723/464 118/735/450
f 111/674/435 335/711/456 471/736/471 350/734/470
f 335/710/456 112/709/455 349/731/468 471/737/471
f 471/738/471 349/739/468 116/740/465 343/741/462
f 350/734/470 471/736/471 343/721/462 115/720/461
f 29/189/129 352/742/472 472/743/473 194/261/173
f 352/744/472 120/199/136 354/256/171 472/745/473
f 472/745/473 354/256/171 121/243/164 353/240/161
f 194/261/173 472/743/473 353/746/161 37/262/160
f 25/747/102 351/277/182 473/748/474 173/749/128
f 351/277/182 119/191/131 355/194/134 473/748/474
f 473/748/474 355/194/134 120/199/136 352/744/472
f 173/749/128 473/748/474 352/744/472 29/750/129
f 43/315/193 356/314/208 474/751/475 226/369/239
f 356/314/208 122/313/207 358/363/236 474/751/475
f 474/751/475 358/363/236 123/358/232 357/357/231
f 226/369/239 474/751/475 357/357/231 55/356/230
f 26/135/87 165/195/132 475/752/476 224/374/241
f 165/192/132 119/191/131 360/279/184 475/753/476
f 475/753/476 360/279/184 124/286/188 219/354/226
f 224/374/241 475/752/476 219/350/226 54/349/225
f 133/41/28 130/40/28 126/43/28
f 142/38/28 12/754/28 139/35/28
f 126/43/28 2/755/28 142/38/28
f 126/43/28 142/38/28 136/37/28
usemtl Leaf
f 509/756/477 513/757/478 479/758/479 481/759/480
f 510/760/481 509/756/477 481/759/480 478/761/482
f 481/759/480 479/758/479 483/762/483 484/763/484
f 478/761/482 481/759/480 484/763/484 482/764/485
f 484/763/484 483/762/483 486/765/486 487/766/487
f 482/764/485 484/763/484 487/766/487 485/767/488
f 487/766/487 486/765/486 488/768/489
f 485/767/488 487/766/487 488/768/489
f 510/760/481 478/761/482 490/769/490 511/770/491
f 511/770/491 490/769/490 492/771/492 512/772/493
f 512/772/493 492/771/492 493/773/494
f 513/757/478 477/774/495 494/775/496 514/776/497
f 514/776/497 494/775/496 496/777/498 515/778/499
f 506/779/500 521/780/501 508/781/502
f 516/782/503 476/783/504 499/784/505 517/785/506
f 517/786/506 499/787/505 501/788/507 518/789/508
f 519/790/509 480/791/510 505/792/511 520/793/512
f 520/793/512 505/792/511 507/794/513 521/780/501
f 521/780/501 507/794/513 508/781/502
f 489/795/514 511/796/491 512/797/493 491/798/515
f 476/783/504 510/760/481 511/770/491 489/799/514
f 495/800/516 514/776/497 515/778/499 497/801/517
f 479/758/479 513/757/478 514/776/497 495/800/516
f 500/802/518 517/785/506 518/803/508 502/804/519
f 480/791/510 516/782/503 517/785/506 500/802/518
f 504/805/520 520/793/512 521/780/501 506/779/500
f 477/774/495 519/790/509 520/793/512 504/805/520
f 516/782/503 480/791/510 509/756/477
f 519/790/509 477/774/495 513/757/478 509/756/477
f 476/783/504 516/782/503 509/756/477 510/760/481
f 480/791/510 519/790/509 509/756/477
f 502/804/519 518/803/508 503/806/521
f 497/801/517 515/778/499 498/807/522
f 491/798/515 512/797/493 493/808/494
f 503/809/521 518/789/508 501/788/507
f 498/810/522 515/811/499 496/812/498
usemtl Black
f 522/813/523 523/814/523 525/815/523 524/816/523
f 524/817/524 525/818/524 527/819/524 526/820/524
f 526/820/525 527/819/525 529/821/525 528/822/525
f 528/822/526 529/821/526 531/823/526 530/824/526
f 530/825/527 531/826/527 533/827/527 532/828/527
f 532/828/528 533/827/528 535/829/528 534/830/528
f 534/831/529 535/832/529 537/833/529 536/834/529
f 536/834/530 537/833/530 539/835/530 538/836/530
f 525/837/531 523/838/531 541/839/531 539/840/531 537/841/531 535/842/531 533/843/531 531/844/531 529/845/531 527/846/531
f 538/836/532 539/835/532 541/847/532 540/848/532
f 540/849/533 541/850/533 523/814/533 522/813/533
f 522/851/534 524/852/534 526/853/534 528/854/534 530/855/534 532/856/534 534/857/534 536/858/534 538/859/534 540/860/534
f 542/861/535 543/862/535 554/863/535 553/864/535 557/865/535
f 542/866/536 544/867/536 555/868/536 543/869/536
f 545/870/537 547/871/537 544/867/537 542/866/537
f 546/872/538 548/873/538 547/874/538 545/875/538
f 544/876/539 547/877/539 548/878/539 549/879/539 556/880/539
f 550/881/540 549/882/540 548/873/540 546/872/540
f 554/883/541 552/884/541 551/885/541 553/886/541
f 543/869/542 555/868/542 552/887/542 554/888/542
f 555/889/543 544/876/543 556/880/543 551/890/543 552/891/543
f 545/892/544 542/861/544 557/865/544 550/893/544 546/894/544
f 558/895/545 559/896/545 576/897/545 575/898/545 570/899/545 569/900/545 568/901/545 567/902/545 562/903/545 561/904/545
f 558/905/546 560/906/546 577/907/546 559/908/546
f 561/909/547 563/910/547 560/906/547 558/905/547
f 562/911/548 564/912/548 563/913/548 561/914/548
f 577/915/549 560/916/549 563/917/549 564/918/549 565/919/549 566/920/549 571/921/549 572/922/549 573/923/549 574/924/549
f 567/925/550 565/926/550 564/912/550 562/911/550
f 568/927/551 566/928/551 565/926/551 567/925/551
f 569/929/552 571/930/552 566/931/552 568/932/552
f 570/933/553 572/934/553 571/930/553 569/929/553
f 575/935/554 573/936/554 572/934/554 570/933/554
f 576/937/555 574/938/555 573/939/555 575/940/555
f 559/908/556 577/907/556 574/941/556 576/942/556
f 578/943/557 579/944/557 596/945/557 595/946/557 590/947/557 589/948/557 588/949/557 587/950/557 582/951/557 581/952/557
f 578/953/558 580/954/558 597/955/558 579/956/558
f 581/957/559 583/958/559 580/954/559 578/953/559
f 582/959/560 584/960/560 583/961/560 581/962/560
f 597/963/561 580/964/561 583/965/561 584/966/561 585/967/561 586/968/561 591/969/561 592/970/561 593/971/561 594/972/561
f 587/973/562 585/974/562 584/960/562 582/959/562
f 588/975/563 586/976/563 585/974/563 587/973/563
f 589/977/564 591/978/564 586/979/564 588/980/564
f 590/981/565 592/982/565 591/978/565 589/977/565
f 595/983/566 593/984/566 592/985/566 590/986/566
f 596/987/567 594/988/567 593/984/567 595/983/567
f 579/956/568 597/955/568 594/989/568 596/990/568
f 598/991/569 599/992/569 616/993/569 615/994/569 610/995/569 609/996/569 608/997/569 607/998/569 602/999/569 601/1000/569
f 598/1001/570 600/1002/570 617/1003/570 599/1004/570
f 601/1005/571 603/1006/571 600/1002/571 598/1001/571
f 602/1007/572 604/1008/572 603/1009/572 601/1010/572
f 617/1011/573 600/1012/573 603/1013/573 604/1014/573 605/1015/573 606/1016/573 611/1017/573 612/1018/573 613/1019/573 614/1020/573
f 607/1021/574 605/1022/574 604/1008/574 602/1007/574
f 608/1023/575 606/1024/575 605/1022/575 607/1021/575
f 609/1025/576 611/1026/576 606/1027/576 608/1028/576
f 610/1029/577 612/1030/577 611/1026/577 609/1025/577
f 615/1031/578 613/1032/578 612/1033/578 610/1034/578
f 616/1035/579 614/1036/579 613/1032/579 615/1031/579
f 599/1037/580 617/1038/580 614/1036/580 616/1035/580
